<svg width="242" height="230" viewBox="0 0 242 230" fill="none" xmlns="http://www.w3.org/2000/svg">
<rect width="242" height="220" rx="18" fill="#F1F5F9"/>
<path d="M214.225 151.484C214.816 151.244 215.421 151.045 216.042 150.878C216.699 150.702 217.377 150.582 218.059 150.517C218.793 150.453 219.538 150.453 220.271 150.517C221.093 150.596 221.904 150.753 222.694 150.98C223.762 151.267 224.768 151.706 225.681 152.28C226.482 152.785 227.165 153.428 227.688 154.173C228.181 154.885 228.489 155.686 228.597 156.519C228.704 157.416 228.597 158.328 228.294 159.188C228.042 159.993 227.621 160.748 227.057 161.409C226.585 161.955 226.02 162.437 225.384 162.83C224.804 163.186 224.177 163.478 223.52 163.7L221.703 164.297C221.185 164.468 220.677 164.667 220.189 164.893C219.779 165.079 219.44 165.379 219.235 165.749L217.895 168.22L214.574 167.295L215.226 164.292C215.308 163.764 215.58 163.279 215.996 162.904C216.412 162.543 216.894 162.247 217.418 162.029C217.998 161.789 218.593 161.581 219.199 161.409C219.83 161.229 220.451 161.011 221.046 160.752C221.632 160.498 222.171 160.169 222.648 159.771C223.146 159.332 223.51 158.786 223.7 158.18C223.844 157.786 223.885 157.365 223.823 156.954C223.762 156.569 223.613 156.204 223.382 155.875C223.13 155.528 222.812 155.232 222.437 154.996C222.017 154.737 221.555 154.538 221.067 154.404C220.425 154.214 219.758 154.108 219.086 154.099C218.583 154.099 218.08 154.14 217.587 154.233C217.161 154.316 216.802 154.395 216.499 154.473C216.258 154.552 215.996 154.566 215.75 154.51C215.313 154.413 214.98 154.094 214.903 153.691L214.225 151.484ZM211.495 171.57C211.613 171.209 211.813 170.876 212.08 170.585C212.583 170.016 213.327 169.659 214.133 169.595C214.985 169.516 215.837 169.752 216.494 170.247C216.802 170.483 217.053 170.765 217.248 171.08C217.644 171.741 217.726 172.514 217.479 173.231C217.361 173.597 217.156 173.939 216.879 174.226C216.622 174.504 216.304 174.731 215.95 174.897C215.596 175.059 215.206 175.161 214.81 175.193C214.39 175.23 213.964 175.193 213.563 175.073C213.158 174.962 212.778 174.781 212.444 174.541C212.131 174.314 211.875 174.036 211.69 173.717C211.505 173.398 211.387 173.051 211.351 172.695C211.315 172.315 211.366 171.931 211.495 171.57Z" fill="#E0E0E0"/>
<path d="M222.233 85.479C221.848 85.6733 221.443 85.8445 221.032 85.9926C220.596 86.1499 220.144 86.2702 219.682 86.3489C219.184 86.4368 218.681 86.4738 218.178 86.4692C217.614 86.4646 217.049 86.4044 216.495 86.298C215.745 86.1638 215.032 85.9186 214.37 85.5762C213.79 85.2754 213.282 84.8775 212.876 84.3963C212.491 83.9382 212.23 83.4061 212.101 82.8462C211.963 82.2355 211.973 81.6016 212.127 80.9954C212.245 80.4309 212.481 79.8942 212.82 79.413C213.102 79.0151 213.446 78.6588 213.846 78.3534C214.216 78.0804 214.626 77.8444 215.058 77.6593L216.259 77.1504C216.602 77.0069 216.931 76.845 217.249 76.6645C217.516 76.5165 217.727 76.2898 217.839 76.026L218.589 74.2677L220.929 74.7305L220.683 76.808C220.662 77.1735 220.514 77.5205 220.252 77.8028C219.995 78.0712 219.687 78.2979 219.343 78.4737C218.963 78.6727 218.573 78.8439 218.168 78.9966C217.747 79.1492 217.342 79.3343 216.957 79.5472C216.572 79.7508 216.228 80.0052 215.93 80.3014C215.617 80.6253 215.407 81.0186 215.319 81.4442C215.17 81.9856 215.309 82.5547 215.689 82.9943C215.884 83.2164 216.125 83.4015 216.397 83.5403C216.7 83.6976 217.028 83.8087 217.367 83.8734C217.814 83.966 218.276 83.9984 218.738 83.9706C219.087 83.9475 219.431 83.8919 219.764 83.7994C220.052 83.7207 220.277 83.6467 220.493 83.5727C220.652 83.5079 220.832 83.4848 221.006 83.5079C221.309 83.5495 221.561 83.7531 221.638 84.0215L222.233 85.479ZM222.746 71.635C222.69 71.8895 222.577 72.1301 222.418 72.3429C222.264 72.5465 222.069 72.7223 221.838 72.8565C221.607 72.9907 221.35 73.0832 221.078 73.1295C220.791 73.1804 220.498 73.1804 220.211 73.1295C219.928 73.0786 219.662 72.9722 219.425 72.8241C219.2 72.6807 219.01 72.5002 218.856 72.2966C218.702 72.0884 218.594 71.8571 218.543 71.6118C218.486 71.3574 218.486 71.0936 218.543 70.8391C218.599 70.5846 218.717 70.344 218.886 70.1312C219.046 69.9276 219.241 69.7564 219.472 69.6222C219.703 69.4927 219.964 69.4001 220.231 69.3585C220.514 69.3076 220.806 69.3076 221.088 69.3585C221.376 69.4094 221.643 69.5112 221.884 69.6592C222.115 69.798 222.31 69.9739 222.459 70.1821C222.767 70.6124 222.864 71.1353 222.736 71.6303H222.746V71.635Z" fill="#E0E0E0"/>
<path d="M24.2025 161.017C23.8124 161.211 23.4121 161.382 23.0014 161.53C22.5652 161.683 22.1135 161.803 21.6516 161.882C21.1537 161.965 20.6507 162.007 20.1426 162.007C19.578 162.002 19.0134 161.942 18.4642 161.831C17.7149 161.697 17.0014 161.456 16.3393 161.114C15.7594 160.813 15.2512 160.41 14.8457 159.929C14.4608 159.471 14.1939 158.944 14.0656 158.379C13.9321 157.768 13.9424 157.134 14.0964 156.528C14.2144 155.968 14.4505 155.432 14.7893 154.946C15.0716 154.548 15.4155 154.192 15.8158 153.886C16.1854 153.609 16.596 153.377 17.0322 153.197L18.2281 152.688C18.572 152.544 18.9005 152.383 19.2187 152.197C19.4959 152.049 19.7063 151.827 19.8295 151.559L20.5635 149.815L22.9039 150.277L22.6627 152.359C22.6422 152.72 22.4882 153.072 22.2316 153.35C21.9698 153.618 21.6618 153.849 21.318 154.025C20.9433 154.219 20.5481 154.395 20.1477 154.543C19.7268 154.701 19.3214 154.886 18.9313 155.094C18.5515 155.298 18.2025 155.552 17.9048 155.848C17.5917 156.172 17.3864 156.57 17.2991 156.991C17.2273 157.269 17.2273 157.556 17.2991 157.833C17.3659 158.092 17.4942 158.333 17.6738 158.546C17.8688 158.768 18.1049 158.953 18.377 159.092C18.6798 159.244 19.0083 159.355 19.347 159.42C19.7987 159.517 20.2606 159.55 20.7226 159.522C21.0716 159.494 21.4155 159.439 21.7491 159.351C22.0314 159.268 22.2624 159.194 22.4728 159.124C22.6319 159.055 22.8115 159.032 22.986 159.059C23.294 159.096 23.5404 159.3 23.6174 159.568L24.2025 161.017ZM24.7157 147.173C24.5977 147.668 24.2743 148.107 23.8073 148.394C23.5763 148.528 23.3197 148.621 23.0476 148.667C22.7602 148.718 22.4677 148.718 22.1802 148.667C21.8979 148.612 21.6259 148.505 21.3898 148.357C21.164 148.214 20.9741 148.038 20.8201 147.83C20.6712 147.621 20.5635 147.39 20.5121 147.145C20.4044 146.631 20.5327 146.094 20.8612 145.664C21.0203 145.465 21.2204 145.294 21.4514 145.16C21.9339 144.887 22.5138 144.794 23.0682 144.905C23.3505 144.961 23.6225 145.063 23.8637 145.211C24.3205 145.488 24.6387 145.919 24.7311 146.409C24.7825 146.654 24.7311 146.918 24.7311 147.173H24.7157Z" fill="#E0E0E0"/>
<path d="M12.0977 71.911C12.3286 71.5686 12.5853 71.2401 12.8624 70.9254C13.155 70.5923 13.4783 70.2823 13.8325 70C14.2174 69.7039 14.628 69.4402 15.0694 69.2134C15.557 68.9636 16.0754 68.76 16.6092 68.6073C17.3329 68.3852 18.0874 68.2695 18.8522 68.2695C19.5194 68.2695 20.1815 68.3852 20.7974 68.6166C21.3825 68.8387 21.9112 69.1811 22.3372 69.6067C23.1892 70.5275 23.6409 71.6935 23.6101 72.8919C23.5844 73.3685 23.4766 73.8358 23.2919 74.28C23.1225 74.6918 22.8915 75.0805 22.6143 75.4368L21.8599 76.4177C21.6443 76.6953 21.4492 76.9868 21.2747 77.2876C21.1208 77.5374 21.0643 77.8243 21.1156 78.1066L21.4441 79.9574L19.1704 80.6237L18.226 78.7127C18.0412 78.3888 17.9796 78.0187 18.0463 77.6577C18.1233 77.3061 18.2619 76.9729 18.4621 76.6629C18.6776 76.3252 18.9189 75.9967 19.1858 75.6866C19.4629 75.3627 19.7144 75.0157 19.9351 74.6594C20.1507 74.3124 20.3098 73.933 20.4022 73.5443C20.4946 73.1233 20.4535 72.6837 20.2944 72.2812C20.202 72.0082 20.0429 71.7583 19.8273 71.5501C19.6272 71.3511 19.3808 71.1938 19.1088 71.0874C18.8162 70.981 18.5083 70.9301 18.1952 70.9301C17.8462 70.9301 17.5023 70.981 17.1687 71.0828C16.7324 71.2169 16.3167 71.4067 15.942 71.6519C15.6597 71.8277 15.3979 72.0313 15.1618 72.2534C14.9616 72.4524 14.7974 72.6282 14.6486 72.7762C14.551 72.9058 14.4125 73.0076 14.2482 73.0631C13.9608 73.1603 13.6374 73.0955 13.427 72.8965L12.0977 71.911ZM19.3295 84.1356C19.2422 83.8903 19.2063 83.6312 19.2268 83.3721C19.2474 83.1269 19.3192 82.8863 19.4424 82.6642C19.5707 82.4421 19.7452 82.2477 19.9557 82.0858C20.1764 81.9146 20.433 81.785 20.7102 81.7018C20.9873 81.6185 21.2799 81.5907 21.5673 81.6138C21.8393 81.637 22.1062 81.7018 22.3526 81.8128C22.5989 81.9285 22.8197 82.0858 22.9993 82.2755C23.1892 82.4698 23.3329 82.6966 23.4202 82.9464C23.5126 83.1917 23.5485 83.4554 23.5228 83.7145C23.4972 83.9597 23.415 84.2003 23.2919 84.4178C23.1635 84.6353 22.989 84.8296 22.7786 84.9916C22.5579 85.1628 22.3064 85.2877 22.0292 85.3664C21.7521 85.4496 21.4646 85.482 21.1721 85.4635C20.9001 85.4496 20.6332 85.3849 20.3868 85.2738C20.1456 85.1581 19.93 85.0008 19.7504 84.8111C19.5656 84.6122 19.4219 84.3808 19.3295 84.1356Z" fill="#E0E0E0"/>
<path d="M95.6965 73.8768C95.3885 74.2701 95.0601 74.6495 94.7008 75.0058C94.321 75.3852 93.9052 75.7276 93.4535 76.033C92.9711 76.3615 92.4578 76.6484 91.9138 76.889C91.2979 77.1528 90.6563 77.361 89.9942 77.509C89.1062 77.7219 88.1875 77.8005 87.2688 77.745C86.4629 77.6987 85.6828 77.509 84.9591 77.1851C84.2765 76.8705 83.6759 76.4263 83.2037 75.8803C82.711 75.2881 82.3569 74.6033 82.1772 73.8815C81.9719 73.2198 81.9052 72.5257 81.9873 71.8409C82.0643 71.2718 82.2388 70.7166 82.5006 70.1937C82.7418 69.7171 83.0446 69.2729 83.4039 68.8658L84.3996 67.7414C84.6871 67.4221 84.9488 67.089 85.1849 66.7373C85.3902 66.4505 85.4826 66.1081 85.4467 65.7657L85.2157 63.5031L88.013 62.8692L88.9728 65.2336C89.1678 65.6361 89.2089 66.0849 89.096 66.5152C88.9728 66.9317 88.7726 67.325 88.5057 67.6813C88.2132 68.0745 87.8949 68.4493 87.5459 68.801C87.1866 69.1712 86.853 69.5691 86.5553 69.9809C86.2628 70.3834 86.0421 70.823 85.8932 71.2857C85.7444 71.7854 85.7444 72.3129 85.8932 72.8126C86.0575 73.465 86.5399 74.0156 87.2072 74.3118C87.5459 74.4598 87.9155 74.5477 88.2902 74.5663C88.711 74.5894 89.1319 74.557 89.5374 74.4598C90.0763 74.3488 90.5998 74.1591 91.0772 73.9092C91.4313 73.7195 91.7649 73.4928 92.0677 73.2383C92.3295 73.0162 92.5451 72.8172 92.7196 72.646C92.853 72.498 93.0327 72.3916 93.2328 72.3314C93.587 72.2342 93.9771 72.3314 94.2183 72.5859L95.6965 73.8768ZM88.1105 58.6586C88.1978 58.9593 88.2183 59.274 88.167 59.584C88.1259 59.8801 88.0181 60.1624 87.8488 60.4215C87.6742 60.6759 87.4535 60.898 87.1866 61.0785C86.6221 61.4625 85.9138 61.6291 85.2106 61.5412C84.8821 61.4949 84.569 61.3931 84.2816 61.2451C83.9993 61.0924 83.7478 60.8888 83.5476 60.6528C83.3372 60.403 83.1832 60.1207 83.1011 59.8153C83.0138 59.5146 82.9985 59.1999 83.0498 58.8899C83.1011 58.5938 83.2191 58.3115 83.3885 58.0571C83.563 57.8072 83.7889 57.5851 84.0558 57.4093C84.3329 57.2196 84.6511 57.0854 84.9899 57.0114C85.3235 56.9327 85.6725 56.9188 86.0164 56.9605C86.3449 56.9975 86.658 57.0946 86.9403 57.2473C87.2226 57.4 87.4638 57.6036 87.6588 57.8396C87.8693 58.0848 88.0233 58.3624 88.1105 58.6586Z" fill="#E0E0E0"/>
<path d="M148.648 49.2367C149.069 49.0563 149.5 48.9036 149.941 48.774C150.916 48.464 151.948 48.3298 152.98 48.3761C153.575 48.4085 154.165 48.4964 154.74 48.6398C155.515 48.8203 156.254 49.1118 156.927 49.5005C157.517 49.8475 158.03 50.2963 158.425 50.8192C158.8 51.3189 159.046 51.888 159.149 52.4849C159.252 53.128 159.206 53.7851 159.01 54.4144C158.851 54.9974 158.569 55.5526 158.184 56.0431C157.861 56.4502 157.466 56.8065 157.024 57.1073C156.619 57.3756 156.172 57.6024 155.705 57.7736L154.417 58.2363C154.047 58.3658 153.688 58.5231 153.344 58.699C153.052 58.8424 152.821 59.0691 152.682 59.3421L151.789 61.1559L149.356 60.5683L149.741 58.3936C149.782 58.0095 149.962 57.6533 150.254 57.371C150.542 57.098 150.88 56.8759 151.25 56.7094C151.655 56.5289 152.076 56.3762 152.502 56.242C152.954 56.0986 153.395 55.9274 153.816 55.7238C154.232 55.5248 154.607 55.275 154.94 54.9788C155.289 54.6503 155.531 54.2478 155.649 53.8082C155.741 53.5213 155.762 53.2206 155.705 52.9245C155.649 52.6515 155.531 52.3877 155.351 52.161C155.166 51.9158 154.925 51.7075 154.648 51.5502C154.34 51.3698 154.001 51.2356 153.647 51.1523C153.18 51.0274 152.692 50.9719 152.205 50.9765C151.845 50.9857 151.481 51.032 151.132 51.1107C150.829 51.1801 150.572 51.2448 150.357 51.3096C150.188 51.3698 149.998 51.3883 149.818 51.3559C149.5 51.2957 149.253 51.0736 149.187 50.7868L148.648 49.2367ZM147.252 63.7609C147.329 63.4972 147.462 63.252 147.642 63.0345C147.816 62.8263 148.037 62.6551 148.283 62.5209C149.089 62.1137 150.085 62.1785 150.819 62.6875C151.045 62.8494 151.235 63.0484 151.383 63.2705C151.532 63.4972 151.63 63.747 151.666 64.0062C151.712 64.2745 151.691 64.5521 151.614 64.8159C151.537 65.0796 151.399 65.3295 151.209 65.5423C151.034 65.7459 150.814 65.9171 150.562 66.0467C150.039 66.3104 149.423 66.3798 148.848 66.2318C148.55 66.1623 148.273 66.042 148.027 65.8755C147.796 65.7181 147.601 65.5238 147.457 65.2971C147.313 65.075 147.221 64.8298 147.185 64.5753C147.149 64.3023 147.17 64.0247 147.252 63.7609Z" fill="#E0E0E0"/>
<path d="M217.281 32.5679C217.497 32.0404 217.753 31.5268 218.041 31.0271C218.349 30.4996 218.713 29.9999 219.124 29.5326C219.565 29.0282 220.063 28.5609 220.612 28.1445C221.223 27.6818 221.88 27.2792 222.583 26.9368C223.517 26.4649 224.534 26.1317 225.586 25.9513C226.51 25.794 227.464 25.8032 228.383 25.979C229.261 26.1549 230.087 26.5019 230.795 26.997C231.555 27.5337 232.181 28.2093 232.633 28.9773C233.079 29.676 233.372 30.4487 233.5 31.2446C233.598 31.9062 233.582 32.5818 233.459 33.2388C233.341 33.8403 233.146 34.428 232.869 34.9832C232.597 35.5246 232.356 36.0382 232.104 36.5148C231.883 36.9497 231.699 37.3985 231.545 37.8566C231.406 38.236 231.406 38.6478 231.545 39.0272L232.54 41.5443L229.579 42.9972L227.726 40.5726C227.377 40.1655 227.182 39.6704 227.177 39.1568C227.177 38.6524 227.28 38.1527 227.464 37.6808C227.67 37.1579 227.911 36.6489 228.188 36.1585C228.486 35.6449 228.737 35.1128 228.948 34.5668C229.148 34.0347 229.261 33.4748 229.276 32.9103C229.276 32.3042 229.102 31.7073 228.763 31.1844C228.558 30.8235 228.27 30.5043 227.911 30.259C227.577 30.0323 227.192 29.875 226.787 29.7963C226.356 29.7177 225.909 29.7177 225.478 29.7963C224.996 29.8842 224.534 30.0416 224.102 30.259C223.528 30.532 222.999 30.8744 222.532 31.2862C222.193 31.5962 221.89 31.9386 221.629 32.3042C221.408 32.6281 221.223 32.9057 221.079 33.1463C220.977 33.3499 220.812 33.5164 220.607 33.6368C220.238 33.845 219.771 33.8357 219.411 33.6136L217.281 32.5679ZM230.795 47.8047C230.6 47.4854 230.477 47.1338 230.431 46.7728C230.39 46.4258 230.421 46.0788 230.528 45.7456C230.631 45.4079 230.806 45.0979 231.042 44.8202C231.293 44.5287 231.611 44.2881 231.976 44.1169C232.33 43.9365 232.725 43.8254 233.131 43.793C233.516 43.7607 233.906 43.793 234.28 43.8856C234.655 43.9781 235.004 44.1354 235.307 44.3483C235.938 44.8064 236.344 45.4727 236.436 46.1991C236.472 46.5461 236.436 46.8978 236.323 47.2309C236.21 47.5687 236.025 47.8833 235.779 48.1563C235.528 48.4432 235.209 48.6792 234.85 48.8504C234.491 49.0308 234.096 49.1465 233.69 49.1881C233.31 49.2252 232.92 49.1974 232.551 49.1049C232.176 49.0169 231.827 48.8596 231.524 48.6422C231.227 48.4062 230.975 48.1239 230.795 47.8047Z" fill="#E0E0E0"/>
<path d="M24.8488 50.8617C24.2329 50.945 23.6119 50.9913 22.9857 51.0005C21.6102 51.0237 20.2398 50.8062 18.9566 50.3527C18.2124 50.0936 17.5041 49.7651 16.8368 49.3718C15.9284 48.8628 15.1123 48.2197 14.4348 47.4747C13.8394 46.8177 13.3877 46.0635 13.1157 45.2491C12.8642 44.4718 12.8078 43.6574 12.9412 42.857C13.0952 42.001 13.4442 41.182 13.9677 40.4509C14.4399 39.7522 15.0507 39.1461 15.7744 38.6556C16.3698 38.2577 17.0319 37.9477 17.735 37.7302C18.3766 37.5359 19.0439 37.411 19.7162 37.3601L21.5896 37.2398C22.108 37.2028 22.6213 37.138 23.1294 37.0408C23.5657 36.9621 23.9609 36.7632 24.2586 36.4671L26.2346 34.4913L29.073 36.1293L27.605 38.7482C27.3792 39.2201 26.9891 39.6134 26.4913 39.8679C25.9985 40.0993 25.4699 40.2566 24.9207 40.3306C24.315 40.4232 23.7043 40.4741 23.0883 40.4926C22.4519 40.5111 21.8155 40.5712 21.1842 40.673C20.5682 40.7748 19.9729 40.9553 19.4185 41.2098C18.8283 41.5059 18.3407 41.9362 17.9968 42.459C17.7504 42.7922 17.5913 43.1716 17.5297 43.5649C17.4733 43.9351 17.5092 44.3145 17.6324 44.6708C17.7607 45.0502 17.9763 45.3972 18.2586 45.7026C18.5717 46.045 18.9412 46.3365 19.357 46.5725C19.8959 46.901 20.4861 47.1555 21.1123 47.322C21.5794 47.4423 22.0567 47.5164 22.5392 47.5441C22.9549 47.5673 23.3193 47.5765 23.6221 47.5719C23.8685 47.558 24.1097 47.6089 24.3253 47.7153C24.7051 47.905 24.9207 48.2845 24.8745 48.6731L24.8488 50.8617ZM33.1688 32.8534C32.9532 33.1634 32.6709 33.4271 32.3373 33.6353C32.0293 33.8343 31.6803 33.9777 31.3108 34.0564C30.931 34.1258 30.5409 34.1258 30.1611 34.0564C29.7556 33.9916 29.3706 33.8574 29.0216 33.6585C28.6777 33.4641 28.3801 33.205 28.1542 32.8996C27.9387 32.6128 27.7847 32.2889 27.6923 31.9511C27.5178 31.2432 27.6615 30.5028 28.0978 29.8967C28.3133 29.5867 28.5956 29.3183 28.9344 29.1147C29.2526 28.9204 29.6119 28.7862 29.9917 28.7122C31.1979 28.5086 32.4245 28.962 33.1277 29.8643C33.3484 30.1419 33.5075 30.4566 33.5948 30.7897C33.6718 31.1275 33.6718 31.4791 33.5948 31.8169C33.5281 32.1824 33.3843 32.5341 33.1688 32.8534Z" fill="#E0E0E0"/>
<path d="M65.6747 209.113C65.4489 210.094 65.0075 211.024 64.371 211.847C63.093 213.476 61.4198 214.818 59.4745 215.766C51.0057 220.171 37.2709 220.171 28.8021 215.766C26.8569 214.818 25.1836 213.476 23.9107 211.847C23.2794 211.024 22.8329 210.094 22.6122 209.113C21.8577 205.8 23.9261 202.348 28.8072 199.803C37.276 195.394 51.0109 195.394 59.4797 199.803C64.3608 202.348 66.4292 205.8 65.6747 209.113Z" fill="#E0E0E0"/>
<path d="M181.442 160.087C210.801 175.621 210.606 200.501 181.001 215.659C151.396 230.818 103.601 230.503 74.2427 214.97C44.8843 199.437 45.0793 174.556 74.6841 159.403C104.289 144.249 152.084 144.554 181.442 160.087Z" fill="#E0E0E0"/>
<path d="M82.9587 93.757C67.6735 101.712 45.5273 120.539 45.5273 154.494C45.5273 188.448 63.3253 213.701 97.416 224.96C108.341 228.577 123.216 230.138 137.418 229.511C153.774 228.864 169.523 223.749 182.579 214.844C191.646 208.58 198.333 201.163 202.722 190.859C209.959 171.719 197.013 151.68 179.412 140.228C161.811 128.776 163.941 115.753 151.482 102.203C144.789 94.8949 134.934 88.6835 122.909 87.4777C109.795 86.1571 94.5963 87.697 82.9587 93.757Z" fill="#FF8113"/>
<path opacity="0.6" d="M82.9587 93.757C67.6735 101.712 45.5273 120.539 45.5273 154.494C45.5273 188.448 63.3253 213.701 97.416 224.96C108.341 228.577 123.216 230.138 137.418 229.511C153.774 228.864 169.523 223.749 182.579 214.844C191.646 208.58 198.333 201.163 202.722 190.859C209.959 171.719 197.013 151.68 179.412 140.228C161.811 128.776 163.941 115.753 151.482 102.203C144.789 94.8949 134.934 88.6835 122.909 87.4777C109.795 86.1571 94.5963 87.697 82.9587 93.757Z" fill="white"/>
<path opacity="0.3" d="M192.887 183.347C202.133 174.568 201.734 160.688 191.995 152.352C191.127 151.606 190.195 150.922 189.21 150.301C184.075 146.987 177.503 145.765 171.968 142.993C158.547 136.297 155.936 128.973 144.287 101.685C142.978 98.5685 141.369 95.5671 139.481 92.7015C134.461 89.8776 128.805 88.0925 122.922 87.4818C109.808 86.1612 94.5925 87.701 82.9723 93.7455C78.9252 95.8699 75.1097 98.3336 71.5779 101.105C67.6292 115.679 68.104 139.809 72.539 153.329C75.4339 162.155 79.4405 166.32 79.4405 166.32C64.0974 163.601 51.875 172.934 51.875 172.934C56.2869 171.044 61.8972 170.846 66.6565 171.049C72.62 171.357 78.4909 172.485 84.0782 174.39C89.9085 176.306 92.184 178.837 96.0689 183.06C98.6281 185.826 101.998 187.888 105.79 189.01C110.665 190.451 115.917 190.253 121.006 190.817C126.095 191.38 131.497 192.988 134.323 196.851C135.683 198.714 136.303 200.922 136.899 203.088L140.199 215.026C140.68 216.758 141.178 218.528 142.295 220C145.161 223.784 151.814 224.296 155.785 221.435C157.661 220.078 158.993 218.157 160.996 216.92C164.766 214.551 169.536 215.297 173.792 215.772C176.166 216.038 178.563 216.111 180.948 215.996C181.527 215.626 182.106 215.255 182.685 214.864C187.693 211.476 192.111 207.431 195.782 202.858C194.89 202.002 193.889 201.246 192.806 200.593C190.322 199.058 187.537 197.717 185.91 195.436C181.99 190.013 189.459 186.62 192.887 183.347Z" fill="#FF8113"/>
<path opacity="0.3" d="M152.202 227.688C131.394 229.191 109.937 224.305 92.9318 213.871C65.4995 197.043 53.6303 170.365 59.4954 138.77C64.7062 110.855 80.1651 95.4826 95.7051 89.125C94.8424 89.3338 93.9682 89.5582 93.1286 89.7983C92.2833 90.0385 91.4496 90.2942 90.6274 90.5656H90.5811C89.7647 90.8371 88.9541 91.1242 88.1551 91.4321H88.103C87.2924 91.7453 86.4935 92.0741 85.7118 92.4186C73.1247 100.697 61.9329 115.385 57.6484 138.451C51.6328 170.782 63.7914 198.055 91.8433 215.28C105.455 223.632 121.84 228.486 138.515 229.467C143.124 229.212 147.704 228.617 152.202 227.688Z" fill="#FF8113"/>
<path d="M204.604 68.2146C203.695 68.0111 202.734 68.0267 201.836 68.2721C200.782 68.5696 199.763 68.9611 198.797 69.4413C197.285 70.1198 195.74 70.7462 194.165 71.3204C192.775 71.8423 191.299 72.4217 189.764 72.4061C189.255 72.4061 188.19 72.2495 188.861 71.6544C189.793 70.9237 190.656 70.1198 191.432 69.2534C192.208 68.3712 192.544 67.2333 192.352 66.1215C192.295 65.7875 192.098 65.4847 191.802 65.2707C191.368 65.0045 191.084 65.1924 190.76 65.4273C190.407 65.6622 190.037 65.8814 189.654 66.0798C188.879 66.5078 188.103 66.9358 187.338 67.3743C182.846 69.9267 177.594 71.9311 175.041 76.2478C174.67 76.8741 173.634 79.7711 172.615 84.7977C171.596 89.8243 167.201 102.926 167.201 102.926C167.201 102.926 158.517 93.8121 152.2 86.4993C149.241 82.9917 145.24 80.3192 140.655 78.7898C138.391 78.059 136.069 77.4848 133.707 77.0621L140.024 101.73C140.024 101.73 155.129 116.262 163.762 122.374C171.561 127.892 176.332 125.569 177.797 123.559C180.229 120.224 182.33 118.815 183.841 98.2959C183.969 96.7299 184.061 95.1223 184.171 93.5355C184.554 90.2471 185.607 87.0056 187.142 86.5254C189.984 85.685 192.729 84.5732 195.317 83.2213C197.019 82.3131 198.577 81.2013 199.949 79.9225C200.528 79.4005 201.477 78.6227 201.686 77.8868C201.894 77.1508 201.686 76.2843 202.108 75.5744C202.386 75.0942 202.849 74.7393 203.098 74.2173C203.602 73.1734 203.747 71.8632 204.72 71.0228C205.252 70.5635 206.063 70.2033 206.092 69.5352C206.028 68.9924 205.617 68.5383 205.044 68.366C204.899 68.3086 204.754 68.2564 204.604 68.2146Z" fill="#FFBDA7"/>
<path d="M167.214 102.927C165.286 108.178 165.141 115.12 165.141 115.12C165.141 115.12 163.005 107.108 165.436 101.027L167.214 102.927Z" fill="#F0997A"/>
<path d="M187.152 74.4453C186.19 77.0916 183.377 80.1398 181.715 81.048C181.715 81.048 184.361 80.2025 185.768 78.4696C187.262 76.5697 187.343 75.4944 187.152 74.4453Z" fill="#F0997A"/>
<path d="M133.77 76.3203C142.669 78.1889 146.362 79.4521 150.56 83.6278C154.758 87.8036 167.426 101.97 167.426 101.97L168.329 99.506C168.329 99.506 168.294 104.773 174.229 108.515C180.164 112.258 183.024 110.337 183.024 110.337C183.024 110.337 182.364 114.439 181.379 118.203C180.395 121.966 177.408 126.205 174.177 126.591C170.946 126.977 166.916 125.547 159.83 119.957C152.743 114.366 137.353 101.067 137.353 101.067L133.77 76.3203Z" fill="#E0E0E0"/>
<path opacity="0.1" d="M167.44 101.953C166.253 105.315 164.308 111.463 166.473 115.655C164.082 112.961 164.158 106.86 166.219 100.586L167.44 101.953Z" fill="black"/>
<path d="M158.618 184.021L167.158 171.656L181.054 180.529L161.12 198.344C161.12 198.344 152.232 196.893 151.196 192.566C150.159 188.239 156.019 185.232 158.618 184.021Z" fill="#FFBDA7"/>
<path d="M147.8 188.293C146.932 188.768 146.173 189.394 145.571 190.136C144.905 190.877 144.72 194.724 143.985 196.457C143.25 198.19 142.763 198.628 141.611 200.784C140.326 203.169 138.178 205.273 139.747 211.787C141.333 218.39 144.518 221.605 147.314 223.385C148.362 223.98 149.555 224.335 150.788 224.429C150.788 224.429 154.783 223.416 154.389 221.297C153.996 219.178 147.8 188.293 147.8 188.293Z" fill="#263238"/>
<path d="M164.081 196.592C163.913 197.234 162.801 198.158 162.344 198.68C160.781 200.366 159.912 202.741 159.223 204.824C155.975 214.689 159.912 220.138 153.549 223.432C151.72 224.283 148.142 223.729 143.278 216.97C140.794 213.52 139.839 206.744 141.223 203.821C142.606 200.898 144.286 199.051 145.212 196.79C146.138 194.53 146.196 190.188 147.806 188.308C148.831 187.259 150.11 186.429 151.54 185.887C152.663 185.365 155.06 184.801 156.201 184.321C157.428 183.799 157.996 183.277 158.621 184.028L157.237 185.328C155.049 187.614 155.558 188.011 155.5 189.316C155.443 190.621 154.783 192.067 154.377 193.392C155.917 191.921 156.618 190.584 158.117 190.944C159.513 191.284 159.797 191.252 161.794 193.267C163.792 195.282 164.22 196.018 164.081 196.592Z" fill="#455A64"/>
<path d="M143.27 216.951C140.786 213.501 139.831 206.726 141.215 203.803C141.678 202.837 142.199 201.898 142.778 200.984C142.714 201.183 142.628 201.386 142.581 201.559C142.471 201.945 142.379 202.331 142.298 202.717C141.991 204.215 141.84 205.849 142.413 207.321C142.923 208.621 144.075 211.872 145.939 212.092C146.999 212.212 147.989 211.345 148.499 210.312C148.713 209.873 149.118 208.678 149.118 208.678C150.803 209.169 152.389 209.905 153.814 210.849C156.378 212.687 156.24 213.036 156.24 213.036C156.014 213.73 155.915 214.456 155.944 215.181C156.031 215.964 156.303 216.726 156.749 217.405C156.94 217.614 157.154 217.796 157.392 217.958C157.056 220.265 156.234 222.035 153.541 223.413C151.712 224.263 148.134 223.71 143.27 216.951Z" fill="#37474F"/>
<path d="M159.214 204.813C158.375 207.413 157.883 210.085 157.744 212.789C156.476 215.278 155.584 215.127 155.59 213.791C155.596 212.455 158.097 207.073 160.008 202.621C159.712 203.352 159.452 204.098 159.214 204.813Z" fill="#37474F"/>
<path d="M154.003 188.171C154.003 186.861 154.512 185.588 155.444 184.58C155.722 184.486 155.989 184.398 156.197 184.309C157.425 183.787 157.992 183.265 158.617 184.017L157.234 185.316C155.045 187.602 155.554 187.999 155.497 189.304C155.439 190.609 154.779 192.055 154.373 193.38C152.816 197.65 151.641 199.023 150.703 203.099C149.765 207.176 150.419 210.015 149.753 210.198C149.087 210.38 147.825 209.812 147.906 206.492C147.987 203.172 150.141 197.754 151.536 195.218C152.932 192.681 154.061 189.946 154.003 188.171Z" fill="#37474F"/>
<path d="M148.767 208.939C148.825 209.002 148.9 209.049 148.987 209.07C152.137 209.921 153.775 210.782 155.935 213.501C156.079 213.684 156.363 213.731 156.572 213.6C156.78 213.47 156.826 213.214 156.682 213.026C154.418 210.15 152.629 209.18 149.265 208.282C149.022 208.219 148.767 208.344 148.697 208.564C148.657 208.694 148.686 208.835 148.784 208.939H148.767Z" fill="#EBEBEB"/>
<path d="M149.681 205.551C149.739 205.609 149.814 205.656 149.895 205.682C153.149 206.637 154.909 207.629 157.185 210.494C157.324 210.682 157.602 210.734 157.81 210.614C157.822 210.609 157.827 210.604 157.839 210.593C158.047 210.458 158.1 210.191 157.949 210.003C155.546 206.981 153.636 205.89 150.191 204.878C149.947 204.81 149.693 204.935 149.612 205.149C149.56 205.285 149.589 205.436 149.681 205.551Z" fill="#EBEBEB"/>
<path d="M149.96 201.763C150.024 201.83 150.11 201.877 150.203 201.909C153.787 202.953 155.831 204.153 158.309 207.316C158.488 207.52 158.813 207.556 159.038 207.394C159.253 207.243 159.299 206.972 159.154 206.768C156.514 203.448 154.291 202.133 150.469 201.027C150.197 200.948 149.908 201.079 149.815 201.324C149.78 201.481 149.833 201.648 149.96 201.763Z" fill="#EBEBEB"/>
<path d="M150.906 198.578C150.969 198.645 151.05 198.698 151.143 198.724C154.658 199.768 156.638 200.895 159.104 204.001C159.278 204.199 159.596 204.23 159.811 204.074C160.007 203.933 160.059 203.677 159.926 203.479C157.344 200.222 155.179 198.953 151.456 197.863C151.189 197.784 150.9 197.915 150.813 198.155C150.767 198.301 150.802 198.458 150.906 198.578Z" fill="#EBEBEB"/>
<path d="M152.503 195.532C152.567 195.595 152.648 195.647 152.735 195.678C156.249 196.722 158.229 197.85 160.696 200.955C160.823 201.18 161.136 201.268 161.385 201.148C161.634 201.028 161.732 200.752 161.599 200.527C161.576 200.491 161.553 200.459 161.524 200.428C158.93 197.166 156.776 195.903 153.053 194.812C152.787 194.733 152.497 194.864 152.41 195.104C152.358 195.25 152.393 195.412 152.503 195.527V195.532Z" fill="#EBEBEB"/>
<path d="M162.474 185.363L171.292 193.109L176.37 196.564L169.231 206.534L152.684 197.723L162.474 185.363Z" fill="#FFBDA7"/>
<path d="M147.655 137.125C147.655 137.125 182.701 134.677 197.477 135.925C212.531 137.193 212.971 147.517 208.588 153.473C200.204 164.883 172.615 188.304 172.615 188.304C172.615 188.304 164.51 184.154 162.553 177.369L169.437 165.969L150.909 169.753L142.224 163.453L141.883 159.157L147.655 137.125Z" fill="#455A64"/>
<path d="M147.649 137.129L86.9711 141.404C86.9711 141.404 85.1357 154.265 89.646 166.271C93.5194 176.58 102.963 181.763 110.53 183.433C116.453 184.639 122.445 185.557 128.479 186.179C128.479 186.179 132.85 189.858 137.447 191.92C142.044 193.982 162.112 203.503 162.112 203.503C162.112 203.503 168.394 199.499 168.712 190.146L150.903 169.757C146.925 164.538 145.518 162.815 143.144 161.515C147.168 147.621 147.371 144.447 147.649 137.129Z" fill="#455A64"/>
<path d="M148.212 166.362C150.018 168.648 150.881 169.755 150.881 169.755L153.851 169.128C153.851 169.128 149.219 163.705 146.168 160.808C142.833 157.63 138.062 157.087 133.43 157.416C127.559 157.828 110.543 159.086 110.543 159.086C110.543 159.086 126.755 159.044 135.132 159.41C143.51 159.775 146.4 164.097 148.212 166.362Z" fill="#37474F"/>
<path d="M144.284 145.902C143.937 151.2 140.191 157.14 138.031 158.685L141.505 160.105C141.505 160.105 145.691 152.928 144.284 145.902Z" fill="#37474F"/>
<path d="M173.417 156.115C170.279 159.565 167.366 163.177 164.691 166.93L169.428 165.969C175.704 155.217 177.082 152.049 185.888 147.477C185.888 147.477 179.739 149.032 173.417 156.115Z" fill="#37474F"/>
<path d="M124.694 179.574C124.694 179.574 127.444 183.933 137.264 188.63C142.787 191.271 159.914 198.923 165.194 200.494C164.354 201.637 163.324 202.66 162.131 203.511C162.131 203.511 142.058 194.006 137.466 191.929C136.471 191.47 135.504 190.963 134.572 190.405C134.16 190.165 133.755 189.919 133.367 189.674C132.354 189.032 131.439 188.395 130.681 187.842C129.922 187.289 129.326 186.824 128.944 186.527L128.562 186.213L128.51 186.172C124.358 182.309 124.694 179.574 124.694 179.574Z" fill="#37474F"/>
<path d="M197.608 203.727C201.528 205.486 203.902 207.14 205.563 209.499C207.225 211.859 207.584 214.145 205.563 216.681C203.543 219.218 199.941 222.11 196.068 221.598C192.195 221.087 189.89 220.032 186.445 217.976L197.608 203.727Z" fill="#263238"/>
<path d="M164.828 204.289C164.666 205.38 169.587 207.943 174.7 210.683C180.177 213.591 181.428 215.303 185.892 217.74C190.998 220.522 193.007 220.82 197.246 220.11C201.484 219.4 207.088 214.457 204.025 209.269C201.513 205.041 197.865 203.647 192.295 201.847C187.86 200.458 183.535 198.814 179.343 196.914C175.371 195.15 172.228 192.295 171.29 193.13C171.869 193.433 175.921 196.163 175.047 196.752C174.816 197.071 174.213 196.919 173.194 196.439C172.754 196.189 172.222 196.126 171.724 196.262C171.226 196.507 170.826 196.878 170.566 197.332C169.796 198.376 169.645 199.054 168.991 200.171C168.603 200.824 168.777 200.443 168.412 201.105C168.007 201.847 167.254 202.953 167.254 203.663C167.254 204.091 167.59 204.253 167.931 204.488C168.273 204.723 168.759 205.01 169.089 205.276C169.217 205.385 169.431 205.72 169.338 205.871C169.182 206.132 168.453 205.944 168.18 205.803C167.908 205.662 167.376 205.511 167.022 205.354C166.669 205.198 165.731 204.738 164.828 204.289Z" fill="#455A64"/>
<path d="M184.141 216.786C184.876 217.193 189.519 219.599 191.158 218.503C192.93 217.318 189.247 214.912 189.247 214.912C189.247 214.912 188.975 211.577 193.85 207.083C194.562 207.672 197.747 207.897 197.868 206.206C197.99 204.515 192.854 202.03 192.779 201.988C198.106 203.732 201.591 205.146 204.029 209.254C207.109 214.442 201.487 219.38 197.249 220.095C193.011 220.81 191.002 220.507 185.895 217.725C185.385 217.443 184.586 217.067 184.141 216.786Z" fill="#37474F"/>
<path d="M189.797 214.624C191.754 215.391 190.208 216.936 187.308 216.19C182.954 215.036 179.491 212.479 174.697 210.688C169.585 207.974 164.362 205.417 164.826 204.227C165.752 204.623 167.721 205.552 167.721 205.552C168.108 205.735 169.104 206.163 169.104 206.163C172.995 208.052 177.21 210.934 181.489 212.348C185.241 213.57 187.834 213.857 189.797 214.624Z" fill="#37474F"/>
<path d="M193.493 207.679C191.756 206.567 191.496 205.722 188.016 203.937C184.536 202.152 178.723 198.462 175.134 196.175C173.79 195.215 172.511 194.192 171.289 193.112C171.978 192.516 174.23 193.289 176.413 194.787C178.596 196.285 179.922 197.224 182.105 198.477C186.32 201.238 191.235 203.263 193.632 204.934C196.029 206.604 195.247 208.786 193.493 207.679Z" fill="#37474F"/>
<path d="M193.804 207.258C193.775 207.31 193.735 207.357 193.689 207.399C193.642 207.43 190.475 210.066 189.45 215.186C189.41 215.427 189.173 215.604 188.9 215.599C188.657 215.567 188.489 215.369 188.524 215.15C188.524 215.134 188.53 215.119 188.536 215.103C189.636 209.628 192.953 206.866 193.139 206.72C193.301 206.564 193.573 206.564 193.747 206.71C193.764 206.726 193.775 206.736 193.787 206.752C193.897 206.903 193.909 207.101 193.804 207.258Z" fill="#F0F0F0"/>
<path d="M190.454 204.619C190.425 204.666 190.385 204.713 190.344 204.75C187.745 207.344 185.95 210.507 185.133 213.926C185.087 214.176 184.832 214.349 184.554 214.323C184.311 214.281 184.149 214.067 184.195 213.848C184.195 213.832 184.201 213.816 184.207 213.801C185.047 210.173 186.963 206.812 189.742 204.082C189.898 203.92 190.176 203.904 190.356 204.045C190.373 204.056 190.385 204.071 190.396 204.082C190.535 204.233 190.558 204.447 190.454 204.619Z" fill="#F0F0F0"/>
<path d="M181.653 213.307C181.566 213.464 181.392 213.563 181.196 213.568C180.952 213.553 180.773 213.359 180.79 213.145C180.79 213.13 180.79 213.114 180.796 213.098C181.572 207.279 186.273 202.137 186.487 201.955C186.65 201.798 186.922 201.798 187.095 201.944C187.113 201.96 187.124 201.97 187.136 201.986C187.275 202.195 187.234 202.466 187.037 202.633C186.985 202.67 182.44 207.701 181.722 213.119C181.711 213.187 181.688 213.25 181.653 213.307Z" fill="#F0F0F0"/>
<path d="M178.533 211.143C178.446 211.294 178.273 211.393 178.081 211.398C177.838 211.388 177.653 211.2 177.665 210.981C177.665 210.965 177.665 210.955 177.665 210.939C178.191 206.915 180.276 203.188 183.547 200.406C183.721 200.265 183.987 200.27 184.143 200.427C184.161 200.443 184.178 200.463 184.19 200.479C184.311 200.693 184.253 200.959 184.051 201.116C181.046 203.736 179.118 207.202 178.591 210.944C178.591 211.012 178.562 211.08 178.527 211.143H178.533Z" fill="#F0F0F0"/>
<path d="M174.398 209.169C174.311 209.321 174.143 209.42 173.958 209.425C173.721 209.42 173.529 209.237 173.535 209.023C173.535 209.007 173.535 208.986 173.535 208.971C174.149 202.901 179.325 198.579 179.568 198.406C179.736 198.26 180.003 198.26 180.165 198.406C180.182 198.422 180.199 198.443 180.217 198.464C180.344 198.678 180.292 198.944 180.089 199.106C180.037 199.142 175.035 203.329 174.462 208.966C174.462 209.039 174.433 209.107 174.392 209.169H174.398Z" fill="#EBEBEB"/>
<path d="M144.016 96.6104C144.595 82.0683 141.37 77.7882 133.305 76.3371L119.988 74.0039C115.935 74.4267 97.952 80.1736 93.1928 81.2541C90.1242 81.9535 88.2946 87.5542 86.7892 96.4277C85.5676 103.641 85.6833 109.383 84.977 119.431C84.398 127.85 85.1275 141.51 86.8471 153.411C112.322 162.138 144.126 148.598 147.137 137.585C146.39 134.511 141.521 129.317 141.451 123.252C143.078 110.677 143.831 101.183 144.016 96.6104Z" fill="#263238"/>
<path d="M92.9034 80.9057L107.181 75.7539C107.181 75.7539 108.559 79.7157 111.744 87.3207C114.928 94.9258 114.743 98.2455 113.874 111.013C113.006 123.78 111.842 137.477 117.319 156.08C110.649 156.894 101.577 158.293 85.834 154.514C85.834 154.514 84.097 141.616 84.3113 118.169C84.4213 105.115 85.475 84.0323 92.9034 80.9057Z" fill="#EBEBEB"/>
<path d="M125.898 76.1645C131.422 78.6177 135.058 84.6726 135.649 92.7005C136.239 100.728 135.382 121.017 135.747 127.067C136.112 133.117 142.214 144.96 142.214 144.96C145.098 142.778 147.431 140.064 149.064 137.005C146.198 132.95 143.708 127.438 143.633 122.416C143.558 117.395 145.607 101.538 145.37 95.4096C145.132 89.2816 145.225 80.7944 137.501 77.3911C134.178 75.9139 126.118 74.7812 126.118 74.7812L125.898 76.1645Z" fill="#EBEBEB"/>
<path d="M135.847 97.3175C135.633 91.4246 132.952 80.7142 126.167 78.0418C125.958 77.4363 125.877 76.7995 125.929 76.1627L126.288 73.1406C128.321 73.9705 130.237 75.0092 132.003 76.2358C134.852 78.2349 139.53 84.2687 140.433 88.9088C137.584 86.3512 136.027 90.031 135.847 97.3175Z" fill="#FAFAFA"/>
<path d="M105.932 40.6211C105.932 40.6211 102.967 40.7255 100.889 44.0243C99.8467 45.679 99.0188 48.7221 101.329 57.6322C102.811 63.3738 104.803 65.895 105.631 67.5026C106.21 68.4892 107.182 69.2356 108.352 69.5905L108.433 62.8049L108.346 58.1071C108.346 58.1071 112.706 54.7978 113.204 51.4207C113.852 47.0727 112.046 44.5411 112.046 44.5411L105.932 40.6211Z" fill="#37474F"/>
<path d="M104.898 40.8174C105.79 37.0385 111.325 32.675 121.689 32.5236C130.165 32.3983 135.006 35.1855 137.767 39.7265C140.529 44.2675 138.346 49.9672 138.346 49.9672L111.829 47.5193L104.898 40.8174Z" fill="#37474F"/>
<path d="M101.496 64.5884C105.317 66.4257 107.204 63.7115 107.204 63.7115V78.9216C114.303 88.1812 134.376 85.2165 126.479 78.196L126.624 73.9159C127.753 73.9055 128.882 73.8376 130.005 73.7019C133.577 73.3052 136.542 71.0242 137.532 67.9081C139.269 62.9859 139.5 54.9947 137.769 46.4605C137.433 44.8111 136.727 42.9999 135.088 42.2013C131.035 40.223 127.098 42.7232 121.262 44.5867C118.842 45.3435 113.041 45.521 111.541 44.8215C113.469 46.9094 112.12 52.0299 111.5 53.6532C110.632 55.9916 109.48 57.1086 108.924 57.1921C106.55 57.5627 106.348 55.7254 105.334 54.6919C104.321 53.6584 100.372 52.6458 98.5254 55.8663C96.6553 58.9564 97.9175 62.8294 101.339 64.5153C101.391 64.5414 101.444 64.5675 101.496 64.5884Z" fill="#FFBDA7"/>
<path d="M112.051 69.4141C112.722 72.8746 117.789 75.3121 126.525 75.7871L126.589 73.9185C124.447 73.8246 122.316 73.5792 120.22 73.1826C116.156 72.4362 112.051 69.4141 112.051 69.4141Z" fill="#F0997A"/>
<path d="M122.685 49.2106L118.996 50.0734C118.492 49.6168 118.902 49.062 119.924 48.8104C120.922 48.5793 122.14 48.7443 122.65 49.178C122.661 49.188 122.673 49.2006 122.685 49.2106Z" fill="#37474F"/>
<path d="M133.185 45.957L135.907 47.2862C135.416 47.7854 134.41 47.9227 133.667 47.5951C133.643 47.5826 133.615 47.5733 133.592 47.5608C132.839 47.1832 132.657 46.4781 133.185 45.957Z" fill="#37474F"/>
<path d="M119.397 54.0037C119.35 54.8441 120.074 55.5591 121.006 55.5957C121.938 55.6374 122.732 54.985 122.772 54.1447C122.818 53.3043 122.095 52.5944 121.168 52.5527C120.236 52.5109 119.443 53.1582 119.397 53.9985V54.0037Z" fill="#263238"/>
<path d="M132.569 53.5087C132.522 54.349 133.24 55.0641 134.172 55.1058C135.105 55.1476 135.898 54.5004 135.944 53.66C135.99 52.8197 135.272 52.1046 134.34 52.0628C134.34 52.0628 134.34 52.0628 134.334 52.0628C133.495 51.948 132.713 52.4647 132.586 53.2164C132.569 53.3103 132.563 53.4095 132.569 53.5087Z" fill="#263238"/>
<path d="M126.477 50.7188L126.627 60.6724L132.782 59.4406C131.572 55.479 128.659 52.697 126.477 50.7188Z" fill="#F0997A"/>
<path d="M124.21 63.3465C124.277 63.3887 124.352 63.4137 124.436 63.4214L124.606 63.447L124.572 63.4525C124.634 63.4691 124.699 63.4692 124.762 63.4643C124.785 63.4606 124.8 63.4476 124.814 63.4294C124.816 63.4079 124.812 63.3874 124.802 63.3677C124.792 63.3164 124.764 63.2677 124.712 63.2391C124.633 63.1988 124.546 63.1756 124.46 63.1577L124.252 63.1169C124.215 63.107 124.175 63.1135 124.144 63.1344C124.144 63.1344 124.122 63.2015 124.134 63.2315C124.143 63.2777 124.174 63.3151 124.21 63.3465ZM122.822 64.0579C122.98 64.1438 123.142 64.2184 123.313 64.281C123.656 64.4113 124.011 64.5079 124.376 64.571C124.729 64.6308 125.095 64.6673 125.454 64.6678C125.843 64.7006 126.233 64.6536 126.603 64.5305C126.859 64.4257 126.591 64.1719 126.417 64.1574C125.992 64.1198 125.56 64.1947 125.129 64.1581C124.789 64.1333 124.454 64.0759 124.127 63.9961C123.799 63.9163 123.479 63.8141 123.172 63.6887C122.988 63.6228 122.801 63.5681 122.623 63.5013C122.557 63.4643 122.476 63.4454 122.4 63.447C122.298 63.4636 122.291 63.5177 122.319 63.5981C122.429 63.7977 122.601 63.9555 122.822 64.0579Z" fill="#B16668"/>
<path d="M114.423 99.557C113.965 87.9957 107.892 90.4646 106.317 94.1235C102.305 87.5312 102.913 79.3679 103.191 77.2435C104.638 75.3749 104.87 74.9678 105.506 74.0492C106.363 72.8278 106.485 72.5825 107.209 72.3789V75.7559C107.209 75.7559 108.245 78.0212 111.632 82.5413C114.087 85.8296 114.689 89.8539 114.423 99.557Z" fill="#FAFAFA"/>
<path d="M38.7915 64.8342C39.7295 64.7663 40.6674 64.9281 41.5069 65.304C42.4912 65.7529 43.4234 66.2905 44.2919 66.9064C45.6641 67.799 47.071 68.6446 48.5011 69.4484C49.7806 70.1583 51.1297 70.9569 52.6408 71.1709C53.1503 71.2388 54.2273 71.2492 53.6714 70.5602C52.8898 69.699 52.1834 68.7803 51.5755 67.8094C50.9676 66.8281 50.846 65.6589 51.2397 64.5889C51.3555 64.2652 51.6045 63.999 51.9345 63.832C52.4092 63.6284 52.6582 63.832 52.9361 64.1347C53.2372 64.4218 53.5614 64.6933 53.9088 64.9438C54.5978 65.4658 55.281 66.0191 55.9642 66.5671C59.9303 69.7512 64.7416 72.5072 66.4728 77.1423C66.7218 77.8156 67.2197 80.8274 67.3065 85.9375C67.3934 91.0476 69.2288 103.027 69.2288 103.027C69.2288 103.027 71.7763 100.119 77.9135 92.6657C83.5355 85.8227 85.3014 83.1658 90.1649 81.7617C92.365 81.1301 94.7968 80.629 95.5379 80.4464C99.5908 84.7683 97.1011 99.6967 89.4527 107.02C89.4527 107.02 78.6489 118.973 69.9062 125.252C62.1478 130.817 57.0643 127.533 56.0105 125.336C54.2215 121.682 51.5234 118.028 53.7814 97.5879C53.9436 96.022 54.1462 94.4248 54.3257 92.8432C54.5457 89.5391 54.0941 86.1933 52.6698 85.4886C50.018 84.2359 47.5226 82.7326 45.2125 81.0153C43.7071 79.867 42.3754 78.5412 41.2522 77.0744C40.789 76.4585 39.9842 75.5659 39.8916 74.8091C39.7989 74.0522 40.1579 73.2431 39.8916 72.4654C39.7121 71.9434 39.3126 71.5311 39.1679 70.9778C38.8668 69.8503 38.9594 68.5611 38.1546 67.5902C37.7088 67.0682 36.9967 66.5776 37.0719 65.9199C37.2282 65.3927 37.7204 65.0012 38.3167 64.9229C38.4731 64.8812 38.6294 64.8551 38.7915 64.8342Z" fill="#FFBDA7"/>
<path d="M69.2227 103.029C70.1606 108.494 69.269 116.078 69.269 116.078C69.269 116.078 72.6792 106.813 71.3881 100.477L69.2227 103.029Z" fill="#F0997A"/>
<path d="M54.858 73.5742C55.3269 76.3249 57.5445 79.7489 59.0209 80.8816C59.0209 80.8816 56.5602 79.6497 55.5122 77.7498C54.36 75.6516 54.4816 74.5816 54.858 73.5742Z" fill="#F0997A"/>
<path d="M95.9403 79.8164C91.8874 80.7298 88.1704 81.6433 86.0976 83.1048C84.0248 84.5663 82.6237 86.3044 79.5782 90.0365C76.5328 93.7686 69.446 102.042 69.446 102.042L68.3864 96.8221C68.3864 96.8221 68.5543 99.9904 64.9531 102.757C61.3518 105.523 54.4561 106.724 52.8581 104.709C52.8581 104.709 52.1227 112.732 52.8581 117.602C53.5934 122.471 55.9962 126.84 57.5942 128.328C59.1922 129.816 62.1913 129.956 67.5353 127.284C72.8794 124.612 81.7494 115.926 85.2349 112.283C88.7204 108.639 91.4474 106.421 92.9412 104.171C94.435 101.922 101.858 88.0478 95.9403 79.8164Z" fill="#E0E0E0"/>
<path opacity="0.1" d="M69.4103 102.053C70.4699 106.579 70.3888 112.899 68.7734 116.595C72.4095 110.587 71.6684 103.682 70.9273 100.273L69.4103 102.053Z" fill="black"/>
<path d="M61.459 194.129H26.8242L30.417 207.58C30.6891 209.199 32.0133 210.782 34.3948 212.026C39.784 214.826 48.5146 214.826 53.8987 212.026C56.465 210.689 57.7943 208.958 57.9175 207.209L61.459 194.129Z" fill="#37474F"/>
<path d="M57.2349 203.33C57.9586 202.946 58.6463 202.511 59.2879 202.021L61.2332 194.835C60.222 195.835 59.0415 196.686 57.7327 197.348C50.4239 201.146 38.7421 201.244 31.1613 197.653L32.0441 194.451L31.772 194.113H26.8242L30.417 207.532C30.6891 209.151 32.0133 210.734 34.3948 211.978C38.234 213.972 43.7618 214.542 48.5762 213.69C39.9483 214.273 34.0304 210.872 33.1424 207.735C32.7883 206.486 32.1673 203.714 32.1673 203.714C39.3683 207.041 50.3315 206.912 57.2349 203.33Z" fill="#263238"/>
<path d="M63.261 190.137C63.0609 191.007 62.6657 191.835 62.1011 192.562C60.9719 194.01 59.4834 195.199 57.7589 196.041C50.2396 199.956 38.0497 199.956 30.5561 196.041C28.8316 195.199 27.3431 194.005 26.2088 192.562C25.6494 191.831 25.2593 191.007 25.0591 190.137C24.3919 187.194 26.2293 184.122 30.5613 181.873C38.0805 177.959 50.2704 177.959 57.7897 181.873C62.0908 184.131 63.9283 187.19 63.261 190.137Z" fill="#455A64"/>
<path d="M62.1006 192.561C60.9714 194.01 59.4829 195.199 57.7584 196.041C50.2391 199.955 38.0492 199.955 30.5556 196.041C28.8311 195.199 27.3426 194.005 26.2083 192.561C25.6488 191.83 25.2588 191.007 25.0586 190.137L25.9157 195.43C26.3058 197.558 28.0663 199.631 31.2023 201.265C38.3879 204.989 49.9774 204.989 57.1476 201.265C60.2272 199.65 61.9979 197.605 62.4188 195.504L62.465 195.231L63.2913 190.141C63.0809 191.011 62.6754 191.835 62.1006 192.561Z" fill="#37474F"/>
<path d="M55.491 183.052C49.2241 179.79 39.0667 179.79 32.8049 183.052C29.2583 184.903 27.7237 187.392 28.1856 189.798C28.5449 191.649 30.0847 193.444 32.8049 194.86C39.0667 198.122 49.2292 198.122 55.491 194.86C58.2062 193.444 59.7459 191.644 60.1104 189.803C60.5979 187.392 59.0582 184.898 55.491 183.052Z" fill="#263238"/>
<path d="M29.2422 192.033C30.1815 193.199 31.3979 194.166 32.8042 194.861C39.066 198.123 49.2285 198.123 55.4903 194.861C56.8915 194.166 58.1079 193.199 59.0472 192.033C59.001 190.081 57.5485 188.137 54.6845 186.648C48.8641 183.612 39.4253 183.612 33.6049 186.648C30.7409 188.137 29.2884 190.081 29.2422 192.033Z" fill="#FAFAFA"/>
<path d="M45.3471 185.96C42.4677 185.257 41.9801 179.635 43.5917 173.703C45.1623 167.928 50.1871 159.27 51.2547 159.46C52.3223 159.65 53.6568 169.061 52.9023 175.276C51.9938 182.804 48.2265 186.663 45.3471 185.96Z" fill="#FF8113"/>
<path opacity="0.3" d="M45.3471 185.96C42.4677 185.257 41.9801 179.635 43.5917 173.703C45.1623 167.928 50.1871 159.27 51.2547 159.46C52.3223 159.65 53.6568 169.061 52.9023 175.276C51.9938 182.804 48.2265 186.663 45.3471 185.96Z" fill="black"/>
<path opacity="0.5" d="M46.7425 167.788C47.2558 168.524 47.5791 169.768 48.7956 169.773C49.7656 169.773 50.2738 168.848 51.1463 168.635C51.8443 168.542 52.5526 168.732 53.0762 169.158C53.0762 168.931 53.0762 168.695 53.0454 168.482C52.5629 168.153 51.9829 167.968 51.3773 167.95C50.8537 168.001 50.3661 168.2 49.9812 168.519C49.5347 168.834 48.9855 169.31 48.3644 169.079C47.7434 168.848 47.4662 168.029 47.1069 167.496C46.917 167.21 46.6553 166.964 46.3422 166.784C46.2601 166.946 46.1831 167.103 46.1061 167.247C46.373 167.372 46.5886 167.557 46.7425 167.788ZM50.1608 165.474C50.5714 165.299 50.8127 164.928 51.1309 164.651C51.5261 164.308 52.1061 164.207 52.6142 164.392L52.6655 164.415C52.6655 164.216 52.6091 164.017 52.5834 163.827C52.4962 163.799 52.3986 163.776 52.3063 163.767C51.8854 163.702 51.4543 163.786 51.1052 164.003C50.7049 164.258 50.4842 164.702 50.0787 164.928C49.3242 165.331 48.7237 164.595 48.503 164.04C48.4004 163.79 48.3234 163.531 48.231 163.281L48 163.679C48.0513 163.855 48.1027 164.035 48.1591 164.207C48.4106 164.924 49.1805 165.905 50.166 165.465V165.474H50.1608ZM50.0633 172.984C49.5501 173.271 49.0984 173.757 48.4927 173.91C47.0043 174.289 46.6655 172.225 45.7211 171.596C45.3311 171.346 44.8537 171.235 44.3764 171.281C44.3148 171.439 44.2583 171.596 44.2019 171.744C44.4534 171.702 44.7049 171.702 44.9564 171.744C45.5364 171.901 46.0137 172.281 46.2549 172.785C46.7271 173.553 47.3276 174.636 48.5184 174.437C49.0265 174.294 49.4936 174.058 49.8939 173.738C50.4534 173.322 51.1822 173.141 51.9008 173.248C52.3217 173.34 52.7066 173.53 53.03 173.789C53.03 173.59 53.03 173.387 53.0659 173.178C52.6707 172.887 52.1985 172.697 51.6955 172.628C51.1258 172.577 50.5509 172.697 50.0684 172.975V172.984H50.0633ZM50.9667 177.523C50.3045 177.389 49.6065 177.472 49.006 177.755C48.3182 178.06 47.8204 178.68 47.1018 178.902C45.5312 179.439 45.29 177.389 44.1403 176.889C43.7708 176.727 43.3653 176.658 42.9547 176.681C42.9547 176.843 42.9033 177 42.8828 177.144C43.0368 177.13 43.1856 177.13 43.3396 177.144C44.0582 177.241 44.669 177.671 44.9564 178.273C45.5107 179.198 46.2395 179.962 47.5227 179.402C48.2002 179.106 48.6878 178.546 49.3858 178.277C50.1403 177.935 51.0488 178.009 51.7211 178.472C51.8854 178.62 52.0342 178.782 52.1625 178.958C52.2241 178.759 52.2755 178.546 52.3319 178.342C51.9932 177.935 51.5158 177.644 50.9718 177.514V177.523H50.9667Z" fill="#FF8113"/>
<path opacity="0.1" d="M45.3471 185.96C48.2265 186.663 52.0195 182.8 52.9023 175.276C53.1332 173.129 53.1846 170.973 53.0665 168.822C50.7107 170.561 48.3548 174.115 48.3548 174.115C47.5387 172.176 46.6046 170.284 45.5575 168.438C44.7671 170.149 44.1101 171.908 43.5917 173.703C41.9801 179.635 42.4677 185.257 45.3471 185.96Z" fill="black"/>
<path d="M42.9959 189.08C39.208 191.273 35.6768 183.476 33.7931 177.595C31.9095 171.714 33.1413 156.334 35.0455 155.491C36.4005 154.895 43.5502 168.679 44.9565 175.388C45.9728 180.247 46.0087 187.34 42.9959 189.08Z" fill="#FF8113"/>
<path opacity="0.1" d="M42.9959 189.08C39.208 191.273 35.6768 183.476 33.7931 177.595C31.9095 171.714 33.1413 156.334 35.0455 155.491C36.4005 154.895 43.5502 168.679 44.9565 175.388C45.9728 180.247 46.0087 187.34 42.9959 189.08Z" fill="black"/>
<path d="M34.8203 166.367C36.011 166.895 36.9554 166.899 37.8998 165.992C38.8442 165.086 39.3985 164.091 40.7433 164.23C40.615 163.957 40.4815 163.688 40.3532 163.424C40.1325 163.411 39.9118 163.434 39.6962 163.485C38.5209 163.767 37.9973 164.873 37.171 165.567C35.8981 166.64 34.5431 165.229 33.106 165.308H32.9777C32.9777 165.544 32.9777 165.77 32.9417 166.016C33.5936 165.979 34.2403 166.099 34.8203 166.367ZM45.2343 176.949C45.029 176.88 44.8237 176.824 44.6081 176.787C43.9819 176.676 43.3352 176.81 42.822 177.153C41.6774 177.912 41.6209 179.596 39.7424 179.156C38.3309 178.819 37.2788 177.981 35.7954 178.652C35.2873 178.893 34.8305 179.203 34.4353 179.577L34.6509 180.165C35.1539 179.679 35.7903 179.323 36.4935 179.133C38.0897 178.763 39.2959 180.216 40.8819 179.98C42.1753 179.786 42.319 178.504 43.2172 177.87C43.8844 177.407 44.5979 177.518 45.3164 177.754C45.3164 177.472 45.2702 177.199 45.2343 176.935V176.949ZM34.887 160.769C35.3335 161.319 35.9546 161.925 36.7758 161.546C37.597 161.166 37.7202 160.158 38.2848 159.552C38.1821 159.371 38.0795 159.191 37.9768 159.02C37.4327 159.681 37.1556 161.12 36.1085 161.069C35.2822 161.028 34.964 159.931 34.2711 159.612C34.0606 159.515 33.8245 159.473 33.5884 159.496L33.5114 159.959H33.6757C34.2505 159.959 34.5842 160.389 34.887 160.769ZM37.7407 172.442C39.2394 172.734 39.9682 171.128 40.6406 170.24C41.1282 169.532 41.8416 168.981 42.6937 168.658L42.3857 167.931C42.1137 167.982 41.8468 168.07 41.6055 168.195C40.9486 168.57 40.3943 169.074 39.9888 169.676C39.5371 170.282 39.1624 171.096 38.449 171.526C37.6483 171.989 36.7091 171.263 35.8827 171.124C35.1128 170.999 34.3173 171.054 33.5782 171.295C33.3318 171.374 33.0957 171.475 32.875 171.6C32.875 171.934 32.8955 172.262 32.9366 172.586C33.6141 172.077 34.4815 171.813 35.3643 171.85C36.2779 171.85 36.9246 172.285 37.7407 172.442Z" fill="#FF8113"/>
<path opacity="0.1" d="M42.9713 169.276C41.7189 170.65 40.6821 172.177 39.8917 173.806C39.8917 173.806 35.7856 168.781 32.8908 166.5C32.7317 170.664 32.9627 175.037 33.7839 177.605C35.6676 183.486 39.1988 191.282 42.9867 189.089C45.9995 187.349 45.9636 180.247 44.9473 175.393C44.4597 173.311 43.7976 171.266 42.9713 169.276Z" fill="black"/>
<path d="M42.7334 193.089C35.8096 193.427 29.3374 189.646 25.1389 184.881C20.9404 180.115 17.6607 170.268 18.6102 169.662C19.5598 169.056 30.7334 175.27 34.9319 179.754C40.434 185.63 42.7334 193.089 42.7334 193.089Z" fill="#FF8113"/>
<path opacity="0.2" d="M42.7334 193.089C35.8096 193.427 29.3374 189.646 25.1389 184.881C20.9404 180.115 17.6607 170.268 18.6102 169.662C19.5598 169.056 30.7334 175.27 34.9319 179.754C40.434 185.63 42.7334 193.089 42.7334 193.089Z" fill="black"/>
<path d="M27.6192 177.47C28.0247 176.882 27.7937 176.174 27.7064 175.54C27.6346 175.119 27.7321 174.689 27.9836 174.328L27.2034 173.828C26.8955 174.346 26.7928 174.943 26.9211 175.522C27.0341 176.243 27.2291 177.141 26.1564 177.271C24.9913 177.414 23.3797 176.475 22.4455 177.516C21.9938 178.02 22.1684 178.663 22.153 179.251C22.1376 179.519 22.0503 179.779 21.9015 180.015C22.0246 180.25 22.153 180.477 22.2864 180.718C22.5636 180.412 22.7432 180.047 22.7997 179.658C22.9023 178.936 22.5841 177.997 23.6722 177.844C24.4216 177.733 25.1504 178.048 25.8895 178.094C26.5516 178.201 27.224 177.96 27.6192 177.47ZM23.7543 172.26C23.8365 172.144 23.9442 172.047 24.0623 171.963C23.8519 171.843 23.6414 171.728 23.4361 171.621C22.9228 172.223 22.9228 173.046 22.4096 173.648C22.0965 173.999 21.573 174.134 21.1008 173.981C20.6286 173.851 20.1205 173.865 19.6585 174.027C19.5559 174.069 19.4635 174.12 19.3711 174.175C19.4224 174.323 19.4737 174.476 19.5302 174.638C19.7509 174.527 20.0024 174.462 20.2539 174.457C20.7672 174.457 21.2804 174.689 21.7937 174.656C22.1478 174.633 22.4814 174.481 22.7124 174.235C23.2873 173.643 23.3129 172.843 23.7543 172.236V172.26ZM31.4532 180.625C31.9716 180.2 32.3309 179.64 32.4797 179.02C32.5721 178.58 32.6286 178.136 32.6594 177.692L32.0024 177.169C31.8638 177.9 31.9408 178.64 31.5199 179.325C31.0375 180.116 30.3189 180.343 29.3643 180.343C28.6714 180.343 27.999 180.38 27.5114 180.875C27.1059 181.361 26.8647 181.944 26.8185 182.55C26.6799 183.42 26.5311 184.225 25.6329 184.716C25.4789 184.794 25.3198 184.864 25.1555 184.919C25.3198 185.104 25.4891 185.28 25.6688 185.46C26.0537 185.308 26.3925 185.081 26.6645 184.794C27.8245 183.559 26.8801 181.093 29.3437 181.093C30.1085 181.074 30.827 181.069 31.4276 180.602L31.4532 180.625ZM35.1795 181.255C35.3181 181.019 35.4926 180.796 35.6928 180.598C35.4977 180.375 35.2975 180.135 35.0922 179.927C34.5328 180.477 34.1478 181.157 33.9836 181.888C33.7732 182.684 33.6551 183.55 33.0803 184.202C32.5054 184.854 31.5405 184.827 30.7244 185.229C30.0469 185.576 29.5234 186.122 29.2462 186.779C29.0614 187.293 28.9331 187.82 28.8767 188.357C29.1179 188.542 29.3899 188.723 29.6106 188.898V188.806C29.7646 187.917 29.8827 187.011 30.6371 186.363C31.3916 185.715 32.3668 185.826 33.1675 185.336C34.6611 184.382 34.4199 182.559 35.1538 181.231L35.1795 181.255ZM38.1769 183.855C37.9768 183.994 37.792 184.151 37.6175 184.318C36.437 185.488 36.591 187.006 36.1496 188.44C35.9904 189.208 35.4464 189.865 34.6765 190.222C34.0144 190.467 33.2702 190.222 32.6953 190.684L32.6389 190.74C32.9827 190.916 33.3266 191.082 33.6654 191.244C33.8553 191.207 34.0503 191.189 34.2454 191.184C34.62 191.175 34.9845 191.096 35.3232 190.948C35.9083 190.657 36.3703 190.203 36.6371 189.653C37.3557 188.311 37.0375 186.682 37.9306 185.405C38.1359 185.113 38.3925 184.85 38.6851 184.628C38.5259 184.359 38.3309 184.096 38.1513 183.832L38.1769 183.855Z" fill="#FF8113"/>
<path opacity="0.2" d="M27.1445 173.77C27.7912 178.938 30.8554 192.847 42.7374 193.087C42.7374 193.087 40.438 185.629 34.9307 179.752C33.1548 177.851 30.1214 175.62 27.1445 173.77Z" fill="black"/>
<path d="M42.7385 193.086C37.2928 192.369 32.617 189.264 30.215 180.01C27.8129 170.755 27.4485 166.591 29.096 165.665C31.0002 164.606 38.4322 173.929 40.824 178.034C46.8343 188.339 42.7385 193.086 42.7385 193.086Z" fill="#FF8113"/>
<path opacity="0.2" d="M32.6318 175.996C33.9868 176.38 35.7575 176.787 36.7738 175.58C37.2871 174.987 37.4102 174.192 37.7541 173.562L37.0253 172.637C36.4248 173.511 36.4402 174.798 35.3931 175.297C34.6027 175.672 33.6686 175.427 32.8679 175.21C32.0723 174.937 31.2203 174.821 30.3683 174.867C29.9064 174.927 29.465 175.066 29.0646 175.284C29.1211 175.552 29.1878 175.839 29.2545 176.121C29.429 176.033 29.6138 175.955 29.7986 175.89C30.7276 175.626 31.7284 175.663 32.6318 175.996ZM31.0253 171.207C31.4102 171.397 31.8516 171.471 32.2879 171.425C33.1142 171.272 33.5505 170.55 33.9714 169.967C34.0946 169.801 34.2332 169.648 34.3871 169.504L33.8739 168.949L33.7661 169.042C33.2528 169.606 32.8217 170.754 31.8619 170.768C31.3948 170.694 30.938 170.573 30.5018 170.411C30.1168 170.337 29.7165 170.328 29.3264 170.388C28.9414 170.444 28.5668 170.573 28.2383 170.763C28.2639 170.976 28.2947 171.198 28.3307 171.425C28.7772 171.175 29.2802 171.027 29.8037 170.994C30.2246 170.985 30.6403 171.059 31.0253 171.207ZM36.9894 181.484C37.5026 180.799 37.8824 180.022 38.6523 179.527C39.5505 178.944 40.4539 178.981 41.4291 179.064C41.2443 178.721 41.0544 178.374 40.8439 178.018C40.2178 177.935 39.5762 177.972 38.9654 178.125C38.1339 178.374 37.4102 178.86 36.9124 179.513C36.4402 180.105 36.122 180.831 35.5163 181.326C34.4077 182.252 32.9089 181.442 31.672 181.22C31.3127 181.155 30.9483 181.128 30.5839 181.141C30.6814 181.465 30.7789 181.78 30.8816 182.09C31.3692 182.09 31.8516 182.155 32.3136 182.284C34.1151 182.807 35.7319 183.113 36.9894 181.484ZM43.2614 183.284C43.169 183.302 43.0766 183.325 42.9894 183.353C42.2554 183.608 41.619 184.043 41.1416 184.602C40.6284 185.218 40.3358 185.963 39.8379 186.592C39.4068 187.277 38.4675 187.559 37.6669 187.244C36.9124 186.953 36.0706 186.893 35.2751 187.082C34.6951 187.258 34.1664 187.55 33.7353 187.938C33.9201 188.188 34.11 188.401 34.305 188.646C34.6438 188.369 35.039 188.161 35.4752 188.031C36.1066 187.888 36.7789 187.962 37.3538 188.244C38.7447 188.864 40.4333 188.401 41.2084 187.189C41.6754 186.574 41.9423 185.847 42.4658 185.264C42.7687 184.931 43.1536 184.667 43.5899 184.487C43.4924 184.093 43.3794 183.696 43.2409 183.284H43.2614Z" fill="white"/>
<path opacity="0.15" d="M40.8248 178.038C40.3937 177.293 39.7983 176.382 39.0952 175.387C36.7393 181.957 35.9797 191.535 42.7393 193.09C42.7393 193.09 46.8351 188.342 40.8248 178.038Z" fill="black"/>
<path d="M45.5547 193.089C52.4786 193.427 58.9508 189.646 63.1492 184.881C67.3477 180.115 70.6274 170.268 69.6779 169.662C68.7284 169.056 57.5547 175.27 53.3614 179.754C47.8541 185.63 45.5547 193.089 45.5547 193.089Z" fill="#FF8113"/>
<path opacity="0.2" d="M45.5547 193.089C52.4786 193.427 58.9508 189.646 63.1492 184.881C67.3477 180.115 70.6274 170.268 69.6779 169.662C68.7284 169.056 57.5547 175.27 53.3614 179.754C47.8541 185.63 45.5547 193.089 45.5547 193.089Z" fill="black"/>
<path d="M62.4013 178.072C63.1404 178.026 63.8692 177.711 64.6185 177.822C65.7067 177.975 65.3884 178.914 65.4911 179.636C65.5475 180.025 65.7272 180.39 66.0043 180.696C66.1378 180.464 66.2661 180.233 66.3893 179.993C66.2404 179.757 66.1532 179.497 66.1378 179.229C66.1378 178.641 66.2969 177.998 65.8452 177.494C64.9111 176.453 63.2789 177.392 62.1344 177.249C61.0617 177.119 61.2567 176.221 61.3696 175.5C61.4979 174.921 61.3953 174.324 61.0873 173.806L60.3072 174.306C60.5587 174.667 60.6562 175.097 60.5843 175.518C60.4971 176.152 60.2661 176.86 60.6716 177.448C61.0668 177.938 61.7392 178.179 62.4013 178.072ZM65.5732 174.204C65.8042 174.449 66.1378 174.602 66.4919 174.625C67.0052 174.658 67.5185 174.412 68.0317 174.426C68.2832 174.431 68.5347 174.496 68.7554 174.607C68.8119 174.454 68.8632 174.301 68.9145 174.144C68.8221 174.088 68.7298 174.038 68.6271 173.996C68.1652 173.834 67.657 173.82 67.1848 173.95C66.7126 174.102 66.1891 173.968 65.876 173.616C65.3628 173.015 65.3628 172.191 64.8495 171.59C64.6442 171.696 64.4338 171.812 64.2233 171.932C64.3414 172.016 64.4492 172.113 64.5313 172.228C64.9778 172.844 65.0035 173.644 65.5732 174.204ZM58.9573 181.075C61.4209 181.075 60.4971 183.537 61.6365 184.777C61.9085 185.064 62.2473 185.29 62.6322 185.443C62.8016 185.263 62.971 185.087 63.1455 184.902C62.9812 184.846 62.8221 184.777 62.6682 184.698C61.77 184.208 61.6416 183.403 61.4825 182.533C61.4363 181.927 61.1951 181.344 60.7896 180.858C60.302 180.363 59.6297 180.326 58.9368 180.326C57.9821 180.326 57.2635 180.099 56.7811 179.308C56.3602 178.623 56.4372 177.883 56.2986 177.152L55.6416 177.674C55.6724 178.119 55.7289 178.563 55.8213 179.002C55.9701 179.622 56.3294 180.182 56.8478 180.608C57.4894 181.071 58.1823 181.075 58.9573 181.075ZM55.1232 185.332C55.9034 185.827 56.9094 185.735 57.6433 186.355C58.3773 186.975 58.5261 187.909 58.6699 188.798V188.89C58.9162 188.714 59.1831 188.534 59.4038 188.349C59.3474 187.812 59.219 187.285 59.0343 186.771C58.7571 186.114 58.2336 185.568 57.5561 185.221C56.7605 184.818 55.8007 184.893 55.2002 184.194C54.5997 183.495 54.5073 182.662 54.2969 181.88C54.1326 181.149 53.7477 180.469 53.1882 179.918C52.9829 180.141 52.7828 180.381 52.5877 180.589C52.7879 180.788 52.9624 181.01 53.101 181.246C53.8914 182.56 53.6297 184.384 55.1232 185.337V185.332ZM49.6211 184.624C49.9137 184.846 50.1703 185.11 50.3756 185.401C51.2687 186.679 50.9504 188.307 51.669 189.649C51.9359 190.2 52.3978 190.653 52.9829 190.945C53.3217 191.093 53.6861 191.171 54.0608 191.181C54.2558 191.181 54.4509 191.204 54.6408 191.241C54.9898 191.079 55.3337 190.912 55.6673 190.736L55.6108 190.681C55.036 190.218 54.2918 190.45 53.6297 190.218C52.8598 189.862 52.3157 189.205 52.1566 188.437C51.7255 187.002 51.8692 185.485 50.6887 184.314C50.5142 184.148 50.3294 183.99 50.1292 183.851C49.9598 184.097 49.7905 184.36 49.6211 184.624Z" fill="#FF8113"/>
<path opacity="0.2" d="M61.1527 173.77C60.5008 178.938 57.4367 192.847 45.5547 193.087C45.5547 193.087 47.8541 185.629 53.3614 179.752C55.1372 177.851 58.1706 175.62 61.1527 173.77Z" fill="black"/>
<path d="M45.5541 193.086C50.9998 192.369 55.6755 189.264 58.0776 180.01C60.4797 170.755 60.8441 166.591 59.1965 165.665C57.2923 164.606 49.8603 173.929 47.4685 178.034C41.4583 188.339 45.5541 193.086 45.5541 193.086Z" fill="#FF8113"/>
<path opacity="0.2" d="M58.4981 175.871C58.688 175.936 58.8676 176.014 59.0421 176.102C59.1089 175.82 59.1756 175.533 59.2321 175.265C58.8317 175.047 58.3903 174.909 57.9284 174.848C57.0764 174.802 56.2244 174.918 55.4288 175.191C54.6281 175.408 53.694 175.653 52.9036 175.279C51.877 174.779 51.877 173.493 51.2714 172.618L50.5426 173.544C50.8865 174.168 51.025 174.969 51.5229 175.561C52.5494 176.769 54.3099 176.361 55.6649 175.977C56.5682 175.644 57.5691 175.607 58.4981 175.871ZM58.4981 170.999C59.0165 171.026 59.5143 171.161 59.9609 171.401C59.9968 171.174 60.0276 170.939 60.0533 170.74C59.7248 170.55 59.3501 170.42 58.9652 170.365C58.5751 170.305 58.1747 170.314 57.7898 170.388C57.3535 170.55 56.8967 170.67 56.4297 170.744C55.4699 170.744 55.0387 169.583 54.5255 169.018L54.4177 168.926L53.9044 169.481C54.0584 169.624 54.197 169.777 54.3202 169.944C54.741 170.527 55.1773 171.249 56.0037 171.401C56.4399 171.447 56.8813 171.373 57.2663 171.184C57.6563 171.045 58.0772 170.98 58.4981 170.994V170.999ZM56.0293 182.284C56.4912 182.154 56.9737 182.085 57.4613 182.09C57.564 181.78 57.6615 181.465 57.759 181.141C57.3946 181.127 57.0302 181.155 56.6709 181.22C55.4339 181.442 53.9352 182.238 52.8266 181.326C52.2209 180.831 51.9027 180.105 51.4305 179.512C50.9326 178.86 50.2089 178.374 49.3775 178.124C48.7667 177.972 48.1251 177.935 47.4989 178.018C47.2885 178.374 47.0986 178.721 46.9138 179.064C47.889 178.962 48.7924 178.925 49.6906 179.526C50.4604 180.021 50.8351 180.799 51.3535 181.483C52.5648 183.112 54.1816 182.807 56.0293 182.284ZM44.6914 184.482C45.1277 184.662 45.5126 184.926 45.8154 185.259C46.3287 185.842 46.6059 186.569 47.0729 187.184C47.8428 188.401 49.5314 188.864 50.9275 188.244C51.5024 187.961 52.1747 187.887 52.806 188.031C53.2423 188.16 53.6375 188.368 53.9763 188.646C54.1713 188.419 54.3612 188.183 54.546 187.938C54.1149 187.55 53.5862 187.258 53.0062 187.082C52.2107 186.892 51.3689 186.953 50.6144 187.244C49.8137 187.559 48.8745 187.277 48.4433 186.592C47.9301 185.962 47.6683 185.204 47.1397 184.602C46.6623 184.042 46.0259 183.607 45.2919 183.353C45.2047 183.325 45.1123 183.302 45.0199 183.283C44.9172 183.695 44.8043 184.093 44.6914 184.482Z" fill="white"/>
<path opacity="0.15" d="M47.4685 178.038C47.8997 177.293 48.495 176.382 49.1982 175.387C51.5541 181.957 52.3137 191.535 45.5541 193.09C45.5541 193.09 41.4583 188.342 47.4685 178.038Z" fill="black"/>
<path d="M44.1389 194.129C48.7582 194.129 50.2621 188.493 49.7847 183.95C49.3074 179.406 46.1457 170.781 44.1389 170.781C42.132 170.781 38.9396 179.415 38.493 183.95C38.0465 188.484 39.5503 194.129 44.1389 194.129Z" fill="#FF8113"/>
<path opacity="0.3" d="M44.1389 194.129C48.7582 194.129 50.2621 188.493 49.7847 183.95C49.3074 179.406 46.1457 170.781 44.1389 170.781C42.132 170.781 38.9396 179.415 38.493 183.95C38.0465 188.484 39.5503 194.129 44.1389 194.129Z" fill="white"/>
<path opacity="0.2" d="M44.1154 176.667C44.8493 176.537 45.3164 175.996 45.8297 175.561C46.2249 175.228 46.7176 175.001 47.2463 174.899C47.1282 174.631 47.0102 174.367 46.8921 174.117C46.1479 174.312 45.4806 174.682 44.952 175.191C44.6902 175.468 44.3617 175.695 43.9922 175.843C43.4327 176.014 43.094 175.746 42.7296 175.417C42.3292 175.019 41.8006 174.733 41.2206 174.603H41.1744C41.0769 174.816 40.9845 175.033 40.887 175.255C41.508 175.362 42.0726 175.653 42.4883 176.084C42.8733 176.528 43.4943 176.755 44.1154 176.667ZM40.6868 181.636C42.2266 182.719 43.4841 181.173 44.4644 180.271C45.2805 179.512 46.1428 179.346 47.0769 180.058C47.5799 180.53 48.1753 180.914 48.8271 181.201C48.9913 181.257 49.1659 181.294 49.3404 181.317C49.2839 181.062 49.2223 180.799 49.1556 180.535C48.437 180.373 47.9135 179.878 47.2873 179.415C45.9221 178.402 44.6902 178.827 43.6073 179.947C42.9811 180.595 41.97 181.705 40.9434 181.011C40.3378 180.604 40.0504 179.91 39.4037 179.512H39.378C39.3113 179.739 39.2497 179.966 39.1932 180.192C39.8143 180.544 40.1171 181.238 40.6868 181.636ZM42.4062 186.601C43.2736 187.637 44.3566 187.896 45.532 187.003C46.1017 186.573 46.4815 185.958 47.1077 185.574C47.9802 185.042 48.9811 185.319 49.8844 185.638C49.8844 185.389 49.8844 185.143 49.8844 184.903C49.4738 184.741 49.0478 184.621 48.6115 184.542C47.9238 184.417 47.2103 184.542 46.6304 184.903C45.9836 185.319 45.6038 185.972 44.9571 186.407C44.6132 186.643 44.0743 186.939 43.6278 186.791C43.1812 186.643 42.7912 186.022 42.4062 185.675C41.9186 185.227 41.3078 184.903 40.6303 184.75C39.8964 184.579 39.1162 184.648 38.4336 184.944C38.4336 185.18 38.4336 185.416 38.4336 185.652C39.8399 185.079 41.4978 185.472 42.4062 186.601ZM46.7638 190.825C46.0401 191.348 45.1214 191.598 44.1975 191.524C43.7048 191.501 43.2428 191.316 42.8887 191.01C42.6372 190.774 42.4524 190.488 42.1907 190.252C41.7133 189.835 41.0974 189.571 40.4353 189.502C39.9528 189.446 39.4652 189.484 38.9982 189.613C39.0752 189.868 39.1624 190.113 39.2599 190.358C40.0247 190.09 40.8921 190.196 41.5491 190.64C42.1034 191.01 42.3652 191.617 42.9503 191.959C43.4892 192.255 44.1102 192.399 44.7416 192.38C45.4037 192.38 46.0606 192.232 46.6458 191.954C47.3079 191.64 47.7749 191.103 48.4165 190.77C48.5807 190.682 48.7501 190.612 48.9298 190.552C49.0632 190.252 49.1761 189.942 49.2736 189.627C49.0529 189.65 48.8425 189.692 48.6321 189.752C47.9443 190.006 47.313 190.372 46.7638 190.825Z" fill="white"/>
<path d="M166.046 39.2707L168.191 37.1284C168.232 37.0913 168.279 37.0589 168.325 37.0266L172.852 34.1438C173.319 33.8616 173.94 33.9264 174.32 34.2965L197.124 57.201L202.826 62.934C203.185 63.2625 203.185 63.7947 202.826 64.1232C202.826 64.1232 201.02 65.974 200.676 66.2656L200.635 66.3072L196.528 69.611C196.123 69.9395 195.497 69.9071 195.132 69.5416L166.056 40.3442C165.728 40.0481 165.728 39.5715 166.046 39.2707Z" fill="#263238"/>
<path d="M166.043 39.269L168.189 37.1267C168.23 37.0897 168.276 37.0573 168.322 37.0249L172.849 34.1423C173.126 33.9757 173.47 33.9248 173.793 34.0081L166.295 40.6108L166.028 40.3425C165.71 40.0417 165.715 39.5651 166.043 39.269Z" fill="#455A64"/>
<path d="M166.181 39.1711L170.708 36.2884C171.175 36.0061 171.796 36.0709 172.176 36.4411L194.985 59.3455L200.687 65.0785C201.052 65.4163 201.041 65.9531 200.667 66.2816C200.656 66.2909 200.646 66.3001 200.636 66.3094L196.53 69.6131C196.124 69.9417 195.498 69.9093 195.134 69.5437L166.058 40.3464C165.724 40.041 165.734 39.5505 166.068 39.2544C166.104 39.222 166.14 39.1942 166.181 39.1711Z" fill="#FF8113"/>
<path d="M204.027 42.551L192.13 52.1848L187.639 51.9627L182.085 56.4603L184.21 58.598L178.646 63.1141L172.266 68.2734C171.902 68.6019 171.307 68.6019 170.942 68.2734C170.942 68.2734 168.889 66.6493 168.571 66.3439C168.556 66.33 168.54 66.3161 168.525 66.3022L164.855 62.6005C164.491 62.2303 164.532 61.6658 164.937 61.3373C169.905 57.3209 192.355 39.1269 197.324 35.1244C197.652 34.8283 198.186 34.8283 198.515 35.1244L200.891 37.054C200.932 37.091 200.968 37.1326 201.004 37.1743L204.196 41.2554C204.494 41.6672 204.422 42.2133 204.027 42.551Z" fill="#263238"/>
<path d="M198.512 35.0889L200.888 37.023C200.929 37.06 200.965 37.1017 200.996 37.1433L204.194 41.2243C204.384 41.4742 204.44 41.7842 204.348 42.0757L197.023 35.3156L197.321 35.075C197.655 34.7881 198.183 34.7928 198.512 35.0889Z" fill="#455A64"/>
<path d="M198.629 35.2094L201.822 39.2905C202.135 39.707 202.063 40.2669 201.658 40.6139L176.251 61.177L169.892 66.3178C169.522 66.6463 168.927 66.6417 168.563 66.3085C168.552 66.2946 168.537 66.2854 168.527 66.2715L164.857 62.5466C164.498 62.1765 164.533 61.6166 164.939 61.288L197.326 35.0752C197.669 34.7837 198.214 34.7929 198.537 35.103C198.573 35.1353 198.604 35.1724 198.629 35.2094Z" fill="#FF8113"/>
<path d="M79.8653 40.2897L77.5351 38.3C77.4941 38.263 77.4479 38.2353 77.3965 38.2075L72.6438 35.6348C72.1613 35.3849 71.5454 35.4914 71.1964 35.88L52.6472 57.5536L45.1998 52.4221C44.7635 52.1167 44.1373 52.1815 43.7832 52.5656L38.8302 57.7249C38.5017 58.0811 38.5428 58.6086 38.9329 58.914C38.9329 58.914 40.8832 60.6215 41.2477 60.9083L41.299 60.9407L54.2896 69.8896C54.7259 70.1858 55.3418 70.1118 55.6754 69.7231L79.968 41.3632C80.2657 41.0393 80.2195 40.5627 79.8653 40.2897Z" fill="#263238"/>
<path d="M79.8637 40.2894L77.5335 38.2998C77.4925 38.2627 77.4463 38.235 77.3949 38.2072L72.6422 35.6346C72.3496 35.4865 72.0006 35.4588 71.6875 35.5606L79.7098 41.6451L79.951 41.3628C80.2538 41.0436 80.2127 40.567 79.8637 40.2894Z" fill="#455A64"/>
<path d="M79.7278 40.2009L74.9699 37.6282C74.4875 37.3783 73.8715 37.4801 73.5225 37.8734L54.9528 59.5424L47.5003 54.4155C47.064 54.1101 46.4378 54.1749 46.0837 54.5589L41.1461 59.7182C40.8125 60.0745 40.8638 60.6113 41.259 60.912C41.2744 60.9213 41.2847 60.9305 41.3001 60.9398L54.2907 69.8887C54.727 70.1848 55.3429 70.1108 55.6765 69.7221L79.9691 41.3623C80.2668 41.0338 80.2154 40.5433 79.8459 40.2749C79.81 40.2471 79.7689 40.224 79.7278 40.2009Z" fill="#FF8113"/>
<path d="M52.6472 57.5525L54.9569 59.5467L47.5043 54.4154C47.2888 54.2673 47.0219 54.2025 46.755 54.2349L44.4453 52.2407C44.7071 52.2129 44.974 52.2777 45.1844 52.4211L52.6472 57.5525Z" fill="#455A64"/>
</svg>
