<svg width="379" height="230" viewBox="0 0 379 230" fill="none" xmlns="http://www.w3.org/2000/svg">
<rect width="379" height="220" rx="18" fill="#E2E8F0"/>
<g clip-path="url(#clip0_1221_82313)">
<path d="M190 229.999C253.513 229.999 305 200.3 305 163.665C305 127.03 253.513 97.332 190 97.332C126.487 97.332 75 127.03 75 163.665C75 200.3 126.487 229.999 190 229.999Z" fill="#CBD5E1"/>
<path d="M119.254 226.333L117.159 225.1C116.458 224.633 116.012 223.867 115.965 223.027V67.9208C116.018 67.081 116.458 66.3146 117.159 65.8547L213.487 10.2849C214.241 9.90503 215.128 9.90503 215.882 10.2849L217.977 11.4979C218.684 11.9577 219.124 12.7242 219.177 13.5639V168.697C219.131 169.537 218.684 170.31 217.977 170.77L121.648 226.333C120.895 226.713 120.007 226.713 119.254 226.333Z" fill="#37474F"/>
<path d="M219.165 13.3706C219.078 12.7575 218.578 12.5309 217.977 12.8775L121.649 68.4406C121.296 68.6606 121.002 68.9605 120.802 69.327L116.312 66.7411C116.513 66.3812 116.806 66.0747 117.16 65.8547L213.488 10.2849C214.242 9.90503 215.129 9.90503 215.883 10.2849L217.977 11.4979C218.624 11.9178 219.058 12.6042 219.165 13.3706Z" fill="#455A64"/>
<path d="M121.435 226.434C121.435 226.434 121.388 226.434 121.368 226.434L121.242 226.48H121.195C121.121 226.48 121.048 226.52 120.975 226.54C120.501 226.634 120.007 226.594 119.554 226.434C119.46 226.4 119.374 226.361 119.287 226.314L117.159 225.101C116.458 224.634 116.012 223.868 115.965 223.028V67.9218C115.978 67.5086 116.098 67.1021 116.312 66.7422L120.801 69.3281C120.581 69.6813 120.461 70.0878 120.448 70.5077V225.647C120.434 225.867 120.501 226.087 120.628 226.274C120.795 226.46 121.048 226.54 121.295 226.48L121.435 226.434Z" fill="#263238"/>
<path d="M155.21 61.6942C155.177 61.5343 155.104 61.381 154.997 61.2544L154.917 61.1877C154.79 61.0944 154.623 61.0678 154.47 61.1211C154.41 61.1344 154.356 61.1611 154.303 61.1944C154.009 61.401 153.776 61.6809 153.636 62.0141C153.456 62.3874 153.362 62.8006 153.356 63.2138C153.329 63.527 153.422 63.8336 153.623 64.0735C153.803 64.2468 154.083 64.2735 154.29 64.1268C154.43 64.0402 154.557 63.9336 154.663 63.8003C154.757 63.6736 154.843 63.547 154.917 63.4071C155.124 63.0072 155.23 62.5673 155.244 62.1141C155.244 61.9742 155.237 61.8342 155.21 61.6942ZM170.874 26.7248C170.527 26.5182 170.126 26.4116 169.726 26.4183C168.959 26.4516 168.219 26.6848 167.565 27.0847C165.744 28.1977 164.336 29.8772 163.562 31.8633C163.436 32.1432 163.315 32.4364 163.209 32.723C163.102 33.0096 162.989 33.3028 162.895 33.6028C162.802 33.9027 162.695 34.2026 162.608 34.5025C162.575 34.6025 162.548 34.7091 162.515 34.8024L162.341 35.4089C162.341 35.4089 162.341 35.4689 162.341 35.4955C162.241 35.8621 162.148 36.242 162.041 36.6152C161.988 36.8218 161.941 37.0151 161.888 37.215L161.734 37.8081C161.521 38.6012 161.307 39.361 161.067 40.0875L160.914 40.5273C160.841 40.7339 160.767 40.9405 160.687 41.1405C160.607 41.3404 160.56 41.447 160.5 41.587C160.4 41.8336 160.294 42.0669 160.18 42.2935C160.067 42.5201 160.04 42.58 159.967 42.72C158.279 45.959 156.218 47.2253 155.023 48.8915C153.976 50.3443 153.689 51.504 152.275 53.8033C151.828 54.5364 151.268 55.3828 150.534 56.3958C148.499 59.195 147.772 60.5812 147.525 61.421C147.525 61.441 147.525 61.4676 147.525 61.4876C147.525 61.5543 147.525 61.6143 147.479 61.6743C147.479 61.6942 147.479 61.7142 147.479 61.7342C147.479 61.7875 147.479 61.8409 147.479 61.8942C147.459 62.0608 147.445 62.2207 147.445 62.3874V68.6121L149.687 69.9051V63.6736C149.687 63.3471 149.727 63.0272 149.827 62.7139C150.074 61.8742 150.794 60.4946 152.835 57.6955C153.569 56.6758 154.13 55.8294 154.577 55.0962C155.977 52.8036 156.278 51.6373 157.325 50.1977C158.519 48.5249 160.58 47.2653 162.268 44.0196C162.508 43.5197 162.728 43.0066 162.915 42.4867C163.996 39.8209 164.483 36.2286 165.81 33.2095C166.584 31.2235 167.992 29.5506 169.813 28.4443C171.18 27.6579 172.181 27.5912 172.948 27.9511L170.874 26.7248ZM180.7 34.6824C180.513 34.5758 180.313 34.4958 180.106 34.4425C179.259 34.2426 177.998 34.7357 176.731 34.5891C178.512 36.8884 180.987 35.4089 182.348 35.7354C182.561 35.7888 182.761 35.8687 182.948 35.982L180.7 34.6824ZM185.45 43.2332C185.383 43.2732 185.323 43.3198 185.263 43.3731L185.169 43.4664L185.083 43.5664C184.709 44.0529 184.502 44.6394 184.496 45.2526C184.476 45.5591 184.569 45.8657 184.756 46.1056C184.782 46.1323 184.809 46.1523 184.836 46.1723C184.963 46.2656 185.129 46.2922 185.276 46.2389C185.336 46.2256 185.396 46.1989 185.45 46.1656C185.516 46.1256 185.576 46.0723 185.643 46.0257C185.743 45.9324 185.83 45.8324 185.903 45.7257C186.223 45.2592 186.397 44.7127 186.403 44.1529C186.403 43.3465 185.977 42.9266 185.45 43.2332ZM186.917 37.6015C186.197 37.2017 185.416 36.9217 184.602 36.7818C184.255 36.7018 183.935 36.6152 183.675 36.5285C184.569 37.3216 185.663 37.8548 186.837 38.0681C187.551 38.208 188.245 38.428 188.905 38.7345L186.917 37.6015Z" fill="#FF8113"/>
<path d="M189.086 38.8477L188.906 38.741C188.246 38.4345 187.552 38.2145 186.838 38.0746C185.664 37.8613 184.57 37.3281 183.676 36.535C183.456 36.3284 183.209 36.1485 182.949 35.9885C182.762 35.8752 182.562 35.7953 182.349 35.7486C181.014 35.422 178.513 36.9016 176.738 34.6023L176.678 34.529C175.438 32.8562 174.984 29.124 173.123 28.0309L172.936 27.9243C172.169 27.5644 171.168 27.6311 169.801 28.4175C164.871 31.2633 164.704 38.0213 162.93 42.4666C161.155 46.9119 158.634 48.3048 157.266 50.2176C155.898 52.1303 155.805 53.5499 152.77 57.7219C149.735 61.894 149.621 62.9204 149.621 63.7201V69.9449L189.994 46.6186V40.3939C190.04 39.7407 189.68 39.1209 189.086 38.8477ZM154.304 64.1267C153.777 64.4333 153.357 64.0267 153.357 63.2136C153.343 62.4339 153.697 61.7007 154.304 61.2142C154.831 60.9076 155.251 61.3209 155.251 62.1339C155.265 62.907 154.911 63.6468 154.304 64.1267ZM169.801 45.3724C168.92 46.0388 167.666 45.8722 166.999 44.9925C166.865 44.8192 166.765 44.6259 166.692 44.4193C166.345 43.6329 166.178 42.7731 166.205 41.9134C166.205 38.8543 167.813 35.4487 169.801 34.3024C170.067 34.1424 170.361 34.0291 170.668 33.9625C172.242 33.6492 173.396 35.1555 173.396 37.7613C173.396 40.8204 171.789 44.226 169.801 45.3724ZM185.451 46.1588C184.924 46.4654 184.497 46.0588 184.497 45.2524C184.49 44.4726 184.844 43.7395 185.451 43.253C185.978 42.9531 186.405 43.3596 186.405 44.1727C186.411 44.9458 186.058 45.6789 185.451 46.1588Z" fill="#FF8113"/>
<path opacity="0.1" d="M189.086 38.8477L188.906 38.741C188.246 38.4345 187.552 38.2145 186.838 38.0746C185.664 37.8613 184.57 37.3281 183.676 36.535C183.456 36.3284 183.209 36.1485 182.949 35.9885C182.762 35.8752 182.562 35.7953 182.349 35.7486C181.014 35.422 178.513 36.9016 176.738 34.6023L176.678 34.529C175.438 32.8562 174.984 29.124 173.123 28.0309L172.936 27.9243C172.169 27.5644 171.168 27.6311 169.801 28.4175C164.871 31.2633 164.704 38.0213 162.93 42.4666C161.155 46.9119 158.634 48.3048 157.266 50.2176C155.898 52.1303 155.805 53.5499 152.77 57.7219C149.735 61.894 149.621 62.9204 149.621 63.7201V69.9449L189.994 46.6186V40.3939C190.04 39.7407 189.68 39.1209 189.086 38.8477ZM154.304 64.1267C153.777 64.4333 153.357 64.0267 153.357 63.2136C153.343 62.4339 153.697 61.7007 154.304 61.2142C154.831 60.9076 155.251 61.3209 155.251 62.1339C155.265 62.907 154.911 63.6468 154.304 64.1267ZM169.801 45.3724C168.92 46.0388 167.666 45.8722 166.999 44.9925C166.865 44.8192 166.765 44.6259 166.692 44.4193C166.345 43.6329 166.178 42.7731 166.205 41.9134C166.205 38.8543 167.813 35.4487 169.801 34.3024C170.067 34.1424 170.361 34.0291 170.668 33.9625C172.242 33.6492 173.396 35.1555 173.396 37.7613C173.396 40.8204 171.789 44.226 169.801 45.3724ZM185.451 46.1588C184.924 46.4654 184.497 46.0588 184.497 45.2524C184.49 44.4726 184.844 43.7395 185.451 43.253C185.978 42.9531 186.405 43.3596 186.405 44.1727C186.411 44.9458 186.058 45.6789 185.451 46.1588Z" fill="black"/>
<path opacity="0.25" d="M149.76 62.7422C149.66 63.0554 149.614 63.3753 149.62 63.7019V69.9333L147.379 68.6404V62.4156C147.379 62.249 147.392 62.089 147.412 61.9224C147.412 61.8691 147.412 61.8158 147.412 61.7625C147.412 61.7425 147.412 61.7225 147.412 61.7025C147.412 61.6425 147.412 61.5825 147.459 61.5159V61.4492L149.76 62.7422Z" fill="black"/>
<path opacity="0.25" d="M157.257 50.2258C156.209 51.6654 155.922 52.8317 154.508 55.1244L152.273 53.8181C153.674 51.5188 153.975 50.3591 155.022 48.9062L157.257 50.2258Z" fill="black"/>
<path opacity="0.25" d="M165.822 33.1574C164.488 36.1765 164.007 39.7354 162.927 42.4346C162.72 42.9744 162.473 43.5009 162.206 44.0141L159.965 42.7278C160.038 42.5878 160.112 42.4412 160.178 42.3013C160.245 42.1613 160.398 41.8414 160.499 41.5948C160.559 41.4549 160.625 41.3016 160.685 41.1483C160.745 40.995 160.839 40.7417 160.912 40.5351L161.066 40.0953C161.306 39.3688 161.519 38.6091 161.733 37.816L161.886 37.2228C161.939 37.0229 161.986 36.8296 162.039 36.623C162.146 36.2498 162.24 35.8699 162.34 35.5033C162.34 35.4767 162.34 35.4433 162.34 35.4167L162.513 34.8102C162.546 34.7169 162.573 34.6103 162.607 34.5103C162.693 34.2104 162.793 33.9105 162.893 33.6106C162.993 33.3107 163.094 33.0241 163.207 32.7308C163.32 32.4376 163.434 32.151 163.56 31.8711L165.822 33.1574Z" fill="black"/>
<path d="M153.628 62.0176C153.448 62.3909 153.355 62.8041 153.348 63.2173C153.322 63.5305 153.415 63.8371 153.615 64.077C153.422 63.8304 153.328 63.5239 153.355 63.2173C153.362 62.8041 153.455 62.3975 153.628 62.0176ZM155.256 62.1176C155.256 61.9777 155.243 61.8377 155.209 61.6977C155.236 61.8377 155.249 61.9777 155.249 62.1176C155.243 62.5641 155.129 63.0107 154.929 63.4106C155.136 63.0107 155.243 62.5708 155.256 62.1176ZM184.835 46.1758C184.962 46.2691 185.128 46.2957 185.275 46.2424C185.128 46.2891 184.962 46.2624 184.835 46.1758Z" fill="#FF8113"/>
<path d="M173.402 37.7616C173.402 40.8207 171.788 44.2263 169.8 45.3727C168.893 46.0325 167.619 45.8325 166.958 44.9261C166.845 44.7728 166.758 44.6062 166.691 44.4263C166.998 44.3596 167.298 44.2397 167.565 44.0797C169.567 42.9267 171.161 39.5278 171.161 36.4687C171.188 35.609 171.021 34.7492 170.667 33.9628C172.255 33.6496 173.402 35.1558 173.402 37.7616Z" fill="#FF8113"/>
<path opacity="0.3" d="M173.402 37.7616C173.402 40.8207 171.788 44.2263 169.8 45.3727C168.893 46.0325 167.619 45.8325 166.958 44.9261C166.845 44.7728 166.758 44.6062 166.691 44.4263C166.998 44.3596 167.298 44.2397 167.565 44.0797C169.567 42.9267 171.161 39.5278 171.161 36.4687C171.188 35.609 171.021 34.7492 170.667 33.9628C172.255 33.6496 173.402 35.1558 173.402 37.7616Z" fill="black"/>
<path d="M154.91 63.4081C154.844 63.548 154.757 63.6813 154.664 63.8013C154.557 63.9346 154.43 64.0412 154.29 64.1279C154.083 64.2745 153.803 64.2478 153.623 64.0746C153.423 63.8346 153.329 63.5281 153.356 63.2148C153.356 62.8016 153.456 62.3884 153.636 62.0152C153.776 61.682 154.01 61.402 154.303 61.1954C154.357 61.1621 154.41 61.1354 154.47 61.1221C154.657 61.0555 154.864 61.1088 154.997 61.2554C155.104 61.382 155.177 61.5353 155.211 61.6953C155.244 61.8352 155.257 61.9752 155.257 62.1151C155.244 62.5683 155.13 63.0082 154.91 63.4081Z" fill="#37474F"/>
<path d="M186.403 44.153C186.396 44.7129 186.223 45.2594 185.902 45.7259C185.829 45.8325 185.742 45.9325 185.642 46.0258C185.576 46.0724 185.516 46.1258 185.449 46.1657C185.395 46.1991 185.335 46.2257 185.275 46.2391C185.089 46.299 184.888 46.2457 184.755 46.1058C184.568 45.8658 184.475 45.5593 184.495 45.2527C184.502 44.6395 184.708 44.0531 185.082 43.5665L185.169 43.4666L185.262 43.3733C185.322 43.3199 185.382 43.2733 185.449 43.2333C185.976 42.9267 186.403 43.3466 186.403 44.153Z" fill="#37474F"/>
<path d="M127.9 82.9477L211.727 34.5957C212.181 34.3691 212.708 34.3691 213.161 34.5957L213.968 35.0623C214.389 35.3422 214.662 35.802 214.689 36.3085V164.07C214.662 164.576 214.395 165.036 213.968 165.309L130.142 213.661C129.695 213.895 129.154 213.895 128.707 213.661L127.9 213.195C127.473 212.922 127.206 212.462 127.18 211.955V84.194C127.206 83.6875 127.473 83.221 127.9 82.9477Z" fill="#F5F5F5"/>
<path d="M214.66 36.0909C214.566 35.7976 214.293 35.7043 213.993 35.8909L130.139 84.2429C129.926 84.3762 129.752 84.5628 129.632 84.7828L127.391 83.4898C127.504 83.2699 127.684 83.0833 127.898 82.9566L211.724 34.6046C212.171 34.3714 212.705 34.3714 213.152 34.6046L213.966 35.0645C214.326 35.2978 214.573 35.671 214.66 36.0909Z" fill="#FAFAFA"/>
<path d="M129.975 213.769C129.888 213.802 129.801 213.822 129.708 213.835H129.568C129.421 213.849 129.281 213.849 129.134 213.835C129.041 213.822 128.954 213.802 128.867 213.769L128.707 213.689L127.9 213.222C127.473 212.949 127.206 212.489 127.18 211.983V84.1947C127.186 83.9415 127.26 83.7015 127.393 83.4883L129.635 84.7812C129.508 84.9945 129.434 85.2411 129.428 85.4877V213.249C129.428 213.642 129.655 213.835 129.975 213.769Z" fill="#E0E0E0"/>
<path d="M163.089 53.6055L162.976 53.7921C162.709 54.2253 162.515 54.7051 162.402 55.205V55.285C162.402 55.285 162.402 55.305 162.402 55.3183L161.034 63.0093L160.607 65.4685C160.607 65.5685 160.561 65.6685 160.534 65.7751C160.507 65.8751 160.474 65.9751 160.441 66.0684C160.441 66.135 160.394 66.2017 160.367 66.2683L162.609 67.5612C162.715 67.3013 162.795 67.0347 162.842 66.7615L163.282 64.3022L164.617 56.6112C164.717 55.9981 164.957 55.4116 165.317 54.8984L163.089 53.6055Z" fill="#FF8113"/>
<path d="M147.65 78.4195C147.423 78.7794 147.21 79.1393 146.983 79.4992C146.889 79.6725 146.796 79.8457 146.709 80.019C146.623 80.1923 146.496 80.4655 146.402 80.6855C146.309 80.9054 146.189 81.1787 146.096 81.4319C146.002 81.6852 145.909 81.9384 145.822 82.1917C145.735 82.4449 145.629 82.7848 145.549 83.0848C145.495 83.278 145.442 83.4713 145.388 83.6779C145.262 84.1511 145.148 84.6309 145.048 85.1175C145.048 85.2841 144.975 85.4574 144.948 85.624C144.922 85.7906 144.861 86.0372 144.828 86.2371V86.2705C144.828 86.4304 144.828 86.537 144.908 86.5837C144.928 86.5904 144.955 86.5904 144.975 86.5837L146.903 85.0775L147.216 84.8309L147.37 84.7176L147.537 84.5843L147.67 84.4843L147.783 84.391C148.344 82.3516 149.284 80.4389 150.552 78.7461L148.31 77.4531C148.09 77.773 147.863 78.0996 147.65 78.4195Z" fill="#FF8113"/>
<path d="M171.907 36.6836C171.8 36.8569 171.707 37.0302 171.613 37.2034C171.553 37.2967 171.5 37.3967 171.453 37.5033C171.373 37.6433 171.306 37.7899 171.233 37.9365C171.16 38.0832 171.113 38.1698 171.06 38.2898C170.946 38.5164 170.846 38.743 170.753 38.9562C170.659 39.1695 170.539 39.4494 170.446 39.696C170.353 39.9159 170.279 40.1359 170.206 40.3625C170.086 40.6957 169.986 41.0289 169.892 41.3688C169.839 41.5488 169.799 41.7221 169.752 41.8953C169.752 41.9087 169.752 41.922 169.752 41.9353C169.752 42.0286 169.705 42.1153 169.692 42.2086C169.639 42.4152 169.599 42.6285 169.565 42.8351C169.532 43.0417 169.499 43.1616 169.452 43.3282C169.405 43.4949 169.365 43.6748 169.312 43.8481C169.258 44.0214 169.205 44.1747 169.152 44.3413V44.3879C169.085 44.5679 169.012 44.7545 168.932 44.9411C168.852 45.1277 168.785 45.3076 168.691 45.5009C168.671 45.5476 168.651 45.6009 168.631 45.6542C168.565 45.7942 168.491 45.9341 168.425 46.0807L168.071 46.7472C167.991 46.9072 167.911 47.0538 167.824 47.2071L170.072 48.5C170.88 47.1404 171.467 45.6609 171.82 44.1147C172.247 41.9353 173.041 39.8426 174.182 37.9299L171.907 36.6836Z" fill="#FF8113"/>
<path d="M185.242 41.6668C185.128 41.6002 185.002 41.5602 184.875 41.5469C185.315 42.2467 186.049 42.7132 186.876 42.8132C187.07 42.8132 187.257 42.8531 187.437 42.9331L185.242 41.6668Z" fill="#FF8113"/>
<path opacity="0.4" d="M185.242 41.6668C185.128 41.6002 185.002 41.5602 184.875 41.5469C185.315 42.2467 186.049 42.7132 186.876 42.8132C187.07 42.8132 187.257 42.8531 187.437 42.9331L185.242 41.6668Z" fill="white"/>
<path d="M193.6 51.4052C192.886 51.0586 192.045 51.0786 191.352 51.4718C188.743 52.6182 187.616 53.138 186.268 53.6978C186.008 55.4306 187.029 55.5906 187.536 55.384C189.43 54.6376 190.398 54.1777 193.6 52.7715C194.287 52.3849 195.114 52.3582 195.828 52.6981L193.6 51.4052Z" fill="#FF8113"/>
<path opacity="0.4" d="M193.6 51.4052C192.886 51.0586 192.045 51.0786 191.352 51.4718C188.743 52.6182 187.616 53.138 186.268 53.6978C186.008 55.4306 187.029 55.5906 187.536 55.384C189.43 54.6376 190.398 54.1777 193.6 52.7715C194.287 52.3849 195.114 52.3582 195.828 52.6981L193.6 51.4052Z" fill="white"/>
<path d="M162.596 67.5625C162.116 68.6155 161.435 69.5752 160.595 70.375L153.577 75.6467C152.456 76.5597 151.442 77.5994 150.562 78.7458L148.32 77.4528C149.201 76.2998 150.215 75.2601 151.336 74.3471L158.367 69.082C159.194 68.2756 159.861 67.3225 160.335 66.2695L162.596 67.5625Z" fill="#FF8113"/>
<path opacity="0.4" d="M162.596 67.5625C162.116 68.6155 161.435 69.5752 160.595 70.375L153.577 75.6467C152.456 76.5597 151.442 77.5994 150.562 78.7458L148.32 77.4528C149.201 76.2998 150.215 75.2601 151.336 74.3471L158.367 69.082C159.194 68.2756 159.861 67.3225 160.335 66.2695L162.596 67.5625Z" fill="white"/>
<path d="M170.041 48.5547C169.074 50.3408 167.88 52.0003 166.492 53.4865C166.052 53.913 165.665 54.3862 165.331 54.8994L163.09 53.6065C163.417 53.0933 163.81 52.6134 164.251 52.1936C165.638 50.7073 166.826 49.0478 167.793 47.2617L170.041 48.5547Z" fill="#FF8113"/>
<path opacity="0.4" d="M170.041 48.5547C169.074 50.3408 167.88 52.0003 166.492 53.4865C166.052 53.913 165.665 54.3862 165.331 54.8994L163.09 53.6065C163.417 53.0933 163.81 52.6134 164.251 52.1936C165.638 50.7073 166.826 49.0478 167.793 47.2617L170.041 48.5547Z" fill="white"/>
<path d="M182.703 32.0069C181.875 31.5737 180.775 31.647 179.481 32.3268C177.559 33.3332 175.625 35.4659 174.144 37.9851L171.902 36.6522C173.37 34.1329 175.305 31.9869 177.239 30.9939C177.866 30.6407 178.573 30.4407 179.294 30.4141C179.727 30.4141 180.154 30.514 180.528 30.7273L182.703 32.0069Z" fill="#FF8113"/>
<path opacity="0.4" d="M182.703 32.0069C181.875 31.5737 180.775 31.647 179.481 32.3268C177.559 33.3332 175.625 35.4659 174.144 37.9851L171.902 36.6522C173.37 34.1329 175.305 31.9869 177.239 30.9939C177.866 30.6407 178.573 30.4407 179.294 30.4141C179.727 30.4141 180.154 30.514 180.528 30.7273L182.703 32.0069Z" fill="white"/>
<path opacity="0.15" d="M150.581 78.7445C149.314 80.4373 148.373 82.35 147.813 84.3894L147.699 84.4827L147.566 84.5827L147.399 84.716L147.246 84.8293L146.932 85.0759L145.031 86.5954C145.031 86.5954 144.984 86.6021 144.964 86.5954C144.891 86.5488 144.857 86.4421 144.884 86.2822V86.2488C144.884 86.0489 144.958 85.8423 145.004 85.6357C145.051 85.4291 145.071 85.2958 145.104 85.1292C145.204 84.6427 145.318 84.1628 145.444 83.6896C145.498 83.483 145.551 83.2897 145.605 83.0965C145.685 82.7966 145.778 82.5033 145.878 82.2034C145.978 81.9035 146.052 81.6969 146.152 81.4436C146.252 81.1904 146.345 80.9438 146.458 80.6972C146.572 80.4506 146.659 80.2373 146.765 80.0307C146.872 79.8241 146.945 79.6842 147.039 79.5109C147.232 79.151 147.446 78.7911 147.706 78.4312C147.966 78.0713 148.146 77.7648 148.373 77.4648L150.581 78.7445Z" fill="black"/>
<path opacity="0.15" d="M165.329 54.8984C164.969 55.4116 164.728 55.9981 164.628 56.6112L163.294 64.3022L162.854 66.7615C162.807 67.0347 162.727 67.3013 162.62 67.5612L160.379 66.2683C160.379 66.2017 160.432 66.135 160.452 66.0684C160.486 65.9751 160.519 65.8751 160.546 65.7751C160.546 65.6685 160.599 65.5685 160.619 65.4685L161.046 63.0093L162.414 55.3183C162.414 55.3183 162.414 55.2983 162.414 55.285V55.205C162.527 54.7051 162.72 54.2253 162.987 53.7921L163.101 53.6055L165.329 54.8984Z" fill="black"/>
<path opacity="0.15" d="M174.15 37.9846C173.01 39.8973 172.216 41.99 171.789 44.1694C171.435 45.7156 170.848 47.1951 170.041 48.5547L167.793 47.2618C167.88 47.1085 167.96 46.9619 168.04 46.8019L168.393 46.1354C168.46 45.9888 168.533 45.8489 168.6 45.7089C168.62 45.6556 168.64 45.6023 168.66 45.5556C168.747 45.369 168.827 45.1757 168.9 44.9958C168.974 44.8158 169.054 44.6226 169.12 44.4426V44.396C169.174 44.2293 169.234 44.0694 169.281 43.9028C169.327 43.7362 169.381 43.5562 169.421 43.3829C169.461 43.2097 169.501 43.0497 169.534 42.8898C169.567 42.7298 169.607 42.4699 169.661 42.2633C169.661 42.17 169.701 42.0833 169.721 41.99C169.721 41.9767 169.721 41.9634 169.721 41.95C169.768 41.7768 169.808 41.6035 169.861 41.4235C169.954 41.0836 170.054 40.7571 170.174 40.4172C170.248 40.1906 170.321 39.9706 170.415 39.7507C170.508 39.5041 170.615 39.2575 170.722 39.0109C170.828 38.7643 170.915 38.5577 171.028 38.3445C171.082 38.2245 171.142 38.1112 171.202 37.9912C171.262 37.8713 171.342 37.698 171.422 37.558C171.469 37.4514 171.522 37.3514 171.582 37.2581C171.675 37.0848 171.769 36.9116 171.876 36.7383L174.15 37.9846Z" fill="black"/>
<path d="M145.012 86.5938L146.906 85.0742C146.152 85.6807 145.125 86.4738 145.012 86.5938Z" fill="#FF8113"/>
<path d="M195.834 52.711C195.12 52.3711 194.293 52.3978 193.599 52.7777C190.404 54.1906 189.437 54.6504 187.542 55.4035C187.035 55.6035 186.014 55.4435 186.275 53.7107C186.275 53.6707 186.275 53.6374 186.275 53.5974L186.708 51.1382L187.922 44.4335C187.922 44.4335 188.196 43.3739 187.495 42.9806H187.442C187.269 42.894 187.082 42.854 186.888 42.8607C186.061 42.7607 185.327 42.2875 184.887 41.5811C184.133 40.4547 183.86 39.0752 184.133 37.7489C184.647 34.8698 184.087 32.857 182.799 32.1106L182.699 32.044C181.872 31.6108 180.771 31.6841 179.477 32.3639C176.068 34.15 172.626 39.4484 171.785 44.2069C171.258 47.206 168.236 51.8246 166.489 53.5374C164.741 55.2503 164.627 56.6632 164.627 56.6632L163.293 64.3542L162.853 66.8134C162.533 68.6529 160.645 70.4323 160.645 70.4323L153.574 75.6441C150.765 77.8767 148.744 80.9358 147.79 84.3881C147.79 84.3881 145.122 86.4275 144.988 86.5941L145.889 86.0809L194.4 58.216C194.4 58.216 194.96 57.9161 195.067 57.8361C195.174 57.7562 197.142 55.9167 197.142 55.9167C197.108 54.3305 196.648 53.1975 195.834 52.711ZM181.825 38.5753C181.305 41.5011 179.197 44.7601 177.102 45.8598C175.655 46.6129 174.594 46.1463 174.24 44.8134C174.087 44.067 174.087 43.2939 174.24 42.5474C174.754 39.6217 176.875 36.3626 178.97 35.2696C179.163 35.163 179.37 35.0764 179.577 35.0097C181.291 34.4899 182.259 35.9494 181.812 38.5753H181.825Z" fill="#FF8113"/>
<path d="M145.017 86.602L194.435 58.2239L195.102 57.8441C195.222 57.7707 197.177 55.918 197.177 55.918L147.812 84.3893C147.812 84.3893 144.823 86.7086 145.017 86.602Z" fill="#FF8113"/>
<path opacity="0.3" d="M145.017 86.602L194.435 58.2239L195.102 57.8441C195.222 57.7707 197.177 55.918 197.177 55.918L147.812 84.3893C147.812 84.3893 144.823 86.7086 145.017 86.602Z" fill="black"/>
<path d="M179.592 35.0106C179.386 35.0772 179.179 35.1638 178.985 35.2705C176.891 36.3635 174.769 39.6225 174.256 42.5483C174.102 43.2947 174.102 44.0678 174.256 44.8143C174.609 46.1472 175.67 46.6137 177.118 45.8606C179.212 44.7609 181.32 41.5019 181.841 38.5762C182.261 35.9503 181.294 34.4907 179.592 35.0106ZM174.389 44.7609C174.242 44.0412 174.242 43.2947 174.389 42.5749C174.903 39.6825 176.991 36.4635 179.059 35.3904C179.232 35.2971 179.412 35.2238 179.592 35.1572C179.726 35.8636 179.726 36.5834 179.592 37.2899C179.079 40.2157 176.964 43.4747 174.863 44.5743C174.709 44.6543 174.549 44.721 174.389 44.7809V44.7609Z" fill="#FF8113"/>
<path opacity="0.4" d="M179.592 35.0106C179.386 35.0772 179.179 35.1638 178.985 35.2705C176.891 36.3635 174.769 39.6225 174.256 42.5483C174.102 43.2947 174.102 44.0678 174.256 44.8143C174.609 46.1472 175.67 46.6137 177.118 45.8606C179.212 44.7609 181.32 41.5019 181.841 38.5762C182.261 35.9503 181.294 34.4907 179.592 35.0106ZM174.389 44.7609C174.242 44.0412 174.242 43.2947 174.389 42.5749C174.903 39.6825 176.991 36.4635 179.059 35.3904C179.232 35.2971 179.412 35.2238 179.592 35.1572C179.726 35.8636 179.726 36.5834 179.592 37.2899C179.079 40.2157 176.964 43.4747 174.863 44.5743C174.709 44.6543 174.549 44.721 174.389 44.7809V44.7609Z" fill="black"/>
<path d="M140.679 124.255C140.572 124.255 140.472 124.229 140.379 124.175C140.152 124.029 140.032 123.776 140.058 123.509V120.663C140.078 120.143 140.352 119.67 140.792 119.39L143.28 117.957C143.587 117.757 144.001 117.837 144.208 118.144C144.288 118.264 144.328 118.404 144.314 118.55V121.423C144.294 121.943 144.021 122.423 143.581 122.696L141.092 124.135C140.966 124.209 140.826 124.255 140.679 124.255ZM143.694 118.431C143.654 118.444 143.614 118.457 143.581 118.477L141.092 119.91C140.839 120.083 140.679 120.357 140.659 120.663V123.536C140.645 123.576 140.645 123.616 140.659 123.656C140.699 123.656 140.739 123.636 140.772 123.616L143.26 122.176C143.514 122.003 143.674 121.73 143.694 121.423V118.55C143.694 118.55 143.694 118.49 143.694 118.464V118.431Z" fill="#455A64"/>
<path d="M146.431 117.544L156.237 111.886C156.564 111.699 156.824 111.846 156.824 112.219V112.985C156.797 113.392 156.584 113.772 156.237 113.992L146.431 119.65C146.111 119.836 145.844 119.69 145.844 119.317V118.55C145.87 118.144 146.084 117.764 146.431 117.544Z" fill="#E0E0E0"/>
<path d="M164.982 110.24C164.875 110.24 164.775 110.213 164.682 110.16C164.455 110.02 164.328 109.76 164.355 109.493V106.621C164.375 106.101 164.655 105.628 165.096 105.348L167.584 103.915C167.791 103.762 168.071 103.748 168.298 103.875C168.518 104.008 168.644 104.255 168.618 104.508V107.381C168.598 107.9 168.324 108.38 167.884 108.654L165.396 110.093C165.276 110.18 165.129 110.226 164.982 110.24ZM167.991 104.415C167.957 104.428 167.917 104.441 167.884 104.461L165.396 105.894C165.142 106.061 164.975 106.341 164.955 106.647V109.52C164.942 109.56 164.942 109.6 164.955 109.64C164.995 109.633 165.036 109.62 165.069 109.6L167.557 108.16C167.811 107.994 167.971 107.714 167.991 107.407V104.535C168.004 104.495 167.997 104.455 167.991 104.415Z" fill="#455A64"/>
<path d="M170.732 103.528L180.538 97.87C180.865 97.6833 181.125 97.83 181.125 98.2032V98.9696C181.098 99.3762 180.885 99.756 180.538 99.976L170.732 105.634C170.405 105.821 170.145 105.674 170.145 105.301V104.535C170.178 104.128 170.391 103.755 170.732 103.528Z" fill="#E0E0E0"/>
<path d="M189.28 96.225C189.173 96.225 189.073 96.1983 188.98 96.145C188.76 95.9984 188.633 95.7451 188.66 95.4785V92.606C188.68 92.0862 188.953 91.613 189.394 91.3331L191.882 89.9002C192.189 89.6936 192.602 89.7736 192.809 90.0735C192.896 90.2001 192.936 90.3467 192.922 90.5V93.3658C192.902 93.8857 192.622 94.3655 192.182 94.6388L189.694 96.0783C189.574 96.165 189.427 96.2116 189.28 96.225ZM189.694 91.8796C189.44 92.0529 189.28 92.3261 189.26 92.6327V95.5052C189.247 95.5452 189.247 95.5851 189.26 95.6251C189.3 95.6251 189.334 95.6051 189.367 95.5851L191.855 94.1456C192.109 93.979 192.275 93.699 192.295 93.3925V90.5267C192.309 90.4867 192.309 90.44 192.295 90.4001C192.295 90.4001 192.255 90.4001 192.182 90.4467L189.694 91.8796Z" fill="#455A64"/>
<path d="M195.036 89.5126L204.843 83.8543C205.163 83.6677 205.43 83.8143 205.43 84.1876V84.954C205.396 85.3605 205.183 85.7338 204.843 85.9604L195.036 91.6186C194.709 91.8053 194.449 91.6586 194.449 91.2854V90.519C194.476 90.1124 194.689 89.7325 195.036 89.5126Z" fill="#E0E0E0"/>
<path d="M146.457 103.525V104.645C146.457 105.258 146.884 105.504 147.411 105.198L204.781 72.1346C205.348 71.7613 205.701 71.1482 205.735 70.4751V69.3487C205.735 68.7422 205.308 68.4957 204.781 68.7956L147.411 101.866C146.844 102.239 146.49 102.852 146.457 103.525Z" fill="#E0E0E0"/>
<path d="M142.09 94.7789V95.8986C142.09 96.5118 142.517 96.7583 143.05 96.4518L200.387 63.3885C200.954 63.0219 201.314 62.4021 201.348 61.729V60.6026C201.348 59.9962 200.921 59.7496 200.387 60.0495L143.05 93.1394C142.49 93.4993 142.13 94.1125 142.09 94.7789Z" fill="#455A64"/>
<path d="M146.457 110.3V111.426C146.457 112.032 146.884 112.279 147.411 111.979L204.781 78.9158C205.348 78.5426 205.701 77.9294 205.735 77.2563V76.13C205.735 75.5235 205.308 75.2769 204.781 75.5768L147.411 108.647C146.851 109.013 146.497 109.626 146.457 110.3Z" fill="#E0E0E0"/>
<path d="M140.173 110.88C141.674 109.394 142.047 108.761 142.047 108.214C142.047 107.668 141.827 107.375 141.154 107.761C140.566 108.101 140.153 108.688 140.039 109.361L138.398 109.727C138.685 107.988 139.713 106.462 141.207 105.529C142.848 104.582 143.802 105.289 143.802 106.862C143.708 108.394 143.041 109.834 141.934 110.894V112.193L140.173 113.206V110.88Z" fill="#455A64"/>
<path d="M140.152 115.2C140.152 114.547 140.486 113.941 141.046 113.607C141.633 113.267 141.933 113.567 141.933 114.174C141.947 114.827 141.607 115.44 141.046 115.78C140.453 116.12 140.152 115.8 140.152 115.2Z" fill="#455A64"/>
<path d="M141.067 120.666L141.801 121.219L141.134 122.485C141.014 122.645 141.014 122.858 141.134 123.018C141.261 123.112 141.441 123.018 141.548 122.818L142.215 121.559L142.948 122.112C143.055 122.192 143.215 122.112 143.309 121.939C143.409 121.805 143.409 121.612 143.309 121.479L142.575 120.926L143.242 119.659C143.362 119.499 143.362 119.286 143.242 119.126C143.115 119.033 142.935 119.126 142.828 119.326L142.161 120.592L141.427 120.039C141.321 119.959 141.161 120.039 141.067 120.206C140.967 120.339 140.967 120.532 141.067 120.666Z" fill="#FF8113"/>
<path d="M140.679 149.564C140.572 149.564 140.472 149.544 140.379 149.491C140.152 149.345 140.032 149.091 140.058 148.825V145.952C140.078 145.432 140.352 144.953 140.792 144.679L143.28 143.246C143.587 143.046 144.001 143.126 144.208 143.433C144.288 143.553 144.328 143.693 144.314 143.84V146.712C144.294 147.232 144.021 147.712 143.581 147.985L141.092 149.418C140.972 149.504 140.826 149.551 140.679 149.564ZM143.694 143.746C143.654 143.753 143.614 143.766 143.581 143.793L141.092 145.226C140.839 145.399 140.679 145.672 140.659 145.979V148.851C140.645 148.891 140.645 148.931 140.659 148.971C140.699 148.971 140.739 148.951 140.772 148.931L143.26 147.492C143.514 147.318 143.674 147.045 143.694 146.739V143.866C143.694 143.826 143.694 143.786 143.694 143.746Z" fill="#455A64"/>
<path d="M146.431 142.85L156.237 137.198C156.564 137.011 156.824 137.158 156.824 137.531V138.291C156.804 138.704 156.584 139.078 156.237 139.304L146.431 144.962C146.111 145.149 145.844 144.996 145.844 144.622V143.863C145.864 143.45 146.084 143.076 146.431 142.85Z" fill="#E0E0E0"/>
<path d="M164.982 135.546C164.875 135.546 164.775 135.526 164.682 135.472C164.455 135.332 164.328 135.072 164.355 134.806V131.933C164.375 131.413 164.655 130.934 165.096 130.66L167.584 129.227C167.791 129.074 168.071 129.061 168.298 129.187C168.518 129.321 168.644 129.567 168.618 129.821V132.693C168.598 133.213 168.324 133.693 167.884 133.966L165.396 135.399C165.276 135.486 165.129 135.532 164.982 135.546ZM167.991 129.727C167.951 129.734 167.917 129.754 167.884 129.774L165.396 131.207C165.142 131.373 164.975 131.653 164.955 131.96V134.832C164.942 134.872 164.942 134.912 164.955 134.952C164.995 134.946 165.036 134.932 165.069 134.912L167.557 133.473C167.811 133.3 167.971 133.026 167.991 132.72V129.847C168.004 129.807 168.004 129.767 167.991 129.727Z" fill="#455A64"/>
<path d="M170.732 128.834L180.538 123.182C180.865 122.996 181.125 123.142 181.125 123.516V124.275C181.105 124.689 180.885 125.062 180.538 125.288L170.732 130.947C170.405 131.133 170.145 130.947 170.145 130.607V129.847C170.171 129.434 170.391 129.061 170.732 128.834Z" fill="#E0E0E0"/>
<path d="M189.28 121.53C189.173 121.53 189.073 121.51 188.98 121.457C188.76 121.311 188.633 121.057 188.66 120.791V117.918C188.68 117.398 188.953 116.925 189.394 116.645L191.882 115.212C192.189 115.006 192.602 115.086 192.809 115.392C192.889 115.512 192.929 115.659 192.922 115.806V118.678C192.902 119.198 192.622 119.678 192.182 119.951L189.694 121.384C189.574 121.47 189.427 121.517 189.28 121.53ZM189.694 117.192C189.44 117.365 189.28 117.638 189.26 117.945V120.817C189.247 120.857 189.247 120.897 189.26 120.937C189.3 120.931 189.334 120.917 189.367 120.897L191.855 119.458C192.109 119.291 192.275 119.011 192.295 118.705V115.832C192.309 115.792 192.309 115.752 192.295 115.712C192.255 115.719 192.215 115.739 192.182 115.759L189.694 117.192Z" fill="#455A64"/>
<path d="M195.036 114.818L204.843 109.167C205.163 108.98 205.43 109.127 205.43 109.5V110.26C205.403 110.673 205.183 111.046 204.843 111.273L195.036 116.931C194.709 117.118 194.449 116.964 194.449 116.591V115.831C194.469 115.418 194.689 115.045 195.036 114.818Z" fill="#E0E0E0"/>
<path d="M146.457 128.831V129.957C146.457 130.564 146.884 130.81 147.411 130.51L204.781 97.4471C205.348 97.0738 205.701 96.4607 205.735 95.7876V94.6612C205.735 94.0547 205.308 93.8082 204.781 94.1081L147.411 127.178C146.851 127.545 146.497 128.158 146.457 128.831Z" fill="#E0E0E0"/>
<path d="M146.457 135.612V136.739C146.457 137.345 146.884 137.592 147.411 137.292L204.781 104.222C205.348 103.855 205.701 103.242 205.735 102.569V101.443C205.735 100.83 205.308 100.583 204.781 100.89L147.411 133.959C146.851 134.326 146.497 134.939 146.457 135.612Z" fill="#E0E0E0"/>
<path d="M140.173 136.192C141.674 134.706 142.047 134.072 142.047 133.526C142.047 132.979 141.827 132.686 141.154 133.073C140.566 133.413 140.153 133.999 140.039 134.672L138.398 135.039C138.685 133.299 139.713 131.773 141.207 130.84C142.848 129.894 143.802 130.6 143.802 132.206C143.708 133.739 143.041 135.179 141.934 136.238V137.538L140.173 138.551V136.192Z" fill="#455A64"/>
<path d="M140.152 140.513C140.152 139.859 140.486 139.253 141.046 138.92C141.633 138.58 141.933 138.88 141.933 139.486C141.94 140.139 141.607 140.753 141.046 141.092C140.453 141.432 140.152 141.126 140.152 140.513Z" fill="#455A64"/>
<path d="M165.369 131.936L166.102 132.489L165.435 133.756C165.315 133.916 165.315 134.129 165.435 134.289C165.555 134.382 165.742 134.289 165.849 134.089L166.516 132.829L167.25 133.383C167.357 133.463 167.517 133.383 167.603 133.209C167.703 133.076 167.703 132.883 167.603 132.749L166.87 132.196L167.537 130.93C167.65 130.763 167.637 130.543 167.503 130.397C167.383 130.31 167.196 130.397 167.09 130.597L166.423 131.863L165.689 131.31C165.589 131.23 165.429 131.31 165.335 131.476C165.242 131.616 165.255 131.81 165.369 131.936Z" fill="#FF8113"/>
<path d="M140.683 174.874C140.576 174.874 140.476 174.847 140.382 174.794C140.162 174.66 140.035 174.414 140.062 174.161V171.288C140.082 170.768 140.356 170.288 140.796 170.015L143.284 168.582C143.591 168.382 144.005 168.462 144.211 168.769C144.291 168.889 144.332 169.029 144.318 169.175V172.048C144.298 172.568 144.025 173.048 143.584 173.321L141.096 174.754C140.969 174.827 140.829 174.874 140.683 174.874ZM143.698 169.056C143.658 169.062 143.618 169.076 143.584 169.102L141.096 170.535C140.843 170.708 140.683 170.982 140.662 171.288V174.161C140.649 174.201 140.649 174.241 140.662 174.281C140.703 174.274 140.743 174.261 140.776 174.234L143.264 172.801C143.518 172.628 143.678 172.355 143.698 172.048V169.175C143.698 169.135 143.711 169.096 143.698 169.056Z" fill="#455A64"/>
<path d="M146.431 168.164L156.237 162.505C156.564 162.319 156.824 162.472 156.824 162.845V163.605C156.804 164.018 156.584 164.391 156.237 164.618L146.431 170.276C146.111 170.463 145.844 170.31 145.844 169.936V169.177C145.864 168.763 146.084 168.39 146.431 168.164Z" fill="#E0E0E0"/>
<path d="M164.985 160.859C164.878 160.859 164.778 160.832 164.684 160.779C164.464 160.646 164.338 160.399 164.358 160.146V157.273C164.378 156.753 164.658 156.274 165.098 156L167.586 154.567C167.8 154.421 168.073 154.407 168.3 154.521C168.52 154.667 168.647 154.921 168.62 155.187V158.06C168.6 158.58 168.327 159.059 167.886 159.333L165.398 160.766C165.271 160.832 165.131 160.865 164.985 160.859ZM167.993 155.041C167.953 155.047 167.92 155.067 167.886 155.087L165.398 156.52C165.145 156.687 164.978 156.967 164.958 157.273V160.146C164.945 160.186 164.945 160.226 164.958 160.266C164.998 160.259 165.038 160.239 165.071 160.219L167.586 158.786C167.84 158.613 168 158.34 168.02 158.033V155.161C168.02 155.121 168.02 155.074 167.993 155.041Z" fill="#455A64"/>
<path d="M170.732 154.149L180.538 148.491C180.865 148.311 181.125 148.457 181.125 148.831V149.59C181.105 150.004 180.885 150.377 180.538 150.603L170.732 156.262C170.405 156.448 170.145 156.295 170.145 155.922V155.162C170.171 154.749 170.391 154.376 170.732 154.149Z" fill="#E0E0E0"/>
<path d="M189.28 146.842C189.173 146.842 189.073 146.815 188.98 146.762C188.76 146.629 188.633 146.382 188.66 146.129V143.256C188.68 142.736 188.953 142.257 189.394 141.983L191.882 140.55C192.182 140.337 192.596 140.404 192.809 140.704C192.896 140.824 192.942 140.97 192.936 141.124V143.996C192.916 144.516 192.636 144.996 192.195 145.269L189.707 146.702C189.58 146.788 189.434 146.835 189.28 146.842ZM189.694 142.503C189.44 142.676 189.28 142.95 189.26 143.256V146.129C189.247 146.169 189.247 146.209 189.26 146.249C189.3 146.242 189.334 146.222 189.367 146.202L191.855 144.769C192.109 144.602 192.275 144.323 192.295 144.016V141.124C192.309 141.084 192.309 141.044 192.295 141.004C192.255 141.01 192.215 141.024 192.182 141.044L189.694 142.503Z" fill="#455A64"/>
<path d="M195.036 140.132L204.843 134.473C205.163 134.293 205.43 134.473 205.43 134.813V135.573C205.403 135.986 205.183 136.359 204.843 136.586L195.036 142.244C194.709 142.431 194.449 142.278 194.449 141.904V141.125C194.476 140.718 194.696 140.352 195.036 140.132Z" fill="#E0E0E0"/>
<path d="M146.457 154.142V155.269C146.457 155.875 146.884 156.122 147.411 155.822L204.781 122.752C205.348 122.385 205.701 121.772 205.735 121.099V119.973C205.735 119.366 205.308 119.113 204.781 119.42L147.411 152.49C146.851 152.856 146.497 153.469 146.457 154.142Z" fill="#E0E0E0"/>
<path d="M146.457 160.925V162.051C146.457 162.658 146.884 162.904 147.411 162.598L204.781 129.534C205.348 129.168 205.701 128.555 205.735 127.882V126.755C205.735 126.142 205.308 125.895 204.781 126.202L147.411 159.272C146.844 159.639 146.49 160.252 146.457 160.925Z" fill="#E0E0E0"/>
<path d="M140.173 161.505C141.674 160.019 142.047 159.386 142.047 158.839C142.047 158.293 141.827 157.993 141.154 158.386C140.566 158.726 140.153 159.313 140.039 159.986L138.398 160.346C138.692 158.613 139.713 157.087 141.207 156.154C142.848 155.207 143.802 155.914 143.802 157.487C143.708 159.019 143.041 160.459 141.934 161.519V162.818L140.173 163.831V161.505Z" fill="#455A64"/>
<path d="M140.152 165.824C140.152 165.171 140.486 164.564 141.046 164.224C141.633 163.891 141.933 164.191 141.933 164.797C141.94 165.45 141.607 166.064 141.046 166.403C140.453 166.743 140.152 166.45 140.152 165.824Z" fill="#455A64"/>
<path d="M189.673 143.232L190.401 143.785L189.733 145.052C189.613 145.212 189.613 145.425 189.733 145.585C189.854 145.678 190.04 145.585 190.147 145.385L190.814 144.119L191.548 144.672C191.655 144.752 191.808 144.672 191.902 144.505C192.008 144.372 192.008 144.179 191.902 144.045L191.168 143.492L191.835 142.226C191.942 142.059 191.928 141.846 191.801 141.693C191.681 141.599 191.495 141.693 191.388 141.893L190.721 143.159L189.987 142.599C189.88 142.519 189.72 142.599 189.633 142.772C189.54 142.919 189.56 143.106 189.673 143.232Z" fill="#FF8113"/>
<path d="M140.683 200.188C140.576 200.188 140.476 200.161 140.382 200.108C140.162 199.974 140.035 199.728 140.062 199.474V196.602C140.082 196.082 140.356 195.602 140.796 195.329L143.284 193.889C143.498 193.75 143.771 193.736 143.998 193.849C144.225 193.996 144.345 194.249 144.318 194.516V197.388C144.298 197.908 144.025 198.381 143.584 198.661L141.096 200.094C140.969 200.161 140.829 200.194 140.683 200.188ZM143.698 194.369C143.658 194.369 143.618 194.389 143.584 194.409L141.096 195.849C140.843 196.022 140.683 196.295 140.662 196.602V199.474C140.649 199.514 140.649 199.554 140.662 199.594C140.703 199.581 140.743 199.568 140.776 199.548L143.264 198.115C143.518 197.942 143.678 197.668 143.698 197.362V194.489C143.704 194.449 143.718 194.409 143.698 194.369Z" fill="#455A64"/>
<path d="M146.431 193.476L156.237 187.818C156.564 187.631 156.824 187.784 156.824 188.158V188.917C156.804 189.331 156.584 189.704 156.237 189.931L146.431 195.589C146.111 195.775 145.844 195.589 145.844 195.249V194.489C145.864 194.076 146.084 193.703 146.431 193.476Z" fill="#E0E0E0"/>
<path d="M164.984 186.172C164.877 186.172 164.777 186.145 164.684 186.092C164.45 185.958 164.323 185.692 164.357 185.425V182.553C164.377 182.033 164.657 181.553 165.097 181.28L167.586 179.84C167.892 179.64 168.306 179.72 168.513 180.027C168.593 180.147 168.633 180.293 168.62 180.44V183.312C168.6 183.832 168.326 184.312 167.886 184.585L165.397 186.018C165.277 186.105 165.131 186.158 164.984 186.172ZM167.992 180.353C167.952 180.36 167.919 180.373 167.886 180.393L165.397 181.833C165.144 181.999 164.977 182.279 164.957 182.586V185.458C164.944 185.498 164.944 185.538 164.957 185.578C164.997 185.565 165.037 185.552 165.071 185.532L167.559 184.099C167.812 183.926 167.972 183.652 167.992 183.346V180.447C167.992 180.447 167.999 180.387 167.992 180.353Z" fill="#455A64"/>
<path d="M170.732 179.459L180.538 173.8C180.865 173.614 181.125 173.8 181.125 174.14V174.9C181.105 175.313 180.885 175.687 180.538 175.913L170.732 181.571C170.405 181.758 170.145 181.605 170.145 181.232V180.445C170.185 180.045 170.398 179.685 170.732 179.459Z" fill="#E0E0E0"/>
<path d="M189.28 172.156C189.173 172.156 189.073 172.13 188.98 172.076C188.76 171.943 188.633 171.696 188.66 171.443V168.571C188.68 168.051 188.953 167.571 189.394 167.298L191.882 165.858C192.102 165.718 192.369 165.705 192.602 165.818C192.822 165.965 192.949 166.218 192.922 166.485V169.357C192.902 169.877 192.622 170.35 192.182 170.63L189.694 172.063C189.567 172.13 189.427 172.163 189.28 172.156ZM189.694 167.818C189.44 167.991 189.28 168.264 189.26 168.571V171.443C189.247 171.483 189.247 171.523 189.26 171.563C189.294 171.55 189.334 171.536 189.367 171.516L191.855 170.084C192.109 169.917 192.275 169.637 192.295 169.33V166.451C192.309 166.411 192.309 166.371 192.295 166.331C192.255 166.338 192.215 166.351 192.182 166.371L189.694 167.818Z" fill="#455A64"/>
<path d="M195.036 165.445L204.843 159.787C205.163 159.6 205.43 159.753 205.43 160.126V160.886C205.403 161.299 205.183 161.673 204.843 161.899L195.036 167.558C194.709 167.744 194.449 167.558 194.449 167.218V166.451C194.476 166.045 194.689 165.665 195.036 165.445Z" fill="#E0E0E0"/>
<path d="M146.457 179.452V180.578C146.457 181.185 146.884 181.432 147.411 181.125L204.781 148.062C205.348 147.695 205.701 147.082 205.735 146.409V145.283C205.735 144.669 205.308 144.423 204.781 144.729L147.411 177.799C146.844 178.166 146.49 178.779 146.457 179.452Z" fill="#E0E0E0"/>
<path d="M146.457 186.237V187.364C146.457 187.97 146.884 188.217 147.411 187.91L204.781 154.847C205.341 154.48 205.695 153.867 205.735 153.194V152.068C205.735 151.455 205.308 151.208 204.781 151.515L147.411 184.584C146.844 184.951 146.49 185.564 146.457 186.237Z" fill="#E0E0E0"/>
<path d="M140.173 186.817C141.674 185.331 142.047 184.697 142.047 184.151C142.047 183.604 141.827 183.305 141.154 183.698C140.566 184.038 140.16 184.624 140.039 185.291L138.398 185.657C138.692 183.924 139.713 182.398 141.207 181.465C142.848 180.519 143.802 181.225 143.802 182.831C143.708 184.364 143.041 185.804 141.934 186.864V188.163L140.173 189.176V186.817Z" fill="#455A64"/>
<path d="M140.152 191.11C140.152 190.457 140.486 189.85 141.046 189.51C141.633 189.177 141.933 189.47 141.933 190.084C141.94 190.737 141.607 191.343 141.046 191.683C140.453 192.056 140.152 191.776 140.152 191.11Z" fill="#455A64"/>
<path d="M189.673 168.65L190.401 169.203L189.733 170.47C189.613 170.63 189.613 170.843 189.733 171.003C189.854 171.096 190.04 171.003 190.147 170.803L190.814 169.537L191.548 170.096C191.655 170.176 191.808 170.096 191.902 169.923C192.008 169.79 192.008 169.596 191.902 169.463L191.168 168.91L191.835 167.644C191.942 167.477 191.928 167.264 191.801 167.111C191.681 167.017 191.495 167.111 191.388 167.311L190.721 168.577L189.987 168.017C189.88 167.944 189.72 168.017 189.633 168.19C189.54 168.337 189.56 168.523 189.673 168.65Z" fill="#FF8113"/>
<path d="M254.662 60.791L249.758 57.9652L249.712 57.9319C247.27 56.5523 243.928 56.7589 240.226 58.8982C236.757 60.8976 233.595 64.23 231.213 68.0755C228.458 72.5141 226.73 77.6459 226.73 82.2512C226.73 86.5499 228.231 89.5823 230.666 90.9752L235.649 93.821C238.104 95.3872 241.58 95.2472 245.429 93.0279C252.887 88.7225 258.931 78.2657 258.931 69.6683C258.931 65.2097 257.283 62.1239 254.662 60.791Z" fill="#FF8113"/>
<path opacity="0.1" d="M235.542 93.8094L230.658 91.0169C228.224 89.604 226.723 86.5849 226.723 82.2929C226.723 77.6876 228.45 72.5558 231.206 68.1172L236.416 71.1229C233.66 75.5549 231.933 80.6867 231.933 85.2853C231.919 89.3641 233.294 92.3032 235.542 93.8094Z" fill="black"/>
<path opacity="0.4" d="M254.56 60.7371C252.158 59.5708 248.949 59.8641 245.42 61.8968C241.892 63.9295 238.79 67.2285 236.401 71.094L231.191 68.0882C233.573 64.2294 236.742 60.9038 240.204 58.911C243.906 56.7717 247.248 56.5717 249.69 57.9447L249.737 57.978L254.56 60.7371Z" fill="white"/>
<path d="M242.441 73.4532C242.461 74.5062 241.988 75.5059 241.16 76.1591C240.453 76.5656 239.88 76.0191 239.88 74.9328C239.86 73.8798 240.333 72.8801 241.16 72.2269C241.867 71.8137 242.441 72.3669 242.441 73.4532Z" fill="#455A64"/>
<path d="M249.73 69.2474C249.75 70.3004 249.277 71.3001 248.449 71.9532C247.742 72.3598 247.169 71.8133 247.169 70.727C247.149 69.6739 247.622 68.6742 248.449 68.0211C249.157 67.6146 249.73 68.1611 249.73 69.2474Z" fill="#455A64"/>
<path d="M238.083 89.7036C238.03 89.7036 237.983 89.7036 237.929 89.7036C237.536 89.6237 237.282 89.2438 237.362 88.8506C237.362 88.8506 237.362 88.8439 237.362 88.8372C238.523 83.3256 241.478 78.5004 244.887 76.5343C246.295 75.6012 248.063 75.388 249.65 75.9611C251.258 76.6276 252.499 78.2338 253.139 80.5131C253.213 80.913 252.946 81.2995 252.539 81.3728C252.192 81.4328 251.845 81.2395 251.718 80.9063C251.211 79.0802 250.277 77.8072 249.097 77.3207C247.929 76.9408 246.648 77.1208 245.634 77.8139C242.619 79.5534 239.877 84.1053 238.817 89.1438C238.73 89.477 238.43 89.7103 238.083 89.7036Z" fill="#455A64"/>
<path d="M254.662 18.1483L249.758 15.3225H249.712C247.27 13.9429 243.928 14.1495 240.226 16.2889C236.757 18.2883 233.595 21.6206 231.213 25.4661C228.458 29.9047 226.73 35.0365 226.73 39.6418C226.73 43.9405 228.231 46.9729 230.666 48.3658L235.649 51.2116C238.104 52.7778 241.58 52.6378 245.429 50.4185C252.887 46.1132 258.931 35.6563 258.931 27.0923C258.931 22.567 257.283 19.4812 254.662 18.1483Z" fill="#FF8113"/>
<path opacity="0.1" d="M235.542 51.1532L230.658 48.3607C228.224 46.9478 226.723 43.9287 226.723 39.6366C226.723 35.0314 228.45 29.8996 231.206 25.4609L236.416 28.4667C233.66 32.8987 231.933 38.0305 231.933 42.6291C231.919 46.7212 233.294 49.6603 235.542 51.1532Z" fill="black"/>
<path opacity="0.4" d="M254.56 18.0965C252.158 16.9302 248.949 17.2234 245.42 19.2562C241.892 21.2889 238.79 24.5879 236.401 28.4534L231.191 25.4476C233.573 21.5888 236.742 18.2631 240.204 16.2704C243.906 14.1311 247.248 13.9311 249.69 15.304H249.737L254.56 18.0965Z" fill="white"/>
<path d="M242.358 44.9497C241.724 44.9497 241.097 44.8297 240.51 44.5898C238.769 43.8767 237.435 42.1372 236.748 39.678C236.648 39.2514 236.914 38.8249 237.341 38.7249C237.742 38.6316 238.148 38.8582 238.275 39.2514C238.829 41.2508 239.836 42.5838 241.11 43.1236C242.371 43.5435 243.759 43.3502 244.859 42.5971C248.108 40.7243 251.07 35.8058 252.197 30.3675C252.291 29.9409 252.711 29.6677 253.138 29.7543C253.565 29.8409 253.845 30.2675 253.752 30.694C252.498 36.6389 249.309 41.8506 245.633 43.9767C244.646 44.5765 243.519 44.9164 242.358 44.9497Z" fill="#455A64"/>
<path d="M242.212 31.7527C242.232 32.8924 241.718 33.972 240.831 34.6785C240.064 35.1183 239.45 34.5252 239.45 33.3456C239.43 32.2126 239.937 31.1329 240.831 30.4264C241.591 29.9866 242.212 30.5797 242.212 31.7527Z" fill="#455A64"/>
<path d="M250.083 27.2155C250.103 28.3485 249.589 29.4282 248.702 30.1347C247.941 30.5745 247.321 29.9814 247.321 28.8017C247.301 27.6687 247.815 26.5891 248.702 25.8826C249.462 25.4428 250.083 26.0426 250.083 27.2155Z" fill="#455A64"/>
<path d="M264.696 138.167L229.34 158.561C228.62 158.928 227.766 158.928 227.045 158.561L225.171 157.475C224.49 157.028 224.063 156.288 224.023 155.475V114.688C224.063 113.875 224.49 113.135 225.171 112.688L260.527 92.2944C261.247 91.9279 262.094 91.9279 262.815 92.2944L264.689 93.3874C265.37 93.8273 265.797 94.5738 265.837 95.3868V136.181C265.797 136.988 265.37 137.727 264.696 138.167Z" fill="#455A64"/>
<path d="M229.148 158.647C228.467 158.92 227.7 158.886 227.047 158.56L225.172 157.467C224.492 157.027 224.065 156.281 224.031 155.468V114.68C224.038 114.28 224.158 113.887 224.365 113.547L228.527 115.966C228.321 116.306 228.207 116.693 228.194 117.092V157.88C228.194 158.553 228.601 158.86 229.148 158.647Z" fill="#263238"/>
<path d="M264.695 138.165L229.339 158.559C228.705 158.926 228.191 158.632 228.191 157.893V117.132C228.231 116.319 228.658 115.579 229.339 115.132L264.695 94.7385C265.328 94.3719 265.842 94.6718 265.842 95.4049V136.199C265.795 136.999 265.368 137.725 264.695 138.165Z" fill="#37474F"/>
<path fill-rule="evenodd" clip-rule="evenodd" d="M246.051 128.005L236.445 141.601C240.688 145.886 248.853 142.667 254.684 134.41C258.186 129.458 260.067 124.113 260.067 119.121L248.44 125.799C247.519 126.386 246.705 127.132 246.051 128.005Z" fill="#FF8113"/>
<path opacity="0.3" fill-rule="evenodd" clip-rule="evenodd" d="M246.051 128.005L236.445 141.601C240.688 145.886 248.853 142.667 254.684 134.41C258.186 129.458 260.067 124.113 260.067 119.121L248.44 125.799C247.519 126.386 246.705 127.132 246.051 128.005Z" fill="black"/>
<path d="M235.96 141.253L245.566 127.658C246.273 126.724 247.147 125.925 248.141 125.305L259.768 118.6C260.055 118.434 260.422 118.534 260.589 118.82C260.642 118.914 260.669 119.013 260.669 119.12C260.669 124.265 258.767 129.677 255.178 134.755C251.316 140.22 246.353 143.699 241.903 144.086C239.735 144.339 237.567 143.586 236.02 142.04C235.833 141.847 235.793 141.553 235.926 141.32C235.926 141.293 235.94 141.273 235.96 141.253ZM259.441 120.173L248.768 126.345C247.921 126.871 247.173 127.551 246.566 128.344L237.26 141.507C238.535 142.553 240.182 143.033 241.823 142.84C245.866 142.506 250.616 139.134 254.211 134.036C254.825 133.176 255.379 132.303 255.886 131.43C257.94 128.011 259.161 124.152 259.441 120.173Z" fill="white"/>
<path fill-rule="evenodd" clip-rule="evenodd" d="M246.485 125.086L242.969 114.656C236.111 121.181 232.356 131.844 234.584 138.469C234.944 139.649 235.578 140.722 236.438 141.601L246.044 128.006C246.598 127.139 246.751 126.079 246.485 125.086Z" fill="#FF8113"/>
<path d="M242.562 114.22C242.709 114.08 242.916 114.02 243.116 114.066C243.316 114.12 243.476 114.266 243.543 114.46L247.052 124.89C247.379 126.063 247.198 127.322 246.545 128.349L236.965 141.945C236.859 142.085 236.698 142.178 236.525 142.191C236.345 142.211 236.171 142.145 236.045 142.018C235.124 141.078 234.437 139.939 234.043 138.686C232.422 133.867 233.863 126.976 237.319 120.998C238.733 118.498 240.501 116.219 242.562 114.22ZM245.564 127.656C246.004 126.942 246.124 126.076 245.911 125.27L242.709 115.753C236.452 122.164 233.076 132.081 235.157 138.279C235.424 139.132 235.845 139.925 236.392 140.632L245.564 127.656Z" fill="white"/>
<path fill-rule="evenodd" clip-rule="evenodd" d="M247.966 125.299L257.573 111.704C254.184 108.278 248.46 109.431 242.977 114.656L246.485 125.086C246.772 125.953 247.439 126.046 247.966 125.299Z" fill="#FF8113"/>
<path opacity="0.1" fill-rule="evenodd" clip-rule="evenodd" d="M247.966 125.299L257.573 111.704C254.184 108.278 248.46 109.431 242.977 114.656L246.485 125.086C246.772 125.953 247.439 126.046 247.966 125.299Z" fill="black"/>
<path d="M242.561 114.222C248.298 108.757 254.361 107.604 257.997 111.283C258.204 111.489 258.231 111.809 258.064 112.049L248.451 125.645C248.151 126.318 247.364 126.618 246.69 126.318C246.263 126.132 245.969 125.732 245.909 125.272L242.401 114.842C242.347 114.682 242.367 114.502 242.454 114.355C242.481 114.302 242.514 114.255 242.561 114.222ZM256.776 111.803C253.661 109.137 248.604 110.276 243.661 114.842L247.05 124.905C247.09 125.019 247.144 125.125 247.21 125.218C247.317 125.159 247.41 125.072 247.47 124.965L256.776 111.803Z" fill="white"/>
<path fill-rule="evenodd" clip-rule="evenodd" d="M248.438 125.797L260.066 119.133C260.066 115.8 259.265 113.434 257.571 111.715L247.965 125.311C247.438 126.044 247.638 126.277 248.438 125.797Z" fill="#FF8113"/>
<path opacity="0.2" fill-rule="evenodd" clip-rule="evenodd" d="M248.438 125.797L260.066 119.133C260.066 115.8 259.265 113.434 257.571 111.715L247.965 125.311C247.438 126.044 247.638 126.277 248.438 125.797Z" fill="black"/>
<path d="M247.473 124.951L257.086 111.356C257.186 111.209 257.353 111.122 257.526 111.109C257.7 111.089 257.88 111.156 258 111.282C259.821 113.122 260.668 115.614 260.668 119.12C260.668 119.333 260.555 119.533 260.368 119.64L248.747 126.344C248.494 126.491 247.733 126.931 247.267 126.418C247 126.064 247 125.578 247.267 125.225L247.473 124.951ZM257.646 112.668L249.101 124.765L259.481 118.767C259.414 116.121 258.827 114.155 257.646 112.668Z" fill="white"/>
</g>
<defs>
<clipPath id="clip0_1221_82313">
<rect width="230" height="220" fill="white" transform="translate(75 10)"/>
</clipPath>
</defs>
</svg>
