<svg width="193" height="167" viewBox="0 0 193 167" fill="none" xmlns="http://www.w3.org/2000/svg">
<path d="M28.1672 152.523C65.7297 171.826 126.611 171.826 164.182 152.523C201.753 133.221 201.745 101.922 164.182 82.6153C126.62 63.3086 65.738 63.3128 28.1672 82.6153C-9.4036 101.918 -9.37452 133.221 28.1672 152.523Z" fill="#F5F5F5"/>
<path d="M161.142 100.813C161.187 98.2334 163.887 91.4877 166.625 88.1813C169.362 84.8749 173.611 82.5031 176.594 83.579C179.364 84.58 178.999 88.227 175.576 90.5905C172.153 92.954 167.019 95.9073 165.462 100.065L162.255 105.149L161.142 100.813Z" fill="#FF8113"/>
<path opacity="0.1" d="M161.142 100.813C161.187 98.2334 163.887 91.4877 166.625 88.1813C169.362 84.8749 173.611 82.5031 176.594 83.579C179.364 84.58 178.999 88.227 175.576 90.5905C172.153 92.954 167.019 95.9073 165.462 100.065L162.255 105.149L161.142 100.813Z" fill="black"/>
<path d="M161.632 102.906C161.672 102.904 161.71 102.888 161.741 102.862C161.772 102.836 161.793 102.8 161.802 102.761C163.684 93.98 170.94 86.9435 175.227 85.4357C175.251 85.4278 175.272 85.4152 175.291 85.3987C175.31 85.3822 175.325 85.3622 175.336 85.3397C175.347 85.3173 175.353 85.2929 175.354 85.268C175.355 85.2431 175.352 85.2182 175.343 85.1948C175.335 85.1715 175.322 85.1501 175.305 85.1319C175.289 85.1136 175.269 85.0988 175.246 85.0884C175.224 85.078 175.2 85.0721 175.175 85.0711C175.15 85.0701 175.126 85.074 175.102 85.0826C170.728 86.6195 163.343 93.7681 161.432 102.682C161.423 102.731 161.434 102.781 161.461 102.823C161.488 102.865 161.529 102.895 161.578 102.906H161.632Z" fill="white"/>
<path d="M162.845 108.568C163.285 107.127 165.1 104.763 168 102.836C171.206 100.705 175.235 99.7703 176.191 98.0797C177.337 96.0568 175.647 94.0921 172.386 94.441C169.125 94.7899 163.318 99.1306 162.288 105.806L162.845 108.568Z" fill="#FF8113"/>
<path d="M162.242 107.035C162.278 107.033 162.313 107.02 162.342 106.999C162.372 106.977 162.395 106.948 162.408 106.915C165.241 99.4172 171.044 96.8668 173.715 96.5678C173.74 96.5652 173.763 96.5577 173.785 96.5459C173.807 96.534 173.826 96.5179 173.841 96.4986C173.857 96.4793 173.868 96.4571 173.875 96.4333C173.882 96.4095 173.884 96.3846 173.881 96.3601C173.879 96.3353 173.872 96.3111 173.86 96.2891C173.849 96.2671 173.833 96.2477 173.813 96.2322C173.794 96.2166 173.771 96.2052 173.747 96.1986C173.723 96.1921 173.698 96.1905 173.673 96.1939C170.72 96.5221 164.951 99.1265 162.043 106.782C162.025 106.828 162.027 106.879 162.047 106.925C162.067 106.97 162.105 107.005 162.151 107.023C162.179 107.038 162.211 107.042 162.242 107.035Z" fill="white"/>
<path d="M35.1331 125.212L38.2775 123.414C38.2775 123.414 39.7853 115.106 38.6596 107.962C37.0729 97.9178 30.2358 94.4535 27.7518 95.4546C25.2679 96.4556 24.6822 99.4256 29.1683 105.228C31.8142 108.655 35.2203 115.895 35.1331 125.212Z" fill="#FF8113"/>
<g opacity="0.1">
<path d="M35.1331 125.212L38.2775 123.414C38.2775 123.414 39.7853 115.106 38.6596 107.962C37.0729 97.9178 30.2358 94.4535 27.7518 95.4546C25.2679 96.4556 24.6822 99.4256 29.1683 105.228C31.8142 108.655 35.2203 115.895 35.1331 125.212Z" fill="black"/>
</g>
<path d="M36.2713 121.224H36.2422C36.2128 121.221 36.1844 121.212 36.1587 121.197C36.133 121.182 36.1106 121.162 36.0928 121.138C36.0749 121.115 36.062 121.088 36.0549 121.059C36.0477 121.03 36.0465 121 36.0512 120.971C37.3513 111.571 33.5589 101.27 29.3221 97.1161C29.301 97.0956 29.2842 97.071 29.2727 97.0439C29.2613 97.0168 29.2554 96.9877 29.2554 96.9582C29.2554 96.9288 29.2613 96.8997 29.2727 96.8725C29.2842 96.8454 29.301 96.8209 29.3221 96.8004C29.3641 96.7588 29.4208 96.7354 29.4799 96.7354C29.539 96.7354 29.5957 96.7588 29.6377 96.8004C33.966 101.029 37.8165 111.496 36.4998 121.038C36.4899 121.091 36.4616 121.139 36.4198 121.173C36.3779 121.207 36.3253 121.225 36.2713 121.224Z" fill="white"/>
<path d="M26.4102 130.251C25.9159 130.537 24.8899 129.914 24.4995 129.648C23.8268 129.192 23.2832 128.569 22.9211 127.841C22.5089 127.016 22.3638 126.082 22.5057 125.171C22.5844 124.691 22.6968 124.218 22.8421 123.754L23.2575 122.375C23.4178 121.931 23.4857 121.459 23.4569 120.988C23.3364 120.045 22.5015 119.384 21.7414 118.815C20.9106 118.184 20.0259 117.353 20.03 116.219C20.0921 115.34 20.4425 114.507 21.0269 113.847C21.5711 113.162 22.2149 112.556 22.6885 111.829C23.0785 111.33 23.2866 110.713 23.2783 110.08C23.228 109.691 23.0979 109.316 22.8961 108.979C22.4343 108.277 22.0314 107.538 21.6915 106.769C21.4132 105.976 21.4548 104.992 22.0737 104.423C22.3505 104.216 22.6657 104.067 23.0009 103.983C23.3361 103.9 23.6846 103.884 24.026 103.937C24.6687 104.017 25.2865 104.235 25.837 104.576C27.6397 105.577 28.6657 107.708 30.5764 108.481C31.3355 108.716 32.1081 108.905 32.8901 109.046C33.2812 109.118 33.6527 109.272 33.981 109.497C34.3093 109.721 34.5871 110.012 34.7967 110.35C35.4987 111.75 34.1944 113.478 34.6887 114.965C35.104 116.282 36.4042 116.784 37.1228 117.968C37.4139 118.493 37.5317 119.096 37.4592 119.692C37.3952 120.697 37.1489 121.682 36.7323 122.599C36.2643 123.511 35.7298 124.387 35.1331 125.22C35.104 125.241 26.485 130.209 26.4102 130.251Z" fill="#FF8113"/>
<path d="M31.5153 127.526C31.4859 127.525 31.4569 127.518 31.4301 127.506C31.4033 127.493 31.3792 127.476 31.3591 127.454C31.3391 127.433 31.3235 127.407 31.3132 127.38C31.3029 127.352 31.2982 127.323 31.2993 127.293C31.669 118.396 27.4737 108.568 24.4249 105.714C24.3842 105.672 24.3616 105.615 24.3616 105.556C24.3616 105.498 24.3842 105.441 24.4249 105.399C24.4669 105.357 24.5236 105.334 24.5827 105.334C24.6418 105.334 24.6986 105.357 24.7406 105.399C27.8517 108.306 32.1301 118.3 31.7563 127.326C31.75 127.384 31.7213 127.438 31.6763 127.475C31.6313 127.512 31.5735 127.53 31.5153 127.526Z" fill="white"/>
<path d="M30.1819 117.017H30.1154C28.0069 116.435 25.8409 116.085 23.6563 115.974C23.6269 115.973 23.5979 115.966 23.5711 115.954C23.5443 115.942 23.5202 115.924 23.5001 115.903C23.4801 115.881 23.4645 115.856 23.4542 115.828C23.4439 115.8 23.4392 115.771 23.4403 115.742C23.4409 115.712 23.4473 115.683 23.4594 115.656C23.4715 115.629 23.4889 115.604 23.5107 115.584C23.5324 115.564 23.558 115.548 23.5858 115.538C23.6137 115.528 23.6434 115.524 23.673 115.526C25.8967 115.642 28.1013 115.998 30.2484 116.589C30.2979 116.606 30.3399 116.64 30.367 116.685C30.3941 116.73 30.4046 116.783 30.3967 116.835C30.3888 116.886 30.363 116.934 30.3237 116.969C30.2845 117.003 30.2343 117.023 30.1819 117.025V117.017Z" fill="white"/>
<path d="M27.5068 126.948L72.8368 153.117C73.3941 153.4 74.0103 153.547 74.6354 153.547C75.2604 153.547 75.8766 153.4 76.4339 153.117L162.263 103.559C163.256 102.985 163.256 102.055 162.263 101.482L116.929 75.313C116.372 75.0302 115.755 74.8828 115.13 74.8828C114.505 74.8828 113.889 75.0302 113.332 75.313L27.5068 124.872C26.514 125.449 26.514 126.375 27.5068 126.948Z" fill="#37474F"/>
<path d="M52.0057 139.106C52.7782 139.498 53.632 139.702 54.498 139.702C55.3639 139.702 56.2177 139.498 56.9902 139.106C58.3693 138.309 58.3693 137.03 56.9902 136.224C56.2177 135.833 55.3639 135.629 54.498 135.629C53.632 135.629 52.7782 135.833 52.0057 136.224C50.6267 137.021 50.6267 138.326 52.0057 139.106Z" fill="#263238"/>
<path d="M72.8368 153.121L27.5068 126.953C26.6179 126.442 26.5265 125.644 27.2244 125.071C26.7814 125.422 26.4173 125.862 26.1561 126.363C25.8948 126.864 25.7422 127.414 25.7083 127.979V129.669C25.7417 130.293 25.922 130.901 26.2346 131.442C26.5471 131.983 26.983 132.443 27.5068 132.784L72.8368 158.953C73.3915 159.242 74.0104 159.385 74.6354 159.369V153.549C74.0093 153.561 73.3903 153.414 72.8368 153.121Z" fill="#455A64"/>
<path d="M162.263 109.403C162.787 109.061 163.222 108.601 163.535 108.06C163.847 107.519 164.028 106.912 164.062 106.288V104.597C164.027 104.033 163.873 103.482 163.611 102.981C163.349 102.48 162.985 102.04 162.542 101.689C163.244 102.263 163.152 103.06 162.263 103.575L76.4341 153.121C75.8798 153.411 75.2606 153.554 74.6355 153.537V159.385C75.2606 159.402 75.8798 159.259 76.4341 158.97L162.263 109.403Z" fill="#263238"/>
<path d="M80.3095 147.696L37.5258 122.99C36.9276 122.645 36.9276 122.088 37.5258 121.744L107.899 81.0909C108.233 80.9209 108.603 80.8322 108.979 80.8322C109.354 80.8322 109.724 80.9209 110.059 81.0909L152.863 105.793C153.461 106.134 153.461 106.695 152.863 107.039L82.4653 147.696C82.1314 147.866 81.7621 147.955 81.3874 147.955C81.0127 147.955 80.6434 147.866 80.3095 147.696Z" fill="#FAFAFA"/>
<path d="M69.1817 114.454L94.4906 129.063L78.5152 138.288C78.2359 138.428 77.9281 138.5 77.6159 138.5C77.3038 138.5 76.9959 138.428 76.7166 138.288L53.2063 124.714C53.0978 124.677 53.0036 124.607 52.9369 124.514C52.8701 124.421 52.8342 124.309 52.8342 124.194C52.8342 124.08 52.8701 123.968 52.9369 123.875C53.0036 123.782 53.0978 123.712 53.2063 123.675L69.1817 114.454Z" fill="#E6E6E6"/>
<path d="M94.4698 129.063L91.4874 117.208C91.4196 116.925 91.2623 116.671 91.0388 116.485C90.8125 116.293 90.5326 116.176 90.2371 116.149L69.165 114.454L94.4698 129.063Z" fill="#E0E0E0"/>
<path d="M94.4698 129.063L71.8193 128.128C71.548 128.117 71.2895 128.01 71.0901 127.826C70.8907 127.642 70.7634 127.392 70.731 127.123L69.1609 114.45L94.4698 129.063Z" fill="#E0E0E0"/>
<path d="M94.4698 129.063L71.8193 128.128C71.548 128.117 71.2895 128.01 71.0901 127.826C70.8907 127.642 70.7634 127.392 70.731 127.123L69.1609 114.45L71.9564 126.911C71.9816 127.022 72.0414 127.122 72.1273 127.197C72.2132 127.271 72.3206 127.317 72.434 127.326L94.4698 129.063Z" fill="#FAFAFA"/>
<path d="M74.241 128.091L77.618 138.807L78.5152 138.288L74.241 128.091Z" fill="#FAFAFA"/>
<path d="M52.3088 124.194L53.2061 123.675L70.8678 126.143L52.3088 124.194Z" fill="#FAFAFA"/>
<path d="M83.5784 109.125L103.712 120.755C103.99 120.896 104.299 120.97 104.611 120.97C104.923 120.97 105.232 120.896 105.51 120.755L134.084 104.265C134.193 104.228 134.287 104.158 134.353 104.065C134.42 103.972 134.456 103.86 134.456 103.745C134.456 103.631 134.42 103.519 134.353 103.426C134.287 103.333 134.193 103.263 134.084 103.226L113.951 91.5957C113.672 91.4545 113.364 91.3809 113.051 91.3809C112.739 91.3809 112.431 91.4545 112.152 91.5957L83.5784 108.086C83.4699 108.123 83.3757 108.193 83.3089 108.286C83.2422 108.379 83.2063 108.491 83.2063 108.605C83.2063 108.72 83.2422 108.832 83.3089 108.925C83.3757 109.018 83.4699 109.088 83.5784 109.125Z" fill="#E6E6E6"/>
<path d="M99.5871 107.588C99.3471 107.215 99.205 106.788 99.1738 106.346C99.1426 105.904 99.2233 105.461 99.4084 105.058C99.7823 104.227 100.596 103.43 101.847 102.711C103.218 101.905 104.731 101.371 106.304 101.137C107.838 100.916 109.4 100.972 110.914 101.303C112.476 101.643 113.975 102.228 115.355 103.035C116.689 103.802 117.598 104.594 118.08 105.411C118.315 105.759 118.456 106.162 118.488 106.581C118.52 107 118.442 107.42 118.262 107.8C117.897 108.576 117.128 109.303 115.965 109.976C114.85 110.65 113.596 111.059 112.298 111.172C111.217 111.278 110.13 111.055 109.178 110.533C109.007 110.459 108.854 110.349 108.729 110.212C108.604 110.074 108.509 109.912 108.451 109.735C108.424 109.582 108.437 109.425 108.49 109.279C108.544 109.133 108.635 109.004 108.754 108.904C108.085 108.959 107.412 108.913 106.756 108.767C106.114 108.629 105.497 108.391 104.929 108.061C103.971 107.507 103.469 106.906 103.425 106.259C103.381 105.611 103.839 105.015 104.8 104.472C105.959 103.793 107.286 103.452 108.63 103.488C110.002 103.518 111.343 103.9 112.526 104.597C113.015 104.87 113.452 105.229 113.814 105.656C114.101 105.973 114.289 106.367 114.354 106.79L110.615 108.958C110.312 109.133 110.146 109.287 110.121 109.42C110.096 109.552 110.204 109.694 110.441 109.835C110.958 110.086 111.55 110.136 112.102 109.976C112.916 109.786 113.694 109.468 114.408 109.033C115.346 108.493 115.94 107.912 116.19 107.301C116.315 107.005 116.362 106.682 116.328 106.362C116.294 106.042 116.179 105.737 115.994 105.473C115.493 104.757 114.826 104.173 114.05 103.77C112.457 102.827 110.655 102.292 108.804 102.213C106.927 102.16 105.075 102.647 103.467 103.617C102.445 104.207 101.789 104.83 101.498 105.486C101.352 105.791 101.288 106.129 101.311 106.467C101.334 106.805 101.444 107.131 101.631 107.413C102.134 108.154 102.813 108.758 103.608 109.17C104.136 109.472 104.692 109.721 105.269 109.914C105.808 110.1 106.365 110.225 106.931 110.288C106.991 110.292 107.05 110.308 107.105 110.333C107.134 110.333 107.134 110.387 107.105 110.441L106.557 111.21C106.534 111.24 106.508 111.266 106.478 111.289C106.397 111.316 106.31 111.316 106.229 111.289C105.544 111.202 104.87 111.044 104.219 110.815C103.537 110.589 102.881 110.295 102.258 109.939C100.97 109.249 100.081 108.439 99.5871 107.588ZM108.248 107.949C108.82 108.022 109.402 107.913 109.909 107.638L112.082 106.391C111.824 105.955 111.444 105.604 110.989 105.382C110.296 104.975 109.508 104.756 108.705 104.747C107.904 104.733 107.115 104.94 106.424 105.345C105.818 105.694 105.523 106.038 105.539 106.379C105.539 106.72 105.88 107.073 106.516 107.438C107.049 107.734 107.64 107.91 108.248 107.953V107.949Z" fill="#FAFAFA"/>
<path d="M136.115 90.5157C136.286 90.6039 136.476 90.6499 136.668 90.6499C136.86 90.6499 137.049 90.6039 137.22 90.5157C137.286 90.4928 137.343 90.4499 137.384 90.3929C137.424 90.336 137.446 90.2678 137.446 90.198C137.446 90.1281 137.424 90.06 137.384 90.0031C137.343 89.9461 137.286 89.9032 137.22 89.8802C137.048 89.7953 136.859 89.7511 136.668 89.7511C136.476 89.7511 136.287 89.7953 136.115 89.8802C136.049 89.9032 135.992 89.9461 135.952 90.0031C135.911 90.06 135.889 90.1281 135.889 90.198C135.889 90.2678 135.911 90.336 135.952 90.3929C135.992 90.4499 136.049 90.4928 136.115 90.5157Z" fill="#263238"/>
<path d="M137.877 95.5169C138.218 95.6908 138.596 95.7815 138.98 95.7815C139.363 95.7815 139.741 95.6908 140.082 95.5169C140.693 95.1679 140.693 94.5947 140.082 94.2458C139.741 94.0718 139.363 93.9811 138.98 93.9811C138.596 93.9811 138.218 94.0718 137.877 94.2458C137.254 94.5947 137.254 95.1679 137.877 95.5169Z" fill="#263238"/>
<path d="M136.323 93.3029C136.738 93.0662 136.709 92.6757 136.273 92.4265L129.021 88.2353C128.788 88.1105 128.528 88.0431 128.264 88.0388C127.999 88.0344 127.737 88.0933 127.5 88.2104C127.085 88.443 127.118 88.8376 127.55 89.0869L134.803 93.2739C135.036 93.3971 135.295 93.4639 135.559 93.469C135.823 93.474 136.085 93.4171 136.323 93.3029Z" fill="#263238"/>
<path d="M42.29 40.4795C42.313 40.0334 42.4413 39.5991 42.6644 39.2122C42.8875 38.8252 43.199 38.4965 43.5736 38.2531L109.299 0.308507C109.697 0.105715 110.137 0 110.584 0C111.031 0 111.472 0.105715 111.87 0.308507L113.315 1.13926C113.689 1.38226 114 1.71025 114.223 2.09646C114.447 2.48267 114.575 2.91615 114.599 3.36152V53.7467C114.573 54.1921 114.444 54.6255 114.221 55.012C113.998 55.3986 113.688 55.7277 113.315 55.9731L47.5902 93.9177C47.1922 94.1185 46.7526 94.2231 46.3067 94.2231C45.8609 94.2231 45.4213 94.1185 45.0232 93.9177L43.5736 93.0869C43.2009 92.8416 42.8907 92.5125 42.6678 92.1259C42.445 91.7393 42.3156 91.306 42.29 90.8605V40.4795Z" fill="#FF8113"/>
<path opacity="0.4" d="M42.6638 39.2126L46.3108 41.3144L114.225 2.10292C114.008 1.71207 113.697 1.38207 113.319 1.1434L111.866 0.312647C111.468 0.10989 111.028 0.00418091 110.582 0.00418091C110.136 0.00418091 109.696 0.10989 109.298 0.312647L43.5776 38.2531C43.1946 38.4878 42.8795 38.8186 42.6638 39.2126Z" fill="white"/>
<path opacity="0.1" d="M42.29 40.4754V90.8522C42.3138 91.2986 42.4428 91.733 42.6666 92.1199C42.8904 92.5069 43.2026 92.8354 43.5777 93.0786L45.0232 93.9094C45.135 93.9743 45.2533 94.0273 45.3763 94.0672C45.548 94.1238 45.7246 94.1641 45.9038 94.1877C46.2414 94.2314 46.5839 94.2188 46.9173 94.1503C47.0016 94.1331 47.0849 94.1109 47.1666 94.0838C47.2196 94.0695 47.2711 94.0501 47.3202 94.0257C47.2231 94.0673 47.1185 94.0887 47.0129 94.0887C46.9072 94.0887 46.8026 94.0673 46.7055 94.0257C46.5709 93.9357 46.4631 93.8109 46.3936 93.6647C46.3242 93.5184 46.2956 93.3561 46.3109 93.1949V42.789C46.2981 42.5605 46.3552 42.3336 46.4747 42.1384C46.5942 41.9432 46.7703 41.7891 46.9796 41.6966L46.3109 41.3061L42.6639 39.2043C42.4337 39.5895 42.305 40.0269 42.29 40.4754Z" fill="black"/>
<path opacity="0.2" d="M46.3109 41.3144L76.7497 52.6874C77.8024 53.079 78.9571 53.1007 80.0238 52.7489C81.0904 52.3971 82.0057 51.6928 82.6189 50.7518L87.5079 43.275L114.466 1.97L88.4799 43.545L114.599 53.7674C114.572 54.2237 114.429 54.6656 114.183 55.0509L88.4093 43.6613L82.7269 52.758C82.0966 53.7677 81.1232 54.5159 79.9854 54.8654C78.8477 55.2149 77.6221 55.1421 76.5337 54.6605L72.4921 52.8744L46.7014 94.0215C46.5667 93.9315 46.459 93.8068 46.3895 93.6605C46.32 93.5143 46.2914 93.352 46.3068 93.1908V92.36L72.3633 52.8411L46.3109 41.3144Z" fill="black"/>
<path d="M53.8417 29.551L49.3473 26.9632L49.3058 26.9383C47.312 25.8126 44.5788 25.9829 41.5507 27.7275C35.4571 31.2457 30.5183 39.8025 30.5183 46.8348C30.5183 50.3447 31.7644 52.8162 33.7375 53.971L37.8248 56.3012L38.8009 54.6688C39.9129 54.4159 40.9801 53.9958 41.9661 53.4227C48.0596 49.9044 52.9985 41.3477 52.9985 34.3154C52.998 33.3661 52.8822 32.4204 52.6537 31.4991L53.8417 29.551Z" fill="#37474F"/>
<path d="M45.8124 30.1824C39.7147 33.7006 34.7759 42.2573 34.7759 49.2896C34.7759 56.322 39.7147 59.1798 45.8083 55.6615C51.9018 52.1433 56.8448 43.5824 56.8448 36.5542C56.8448 29.5261 51.906 26.66 45.8124 30.1824Z" fill="#455A64"/>
<path d="M42.3812 43.761C42.342 43.7204 42.3135 43.6706 42.2983 43.6163C42.283 43.5619 42.2816 43.5046 42.294 43.4495C42.3149 43.2996 42.3719 43.1571 42.4601 43.0341L45.8704 37.9707C45.9576 37.8502 46.0407 37.7297 46.1321 37.6134C46.2081 37.5048 46.3057 37.4129 46.4187 37.3434L47.6648 36.6373C47.7061 36.6066 47.7556 36.5888 47.807 36.5861C47.8584 36.5833 47.9095 36.5958 47.9538 36.622C47.9982 36.6482 48.0338 36.6868 48.0563 36.7331C48.0787 36.7794 48.0871 36.8314 48.0802 36.8824V48.5711C48.0736 48.7183 48.0292 48.8613 47.9514 48.9864C47.8827 49.1158 47.7809 49.2247 47.6565 49.3021L46.3854 50.0332C46.3432 50.0652 46.2928 50.0849 46.24 50.0901C46.1872 50.0952 46.134 50.0856 46.0864 50.0623C46.0429 50.032 46.0084 49.9905 45.9864 49.9423C45.9645 49.894 45.956 49.8408 45.9618 49.7881V40.8534L43.7395 44.1473C43.666 44.2678 43.5593 44.3645 43.4321 44.4256C43.3861 44.4488 43.3346 44.4587 43.2832 44.4543C43.2319 44.4499 43.1828 44.4314 43.1414 44.4007L42.3812 43.761Z" fill="#FAFAFA"/>
<path d="M144.153 84.0483V83.3048H144.335C144.611 82.7997 145.03 82.3877 145.54 82.121C146.579 81.5947 147.727 81.3205 148.892 81.3205C150.057 81.3205 151.205 81.5947 152.244 82.121C152.754 82.3877 153.173 82.7997 153.449 83.3048H153.632V84.0234C153.632 84.7337 153.183 85.4482 152.244 85.9923C151.207 86.5145 150.063 86.7862 148.902 86.7855C147.741 86.7848 146.597 86.5117 145.561 85.9882C144.61 85.4565 144.148 84.742 144.153 84.0483Z" fill="#263238"/>
<path d="M152.244 81.3692C151.206 80.841 150.057 80.5656 148.892 80.5656C147.727 80.5656 146.579 80.841 145.54 81.3692C143.687 82.4367 143.687 84.1688 145.54 85.2405C146.579 85.7668 147.727 86.041 148.892 86.041C150.057 86.041 151.205 85.7668 152.244 85.2405C154.097 84.1688 154.097 82.4367 152.244 81.3692Z" fill="#455A64"/>
<path d="M150.13 54.8349V82.9891C150.12 83.0965 150.082 83.1992 150.019 83.2868C149.956 83.3744 149.871 83.4437 149.773 83.4876C149.505 83.6246 149.209 83.6961 148.909 83.6961C148.608 83.6961 148.312 83.6246 148.045 83.4876C147.946 83.4437 147.861 83.3744 147.798 83.2868C147.736 83.1992 147.697 83.0965 147.688 82.9891V54.8349H150.13Z" fill="#37474F"/>
<path d="M147.671 57.9004V58.781L150.113 60.1891V59.3127L147.671 57.9004Z" fill="#263238"/>
<path d="M163.252 47.3789L163.044 47.7943L160.809 52.2721L159.75 54.4196L156.161 61.618L155.767 62.4114H155.696C155.552 62.4162 155.408 62.3833 155.281 62.3159L139.285 53.0696C139.165 52.9941 139.066 52.8916 138.993 52.7704C138.921 52.6491 138.879 52.5125 138.869 52.3718V46.191C138.869 43.1089 140.9 39.4369 143.405 37.9914C144.593 37.3061 145.669 37.2521 146.479 37.7048L163.252 47.3789Z" fill="#455A64"/>
<path d="M160.232 47.7071C159.218 48.0809 155.542 51.1173 155.542 55.9024C155.542 59.9233 155.542 62.0085 155.542 62.3865H155.692H155.762L156.157 61.5931L159.75 54.4195L160.809 52.2928L161.054 51.8068L160.232 47.7071Z" fill="#37474F"/>
<path d="M164.568 57.3272C164.528 57.395 164.471 57.4509 164.402 57.4892L164.361 57.5141L156.099 62.3117C155.996 62.3663 155.883 62.3975 155.766 62.4031H155.696V55.9025C155.716 54.7263 155.96 53.5648 156.414 52.4798L156.83 52.7124L159.758 54.403L164.302 57.0323L164.535 57.1652C164.56 57.1829 164.578 57.2095 164.584 57.2396C164.59 57.2697 164.584 57.3011 164.568 57.3272Z" fill="#37474F"/>
<path d="M163.252 47.3789C162.45 46.9635 161.391 47.0342 160.232 47.7071C158.809 48.6009 157.66 49.8682 156.909 51.3707C156.718 51.7307 156.548 52.101 156.398 52.4797C155.944 53.5648 155.7 54.7263 155.679 55.9024V62.3989H155.75C155.866 62.3933 155.979 62.3621 156.082 62.3075L164.34 57.5349L164.381 57.5099C164.447 57.467 164.503 57.412 164.547 57.3479C164.664 57.2023 164.731 57.0233 164.739 56.837V50.6812C164.759 49.0197 164.178 47.8691 163.252 47.3789ZM164.174 57.0987L156.281 61.6679C156.215 61.7052 156.161 61.6679 156.161 61.5972V55.9024C156.182 54.8074 156.406 53.7257 156.821 52.7123C156.826 52.6903 156.835 52.6692 156.846 52.65C157.005 52.2489 157.189 51.8578 157.395 51.4787C158.094 50.0988 159.155 48.9346 160.464 48.11C160.971 47.7881 161.555 47.6061 162.155 47.5824C162.465 47.579 162.77 47.6533 163.044 47.7984C163.833 48.2138 164.29 49.2398 164.29 50.6645V56.8952C164.288 56.9358 164.276 56.9754 164.256 57.0107C164.236 57.046 164.208 57.0762 164.174 57.0987Z" fill="#455A64"/>
<path d="M164.294 50.6812V57.0489L156.817 52.729C156.822 52.7069 156.83 52.6858 156.842 52.6667C157.644 50.6646 158.994 48.9657 160.46 48.1266C160.967 47.8048 161.551 47.6228 162.151 47.5991C163.476 47.5825 164.294 48.7663 164.294 50.6812Z" fill="#263238"/>
<path d="M150.612 53.838L151.272 53.4559C151.413 53.3922 151.568 53.3667 151.722 53.382C151.876 53.3974 152.023 53.4529 152.148 53.5431C152.511 53.78 152.813 54.099 153.03 54.4742C153.246 54.8495 153.371 55.2705 153.395 55.7031C153.41 55.855 153.385 56.0082 153.322 56.1475C153.259 56.2867 153.161 56.407 153.037 56.4964L152.427 56.8495L152.315 56.6626C152.189 56.6351 152.069 56.5889 151.957 56.5255C151.595 56.2887 151.293 55.9697 151.076 55.5944C150.86 55.2191 150.735 54.7982 150.711 54.3656C150.712 54.2579 150.725 54.1507 150.749 54.0457L150.612 53.838Z" fill="#E0E0E0"/>
<path d="M151.521 53.9086C151.884 54.1448 152.185 54.4631 152.402 54.8377C152.618 55.2122 152.744 55.6325 152.767 56.0644C152.767 56.862 152.207 57.1818 151.521 56.7872C151.159 56.5501 150.857 56.231 150.641 55.8558C150.424 55.4806 150.299 55.0598 150.275 54.6272C150.271 53.8339 150.832 53.5099 151.521 53.9086Z" fill="#FAFAFA"/>
<path d="M151.522 55.6906C151.426 55.6906 151.334 55.6525 151.266 55.5847C151.198 55.517 151.16 55.425 151.16 55.3292V45.1068C151.16 45.011 151.198 44.919 151.266 44.8513C151.334 44.7835 151.426 44.7454 151.522 44.7454C151.617 44.7454 151.709 44.7835 151.777 44.8513C151.845 44.919 151.883 45.011 151.883 45.1068V55.3292C151.883 55.425 151.845 55.517 151.777 55.5847C151.709 55.6525 151.617 55.6906 151.522 55.6906Z" fill="#EBEBEB"/>
<path d="M151.16 46.1162L147.538 44.0268L148.672 46.2076L147.538 47.0798L151.16 49.1733V46.1162Z" fill="#FF8113"/>
<mask id="mask0_4447_74077" style="mask-type:luminance" maskUnits="userSpaceOnUse" x="156" y="47" width="9" height="16">
<path d="M164.294 50.6812C164.294 48.7829 163.463 47.5991 162.155 47.5991C161.555 47.6228 160.972 47.8048 160.464 48.1266C158.998 48.9573 157.648 50.6645 156.847 52.6666C156.835 52.6858 156.826 52.7069 156.822 52.729C156.406 53.7409 156.182 54.8212 156.161 55.9149V62.7146L164.294 58.0208V50.6812Z" fill="white"/>
</mask>
<g mask="url(#mask0_4447_74077)">
<path d="M162.408 52.758C162.406 52.7024 162.39 52.6483 162.363 52.5999C162.335 52.5515 162.297 52.5103 162.251 52.4797L154.059 47.7527C154.01 47.7281 153.955 47.7154 153.899 47.7154C153.844 47.7154 153.789 47.7281 153.74 47.7527L153.557 47.8565C153.51 47.8872 153.472 47.9284 153.445 47.9768C153.417 48.0251 153.401 48.0793 153.399 48.1348V54.4195C153.402 54.4748 153.418 54.5286 153.446 54.5768C153.473 54.625 153.511 54.6664 153.557 54.6978L161.76 59.404C161.81 59.4285 161.865 59.4413 161.92 59.4413C161.976 59.4413 162.031 59.4285 162.08 59.404L162.263 59.3001C162.309 59.2694 162.348 59.2282 162.375 59.1799C162.403 59.1315 162.418 59.0774 162.421 59.0218L162.408 52.758Z" fill="#F0F0F0"/>
<path d="M162.363 52.5919L161.91 52.8536L153.453 47.9688C153.48 47.9203 153.519 47.879 153.565 47.8483L153.748 47.7445C153.797 47.7179 153.852 47.704 153.908 47.704C153.964 47.704 154.019 47.7179 154.068 47.7445L162.259 52.4715C162.302 52.5031 162.338 52.5443 162.363 52.5919Z" fill="#FAFAFA"/>
<path d="M162.409 52.7581V59.0344C162.406 59.09 162.391 59.1441 162.363 59.1925C162.336 59.2408 162.297 59.282 162.251 59.3127L162.068 59.4166L162.027 59.4373H161.96C161.918 59.4456 161.874 59.4456 161.831 59.4373H161.802H161.781C161.794 59.4436 161.807 59.4468 161.821 59.4468C161.835 59.4468 161.848 59.4436 161.86 59.4373C161.877 59.4262 161.891 59.4106 161.9 59.3923C161.908 59.374 161.912 59.3537 161.91 59.3335V53.0364C161.911 53.0079 161.904 52.9798 161.888 52.956C161.872 52.9322 161.85 52.9138 161.823 52.9035L161.91 52.8536L162.363 52.5919C162.393 52.6423 162.409 52.6996 162.409 52.7581Z" fill="#E0E0E0"/>
<path d="M161.91 52.8536L158.113 54.27C157.982 54.3183 157.839 54.3208 157.706 54.277C157.573 54.2333 157.459 54.1459 157.382 54.0291L156.776 53.0987L153.416 47.948L156.651 53.1319L153.399 54.4196C153.402 54.4755 153.419 54.5298 153.449 54.5774L156.664 53.1568L157.37 54.2908C157.448 54.4169 157.57 54.5104 157.712 54.5539C157.854 54.5975 158.007 54.5881 158.143 54.5276L158.645 54.3074L161.86 59.4041C161.877 59.3929 161.891 59.3773 161.899 59.359C161.908 59.3408 161.912 59.3204 161.91 59.3002V59.1964L158.662 54.27L161.91 52.8536Z" fill="#E0E0E0"/>
</g>
<path d="M169.748 51.7279L168.88 52.4507C168.653 52.7849 168.405 53.1041 168.136 53.406L165.644 56.2846L164.764 57.3023L159.098 60.5754L156.39 62.8226H156.361C156.28 62.8359 156.197 62.8228 156.124 62.7852L155.87 62.6399C155.849 62.6275 155.831 62.6107 155.817 62.5905C155.803 62.5703 155.794 62.5472 155.79 62.523C155.786 62.4988 155.787 62.4739 155.794 62.4503C155.801 62.4267 155.813 62.4049 155.829 62.3865L157.806 60.1019L159.052 58.6522C161.367 56.1229 164.023 53.9293 166.944 52.135C168.116 51.4621 168.847 51.2295 169.108 51.3915L169.702 51.7362C169.702 51.7362 169.744 51.7279 169.748 51.7279Z" fill="#455A64"/>
<path d="M168.747 53.7633L167.085 55.6615L167.052 55.7031L165.499 57.5017C165.406 57.6032 165.3 57.6913 165.183 57.7633L156.46 62.7894C156.431 62.8066 156.398 62.8179 156.365 62.8226H156.36L159.501 59.1964L159.683 58.9887C161.999 56.4618 164.655 54.2698 167.576 52.4756C168.718 51.8152 169.449 51.5784 169.727 51.7155C170.068 51.9024 169.752 52.6044 168.747 53.7633Z" fill="#37474F"/>
</svg>
