<svg width="188" height="186" viewBox="0 0 188 186" fill="none" xmlns="http://www.w3.org/2000/svg">
<g clip-path="url(#clip0_281_79095)">
<path d="M171.454 36.3488L170.417 34.6581C161.697 20.368 145.925 11.7542 129.302 12.7982C127.159 12.9292 125.025 13.2208 122.925 13.6688C107.807 16.8853 94.6532 28.2506 89.1987 42.807C85.9932 51.3659 85.1004 61.2223 78.9954 68.0145C71.0793 76.8565 57.6323 77.1355 45.8134 76.7678C33.9946 76.4 20.539 76.717 12.6527 85.5929C7.71687 91.1551 6.14811 99.0588 6.54774 106.506C7.60208 126.219 21.4276 143.844 38.99 152.606C56.5524 161.367 77.2523 162.154 96.4813 158.299C123.456 152.885 149.092 138.091 164.478 115.166C179.863 92.2413 183.775 61.0659 171.454 36.3488Z" fill="#EBEBEB"/>
<path d="M91.2731 10.7652L111.727 9.91993C115.387 9.76777 118.482 12.5954 118.635 16.2345C118.635 16.2767 118.635 16.3232 118.635 16.3655L119.358 47.7734C119.434 51.2096 116.845 54.1302 113.406 54.4852C112.254 54.6035 111.391 55.5926 111.433 56.7464L114.005 123.104C114.18 127.627 110.647 131.439 106.098 131.642L27.9574 135.091C26.7415 135.146 25.7127 134.212 25.6574 133.003C25.6574 132.994 25.6574 132.986 25.6574 132.977L22.2138 17.7687C22.1798 16.5937 23.0811 15.6047 24.2587 15.5202L91.2731 10.7652Z" fill="#FF8113"/>
<g opacity="0.3">
<path d="M25.6016 130.754L25.6696 132.93L109.787 125.242L108.18 10.0547C108.18 10.0547 87.7737 13.1317 87.391 13.1317C87.0084 13.1317 25.6016 130.754 25.6016 130.754Z" fill="black"/>
</g>
<path d="M80.6223 4.58087L105.034 3.10156L107.555 122.49L21.6345 131.155L8.98242 12.3916L80.6223 4.58087Z" fill="#EBEBEB"/>
<path d="M80.6436 4.58212C80.6436 4.58212 80.2185 4.63707 79.3682 4.73005L75.6525 5.15271L61.3806 6.72924L8.99093 12.4732L9.06321 12.3844C12.4643 44.2023 16.873 85.5384 21.7451 131.152L21.6218 131.055L40.8805 129.115L107.546 122.399L107.448 122.504C106.373 70.3015 105.489 27.4861 104.983 3.11127L105.038 3.16199L86.8718 4.23977L82.1953 4.50604L80.6138 4.59058C80.6138 4.59058 81.1452 4.54831 82.1911 4.48068L86.8676 4.18482L105.034 3.06055H105.085V3.11127C105.612 27.4903 106.534 70.3142 107.661 122.504V122.597H107.568L40.906 129.322L21.6473 131.266H21.5367V131.16C16.6902 85.5511 12.2942 44.215 8.91016 12.3929V12.3083H8.99093L61.3636 6.6447L75.6397 5.11045L79.3554 4.71737C80.1929 4.62016 80.6436 4.58212 80.6436 4.58212Z" fill="#263238"/>
<path d="M4.71094 8.42697L16.3427 128.581L106.332 120.153L93.3521 0.0878906L4.71094 8.42697Z" fill="white"/>
<path d="M4.71094 8.42362L93.3436 0H93.4329V0.0887586C97.0848 33.7917 101.578 75.3223 106.434 120.154V120.264H106.323L105.685 120.323L16.3512 128.683H16.2534V128.582C9.41721 57.448 4.79596 9.30275 4.71094 8.42362C4.79596 9.30275 9.49798 57.4522 16.4447 128.573L16.3342 128.484L105.681 120.107L106.319 120.044L106.221 120.166C101.379 75.3223 96.902 33.8044 93.2628 0.0972118L93.3606 0.177517L4.71094 8.42362Z" fill="#263238"/>
<path d="M73.7227 99.5536C73.7397 92.2712 79.6959 86.3835 87.021 86.4004C94.3461 86.4173 100.268 92.3388 100.251 99.6212C100.234 106.904 94.2823 112.791 86.9572 112.774C79.6321 112.749 73.7099 106.836 73.7227 99.5536ZM100.005 99.617C100.022 92.4656 94.21 86.654 87.0167 86.6371C79.8234 86.6202 73.9778 92.398 73.9608 99.5494C73.9437 106.701 79.7554 112.512 86.9487 112.529C86.9487 112.529 86.9529 112.529 86.9572 112.529C94.1378 112.538 99.9707 106.768 100.005 99.6297V99.617Z" fill="#E0E0E0"/>
<path d="M75.2364 99.557C75.2534 93.2044 80.4443 88.0691 86.8341 88.086C93.2239 88.1029 98.3893 93.2636 98.3723 99.6161C98.3553 105.969 93.1644 111.104 86.7746 111.087C80.389 111.066 75.2236 105.905 75.2364 99.557ZM96.6633 99.6077C96.676 94.1934 92.2716 89.7893 86.8256 89.7766C81.3796 89.7639 76.9497 94.1427 76.9369 99.557C76.9241 104.971 81.3286 109.375 86.7746 109.388C92.2121 109.396 96.6293 105.03 96.659 99.6288V99.6077H96.6633Z" fill="#E0E0E0"/>
<path d="M78.0938 99.7258C78.0938 98.4029 78.4126 97.1011 79.012 95.9219L80.534 96.6869C80.0494 97.6336 79.7986 98.6776 79.8028 99.7385C79.8156 103.504 82.8978 106.543 86.6858 106.531C87.9272 106.526 89.1473 106.184 90.2102 105.546L91.103 106.991C87.0599 109.434 81.7967 108.154 79.3394 104.138C78.5274 102.807 78.0938 101.281 78.0938 99.7258Z" fill="#E0E0E0"/>
<path d="M82.6895 92.1987C86.8813 90.0305 92.051 91.6492 94.2319 95.8167C95.6349 98.4963 95.5031 101.721 93.8833 104.278L92.4421 103.374C94.4488 100.183 93.4709 95.9815 90.2654 93.9865C88.212 92.7101 85.6314 92.6045 83.4802 93.7118L82.6895 92.1987Z" fill="#E0E0E0"/>
<path d="M30.9806 19.8946C30.8403 18.5971 31.7841 17.4263 33.0893 17.2868C33.1446 17.2826 33.1956 17.2784 33.2508 17.2741C34.0033 17.1642 34.7601 17.4052 35.3085 17.9293L34.5603 18.7746C34.2712 18.466 33.8503 18.3096 33.4294 18.3519C32.7067 18.4238 32.1795 19.0662 32.256 19.7847C32.3326 20.5033 32.9745 21.0274 33.6972 20.9513C34.1309 20.9048 34.5135 20.6596 34.7346 20.2877L35.6316 20.9428C35.2065 21.5684 34.5135 21.9614 33.7568 21.9995C32.4643 22.2235 31.2314 21.3613 31.0104 20.0764C31.0019 20.0172 30.9934 19.958 30.9849 19.8946H30.9806Z" fill="#263238"/>
<path d="M35.7027 19.4119C35.5624 18.051 36.5529 16.9394 37.9984 16.7914C39.4439 16.6435 40.6428 17.5311 40.7831 18.9047C40.9234 20.2784 39.9328 21.3773 38.4873 21.5252C37.0419 21.6732 35.843 20.7771 35.7027 19.4119ZM39.4779 19.0273C39.3674 18.3553 38.7297 17.8988 38.0537 18.0045C37.3777 18.1144 36.9186 18.7484 37.0248 19.4204C37.1311 20.0671 37.7221 20.5193 38.3768 20.4517C39.0528 20.3925 39.5502 19.7966 39.4906 19.1245C39.4906 19.0907 39.4821 19.0569 39.4779 19.0273Z" fill="#263238"/>
<path d="M45.5784 16.1113L46.046 20.6592L44.9832 20.7648L42.7129 18.5501L42.9638 20.9719L41.6884 21.0987L41.2207 16.5551L42.2835 16.4452L44.5538 18.6642L44.3029 16.2424L45.5784 16.1113Z" fill="#263238"/>
<path d="M47.5737 16.9401L46.1707 17.0838L46.0645 16.0652L50.1585 15.6426L50.2648 16.6612L48.8661 16.8049L49.2275 20.3299L47.9521 20.4609L47.5737 16.9401Z" fill="#263238"/>
<path d="M52.9857 18.7326L52.2799 18.8045L52.4032 20.0133L51.1278 20.1443L50.6602 15.5965L52.7476 15.3852C53.9975 15.2584 54.8478 15.8078 54.954 16.8602C55.0391 17.4731 54.7457 18.0775 54.2058 18.386L55.3409 19.7174L53.955 19.8569L52.9857 18.7326ZM52.7561 16.408L52.0376 16.4799L52.1779 17.8112L52.8964 17.7394C53.432 17.6844 53.6744 17.4097 53.6319 16.9955C53.5894 16.5813 53.2918 16.3657 52.7561 16.408Z" fill="#263238"/>
<path d="M58.9147 18.4783L56.9803 18.6727L56.7125 19.5941L55.3945 19.7294L56.942 14.9787L58.2174 14.8477L60.7087 19.1884L59.3866 19.3236L58.9147 18.4783ZM58.4385 17.5696L57.686 16.1537L57.2609 17.6668L58.4385 17.5696Z" fill="#263238"/>
<path d="M60.5389 16.8888C60.3986 15.5024 61.3637 14.4162 62.8134 14.2683C63.5616 14.1584 64.3226 14.3993 64.8668 14.9234L64.1186 15.7687C63.8295 15.4602 63.4086 15.3038 62.9877 15.3461C62.265 15.4179 61.742 16.0604 61.8143 16.7789C61.8866 17.4974 62.5328 18.0173 63.2555 17.9454C63.6764 17.9031 64.0548 17.6622 64.2759 17.303L65.1772 17.9581C64.752 18.5836 64.0548 18.9725 63.2981 19.0147C62.0014 19.2303 60.777 18.3596 60.5644 17.0747C60.5559 17.0113 60.5474 16.9522 60.5389 16.8888Z" fill="#263238"/>
<path d="M66.402 15.0261L64.9991 15.1698L64.9141 14.1512L69.0081 13.7285L69.1144 14.7471L67.7157 14.8908L68.0771 18.4158L66.8017 18.5468L66.402 15.0261Z" fill="#263238"/>
<path d="M91.2216 30.9977C91.2216 31.0611 74.2458 32.6884 53.2993 34.6707C32.3528 36.6529 15.3558 38.183 15.3516 38.1196C15.3473 38.0562 32.323 36.4289 53.2781 34.4509C74.2331 32.4728 91.2173 30.9386 91.2216 30.9977Z" fill="#263238"/>
<path d="M50.0345 30.0563C50.0345 30.1155 42.2035 30.9016 32.5316 31.8103C22.8598 32.7191 15.016 33.4038 15.0117 33.3446C15.0075 33.2854 22.8385 32.4993 32.5146 31.5906C42.1908 30.6818 50.0345 29.9971 50.0345 30.0563Z" fill="#263238"/>
<path d="M91.554 35.8964C91.554 35.9556 74.5782 37.5871 53.6274 39.5651C32.6767 41.5432 15.6882 43.0774 15.6797 43.0183C15.6712 42.9591 32.6512 41.3276 53.6104 39.3453C74.5697 37.3631 91.5455 35.833 91.554 35.8964Z" fill="#263238"/>
<path d="M91.885 40.7907C91.885 40.8499 74.9092 42.4814 53.9584 44.4594C33.0077 46.4375 16.0234 47.9717 16.0234 47.9125C16.0234 47.8534 32.9949 46.2219 53.9499 44.2438C74.905 42.2658 91.8765 40.7315 91.885 40.7907Z" fill="#263238"/>
<path d="M92.2118 45.6852C92.2118 45.7486 75.2361 47.3759 54.2896 49.3582C33.343 51.3404 16.346 52.8705 16.3418 52.8071C16.3375 52.7437 33.3133 51.1164 54.2683 49.1384C75.2233 47.1603 92.2076 45.6261 92.2118 45.6852Z" fill="#263238"/>
<path d="M92.5481 50.6007C92.5481 50.6599 75.5724 52.2913 54.6258 54.2694C33.6793 56.2474 16.6781 57.7859 16.6738 57.7056C16.6696 57.6253 33.6453 56.015 54.6003 54.0327C75.5554 52.0504 92.5481 50.5204 92.5481 50.6007Z" fill="#263238"/>
<path d="M92.8759 55.4782C92.8759 55.5374 75.9001 57.1689 54.9536 59.1469C34.0071 61.125 17.0101 62.6592 17.0059 62.6C17.0016 62.5409 33.9773 60.9094 54.9324 58.9313C75.8874 56.9533 92.8716 55.419 92.8759 55.4782Z" fill="#263238"/>
<path d="M93.2065 60.3723C93.2065 60.4357 76.4519 62.063 55.7945 63.9987C35.137 65.9345 18.3483 67.4646 18.3398 67.4012C18.3313 67.3378 35.0903 65.7105 55.7732 63.779C76.4561 61.8474 93.198 60.3216 93.2065 60.3723Z" fill="#263238"/>
<path d="M63.9708 69.7899C63.9708 69.8533 53.8611 70.8085 41.3748 71.9032C28.8885 72.9978 18.766 73.8981 18.7617 73.8474C18.7575 73.7967 28.8715 72.833 41.3578 71.7341C53.8441 70.6352 63.9666 69.7307 63.9708 69.7899Z" fill="#263238"/>
<path d="M51.6832 110.255C51.6832 110.318 45.5315 110.885 37.9343 111.523C30.3371 112.161 24.1683 112.635 24.1641 112.575C24.1598 112.516 30.3158 111.946 37.9173 111.307C45.5187 110.669 51.679 110.196 51.6832 110.255Z" fill="black"/>
<path d="M39.8616 114.93C39.8616 114.994 36.4095 115.332 32.1454 115.691C27.8812 116.05 24.4164 116.295 24.4121 116.236C24.4079 116.177 27.86 115.813 32.1284 115.475C36.3967 115.137 39.8531 114.871 39.8616 114.93Z" fill="black"/>
<path d="M38.9133 80.4753C38.9133 80.5344 34.8532 80.9825 29.8366 81.477C24.82 81.9715 20.7429 82.3223 20.7344 82.2547C20.7259 82.187 24.7944 81.7475 29.8153 81.2572C34.8362 80.7669 38.9048 80.4161 38.9133 80.4753Z" fill="#FF8113"/>
<g opacity="0.3">
<path d="M14.488 108.253L22.7484 106.663L27.3696 99.7402L14.2031 104.039L14.488 108.253Z" fill="black"/>
</g>
<path d="M0 99.4057L22.0561 97.3262L27.3703 99.7396L23.1317 104.482L0.726985 106.883L0 99.4057Z" fill="#FF8113"/>
<path d="M9.90549 100.783L10.1861 103.594L9.53137 103.662L9.41659 102.508L8.14117 102.634L8.25596 103.788L7.60125 103.852L7.31641 101.041L7.97112 100.978L8.08591 102.085L9.36132 101.958L9.25078 100.847L9.90549 100.783Z" fill="white"/>
<path d="M12.8396 102.418L11.1943 102.579C11.2921 102.85 11.577 103.01 11.8618 102.951C12.0659 102.943 12.2572 102.845 12.3847 102.689L12.7588 103.019C12.5505 103.272 12.2402 103.429 11.9086 103.441C11.2921 103.564 10.6969 103.167 10.5736 102.558C10.5651 102.524 10.5609 102.49 10.5566 102.452C10.4844 101.848 10.9223 101.298 11.5302 101.227C11.5557 101.227 11.577 101.222 11.6025 101.222C12.1934 101.129 12.7461 101.531 12.8354 102.118C12.8396 102.156 12.8439 102.194 12.8481 102.228C12.8396 102.296 12.8396 102.364 12.8396 102.418ZM11.1391 102.216L12.2104 102.11C12.1381 101.818 11.8405 101.645 11.5515 101.717C11.3176 101.776 11.1518 101.979 11.1391 102.216Z" fill="white"/>
<path d="M14.4938 100.947L14.5533 101.526H14.4088C14.1155 101.526 13.8774 101.767 13.8816 102.059C13.8816 102.105 13.8901 102.152 13.8986 102.194L14.0007 103.213L13.3715 103.276L13.1504 101.116L13.7541 101.057L13.7838 101.34C13.9411 101.104 14.2047 100.956 14.4938 100.947Z" fill="white"/>
<path d="M17.0946 101.992L15.4494 102.156C15.5471 102.427 15.832 102.587 16.1168 102.528C16.3209 102.516 16.5079 102.423 16.6397 102.266L17.0139 102.592C16.8055 102.85 16.4952 103.002 16.1636 103.014C15.5514 103.137 14.9562 102.748 14.8287 102.139C14.8202 102.101 14.8159 102.063 14.8117 102.025C14.7436 101.417 15.1815 100.867 15.7937 100.8C15.815 100.8 15.8362 100.8 15.8575 100.795C16.4484 100.707 17.0011 101.112 17.0904 101.7C17.0946 101.734 17.0989 101.772 17.1031 101.806C17.0946 101.869 17.0946 101.941 17.0946 101.992ZM15.3941 101.793L16.4654 101.683C16.4059 101.421 16.1551 101.252 15.8872 101.29C15.6194 101.307 15.4111 101.527 15.4068 101.793H15.3941Z" fill="white"/>
<path d="M66.8781 79.9336C66.9036 79.9378 66.9291 79.9463 66.9546 79.959C67.0312 79.9843 67.1034 80.0181 67.1714 80.0604C67.4393 80.221 67.6774 80.4197 67.8814 80.6563C68.6552 81.5651 69.2589 82.6006 69.667 83.7206C70.3812 85.4704 70.6958 87.3513 70.5938 89.2363C70.5513 89.8069 70.4493 90.3733 70.292 90.927C70.1134 91.506 69.8881 92.0724 69.616 92.6176C69.0208 93.8011 68.2258 94.8704 67.2607 95.7791C66.2064 96.7893 64.9692 97.5923 63.6173 98.1502C62.1463 98.7546 60.5478 98.9998 58.962 98.8645C55.4036 98.4884 52.3044 96.2905 50.7909 93.0656C50.3913 92.2161 50.1404 91.3074 50.0512 90.3775C49.9279 89.4223 50.0299 88.4544 50.3488 87.5457C50.6421 86.5947 51.2373 85.7621 52.0493 85.1788C52.4744 84.8956 52.9591 84.7181 53.465 84.6547C53.9752 84.5998 54.4939 84.6547 54.9785 84.828C55.9563 85.1788 56.7811 85.8593 57.3083 86.7511C57.8269 87.6514 58.1458 88.6531 58.2351 89.6844C58.4434 91.7765 58.1288 93.8856 57.321 95.8256C56.5345 97.7825 55.2463 99.4985 53.5841 100.805C51.9515 102.056 50.0044 102.833 47.9552 103.053C45.9826 103.29 43.9802 102.964 42.1819 102.119C40.4686 101.274 39.0401 99.9508 38.0708 98.3151C37.127 96.7724 36.6466 94.9972 36.6848 93.1924C36.6848 92.3218 36.8549 91.4638 37.178 90.6565C37.4841 89.8703 37.9858 89.1729 38.632 88.6277C39.2697 88.0909 40.1072 87.8458 40.9362 87.9515C41.7227 88.0783 42.4455 88.4756 42.9684 89.0757C43.4785 89.6336 43.8314 90.3184 43.9887 91.058C44.1247 91.7554 44.1247 92.4739 43.9887 93.1713C43.7039 94.4646 43.1937 95.6946 42.4752 96.8062C41.863 97.8121 41.153 98.7504 40.3495 99.6126C39.0699 100.999 37.5819 102.178 35.9366 103.108C34.9035 103.7 33.8109 104.182 32.6715 104.541C31.8935 104.786 31.4727 104.871 31.4727 104.871L31.7745 104.778C31.9743 104.71 32.2762 104.642 32.6588 104.499C33.7854 104.122 34.8695 103.632 35.8941 103.032C37.5181 102.115 38.9891 100.952 40.256 99.5831C41.0425 98.7208 41.744 97.7825 42.3477 96.7851C43.0534 95.6861 43.5551 94.4689 43.8271 93.1924C43.9632 92.5077 43.9632 91.8061 43.8271 91.1214C43.6698 90.4113 43.3297 89.7562 42.8408 89.2194C42.3392 88.6531 41.6589 88.2769 40.9107 88.1543C40.1285 88.0614 39.3419 88.2938 38.7425 88.801C38.1176 89.3251 37.6371 89.9971 37.3481 90.7579C37.0377 91.5398 36.8762 92.3725 36.8719 93.2136C36.8421 94.9803 37.3183 96.7217 38.2451 98.2305C39.1974 99.8282 40.5961 101.117 42.2711 101.937C44.0312 102.766 45.9953 103.083 47.9297 102.85C49.9406 102.63 51.8537 101.865 53.4565 100.64C55.0848 99.3548 56.3517 97.6684 57.1254 95.7495C57.9205 93.8391 58.2266 91.7639 58.0182 89.7055C57.9332 88.7038 57.6271 87.7359 57.1254 86.8652C56.628 86.0157 55.8415 85.369 54.9105 85.0351C54.4556 84.8703 53.9752 84.8153 53.4948 84.866C53.0229 84.9252 52.568 85.0943 52.1726 85.3563C51.3988 85.9142 50.8334 86.7046 50.5571 87.6133C50.251 88.4925 50.1489 89.4308 50.2637 90.3564C50.353 91.2651 50.5953 92.1527 50.9822 92.9811C52.4574 96.1342 55.4844 98.2982 58.962 98.6828C60.518 98.8138 62.0868 98.5729 63.5323 97.9812C64.8672 97.436 66.0873 96.6456 67.1332 95.6566C68.0897 94.7605 68.8805 93.7081 69.4714 92.5415C69.7435 92.009 69.9688 91.4511 70.1474 90.8805C70.3047 90.3395 70.4067 89.7858 70.4535 89.2279C70.5683 87.3555 70.2664 85.4789 69.5692 83.7333C69.1696 82.6217 68.5829 81.582 67.8304 80.669C67.6306 80.4366 67.3968 80.2295 67.1417 80.0604C67.0567 80.0139 66.9674 79.9716 66.8781 79.9336Z" fill="black"/>
<path d="M73.672 20.8068C73.672 20.8068 73.672 20.7349 73.6422 20.5997C73.6125 20.4644 73.604 20.2573 73.5742 19.9995C73.5147 19.4627 73.4254 18.685 73.3106 17.6748C73.0896 15.6461 72.7664 12.6917 72.3583 8.95537L72.4348 9.01454L26.5243 13.8286L26.622 13.7061C27.0472 17.7763 27.4723 21.7366 27.8677 25.5659L27.7486 25.4687L60.5097 22.117L70.1604 21.1449L72.7622 20.8871L73.4424 20.8237H73.6762L73.4552 20.8532L72.792 20.9293L70.2199 21.2125L60.599 22.2396L27.7699 25.7012H27.6636V25.5955C27.264 21.7916 26.8431 17.8059 26.418 13.761V13.6511H26.5285L72.4433 8.92578H72.5114V8.98918C72.8897 12.7466 73.1873 15.7179 73.3914 17.7551C73.4934 18.7611 73.5657 19.5345 73.621 20.0671C73.6422 20.3207 73.6635 20.5193 73.6762 20.6588V20.8068H73.672Z" fill="#455A64"/>
<path d="M125.096 41.2127C125.151 40.9591 125.291 40.7351 125.495 40.5745C126.001 40.2532 126.597 40.1053 127.196 40.1518C127.545 39.4502 127.774 38.6979 127.876 37.9202C127.596 37.9286 127.319 37.8483 127.081 37.6962C127.039 37.6962 126.992 37.675 126.949 37.6581C126.384 37.3961 126.329 36.555 126.686 36.0478C127.094 35.5744 127.634 35.2278 128.238 35.0545C127.821 35.1475 127.417 35.287 127.034 35.4772C126.609 35.604 126.048 35.4772 126.001 35.0545C126.001 34.9235 126.018 34.7967 126.065 34.6741L126.307 33.926C126.346 33.7147 126.465 33.5287 126.639 33.4019C126.775 33.3512 126.92 33.3132 127.064 33.2963C127.545 33.1695 127.791 32.5904 128.267 32.4509C128.633 32.4129 128.999 32.4678 129.339 32.6073C129.692 32.6919 130.163 32.6073 130.274 32.2777C129.794 32.0367 129.377 31.6859 129.058 31.2548C128.739 30.8026 128.786 30.1897 129.173 29.7924C129.53 29.5642 129.955 29.4796 130.372 29.5473C130.839 29.5473 131.422 29.6741 131.545 30.1221C132.196 29.9572 132.859 30.3503 133.02 30.997C133.025 31.0223 133.033 31.0435 133.037 31.0688L134.245 30.9505C133.909 30.5912 133.429 30.3715 133.139 29.9742C132.85 29.5769 132.901 28.8626 133.386 28.7569C133.56 28.7189 133.756 28.778 133.922 28.7104C134.087 28.6428 134.143 28.554 134.275 28.5498C134.368 28.5582 134.462 28.5921 134.534 28.6512L137.085 30.2996C136.855 29.7713 136.63 29.243 136.4 28.7104C136.171 28.1778 136.022 27.5481 136.464 27.248C136.906 26.9479 137.51 27.3748 137.599 27.882C138.058 27.7932 138.505 28.0933 138.594 28.554C138.598 28.5836 138.602 28.6132 138.607 28.6385C139.053 28.4864 139.534 28.7231 139.687 29.1669C139.772 29.4162 139.738 29.6867 139.589 29.9065C140.018 29.915 140.435 30.0418 140.8 30.2658C140.843 29.8685 141.2 29.5769 141.604 29.6149C141.74 29.6276 141.872 29.6825 141.978 29.767C141.965 29.5135 142.033 29.2641 142.165 29.0485C142.288 28.8499 142.552 28.7907 142.752 28.9133C142.777 28.9302 142.803 28.9471 142.824 28.9724C142.714 28.5202 142.99 28.0595 143.445 27.9496C143.713 27.8862 143.993 27.9496 144.202 28.1271L144.627 27.6242C145.065 27.5904 145.481 27.8144 145.689 28.199C145.868 28.5878 145.57 29.15 145.141 29.1119C145.443 29.1119 145.375 29.5853 145.201 29.8304L144.465 30.8448C144.784 30.549 145.264 30.5067 145.63 30.7434C145.911 30.456 146.374 30.4433 146.663 30.7223C146.672 30.7307 146.676 30.7349 146.684 30.7434C146.867 30.4729 147.233 30.401 147.505 30.5828C147.624 30.6631 147.713 30.7814 147.747 30.9209C147.819 30.7265 148.092 30.7138 148.3 30.7349C148.606 30.7349 148.908 30.8364 149.15 31.0224C149.367 31.2337 149.363 31.6732 149.082 31.7789C149.337 31.6352 149.669 31.9142 149.673 32.2016C149.643 32.4974 149.49 32.7679 149.248 32.9455C149.01 33.1187 148.801 33.3343 148.64 33.5794C148.891 33.4188 149.193 33.3554 149.49 33.4019C150.022 33.3766 150.549 33.478 151.029 33.7062C151.123 33.4991 151.412 33.4907 151.633 33.5329C152.33 33.6809 152.968 34.0232 153.469 34.5262C153.703 34.7629 153.895 35.1179 153.754 35.4096C153.669 35.5364 153.55 35.6378 153.414 35.7054L151.782 36.7114C152.674 36.9903 153.457 37.5398 154.014 38.2836C154.341 38.4738 154.758 38.495 155.051 38.7274C155.344 38.9599 155.323 39.5728 154.949 39.5728C155.183 39.7672 155.264 40.0926 155.149 40.3716C155.089 40.4857 155 40.5829 154.894 40.6505C154.843 40.7224 154.783 40.79 154.715 40.8492C154.588 40.9506 154.443 41.0309 154.29 41.0774C154.12 41.3057 153.844 41.4325 153.559 41.4156C153.869 41.6734 154.133 41.9819 154.333 42.3285C154.609 42.785 154.609 43.3598 154.333 43.8163C154.316 43.8374 154.294 43.8585 154.273 43.8797C154.235 44.0656 154.12 44.2262 153.963 44.3319C154.026 44.4545 154.043 44.5897 154.022 44.725C154.847 45.0335 155.259 45.9507 154.949 46.7664C154.838 47.0623 154.639 47.3159 154.379 47.5019C154.001 47.7681 153.308 47.7174 153.27 47.2609C153.091 47.6329 152.738 47.8865 152.33 47.9457C152.628 48.5332 152.39 49.2517 151.799 49.5475C151.769 49.5644 151.735 49.5771 151.701 49.5898C152.207 50.0759 152.22 50.8789 151.731 51.3819C151.607 51.5087 151.463 51.6059 151.297 51.6735C151.501 52.1723 151.259 52.7428 150.753 52.9457C150.251 53.1486 149.677 52.9077 149.473 52.4047C149.46 52.3751 149.452 52.3413 149.439 52.3117C149.29 52.6794 149.035 52.9964 148.708 53.2247C148.372 53.436 147.93 53.3388 147.717 53.0049C147.709 52.9922 147.7 52.9795 147.692 52.9626C147.42 53.6516 146.638 53.9897 145.945 53.7192C145.864 53.6854 145.783 53.6473 145.711 53.6008C145.753 54.0742 145.4 54.4969 144.92 54.5392C144.444 54.5814 144.019 54.2306 143.98 53.753L141.731 53.7319C141.234 53.7403 140.737 53.7023 140.243 53.622C139.623 53.4994 139.04 53.2289 138.543 52.8358C138.245 52.4808 137.735 52.392 137.336 52.6245C136.12 52.9711 134.806 52.6625 133.875 51.813C133.743 51.6693 133.59 51.5467 133.42 51.4537C133.207 51.3777 132.982 51.3438 132.757 51.3607C132.204 51.3523 131.656 51.272 131.12 51.1283C130.648 51.0438 130.231 50.7733 129.968 50.3717C129.751 49.9491 130.006 49.3066 130.478 49.3151C130.529 49.0108 130.436 48.698 130.227 48.4698C130.002 48.2288 129.624 48.2162 129.377 48.4359C129.211 48.6008 129.211 48.8671 129.377 49.0319C129.432 49.0868 129.5 49.1249 129.577 49.146C129.071 49.4968 128.28 49.0065 128.267 48.3937C128.31 47.7555 128.841 47.2609 129.483 47.2652C129.36 46.8256 129.351 46.3607 129.449 45.9127C129.109 46.3142 128.51 46.3776 128.089 46.0648C127.842 46.4748 127.438 46.7622 126.971 46.8636C126.49 46.9482 126.014 46.6904 125.831 46.2423C125.712 45.8493 125.938 45.4393 126.333 45.3209C126.401 45.2998 126.469 45.2914 126.537 45.2914C126.324 44.8518 126.507 44.3235 126.949 44.1121C127.068 44.0572 127.196 44.0234 127.328 44.0234C127.243 43.4021 127.591 42.7977 128.178 42.561C127.829 42.7512 127.387 42.6244 127.196 42.2778C127.175 42.2397 127.158 42.2017 127.145 42.1637C126.86 42.6117 126.159 42.5018 125.7 42.2355C125.287 42.0749 125.036 41.6522 125.092 41.2127H125.096Z" fill="#263238"/>
<path d="M125.096 41.2132C125.079 41.2724 125.071 41.3316 125.071 41.395C125.066 41.5809 125.126 41.7627 125.245 41.9106C125.445 42.1473 125.7 42.3206 125.993 42.422C126.18 42.4939 126.376 42.5277 126.576 42.5192C126.809 42.5192 127.03 42.4051 127.166 42.2107H127.12C127.251 42.6038 127.681 42.8151 128.076 42.6841C128.115 42.6714 128.157 42.6545 128.195 42.6334L128.17 42.5742C127.57 42.8151 127.213 43.4322 127.298 44.0704L127.341 44.0281C127.022 44.0154 126.724 44.1761 126.567 44.4508C126.371 44.7213 126.346 45.0806 126.507 45.3764L126.55 45.313C126.197 45.3003 125.883 45.5328 125.798 45.8752C125.695 46.2344 125.853 46.6148 126.176 46.8008C126.499 47.0079 126.903 47.0459 127.26 46.9022C127.626 46.7501 127.932 46.4922 128.14 46.1583H128.063C128.51 46.4922 129.143 46.4204 129.505 45.9977L129.403 45.9512C129.301 46.4077 129.313 46.8811 129.437 47.3333L129.492 47.2572C129.182 47.2615 128.884 47.3714 128.642 47.5658C128.391 47.7644 128.238 48.0561 128.217 48.3731C128.195 48.7112 128.357 49.0324 128.642 49.2184C128.922 49.4339 129.305 49.4551 129.607 49.2691L129.751 49.1719L129.577 49.1508C129.407 49.1508 129.296 48.9183 129.326 48.7281C129.369 48.5337 129.551 48.3984 129.751 48.4196C129.964 48.4238 130.159 48.5421 130.261 48.7281C130.363 48.9141 130.406 49.1254 130.385 49.3325L130.453 49.2733C130.278 49.2733 130.117 49.3452 130.006 49.4804C129.9 49.5988 129.832 49.7467 129.807 49.9031C129.781 50.0679 129.798 50.237 129.866 50.3892C129.938 50.5371 130.04 50.6681 130.168 50.7738C130.419 50.9724 130.708 51.1161 131.018 51.1964C131.329 51.2852 131.647 51.3486 131.966 51.3909C132.6 51.5261 133.335 51.2683 133.752 51.8516C134.253 52.3292 134.887 52.6504 135.567 52.7814C135.916 52.8533 136.269 52.8744 136.622 52.8448C136.974 52.8026 137.319 52.7307 137.655 52.6208C137.812 52.5785 137.978 52.5954 138.118 52.6715C138.267 52.7645 138.407 52.8659 138.543 52.9801C138.841 53.2168 139.172 53.4112 139.525 53.5591C140.231 53.8043 140.975 53.9099 141.723 53.8719L143.976 53.8972L143.896 53.8254C143.959 54.3453 144.436 54.7172 144.958 54.6538C145.46 54.5946 145.83 54.1551 145.8 53.6563L145.66 53.7282C146.323 54.1593 147.216 53.9733 147.65 53.314C147.705 53.2294 147.752 53.1407 147.786 53.0477H147.616C147.701 53.2506 147.879 53.3985 148.096 53.445C148.309 53.4915 148.534 53.4661 148.729 53.3731C149.087 53.1407 149.367 52.8026 149.529 52.4095H149.363C149.567 52.9336 150.137 53.221 150.685 53.0815C151.255 52.8913 151.569 52.2827 151.387 51.7121L151.331 51.8262C152.033 51.5346 152.36 50.7357 152.067 50.0384C151.994 49.8693 151.888 49.7129 151.756 49.5861L151.727 49.7467C152.394 49.4847 152.717 48.7366 152.454 48.073C152.441 48.0349 152.424 48.0011 152.407 47.9673L152.339 48.1068C152.781 48.0349 153.155 47.7518 153.342 47.346L153.164 47.3122C153.172 47.4305 153.227 47.5404 153.312 47.6207C153.393 47.6968 153.495 47.7475 153.606 47.7729C153.814 47.8194 154.035 47.8025 154.235 47.7222C154.618 47.532 154.907 47.1981 155.043 46.7966C155.196 46.3823 155.175 45.9259 154.979 45.5286C154.783 45.1397 154.452 44.8396 154.044 44.6833L154.103 44.7931C154.133 44.6368 154.112 44.4761 154.039 44.3367L154.001 44.4592C154.184 44.3451 154.316 44.1592 154.358 43.9478V43.9901C154.673 43.5886 154.741 43.0476 154.541 42.5784C154.341 42.1135 154.031 41.7077 153.636 41.3907L153.563 41.5556C153.882 41.5767 154.188 41.4372 154.379 41.1836L154.328 41.2174C154.601 41.1414 154.839 40.9765 155 40.7483L154.97 40.7779C155.179 40.6553 155.311 40.4355 155.323 40.1946C155.336 39.9452 155.23 39.7043 155.034 39.5437L154.975 39.7128C155.094 39.7128 155.209 39.6578 155.277 39.5606C155.34 39.4719 155.374 39.3662 155.374 39.2563C155.387 39.0407 155.298 38.8336 155.136 38.6899C154.8 38.4321 154.388 38.4194 154.09 38.2419L154.12 38.2673C153.546 37.5065 152.747 36.9443 151.837 36.6569L151.858 36.8345L152.607 36.3738L153.172 36.023C153.372 35.9131 153.563 35.7863 153.742 35.6468C153.84 35.558 153.903 35.4355 153.925 35.3044C153.937 35.1776 153.916 35.0508 153.865 34.9325C153.763 34.7212 153.619 34.5352 153.44 34.383C152.943 33.9181 152.322 33.6053 151.65 33.4743C151.531 33.4489 151.408 33.4489 151.289 33.4743C151.148 33.4954 151.025 33.5842 150.966 33.711L151.102 33.6645C150.719 33.4701 150.294 33.3644 149.865 33.3602H149.235C149.01 33.3602 148.785 33.4278 148.602 33.5588L148.746 33.6772C148.929 33.3179 149.376 33.1277 149.639 32.7262C149.792 32.5191 149.826 32.2486 149.724 32.0119C149.665 31.8978 149.571 31.8006 149.456 31.7414C149.329 31.6738 149.18 31.6738 149.053 31.7414L149.129 31.9147C149.252 31.864 149.346 31.7668 149.388 31.64C149.422 31.5258 149.422 31.399 149.388 31.2849C149.359 31.1708 149.295 31.0651 149.21 30.9848C149.125 30.9088 149.027 30.8496 148.921 30.8116C148.721 30.7439 148.513 30.7017 148.304 30.6848C148.194 30.6678 148.083 30.6678 147.973 30.6848C147.841 30.7059 147.73 30.7946 147.679 30.9172L147.862 30.9426C147.773 30.5749 147.407 30.3508 147.037 30.4396C146.867 30.4819 146.714 30.5833 146.621 30.7312H146.778C146.463 30.4016 145.945 30.3889 145.613 30.6974C145.6 30.7101 145.592 30.7186 145.579 30.7312H145.707C145.307 30.4734 144.78 30.5157 144.431 30.8411L144.576 30.9637L145.197 30.1184C145.324 29.9747 145.413 29.8056 145.46 29.6197C145.486 29.5182 145.486 29.4168 145.46 29.3153C145.443 29.2519 145.409 29.2012 145.358 29.1589C145.307 29.1209 145.239 29.0998 145.175 29.0998V29.2857C145.435 29.2942 145.673 29.1505 145.779 28.918C145.898 28.7025 145.907 28.4447 145.809 28.2206C145.571 27.8191 145.116 27.5867 144.648 27.6289H144.606L144.58 27.6627L144.155 28.1657H144.282C143.883 27.836 143.288 27.8867 142.952 28.284C142.765 28.5081 142.692 28.8039 142.756 29.0871L142.918 29.011C142.812 28.8927 142.65 28.8377 142.493 28.8673C142.344 28.8969 142.212 28.9772 142.123 29.0955C141.982 29.3238 141.914 29.5901 141.923 29.8563L142.076 29.7972C141.727 29.514 141.213 29.5647 140.928 29.9113C140.822 30.0381 140.758 30.1987 140.745 30.3635L140.881 30.2832C140.503 30.0508 140.069 29.9197 139.627 29.9113L139.695 30.055C140.001 29.6492 139.921 29.0702 139.512 28.7659C139.253 28.5715 138.909 28.5292 138.607 28.6475L138.726 28.7278C138.709 28.2291 138.288 27.8403 137.791 27.8572C137.731 27.8572 137.672 27.8656 137.612 27.8825L137.718 27.9501C137.672 27.7261 137.553 27.5233 137.378 27.3753C137.208 27.2189 136.979 27.1386 136.749 27.1471C136.507 27.1809 136.298 27.3415 136.209 27.5697C136.128 27.7726 136.111 27.9966 136.158 28.2122C136.256 28.6053 136.4 28.9899 136.583 29.3534L137.055 30.4354L137.174 30.3339L135.601 29.3153L134.836 28.8208C134.704 28.7236 134.564 28.6433 134.411 28.5841C134.317 28.5588 134.215 28.5757 134.134 28.6264C134.062 28.6644 134.003 28.7109 133.947 28.7363C133.807 28.7701 133.667 28.7828 133.522 28.7701C133.348 28.7701 133.186 28.8504 133.076 28.9814C132.893 29.2519 132.859 29.5943 132.987 29.8944C133.114 30.1691 133.318 30.4016 133.569 30.5706C133.799 30.7312 134.015 30.9088 134.219 31.1032L134.266 30.9764L133.063 31.099L133.144 31.1624C133.025 30.4734 132.362 30.0127 131.669 30.1311C131.63 30.1395 131.592 30.148 131.554 30.1564L131.647 30.2071C131.55 29.9324 131.316 29.7295 131.031 29.6746C130.78 29.607 130.517 29.5732 130.257 29.5732C129.998 29.5563 129.739 29.5858 129.488 29.6577C129.233 29.738 129.024 29.924 128.914 30.1691C128.727 30.6467 128.824 31.1877 129.16 31.5766C129.479 31.9189 129.853 32.2063 130.27 32.4219L130.24 32.35C130.168 32.5233 130.002 32.6417 129.815 32.6543C129.624 32.6839 129.428 32.667 129.245 32.6079C129.054 32.5445 128.859 32.498 128.659 32.4641C128.455 32.4303 128.242 32.4726 128.063 32.5783C127.715 32.7896 127.511 33.132 127.213 33.2799C127.06 33.3644 126.877 33.3391 126.686 33.4151C126.516 33.4997 126.388 33.6561 126.333 33.8378C126.223 34.1717 126.121 34.5014 126.014 34.8226C125.946 34.9959 125.963 35.1861 126.057 35.3467C126.159 35.4904 126.308 35.5918 126.482 35.6299C126.648 35.6637 126.814 35.6637 126.979 35.6299C127.132 35.5623 127.273 35.4819 127.409 35.3847C127.664 35.2368 127.944 35.1396 128.238 35.0931V35.0043C127.893 35.1269 127.566 35.2833 127.251 35.4735C126.95 35.6552 126.712 35.9173 126.559 36.2301C126.427 36.5175 126.401 36.8471 126.49 37.1515C126.571 37.4389 126.801 37.6671 127.09 37.7432C127.332 37.8996 127.621 37.9799 127.91 37.9714L127.834 37.9207C127.732 38.6942 127.502 39.4465 127.158 40.1439C126.78 40.1439 126.397 40.1861 126.031 40.2834C125.772 40.3552 125.538 40.4905 125.347 40.6807C125.241 40.7948 125.156 40.9258 125.105 41.0737C125.088 41.1202 125.079 41.1709 125.071 41.2217C125.122 41.023 125.224 40.8413 125.368 40.6976C125.555 40.5158 125.789 40.3848 126.044 40.3172C126.41 40.2242 126.784 40.1819 127.162 40.1946C127.519 39.493 127.757 38.7364 127.864 37.9587V37.9165H127.821C127.545 37.9165 127.277 37.8404 127.047 37.6925C126.78 37.6206 126.576 37.4135 126.507 37.1472C126.427 36.8598 126.452 36.5513 126.576 36.2808C126.724 35.9934 126.958 35.7524 127.239 35.5876C127.549 35.4016 127.872 35.2495 128.212 35.1311L128.489 35.0212H128.191C127.893 35.0677 127.604 35.1649 127.341 35.3171C127.205 35.3847 127.064 35.4355 126.916 35.4735C126.767 35.5073 126.614 35.5073 126.465 35.4735C126.316 35.4481 126.18 35.3636 126.095 35.2368C126.023 35.1058 126.014 34.9536 126.07 34.8141L126.384 33.8378C126.427 33.6772 126.533 33.5462 126.682 33.4701C126.86 33.4363 127.035 33.3898 127.209 33.3348C127.57 33.1615 127.774 32.815 128.089 32.629C128.404 32.443 128.799 32.5614 129.177 32.6755C129.377 32.7431 129.594 32.76 129.802 32.7262C130.036 32.7051 130.236 32.5529 130.321 32.3374V32.2909L130.278 32.2655C129.875 32.0457 129.513 31.7625 129.211 31.4202C128.91 31.0694 128.82 30.5833 128.982 30.1522C129.08 29.9493 129.262 29.7929 129.479 29.7295C129.713 29.6619 129.955 29.6366 130.198 29.6535C130.449 29.6535 130.695 29.6873 130.937 29.7507C131.171 29.7929 131.367 29.9536 131.452 30.1733V30.2452L131.524 30.2241C132.136 30.0719 132.757 30.4438 132.91 31.0525C132.914 31.0736 132.919 31.0947 132.923 31.1159V31.1877H132.991L134.198 31.0694H134.347L134.245 30.9595C134.037 30.7608 133.816 30.5749 133.578 30.41C133.348 30.2579 133.165 30.0465 133.046 29.7972C132.94 29.5478 132.965 29.2646 133.114 29.0406C133.195 28.9434 133.314 28.8842 133.441 28.8842C133.599 28.8969 133.76 28.8842 133.913 28.8377C134.071 28.7617 134.168 28.6602 134.275 28.694C134.402 28.7532 134.526 28.825 134.64 28.9096L135.41 29.4083L136.979 30.4312L137.208 30.5791L137.098 30.3297L136.63 29.2435C136.456 28.8927 136.32 28.5207 136.226 28.1403C136.188 27.9586 136.201 27.7684 136.269 27.5951C136.337 27.4303 136.49 27.3204 136.668 27.2992C137.051 27.3077 137.378 27.5824 137.451 27.9586V28.0516L137.544 28.0262C137.944 27.9417 138.335 28.1953 138.424 28.5926C138.433 28.6264 138.437 28.6644 138.437 28.6983V28.8293L138.56 28.7786C138.947 28.6264 139.385 28.8166 139.534 29.2012C139.627 29.4421 139.593 29.7126 139.44 29.9197L139.334 30.055H139.508C139.921 30.0634 140.324 30.186 140.673 30.4016L140.818 30.4903V30.3255C140.864 29.9747 141.187 29.7295 141.54 29.7803C141.651 29.7929 141.753 29.8394 141.842 29.9028L141.987 30.0465V29.8437C141.974 29.6112 142.029 29.3787 142.148 29.1801C142.263 29.0195 142.573 28.9561 142.667 29.0998L142.918 29.4379L142.829 29.0152C142.743 28.6053 143.007 28.2037 143.415 28.1192C143.641 28.0727 143.879 28.1277 144.057 28.2756L144.129 28.3348L144.189 28.2629L144.614 27.7599L144.546 27.7895C144.941 27.7557 145.32 27.9459 145.528 28.2798C145.694 28.5968 145.443 29.1251 145.082 29.0786V29.2646C145.133 29.2604 145.175 29.2942 145.18 29.3449C145.197 29.4168 145.197 29.4886 145.18 29.5605C145.141 29.7169 145.06 29.8606 144.954 29.9831L144.329 30.8285L144.47 30.9553C144.754 30.689 145.184 30.6467 145.515 30.858L145.583 30.9088L145.643 30.8454C145.881 30.596 146.281 30.5875 146.531 30.8242C146.54 30.8327 146.544 30.8369 146.553 30.8454L146.651 30.9595L146.71 30.8242C146.872 30.6002 147.186 30.5537 147.411 30.7143C147.501 30.7777 147.565 30.8665 147.594 30.9722L147.633 31.4455L147.777 30.9933C147.815 30.875 148.024 30.8454 148.202 30.8665C148.394 30.8792 148.585 30.9172 148.768 30.9764C148.938 31.0271 149.07 31.1581 149.121 31.3272C149.163 31.4878 149.121 31.6822 148.976 31.7245L149.057 31.8978C149.184 31.8175 149.384 31.9316 149.482 32.0922C149.55 32.2697 149.52 32.4684 149.405 32.6163C149.193 32.9587 148.742 33.1446 148.504 33.58L148.279 34.0026L148.653 33.7025C148.933 33.4785 149.38 33.5546 149.78 33.5631C150.179 33.5631 150.575 33.6561 150.932 33.8378L151.029 33.897L151.068 33.7955C151.119 33.6603 151.353 33.6391 151.544 33.6772C151.752 33.7152 151.96 33.7786 152.156 33.8589C152.556 34.0153 152.921 34.2435 153.236 34.5352C153.393 34.6662 153.521 34.8353 153.61 35.0212C153.699 35.1861 153.665 35.389 153.533 35.52C153.363 35.651 153.181 35.7651 152.994 35.8708L152.428 36.2216L151.739 36.6527L151.561 36.7626L151.761 36.826C152.632 37.0965 153.397 37.6375 153.946 38.3645C154.307 38.5674 154.707 38.5843 154.966 38.7871C155.085 38.8928 155.149 39.0492 155.136 39.2098C155.136 39.3662 155.051 39.493 154.928 39.4845H154.622L154.868 39.6747C155.013 39.7931 155.094 39.9748 155.085 40.165C155.072 40.3425 154.975 40.4989 154.822 40.5877H154.8C154.664 40.7821 154.465 40.9216 154.235 40.9808H154.205L154.184 41.0061C154.031 41.2048 153.793 41.3147 153.542 41.302L153.253 41.2766L153.47 41.471C153.84 41.7669 154.129 42.1473 154.32 42.5784C154.499 42.9799 154.443 43.4491 154.175 43.7999V43.821C154.141 43.9816 154.044 44.1253 153.903 44.2141L153.827 44.2564L153.869 44.3367C153.925 44.4381 153.942 44.5565 153.92 44.6706V44.7509L153.997 44.7762C154.362 44.9199 154.656 45.1947 154.822 45.5455C154.987 45.8921 155.009 46.2894 154.881 46.6528C154.766 47.0037 154.516 47.2995 154.184 47.4686C154.022 47.5362 153.84 47.5489 153.67 47.5108C153.516 47.4897 153.393 47.3714 153.372 47.2192L153.351 46.8515L153.198 47.1854C153.028 47.5235 152.704 47.7602 152.326 47.8152H152.19L152.258 47.9377C152.53 48.483 152.301 49.1465 151.752 49.4128C151.727 49.4255 151.705 49.434 151.68 49.4466L151.518 49.4974L151.65 49.6072C151.952 49.882 152.075 50.3046 151.973 50.6977C151.909 51.0823 151.646 51.4035 151.28 51.543L151.187 51.5726L151.221 51.6614C151.365 52.1348 151.11 52.6377 150.638 52.7983C150.183 52.9124 149.711 52.6758 149.537 52.2404L149.473 52.0418L149.376 52.2277C149.231 52.5912 148.976 52.8998 148.653 53.1195C148.355 53.2844 147.977 53.1829 147.803 52.8913L147.718 52.6377L147.637 52.8955C147.501 53.2548 147.199 53.5295 146.825 53.631C146.476 53.7451 146.094 53.6901 145.792 53.4873L145.651 53.3816V53.5591C145.668 53.9902 145.328 54.3537 144.895 54.3706C144.491 54.3833 144.146 54.0959 144.087 53.6986V53.6267H143.989L141.732 53.6056C141.009 53.6436 140.29 53.5422 139.606 53.3055C139.279 53.1787 138.968 53.0054 138.683 52.7941C138.552 52.6758 138.407 52.5701 138.258 52.4771C138.084 52.3841 137.88 52.3588 137.689 52.4095C137.361 52.5151 137.021 52.5912 136.677 52.6335C135.669 52.7138 134.67 52.3757 133.926 51.691C133.807 51.5642 133.671 51.4585 133.527 51.3655C133.369 51.2894 133.195 51.2514 133.016 51.2514C132.693 51.2514 132.37 51.2303 132.051 51.1922C131.737 51.15 131.431 51.0908 131.124 51.0062C130.831 50.9344 130.555 50.7991 130.312 50.6174C130.079 50.4441 129.96 50.1609 129.994 49.8735C130.006 49.5946 130.223 49.3663 130.504 49.341H130.563V49.2818C130.597 49.0324 130.555 48.7746 130.432 48.5506C130.304 48.3224 130.066 48.1829 129.802 48.1786C129.534 48.1533 129.292 48.3393 129.245 48.6013C129.19 48.8591 129.352 49.1085 129.607 49.1719L129.581 49.0536C129.322 49.2057 128.999 49.1846 128.761 49.0028C128.51 48.8507 128.361 48.576 128.37 48.2843C128.45 47.7095 128.944 47.2826 129.526 47.2826H129.602V47.2065C129.483 46.8008 129.458 46.3697 129.534 45.9512L129.59 45.7103L129.437 45.9047C129.114 46.2767 128.561 46.3359 128.161 46.0484L128.115 46.0104L128.08 46.0611C127.885 46.3739 127.596 46.6233 127.256 46.7712C126.928 46.9022 126.559 46.8684 126.261 46.6824C125.968 46.5218 125.827 46.1837 125.917 45.8625C125.989 45.5624 126.261 45.3553 126.571 45.3595H126.656L126.614 45.2834C126.405 44.865 126.58 44.3578 127.005 44.1507C127.115 44.0958 127.239 44.0662 127.362 44.0662H127.413V44.0154C127.328 43.411 127.664 42.8278 128.229 42.5911L128.2 42.5361C127.859 42.7179 127.434 42.5869 127.251 42.2487C127.234 42.2191 127.222 42.1896 127.209 42.1557V42.0966L127.179 42.1515C127.052 42.3333 126.848 42.4389 126.627 42.4432C126.435 42.4516 126.24 42.422 126.061 42.3544C125.763 42.2741 125.496 42.1135 125.283 41.8937C125.164 41.7542 125.1 41.5767 125.1 41.395C125.083 41.2766 125.1 41.2132 125.096 41.2132Z" fill="#455A64"/>
<path d="M145.69 43.0527C145.903 39.122 142.876 35.766 138.922 35.5505C138.833 35.5463 138.743 35.542 138.654 35.542C134.777 35.4786 131.508 38.4077 131.172 42.2496C130.878 45.5675 130.657 48.915 130.747 50.1196C131.031 53.7502 133.297 55.0267 134.211 55.3944C134.535 55.4874 134.87 55.5465 135.206 55.5719C135.206 55.5719 135.228 55.5803 135.228 55.593C135.228 55.593 135.228 55.593 135.228 55.5972L134.675 59.8238C134.475 62.5796 133.867 71.9584 136.69 72.174C139.513 72.3895 143.917 63.1164 144.155 60.3395L145.69 43.0527Z" fill="#FFBE9D"/>
<path d="M132.284 44.8784C132.242 45.1954 132.467 45.4871 132.786 45.5251C132.795 45.5251 132.799 45.5251 132.807 45.5251C133.113 45.5758 133.407 45.3687 133.458 45.0602C133.458 45.0602 133.458 45.0559 133.458 45.0517C133.488 44.7347 133.258 44.4558 132.939 44.422C132.633 44.3712 132.344 44.5699 132.284 44.8742V44.8784Z" fill="#263238"/>
<path d="M132.086 43.1781C132.154 43.2584 132.63 42.971 133.264 43.0218C133.897 43.0725 134.343 43.4191 134.416 43.3472C134.488 43.2754 134.39 43.1739 134.199 43.0133C133.94 42.8062 133.616 42.6836 133.285 42.6625C132.953 42.6329 132.626 42.709 132.341 42.8781C132.15 42.9922 132.086 43.1401 132.086 43.1781Z" fill="#263238"/>
<path d="M138.229 45.352C138.199 45.669 138.433 45.9479 138.752 45.9775C139.058 46.0282 139.351 45.8211 139.402 45.5126C139.402 45.5126 139.402 45.5084 139.402 45.5042C139.432 45.1914 139.198 44.9082 138.884 44.8786C138.573 44.8279 138.28 45.0392 138.229 45.3478C138.229 45.3478 138.229 45.3478 138.229 45.352Z" fill="#263238"/>
<path d="M138.348 43.7786C138.416 43.8589 138.888 43.5714 139.525 43.6222C140.163 43.6729 140.601 44.0195 140.677 43.9476C140.754 43.8758 140.652 43.7743 140.456 43.6137C140.193 43.4066 139.878 43.284 139.542 43.2587C139.211 43.2333 138.883 43.3094 138.598 43.4785C138.39 43.6095 138.314 43.7405 138.348 43.7786Z" fill="#263238"/>
<path d="M135.652 48.2074C135.325 48.0764 134.985 47.9876 134.636 47.9454C134.475 47.9158 134.322 47.8693 134.305 47.7594C134.305 47.5945 134.356 47.4339 134.453 47.2987C134.636 46.9267 134.832 46.5379 135.036 46.1279C135.844 44.4626 136.447 43.0848 136.375 43.0552C136.303 43.0256 135.593 44.3485 134.785 46.0138L134.211 47.2184C134.092 47.4001 134.045 47.6157 134.075 47.8312C134.113 47.9496 134.203 48.0426 134.322 48.0848C134.411 48.1144 134.5 48.1355 134.594 48.144C134.942 48.2074 135.3 48.2285 135.652 48.2074Z" fill="#263238"/>
<path d="M135.245 55.5718C135.245 55.5718 137.685 55.9606 140.907 54.3926C140.712 54.4898 139.781 58.057 135.096 56.7088L135.245 55.5718Z" fill="#EB996E"/>
<path d="M135.797 49.7247C136.069 49.4415 136.469 49.3105 136.86 49.3865C137.136 49.4288 137.387 49.581 137.549 49.8092C137.71 50.0332 137.71 50.3291 137.549 50.5531C137.319 50.7686 136.983 50.8236 136.698 50.6926C136.405 50.5742 136.137 50.4009 135.912 50.1769C135.844 50.122 135.789 50.0586 135.746 49.9825C135.699 49.9106 135.699 49.8219 135.746 49.75" fill="#EB996E"/>
<path d="M137.489 48.7833C137.387 48.7833 137.327 49.4426 136.698 49.8737C136.069 50.3049 135.338 50.1781 135.325 50.271C135.312 50.364 135.478 50.4147 135.788 50.4443C136.192 50.4824 136.596 50.3809 136.932 50.1527C137.251 49.9371 137.472 49.6075 137.548 49.2355C137.612 48.9523 137.536 48.7791 137.489 48.7833Z" fill="#263238"/>
<path d="M138.369 41.7672C138.416 41.9405 139.058 41.911 139.798 42.0589C140.537 42.2068 141.124 42.4477 141.235 42.304C141.286 42.2364 141.192 42.0673 140.963 41.8814C140.656 41.6531 140.299 41.4967 139.921 41.4333C139.543 41.3573 139.151 41.3699 138.777 41.4756C138.497 41.5644 138.348 41.6869 138.369 41.7672Z" fill="#263238"/>
<path d="M132.43 41.547C132.532 41.6991 132.978 41.585 133.51 41.6188C134.041 41.6526 134.475 41.7921 134.589 41.6484C134.64 41.5808 134.589 41.4371 134.398 41.2849C133.884 40.9172 133.203 40.8876 132.659 41.2046C132.459 41.3356 132.387 41.4751 132.43 41.547Z" fill="#263238"/>
<path d="M130.206 37.8667C130.223 37.6638 130.253 37.4609 130.296 37.2623C130.406 36.9706 130.593 36.7086 130.835 36.5099C131.609 35.7576 132.425 34.9757 133.386 34.7263C133.981 34.5742 134.598 34.6333 135.193 34.4854C135.559 34.3755 135.92 34.2445 136.273 34.0966C137.752 33.6147 139.338 33.5302 140.86 33.8514C141.723 33.9655 142.557 34.236 143.322 34.646C144.168 35.1828 144.912 35.8548 145.528 36.641C146.574 37.7991 147.407 39.1347 147.99 40.5802C148.47 41.7594 148.593 43.0527 148.343 44.2996C148.054 45.538 147.169 46.6496 146.089 46.8355C145.966 46.6622 145.843 46.4932 145.715 46.3241L145.116 45.5718C145.214 45.8719 145.116 45.8507 144.861 45.9944C144.601 46.1212 144.287 46.0156 144.159 45.7577C144.155 45.7493 144.151 45.7366 144.147 45.7282C143.93 45.9733 143.509 45.669 143.598 45.3351C143.343 45.4492 143.054 45.0984 143.173 44.8068C142.884 44.8871 142.748 44.4264 142.633 44.1094C142.565 43.9403 142.467 43.7881 142.386 43.6275C142.119 43.0992 142.008 42.5033 142.068 41.9158C141.774 41.4001 141.638 40.8168 141.672 40.2251C141.672 39.8532 141.647 39.4812 141.63 39.1093L141.447 38.8346C141.426 39.0924 141.247 39.308 140.996 39.3756C140.771 39.4136 140.537 39.3883 140.325 39.308L139.67 39.1262L139.245 39.2107C139.291 39.5785 139.219 39.9546 139.032 40.2758C138.96 40.5083 138.811 40.7112 138.607 40.8464C138.441 40.9098 138.258 40.8295 138.195 40.6647C138.169 40.6055 138.165 40.5379 138.182 40.4745C138.029 40.5928 137.812 40.5675 137.693 40.4153C137.676 40.3942 137.663 40.3731 137.65 40.3477C137.548 40.1321 137.514 39.8912 137.557 39.6545C137.621 39.0839 137.85 38.5387 138.224 38.0991L136.983 39.0797C136.902 39.1558 136.796 39.2107 136.685 39.2276C136.685 39.3967 136.549 39.5362 136.379 39.5404C136.362 39.5404 136.349 39.5404 136.332 39.5404C136.167 39.4812 136.022 39.3671 135.929 39.2192C135.674 38.9022 135.414 38.3739 135.691 38.0653C135.563 38.0315 135.516 37.8075 135.61 37.6934L134.211 38.5725C134.347 38.5091 134.479 38.7247 134.432 38.8895C134.377 39.0417 134.271 39.1685 134.13 39.253C134.232 39.4474 134.266 39.6672 134.228 39.8828C134.483 39.6926 134.806 40.111 134.7 40.4407C134.585 40.745 134.288 40.9394 133.964 40.9225C133.701 40.9436 133.463 40.7619 133.412 40.4999C133.118 40.5337 132.876 40.1195 132.987 39.8067C132.77 39.9293 132.617 39.5404 132.625 39.2572C132.647 38.7627 132.757 38.2809 132.957 37.8286C132.936 37.8625 132.889 37.8751 132.851 37.854C132.851 37.854 132.851 37.854 132.846 37.854C132.834 37.8371 132.825 37.816 132.825 37.7948L131.996 39.4136C131.728 39.8616 131.55 40.3561 131.469 40.8676C131.448 41.0831 131.397 41.3705 131.214 41.3748C131.163 41.3748 131.116 41.3579 131.078 41.3283C130.559 40.9817 130.185 40.4618 130.011 39.8659C129.934 39.6588 129.887 39.4432 129.879 39.2234C129.951 38.7669 130.062 38.3147 130.206 37.8751V37.8667Z" fill="#263238"/>
<path d="M144.993 45.1785C145.056 45.1531 147.543 44.5952 147.31 47.072C147.076 49.5488 144.623 48.7964 144.627 48.7288C144.631 48.6612 144.993 45.1785 144.993 45.1785Z" fill="#FFBE9D"/>
<path d="M145.473 47.8614C145.473 47.8614 145.516 47.8952 145.588 47.9333C145.686 47.9882 145.801 48.0009 145.911 47.9713C146.256 47.7938 146.481 47.4472 146.498 47.0626C146.523 46.8513 146.498 46.6357 146.434 46.4328C146.4 46.2722 146.29 46.137 146.141 46.0736C146.039 46.0355 145.928 46.0736 145.873 46.1665C145.835 46.2342 145.843 46.2849 145.83 46.2849C145.818 46.2849 145.779 46.2384 145.809 46.1412C145.83 46.082 145.869 46.0271 145.924 45.9933C145.996 45.9468 146.086 45.9341 146.171 45.9552C146.379 46.0102 146.54 46.1708 146.596 46.3779C146.681 46.6019 146.706 46.847 146.676 47.0837C146.659 47.536 146.37 47.9333 145.945 48.0939C145.805 48.1192 145.66 48.0812 145.554 47.9882C145.473 47.9206 145.465 47.8656 145.473 47.8614Z" fill="#EB996E"/>
<path d="M135.971 37.3046C135.894 37.2074 135.843 37.0932 135.83 36.9707C135.822 36.8354 135.873 36.7002 135.975 36.6072C136.111 36.4931 136.298 36.4592 136.464 36.5269L136.566 36.5691L136.528 36.4677C136.468 36.269 136.536 36.0535 136.706 35.9267C136.902 35.8041 137.161 35.8337 137.323 36.0028L137.412 35.9351C137.399 35.914 137.391 35.8929 137.382 35.8675C137.369 35.7872 137.391 35.7027 137.442 35.6393C137.497 35.5759 137.573 35.5378 137.659 35.5294C137.744 35.5209 137.824 35.5294 137.905 35.559C137.986 35.6097 138.079 35.6393 138.177 35.6477C138.3 35.6477 138.36 35.5505 138.424 35.5167C138.488 35.4744 138.556 35.4406 138.628 35.4153C138.764 35.3646 138.908 35.3476 139.053 35.3603C139.257 35.3688 139.453 35.4322 139.623 35.5463C139.737 35.6308 139.793 35.6942 139.801 35.6858C139.763 35.6181 139.712 35.559 139.648 35.5125C139.482 35.3772 139.274 35.2927 139.057 35.28C138.913 35.2673 138.768 35.28 138.632 35.3265C138.551 35.3519 138.475 35.3899 138.402 35.4364C138.326 35.4787 138.266 35.5421 138.207 35.5421C138.126 35.5294 138.05 35.504 137.977 35.4618C137.884 35.4237 137.778 35.4068 137.676 35.4195C137.565 35.428 137.463 35.4829 137.391 35.5674C137.314 35.6562 137.284 35.7788 137.306 35.8929C137.318 35.9309 137.331 35.9647 137.352 35.9985L137.442 35.9267C137.229 35.69 136.868 35.6689 136.63 35.8802C136.455 36.0366 136.392 36.2775 136.472 36.4973L136.536 36.4381C136.336 36.362 136.115 36.4043 135.958 36.548C135.843 36.6579 135.788 36.8143 135.809 36.9707C135.822 37.0679 135.86 37.1609 135.928 37.2369C135.937 37.2623 135.954 37.2834 135.971 37.3046Z" fill="#455A64"/>
<path d="M133.132 37.7807C133.043 37.6877 132.979 37.5736 132.945 37.451C132.911 37.3073 132.932 37.1552 133.009 37.0284C133.106 36.8635 133.281 36.7579 133.472 36.7494H133.553L133.506 36.6818C133.362 36.5127 133.311 36.2803 133.366 36.0647C133.404 35.9506 133.498 35.8661 133.612 35.8323C133.723 35.7858 133.855 35.8154 133.935 35.9041L134.225 36.2676L134.029 35.8449C133.961 35.6886 133.961 35.5153 134.029 35.3589C134.11 35.194 134.271 35.0841 134.454 35.0672C134.582 35.0461 134.713 35.0672 134.824 35.1349L134.947 35.2067L134.905 35.0715C134.845 34.8728 135.058 34.6488 135.253 34.6488C135.462 34.6488 135.666 34.7164 135.832 34.8432L135.934 34.9109L135.912 34.7925C135.895 34.6446 135.959 34.4967 136.078 34.4079C136.197 34.3276 136.333 34.2811 136.478 34.2726C136.72 34.2557 136.962 34.2811 137.192 34.3487C137.392 34.4206 137.587 34.5093 137.77 34.615C137.77 34.615 137.732 34.5685 137.638 34.5051C137.294 34.2769 136.882 34.167 136.469 34.1881C136.312 34.1923 136.155 34.2431 136.023 34.3318C135.87 34.4375 135.785 34.6235 135.81 34.8094L135.891 34.7587C135.704 34.615 135.479 34.5389 135.245 34.5389C135.113 34.5516 134.994 34.6108 134.905 34.7038C134.807 34.8052 134.769 34.9489 134.799 35.0884L134.879 35.025C134.752 34.9531 134.603 34.9235 134.454 34.9404C134.237 34.97 134.05 35.1053 133.957 35.2997C133.867 35.4814 133.867 35.697 133.957 35.8788L134.046 35.8238C133.94 35.7055 133.77 35.6674 133.621 35.7224C133.476 35.7646 133.362 35.8745 133.315 36.0182C133.247 36.2676 133.311 36.5296 133.481 36.7241L133.51 36.6564C133.294 36.6734 133.098 36.7959 132.992 36.9861C132.915 37.1256 132.894 37.2947 132.941 37.4468C132.97 37.544 133.021 37.6328 133.089 37.7046C133.098 37.768 133.128 37.7849 133.132 37.7807Z" fill="#455A64"/>
<path d="M127.09 37.7846C127.103 37.6662 127.167 37.5606 127.26 37.4929C127.371 37.4126 127.507 37.3746 127.643 37.3915C127.826 37.4211 128 37.476 128.166 37.5606L128.225 37.5901V37.5225C128.251 37.3027 128.429 37.1252 128.65 37.0999C128.927 37.0872 129.199 37.1548 129.433 37.2943L129.768 37.4507L129.488 37.2055C129.352 37.0322 129.382 36.7829 129.556 36.6476C129.556 36.6476 129.564 36.6434 129.569 36.6392C129.781 36.5124 130.036 36.4743 130.279 36.5377H130.313L130.529 36.5758L130.355 36.4405C130.194 36.2714 130.198 36.0052 130.364 35.8446C130.393 35.815 130.423 35.7938 130.461 35.7727C130.704 35.6713 130.984 35.722 131.171 35.9037L131.384 36.1024L131.252 35.8446C131.103 35.5276 131.137 35.1556 131.341 34.8682C131.507 34.6484 131.762 34.5174 132.039 34.509C132.217 34.5005 132.396 34.5385 132.557 34.6188C132.668 34.678 132.719 34.7245 132.727 34.7203L132.693 34.6822C132.655 34.6484 132.617 34.6188 132.574 34.5893C132.413 34.492 132.226 34.4413 132.034 34.4456C131.737 34.4456 131.452 34.5808 131.269 34.8175C131.035 35.1303 130.997 35.5402 131.163 35.8911L131.235 35.8065C131.01 35.5867 130.674 35.5233 130.385 35.6544C130.24 35.7347 130.138 35.8741 130.109 36.039C130.066 36.2123 130.126 36.394 130.262 36.5081L130.308 36.4067H130.27C129.998 36.3348 129.709 36.3813 129.471 36.5335C129.365 36.6223 129.292 36.7491 129.271 36.8843C129.246 37.0196 129.292 37.1633 129.39 37.2605L129.45 37.1759C129.19 37.028 128.897 36.9604 128.599 36.9815C128.327 37.0196 128.119 37.2393 128.102 37.5141L128.157 37.476C127.987 37.3915 127.8 37.3366 127.609 37.3154C127.456 37.3027 127.303 37.3492 127.184 37.4464C127.111 37.5056 127.06 37.5859 127.039 37.6747C127.077 37.7508 127.086 37.7846 127.09 37.7846Z" fill="#455A64"/>
<path d="M130.721 32.3789C130.763 32.4085 130.814 32.4296 130.865 32.4423C131.006 32.4761 131.146 32.4973 131.29 32.5015C131.507 32.5015 131.72 32.5522 131.911 32.6494C132.017 32.7128 132.085 32.8185 132.107 32.941C132.132 33.0678 132.073 33.1946 131.962 33.258L132.034 33.3172C132.068 33.1777 132.255 33.1017 132.425 33.0213C132.596 32.9326 132.778 32.8734 132.97 32.8396C133.157 32.8058 133.348 32.8523 133.497 32.9664C133.633 33.0594 133.709 33.2242 133.692 33.3891L133.663 33.5243L133.773 33.444C133.994 33.2834 134.262 33.1989 134.534 33.2073C134.747 33.2073 134.959 33.2538 135.151 33.351C135.321 33.4398 135.474 33.5581 135.606 33.6976C135.606 33.6976 135.584 33.6469 135.52 33.5666C135.427 33.4525 135.312 33.3595 135.18 33.2919C134.981 33.182 134.76 33.1228 134.534 33.1186C134.241 33.1059 133.952 33.1904 133.709 33.3595L133.794 33.4102C133.828 33.2031 133.739 32.9918 133.565 32.8734C133.395 32.7382 133.174 32.6832 132.957 32.7213C132.753 32.7508 132.557 32.8142 132.379 32.9115C132.289 32.9495 132.204 32.996 132.119 33.0467C132.03 33.1017 131.962 33.1862 131.932 33.2834L131.907 33.3891L132.005 33.3468C132.158 33.2665 132.238 33.0932 132.2 32.9241C132.179 32.7762 132.09 32.6452 131.958 32.5733C131.754 32.4719 131.524 32.4254 131.295 32.4381C131.154 32.4381 131.01 32.4339 130.869 32.4085C130.823 32.3958 130.772 32.3831 130.721 32.3789Z" fill="#455A64"/>
<path d="M136.469 30.7101C136.571 30.7228 136.669 30.7439 136.762 30.7777C136.864 30.8242 136.953 30.8919 137.026 30.9806C137.119 31.0863 137.174 31.2258 137.174 31.3695V31.4286H137.234C137.413 31.4117 137.574 31.5216 137.625 31.6907C137.672 31.8936 137.659 32.1091 137.591 32.3078L137.54 32.5275L137.689 32.3585L137.714 32.3331C137.821 32.2317 137.969 32.1852 138.114 32.2063C138.25 32.2232 138.378 32.2909 138.467 32.3965C138.62 32.5867 138.679 32.8319 138.637 33.0728C138.607 33.2376 138.548 33.3982 138.467 33.5462C138.412 33.6518 138.378 33.711 138.386 33.7152C138.433 33.673 138.475 33.6222 138.505 33.5673C138.607 33.4236 138.675 33.263 138.713 33.0897C138.773 32.8234 138.713 32.5445 138.548 32.3289C138.331 32.0584 137.935 32.0119 137.663 32.2275C137.655 32.2359 137.642 32.2444 137.634 32.2528L137.604 32.2866L137.702 32.3373C137.774 32.1176 137.782 31.8766 137.723 31.6526C137.655 31.4329 137.434 31.3018 137.208 31.3356L137.268 31.3821C137.26 31.2258 137.196 31.0736 137.085 30.9595C137.004 30.8665 136.898 30.7989 136.783 30.7566C136.707 30.7312 136.63 30.7186 136.55 30.7228C136.524 30.7143 136.494 30.7059 136.469 30.7101Z" fill="#455A64"/>
<path d="M141.082 34.5385H141.235C141.367 34.4962 141.49 34.4286 141.592 34.3314C141.749 34.1877 141.856 34.0017 141.898 33.7946C141.898 33.6889 141.932 33.5833 141.996 33.4945C142.068 33.4226 142.209 33.3846 142.306 33.262C142.489 33.0253 142.455 32.6914 142.226 32.497V32.5773C142.451 32.4125 142.634 32.2012 142.761 31.956C142.817 31.8673 142.851 31.7658 142.868 31.6602C142.808 31.7447 142.753 31.8334 142.706 31.9264C142.566 32.1504 142.379 32.3406 142.162 32.4928L142.107 32.5351L142.162 32.5773C142.336 32.7379 142.357 33 142.217 33.1902C142.153 33.2832 142.026 33.317 141.92 33.4184C141.839 33.5199 141.796 33.6467 141.796 33.7735C141.762 33.9637 141.673 34.1369 141.537 34.2722C141.405 34.3905 141.248 34.4793 141.082 34.5385Z" fill="#455A64"/>
<path d="M142.441 35.6255C142.471 35.6382 142.501 35.6466 142.535 35.6466C142.624 35.6551 142.713 35.6551 142.803 35.6466C143.13 35.6086 143.432 35.4691 143.674 35.2493H143.602C143.84 35.5832 144.257 35.7354 144.656 35.6382C144.809 35.6086 144.945 35.5156 145.035 35.3888C145.06 35.3381 145.077 35.2874 145.094 35.2324C145.111 35.1944 145.141 35.1606 145.175 35.1352C145.256 35.0887 145.349 35.0549 145.443 35.0422C145.549 35.0338 145.647 35 145.74 34.9492C145.847 34.9028 145.915 34.8013 145.923 34.6872L145.851 34.7337C146.064 34.8351 146.306 34.8605 146.535 34.8055C146.71 34.7675 146.871 34.683 147.007 34.5646C147.097 34.4885 147.169 34.3998 147.22 34.2941C147.241 34.2603 147.254 34.218 147.258 34.1758C147.182 34.3026 147.084 34.4209 146.969 34.5181C146.837 34.6196 146.68 34.6914 146.514 34.7252C146.306 34.7675 146.089 34.7379 145.898 34.6407L145.826 34.6027V34.6872C145.817 34.7633 145.766 34.8267 145.694 34.8563C145.609 34.8985 145.519 34.9239 145.426 34.9366C145.315 34.9493 145.205 34.9873 145.111 35.0465C145.06 35.0803 145.018 35.131 144.992 35.1902C144.979 35.2409 144.962 35.2874 144.941 35.3339C144.865 35.4353 144.754 35.5072 144.631 35.5325C144.508 35.5579 144.376 35.5579 144.252 35.5325C144.023 35.4945 143.819 35.3677 143.683 35.1817L143.653 35.1352L143.611 35.1775C143.389 35.3973 143.105 35.5452 142.799 35.6001C142.573 35.6297 142.441 35.6128 142.441 35.6255Z" fill="#455A64"/>
<path d="M151.016 39.8183V39.7802C151.029 39.7422 151.038 39.7041 151.046 39.6661C151.076 39.5182 151.076 39.366 151.046 39.2181C150.995 38.9898 150.91 38.7701 150.799 38.5629C150.736 38.4319 150.663 38.3051 150.578 38.1868C150.527 38.1234 150.468 38.0642 150.396 38.0219C150.315 37.9712 150.213 37.9628 150.124 38.0008L150.187 38.0515C150.238 37.7726 150.128 37.4894 149.898 37.3161C149.639 37.147 149.307 37.147 149.048 37.3161L149.133 37.3668C149.146 37.2062 149.082 37.0498 148.963 36.9442C148.831 36.83 148.653 36.7962 148.487 36.847C148.397 36.8723 148.312 36.923 148.253 36.9949L148.351 37.0414C148.363 36.9399 148.325 36.8385 148.253 36.7666C148.189 36.699 148.104 36.6525 148.011 36.6398C147.841 36.6272 147.675 36.6525 147.517 36.7202L147.585 36.7497C147.488 36.568 147.322 36.4327 147.126 36.3693C146.952 36.3102 146.761 36.2933 146.578 36.3229C146.263 36.382 145.966 36.4919 145.689 36.6525L145.745 36.7075C145.779 36.6483 145.779 36.5722 145.745 36.513C145.715 36.4623 145.672 36.4201 145.617 36.3947C145.528 36.344 145.422 36.3186 145.319 36.3229C145.162 36.3355 145.009 36.3693 144.86 36.4201C144.767 36.4539 144.682 36.4961 144.597 36.5469C144.563 36.5638 144.537 36.5849 144.512 36.6103C144.631 36.5553 144.754 36.5046 144.877 36.4623C145.022 36.4201 145.171 36.3947 145.324 36.3862C145.413 36.3862 145.502 36.4116 145.579 36.4581C145.664 36.5046 145.728 36.5891 145.681 36.6694L145.609 36.7878L145.736 36.7244C146 36.5722 146.289 36.4623 146.586 36.4032C146.756 36.3778 146.926 36.3947 147.088 36.4496C147.258 36.5046 147.398 36.6229 147.483 36.7793L147.505 36.8216H147.551C147.683 36.7624 147.832 36.7371 147.977 36.7455C148.113 36.7455 148.249 36.8892 148.227 37.016L148.189 37.2104L148.325 37.0625C148.376 37.0076 148.44 36.9695 148.508 36.9484C148.636 36.9061 148.772 36.9357 148.874 37.0245C148.971 37.109 149.022 37.2358 149.01 37.3668V37.4852L149.112 37.4175C149.337 37.2612 149.63 37.2612 149.856 37.4175C150.051 37.5655 150.153 37.8106 150.115 38.0515V38.1445L150.2 38.1023C150.328 38.0431 150.464 38.153 150.549 38.2586C150.634 38.3728 150.706 38.4911 150.77 38.6179C150.88 38.8165 150.97 39.0279 151.033 39.2477C151.067 39.4379 151.059 39.6323 151.016 39.8183Z" fill="#455A64"/>
<path d="M150.108 43.0389C150.133 43.0178 150.154 42.9967 150.171 42.9713C150.227 42.9037 150.273 42.8318 150.32 42.7557C150.397 42.6374 150.443 42.4979 150.448 42.3542C150.448 42.2612 150.426 42.1725 150.384 42.0922C150.337 41.995 150.256 41.9231 150.154 41.8851V41.9442C150.278 41.7878 150.307 41.5765 150.222 41.3948C150.12 41.1877 149.895 41.0651 149.661 41.0989L149.708 41.1792C149.827 41.0355 149.835 40.8326 149.733 40.6805C149.627 40.5325 149.457 40.4353 149.274 40.4184C149.189 40.4227 149.108 40.4227 149.023 40.4184C148.951 40.3973 148.896 40.3424 148.879 40.2705C148.849 40.1817 148.811 40.093 148.756 40.0169C148.688 39.9366 148.603 39.8774 148.501 39.8478C148.305 39.8056 148.105 39.7844 147.905 39.7844C147.727 39.7887 147.557 39.7253 147.429 39.6027C147.378 39.5393 147.348 39.4548 147.293 39.3745C147.136 39.1293 146.817 39.0406 146.553 39.1674L146.613 39.2392C146.732 39.087 146.732 38.8715 146.613 38.7193C146.515 38.5883 146.371 38.5038 146.209 38.4784C145.962 38.4404 145.712 38.4488 145.469 38.5038C145.312 38.5376 145.159 38.5841 145.01 38.6433C144.959 38.6644 144.908 38.6898 144.861 38.7193C145.065 38.6559 145.269 38.601 145.478 38.563C145.716 38.5207 145.954 38.5207 146.192 38.563C146.332 38.5925 146.456 38.6686 146.541 38.7785C146.63 38.9053 146.63 39.0744 146.541 39.2012L146.405 39.366L146.6 39.2772C146.736 39.2138 146.889 39.2138 147.025 39.2772C147.093 39.3153 147.153 39.3702 147.195 39.4379C147.238 39.5182 147.285 39.5985 147.336 39.6745C147.404 39.7549 147.493 39.814 147.591 39.8436C147.684 39.8732 147.786 39.8943 147.884 39.8986C148.075 39.8986 148.271 39.9197 148.458 39.962C148.535 39.9831 148.607 40.0254 148.658 40.0888C148.705 40.1606 148.743 40.2409 148.768 40.3212C148.802 40.4227 148.883 40.4987 148.985 40.5283C149.074 40.541 149.164 40.5495 149.253 40.5537C149.406 40.5621 149.546 40.6424 149.636 40.765C149.716 40.8749 149.716 41.0271 149.636 41.137L149.538 41.2468L149.682 41.2215C149.874 41.1961 150.057 41.2891 150.146 41.4582C150.218 41.6103 150.197 41.7878 150.095 41.9231L150.061 41.9654H150.116C150.278 42.033 150.375 42.1936 150.371 42.3669C150.371 42.5021 150.333 42.6332 150.269 42.7473C150.176 42.9333 150.099 43.0305 150.108 43.0389Z" fill="#455A64"/>
<path d="M150.457 49.1078C150.495 49.1078 150.537 49.0993 150.571 49.0824C150.673 49.0444 150.767 48.981 150.843 48.9049C150.971 48.7823 151.052 48.6217 151.073 48.4484C151.107 48.2202 151.043 47.9835 150.899 47.8017V47.8651C151.048 47.713 151.162 47.5312 151.239 47.3326C151.273 47.2142 151.273 47.0917 151.239 46.9733C151.205 46.8423 151.116 46.7324 150.997 46.6732V46.7704C151.201 46.6563 151.324 46.445 151.324 46.2125C151.332 46.0815 151.303 45.9505 151.243 45.8364C151.179 45.7265 151.086 45.6377 150.971 45.5828C150.877 45.549 150.818 45.4602 150.826 45.363C150.831 45.2489 150.818 45.1348 150.78 45.0291C150.699 44.8347 150.571 44.6698 150.401 44.5473C150.257 44.4247 150.129 44.3106 150.002 44.2091C149.81 44.0401 149.585 43.909 149.343 43.833C149.275 43.8118 149.207 43.7991 149.139 43.7949H149.066C149.156 43.8118 149.245 43.833 149.33 43.8625C149.555 43.9555 149.764 44.0908 149.942 44.2598L150.329 44.6064C150.482 44.7205 150.601 44.8727 150.673 45.0502C150.707 45.1474 150.72 45.2489 150.712 45.3503C150.707 45.4179 150.724 45.4813 150.758 45.5405C150.797 45.5912 150.848 45.6335 150.907 45.6631C151.188 45.8237 151.29 46.1787 151.128 46.4577C151.082 46.538 151.018 46.6098 150.937 46.6606L150.835 46.7113L150.937 46.762C151.124 46.8677 151.201 47.0917 151.12 47.2903C151.052 47.4763 150.946 47.6454 150.809 47.7891L150.784 47.8186L150.809 47.8482C150.941 48.0131 151.001 48.2202 150.98 48.4273C150.963 48.5837 150.894 48.7316 150.788 48.8499C150.695 48.9556 150.584 49.0444 150.457 49.1078Z" fill="#455A64"/>
<path d="M141.014 39.2391C141.137 39.2307 141.252 39.1926 141.358 39.1335C141.481 39.0827 141.592 39.0024 141.681 38.901C141.8 38.77 141.855 38.5967 141.834 38.4234C141.83 38.3811 141.817 38.3431 141.8 38.305L141.77 38.3769C141.919 38.3135 142.034 38.1909 142.077 38.0345C142.111 37.912 142.098 37.7767 142.038 37.6626C141.928 37.4766 141.783 37.4428 141.787 37.4555C141.792 37.4682 141.894 37.5274 141.966 37.6964C142.004 37.7936 142.004 37.9077 141.966 38.005C141.923 38.1275 141.834 38.2247 141.715 38.2755H141.664L141.685 38.3304C141.698 38.36 141.707 38.3896 141.711 38.4192C141.724 38.5629 141.681 38.7023 141.588 38.8122C141.511 38.9052 141.413 38.9855 141.307 39.0447C141.141 39.1884 141.014 39.2222 141.014 39.2391Z" fill="#455A64"/>
<path d="M138.509 37.8108C138.449 37.6798 138.437 37.5318 138.466 37.3881C138.505 37.236 138.615 37.1134 138.76 37.0584C138.947 36.995 139.155 37.0458 139.291 37.1895L139.355 37.2613L139.38 37.1683C139.414 37.0542 139.47 36.9443 139.538 36.8471C139.606 36.7499 139.716 36.6865 139.835 36.6738C140.018 36.6738 140.205 36.8471 140.146 36.9908L140.248 37.0204C140.294 36.8048 140.422 36.6146 140.605 36.4921C140.754 36.3949 140.924 36.3441 141.102 36.3484C141.264 36.3611 141.421 36.4033 141.566 36.4709C141.566 36.4709 141.536 36.4329 141.464 36.3906C141.353 36.3272 141.234 36.2892 141.107 36.2807C140.911 36.2638 140.72 36.3103 140.554 36.4118C140.337 36.5428 140.184 36.7541 140.129 36.9993L140.235 37.0289C140.273 36.9105 140.243 36.7795 140.15 36.695C140.065 36.6062 139.946 36.5597 139.823 36.5597C139.67 36.5724 139.529 36.6527 139.44 36.7795C139.359 36.8851 139.3 37.0077 139.266 37.1387H139.359C139.193 36.9697 138.943 36.9105 138.717 36.995C138.547 37.0627 138.424 37.2148 138.39 37.3923C138.364 37.5065 138.377 37.6206 138.424 37.7262C138.462 37.7854 138.505 37.815 138.509 37.8108Z" fill="#455A64"/>
<path d="M116.113 165.742L114.681 172.754L109.966 173.193L107.98 170.869L109.796 162.5L116.113 165.742Z" fill="#FFBE9D"/>
<path d="M107.041 170.09V170.639C107.041 170.639 98.0195 174.101 97.875 175.859L115.59 176.282L115.488 170.136C112.81 171.358 110.051 171.434 107.041 170.09Z" fill="#FF8113"/>
<g opacity="0.6">
<path d="M113.634 172.073C113.987 172.204 114.195 172.576 114.114 172.943C114.025 173.311 113.651 173.539 113.277 173.45C113.273 173.45 113.268 173.45 113.264 173.45C112.886 173.311 112.673 172.914 112.762 172.525C112.894 172.157 113.302 171.967 113.672 172.102C113.672 172.102 113.672 172.102 113.677 172.102" fill="white"/>
</g>
<path d="M115.574 176.3L115.548 174.82L98.5811 174.943C98.0454 175.23 97.7181 175.788 97.7308 176.393L115.574 176.3Z" fill="#263238"/>
<path d="M106.959 170.687C106.959 170.78 107.385 170.831 107.81 171.131C108.235 171.431 108.447 171.816 108.524 171.782C108.6 171.748 108.49 171.224 107.975 170.869C107.461 170.514 106.942 170.607 106.959 170.687Z" fill="#263238"/>
<path d="M105.085 171.443C105.064 171.528 105.433 171.692 105.718 172.081C106.003 172.47 106.08 172.872 106.143 172.872C106.207 172.872 106.297 172.36 105.935 171.887C105.574 171.413 105.089 171.359 105.085 171.443Z" fill="#263238"/>
<path d="M103.975 173.735C104.056 173.756 104.187 173.312 103.975 172.809C103.762 172.306 103.363 172.103 103.324 172.18C103.286 172.256 103.533 172.522 103.698 172.932C103.864 173.342 103.89 173.722 103.975 173.735Z" fill="#263238"/>
<path d="M143.517 164.098C143.585 164.327 143.517 173.067 143.517 173.067L140.873 174.703L137.421 172.543L136.689 164.09L143.517 164.098Z" fill="#FFBE9D"/>
<path d="M137.188 171.781C137.188 171.781 141.894 175.256 144.173 172.246L144.768 173.704L147.442 184.098C147.634 184.761 147.315 185.467 146.69 185.767C146.218 185.961 145.678 185.852 145.321 185.492C143.387 183.578 136.3 176.485 136.368 175.526L136.397 172.99C136.397 172.47 136.708 172.001 137.188 171.798V171.781Z" fill="#FF8113"/>
<path d="M146.442 185.852L136.336 174.639V175.197C136.294 175.657 136.472 176.114 136.817 176.427C139.457 179.732 142.292 182.876 145.307 185.852C145.617 186.165 146.212 185.89 146.442 185.826V185.852Z" fill="#263238"/>
<g opacity="0.6">
<path d="M137.824 172.978C138.148 173.231 138.241 173.684 138.046 174.043C137.833 174.385 137.382 174.491 137.038 174.28C137.038 174.28 137.038 174.28 137.034 174.28C136.689 174.013 136.592 173.536 136.808 173.155C137.059 172.826 137.527 172.762 137.858 173.012C137.867 173.02 137.875 173.024 137.884 173.033" fill="white"/>
</g>
<path d="M143.53 180.1C143.602 180.138 143.887 179.449 144.635 179.073C145.383 178.697 146.072 178.857 146.089 178.777C146.106 178.697 145.94 178.642 145.643 178.604C145.252 178.557 144.856 178.629 144.512 178.815C144.155 178.997 143.857 179.28 143.662 179.626C143.517 179.897 143.5 180.091 143.53 180.1Z" fill="#263238"/>
<path d="M144.44 181.858C144.499 181.917 144.903 181.486 145.554 181.287C146.204 181.089 146.769 181.199 146.787 181.118C146.804 181.038 146.213 180.772 145.473 181.013C144.733 181.254 144.372 181.824 144.44 181.858Z" fill="#263238"/>
<path d="M141.864 177.851C141.924 177.914 142.544 177.251 143.531 176.849C144.517 176.448 145.401 176.473 145.405 176.384C145.41 176.296 144.483 176.139 143.429 176.579C142.374 177.018 141.788 177.821 141.864 177.851Z" fill="#263238"/>
<path d="M141.625 174.686C141.659 174.766 142.352 174.462 143.262 174.423C144.171 174.385 144.89 174.609 144.915 174.525C144.941 174.44 144.222 174.081 143.249 174.132C142.275 174.183 141.582 174.626 141.625 174.686Z" fill="#263238"/>
<path d="M143.781 174.393C143.789 174.224 143.763 174.055 143.708 173.899C143.585 173.464 143.381 173.054 143.105 172.694C142.93 172.415 142.667 172.208 142.356 172.094C142.139 172.043 141.914 172.136 141.799 172.327C141.697 172.517 141.663 172.737 141.71 172.948C141.906 173.814 142.701 174.415 143.593 174.372C144.469 174.288 145.2 173.679 145.439 172.838C145.502 172.627 145.477 172.394 145.362 172.204C145.23 172.022 144.996 171.955 144.788 172.031C144.49 172.162 144.235 172.369 144.048 172.631C143.759 172.982 143.534 173.375 143.381 173.802C143.313 173.954 143.275 174.119 143.27 174.284C143.504 173.738 143.815 173.227 144.193 172.766C144.367 172.546 144.593 172.373 144.852 172.259C144.962 172.213 145.094 172.251 145.162 172.352C145.23 172.483 145.243 172.635 145.192 172.775C144.962 173.489 144.329 174.005 143.576 174.089C142.824 174.123 142.148 173.628 141.961 172.901C141.927 172.758 141.944 172.61 142.003 172.479C142.063 172.369 142.19 172.318 142.31 172.348C142.573 172.441 142.798 172.614 142.956 172.842C143.317 173.311 143.593 173.836 143.781 174.393Z" fill="#263238"/>
<path d="M148.495 91.9404C149.911 94.7637 151.012 97.7266 151.79 100.782C153.244 106.243 154.88 108.986 154.285 119.054C153.983 124.189 149.711 138.129 148.724 143.036C147.912 147.076 145.383 166.05 144.095 171.067H136.761L136.013 114.895C136.013 114.895 124.317 147.677 122.834 151.464C121.35 155.251 116.15 170.268 116.15 170.268L106.959 167.846C106.959 167.846 112.55 140.977 113.94 134.287C115.33 127.596 119.114 108.72 120.721 103.039C122.328 97.3589 123.845 91.3613 123.845 91.3613L148.495 91.9404Z" fill="#263238"/>
<path d="M147.6 101.885C147.6 101.885 147.6 101.987 147.676 102.164C147.765 102.409 147.876 102.646 148.008 102.87C148.433 103.614 149.011 104.261 149.708 104.764C150.393 105.258 151.179 105.6 152.008 105.761C152.259 105.812 152.51 105.833 152.765 105.833C152.859 105.841 152.952 105.833 153.041 105.812C153.041 105.77 152.65 105.761 152.038 105.613C151.243 105.415 150.491 105.068 149.827 104.59C149.156 104.1 148.577 103.491 148.127 102.794C147.782 102.249 147.634 101.868 147.6 101.885Z" fill="#455A64"/>
<path d="M119.969 105.969C120.054 106.007 120.143 106.036 120.237 106.045C120.487 106.095 120.742 106.125 120.998 106.129C121.376 106.133 121.754 106.095 122.124 106.015C122.579 105.909 123.017 105.74 123.429 105.521C124.178 105.089 124.832 104.515 125.351 103.83C125.585 103.559 125.776 103.255 125.921 102.93C125.895 102.93 125.666 103.242 125.245 103.733C124.705 104.367 124.059 104.904 123.336 105.318C122.617 105.711 121.814 105.935 120.993 105.964C120.364 105.998 119.973 105.926 119.969 105.969Z" fill="#455A64"/>
<path d="M135.873 102.795C135.83 102.943 135.8 103.095 135.792 103.251C135.754 103.543 135.711 103.97 135.669 104.494C135.579 105.551 135.507 107.03 135.524 108.628C135.541 110.225 135.635 111.7 135.737 112.753C135.792 113.281 135.843 113.704 135.885 114C135.894 114.152 135.924 114.304 135.975 114.448C135.992 114.295 135.992 114.139 135.975 113.987C135.949 113.649 135.924 113.23 135.89 112.719C135.822 111.667 135.749 110.213 135.732 108.602C135.715 106.992 135.771 105.538 135.822 104.486C135.843 103.995 135.864 103.577 135.881 103.218C135.894 103.078 135.89 102.934 135.873 102.795Z" fill="#455A64"/>
<path d="M145.715 59.4979L152.381 62.6552L151.45 74.7348C151.45 74.7348 150.663 75.6477 149.388 82.1229C148.113 88.598 152.364 101.189 152.364 101.189L121.031 101.971C121.031 101.971 124.713 75.8464 125.138 72.3848L126.703 59.1724L133.007 58.8301H134.823L136.391 70.0897L144.282 59.1724L145.715 59.4979Z" fill="#455A64"/>
<path d="M116.738 82.921C116.815 82.6928 116.849 82.4476 116.832 82.2067C116.832 81.6319 116.734 81.0613 116.543 80.5161C116.351 79.9708 116.062 79.4637 115.692 79.0199C115.408 78.6817 115.191 78.5253 115.174 78.5423C115.658 79.1678 116.054 79.8567 116.347 80.5879C116.581 81.3445 116.713 82.1306 116.738 82.921Z" fill="#263238"/>
<path d="M104.027 79.9242L115.195 79.827L119.417 67.4261C120.08 65.9299 120.815 64.4717 121.628 63.0516C123.864 58.9602 126.708 59.1758 126.708 59.1758L130.135 64.4759L126.478 72.5783C126.478 72.5783 122.996 87.8913 118.962 88.5633C112.262 89.6792 100.256 85.0764 100.256 85.0764L104.027 79.9242Z" fill="#455A64"/>
<g opacity="0.2">
<path d="M123.613 83.7241C123.613 83.3015 123.498 82.7605 123.864 82.5787C124.178 82.4773 124.518 82.5026 124.812 82.6506C134.067 85.9093 139.419 82.1265 148.675 85.3852L150.558 94.8359C146.451 94.8697 144.576 93.9145 140.537 92.6296C136.422 91.3193 132.298 90.0091 128.26 88.4537C127.116 88.0775 126.045 87.5196 125.084 86.8011C124.157 86.0445 123.617 84.916 123.613 83.7241Z" fill="black"/>
</g>
<path d="M125.858 68.0977C125.807 68.3132 125.73 68.5203 125.641 68.7232C125.471 69.2219 125.343 69.7376 125.254 70.2574C125.037 71.4789 124.991 72.4891 124.931 72.4891C124.829 71.7325 124.867 70.9591 125.037 70.2152C125.127 69.6826 125.28 69.1628 125.497 68.664C125.573 68.4485 125.696 68.254 125.858 68.0977Z" fill="#263238"/>
<path d="M182.863 80.2031L185.414 80.2665C186.881 80.3046 188.037 81.5134 187.999 82.9715L187.99 83.2843C187.952 84.7425 186.736 85.8921 185.27 85.8541L182.719 85.7907L182.863 80.2031Z" fill="#FF8113"/>
<path d="M70.8114 77.811L93.6795 75.5371L179.591 77.7349C180.425 77.7561 181.083 78.4492 181.066 79.2777L180.858 87.3082C180.837 88.1408 180.144 88.796 179.306 88.7748L93.0673 86.5263L70.7051 81.9658L70.8114 77.811Z" fill="#FF8113"/>
<path d="M70.7765 78.9824L68.6763 78.9316L66.8907 79.5318C66.7419 79.6417 66.7802 79.7812 66.8907 79.9545L68.6891 80.5378L70.7467 80.5885L70.7765 78.9824Z" fill="#263238"/>
<path d="M93.6831 75.5093L93.3984 86.5371L95.1792 86.5825L95.4638 75.5547L93.6831 75.5093Z" fill="#263238"/>
<path d="M181.359 78.2053C181.329 79.2873 180.42 80.1453 179.331 80.1157L136.452 79.021C135.359 78.9914 134.5 78.0912 134.526 77.0049C134.556 75.9229 135.466 75.0649 136.554 75.0945L179.433 76.1892C180.526 76.2188 181.385 77.119 181.359 78.2053Z" fill="#FF8113"/>
<path d="M181.359 78.2049C181.346 77.8752 181.265 77.554 181.116 77.2581C180.925 76.9073 180.627 76.6199 180.266 76.4424C180.041 76.3241 179.794 76.2564 179.539 76.2353C179.271 76.2353 178.974 76.2353 178.663 76.2142L168.158 75.9606L152.556 75.5886L143.343 75.3562L138.462 75.2505L137.221 75.2209C136.817 75.1829 136.409 75.1998 136.009 75.2674C135.014 75.5295 134.423 76.5439 134.691 77.5329C134.853 78.1415 135.316 78.6233 135.916 78.8178C136.311 78.9107 136.719 78.9446 137.123 78.9277L138.364 78.9572L143.241 79.084L152.453 79.3292L168.056 79.7518L178.574 80.0519C178.884 80.0519 179.178 80.0773 179.45 80.0773C179.705 80.0688 179.956 80.0139 180.185 79.9082C180.551 79.7476 180.857 79.4771 181.061 79.1348C181.227 78.8516 181.325 78.5346 181.354 78.2049C181.359 78.2894 181.359 78.3697 181.354 78.4543C181.32 78.7036 181.24 78.9446 181.116 79.1601C180.908 79.5152 180.598 79.7941 180.223 79.9674C179.985 80.0773 179.73 80.1407 179.467 80.1491H178.582L168.065 79.9125L152.462 79.5363L143.245 79.3081L138.373 79.1855L137.132 79.1559H136.507C136.286 79.1559 136.069 79.1179 135.856 79.0502C134.764 78.6952 134.164 77.5244 134.521 76.4382C134.738 75.7746 135.282 75.2632 135.962 75.0815C136.175 75.0223 136.396 75.0011 136.617 75.0096H137.242L138.483 75.0392L143.356 75.166L152.568 75.4111L168.171 75.8338L178.689 76.1381C178.999 76.1381 179.288 76.1381 179.569 76.1677C179.832 76.1931 180.083 76.2691 180.317 76.3917C180.683 76.5777 180.98 76.8735 181.167 77.237C181.282 77.461 181.35 77.7019 181.371 77.9513C181.371 78.0358 181.371 78.1204 181.359 78.2049Z" fill="#263238"/>
<path d="M181.079 78.7168L183.281 79.8284L183.12 86.1641L180.854 87.4278L181.079 78.7168Z" fill="#263238"/>
<path d="M155.103 83.1752L150.239 75.7152L149.814 75.0474L149.159 74.0415L152.016 62.4648C152.016 62.4648 154.461 63.5807 155.804 65.4235C156.914 67.1141 157.909 68.8808 158.78 70.7067C158.78 70.7067 163.542 81.5353 164.307 83.1498C165.072 84.7644 166.356 87.7611 164.307 89.4348C162.258 91.1085 148.577 91.1677 148.577 91.1677L147.654 84.3248L155.103 83.1752Z" fill="#455A64"/>
<path d="M149.091 72.8205C149.129 72.8205 149.023 72.3133 148.976 71.4933C148.861 69.3547 149.41 67.2287 150.541 65.407C150.966 64.7096 151.306 64.3208 151.28 64.2996C151.255 64.2785 151.178 64.3799 151.021 64.5532C150.8 64.7941 150.596 65.0562 150.417 65.3309C149.809 66.2354 149.359 67.2371 149.091 68.2896C148.823 69.342 148.734 70.4324 148.831 71.5144C148.861 71.8399 148.912 72.1653 148.989 72.4823C149.006 72.6007 149.04 72.7148 149.091 72.8205Z" fill="#263238"/>
<path d="M146.069 85.6016C145.779 84.9845 145.363 84.435 144.84 83.9912C143.943 83.2178 141.975 82.6176 141.719 81.8779C141.464 81.1383 140.716 81.7089 140.89 82.6345C141.001 83.222 142.221 84.7478 142.221 84.7478C142.221 84.7478 140.793 85.1071 139.836 84.5618C138.88 84.0166 135.546 83.0318 135.189 83.4967C134.832 83.9616 135.661 84.1983 136.04 84.4097C136.324 84.5703 138.544 85.6776 138.544 85.6776C138.544 85.6776 134.131 85.5297 133.574 85.7368C133.017 85.9439 133.574 86.4976 133.867 86.5061C134.041 86.5061 134.798 87.1865 135.334 87.681C135.695 88.0192 136.171 88.2094 136.669 88.2178H137.698L134.581 88.5433C134.581 88.5433 134.041 89.0336 134.79 89.2872C135.126 89.4013 143.764 90.179 144.496 90.1325C146.158 90.0775 148.475 89.9634 148.475 89.9634L148.05 85.3142L146.069 85.6016Z" fill="#FFBE9D"/>
<path d="M133.785 86.5519C134.444 86.8774 135.154 87.0887 135.885 87.1859C136.604 87.3508 137.344 87.393 138.075 87.3127C138.075 87.2536 137.101 87.1986 135.919 86.9873C134.737 86.776 133.785 86.497 133.785 86.5519Z" fill="#EB996E"/>
<g opacity="0.3">
<path d="M101.195 81.1666C102.046 80.9806 102.866 81.5174 103.563 82.0119C104.005 82.3205 104.426 82.6628 104.817 83.0306C105.893 84.0999 106.459 85.5665 107.368 86.7838L102.267 86.0103L101.195 81.1666Z" fill="black"/>
</g>
<path d="M108.984 87.0078L106.76 86.5471C106.76 86.5471 104.762 83.3771 103.712 82.9925L103.121 82.7347C103.121 82.7347 102.348 81.044 101.302 81.2681C100.677 80.8454 100.12 81.0229 100.06 81.64C100.06 81.64 99.75 80.2325 98.5894 80.7947C97.4287 81.3568 100.192 86.247 100.192 86.247C100.192 86.247 101.161 88.7449 102.365 87.9123C102.365 87.9123 103.563 88.1912 104.371 87.7432C104.371 87.7432 105.115 88.7872 106.875 87.9926L108.984 87.0078Z" fill="#FFBE9D"/>
<path d="M104.15 87.1771C104.124 87.2531 104.124 87.3377 104.15 87.4138C104.188 87.6293 104.299 87.828 104.456 87.9801C104.69 88.2168 105 88.3647 105.332 88.4028C105.723 88.4366 106.114 88.3943 106.488 88.276C107.16 88.0858 107.806 87.8026 108.397 87.4307C108.656 87.2954 108.886 87.1179 109.077 86.9023C108.244 87.3842 107.36 87.7772 106.437 88.0647C106.089 88.1746 105.719 88.221 105.353 88.1999C105.06 88.1788 104.783 88.0647 104.558 87.8745C104.35 87.6927 104.205 87.4476 104.15 87.1771Z" fill="#EB996E"/>
<path d="M102.025 86.0572C102.076 86.0233 101.408 85.0681 100.835 83.7621C100.261 82.4561 99.9843 81.3234 99.9375 81.336C99.9375 81.5939 99.9715 81.8475 100.052 82.0926C100.201 82.6928 100.401 83.276 100.647 83.8424C100.894 84.4088 101.196 84.9498 101.54 85.4612C101.668 85.6852 101.829 85.8881 102.025 86.0572Z" fill="#EB996E"/>
<path d="M103.295 85.9508C103.35 85.9213 102.785 84.9238 102.236 83.6347C101.688 82.3456 101.356 81.2509 101.301 81.2678C101.628 82.95 102.308 84.5476 103.295 85.9508Z" fill="#EB996E"/>
<path d="M101.591 87.0807C101.535 87.0807 101.591 87.5034 101.944 87.7866C102.296 88.0698 102.713 88.0655 102.705 88.0106C102.696 87.9556 102.377 87.888 102.075 87.6302C101.774 87.3724 101.646 87.0638 101.591 87.0807Z" fill="#EB996E"/>
<path d="M104.682 85.2587C104.478 84.8276 104.24 84.4176 103.963 84.0288C103.742 83.6061 103.483 83.2004 103.189 82.8242C103.483 83.7456 103.993 84.5783 104.682 85.2587Z" fill="#EB996E"/>
</g>
<defs>
<clipPath id="clip0_281_79095">
<rect width="188" height="186" fill="white"/>
</clipPath>
</defs>
</svg>
