<?xml version="1.0" encoding="UTF-8"?>
<svg id="Capa_1" xmlns="http://www.w3.org/2000/svg" version="1.1" viewBox="0 0 100 100">
  <!-- Generator: Adobe Illustrator 29.8.4, SVG Export Plug-In . SVG Version: 2.1.1 Build 6)  -->
  <defs>
    <style>
      .st0 {
        fill: #fff;
      }
    </style>
  </defs>
  <path class="st0" d="M70.75,80.02l-11.23-13.85h0s0-.01,0-.01l.04-.06-6.49-8.02-.05.06h0s-3.3,4.08-3.3,4.08h0l3.3-4.08-5.87-7.24h-12.98l12.02,14.83c1.31-1.03,2.49-2.21,3.51-3.52-1.02,1.31-2.2,2.49-3.51,3.52l6.37,7.87s0,0,0,0l5.2,6.41h12.99Z"/>
  <path class="st0" d="M61.61,63.58l4.52-5.57,17.84,22.01h12.99l-24.33-30.03-6.49-8.02-.06.07-7.5-9.26s-.07-.09-.1-.14c-5.53-7.69-14.61-12.7-24.87-12.71h0s0,0,0,0c0,0,0,0,0,0-16.84,0-30.53,13.51-30.53,30.1,0,1.05.06,2.09.16,3.11-.1-.98-.15-1.98-.15-2.98,0-.02,0-.05,0-.07,0,.99.05,1.95.15,2.91,1.52,15.21,14.56,27.13,30.38,27.13,7.17,0,13.77-2.45,18.98-6.55l-6.38-7.88c-3.46,2.72-7.84,4.34-12.6,4.34h-.01v-.13c-10.43,0-19.04-7.79-20.17-17.78,0-.05-.01-.1-.02-.15,0-.05,0-.11-.01-.16-.05-.59-.08-1.19-.08-1.79,0-11.04,9.1-20.02,20.3-20.02h0c6.56,0,12.39,3.1,16.1,7.87h.02s9.86,12.16,9.86,12.16h0s-4.47,5.52-4.47,5.52l6.5,8ZM33.58,80.02h0c-5.72,0-11.07-1.56-15.64-4.27,4.58,2.71,9.93,4.27,15.64,4.27ZM33.59,29.9h-.01c-11.19,0-20.3,8.98-20.3,20.02,0,0,0,0,0,0,0-11.04,9.1-20.02,20.3-20.02h.01Z"/>
  <polygon class="st0" points="74.65 47.48 85.83 31.63 85.83 38.26 91.29 38.26 91.29 19.84 72.62 19.84 72.62 25.22 79.7 25.22 68.15 39.48 74.65 47.48"/>
</svg>