<svg width="294" height="199" viewBox="0 0 294 199" fill="none" xmlns="http://www.w3.org/2000/svg">
<g clip-path="url(#clip0_471_20509)">
<g filter="url(#filter0_d_471_20509)">
<path d="M68.6007 126.588C69.8369 127.357 71.5856 128.251 73.3758 128.379L71.0283 132.433C68.5975 132.177 66.8105 131.068 64.9337 129.745C62.2051 131.494 58.9641 132.433 55.5533 132.433C45.9198 132.433 38.4609 124.925 38.4609 115.327C38.4609 105.73 46.4739 98.9492 55.5981 98.9492C64.7224 98.9492 72.6937 106.329 72.6937 115.84C72.6937 119.977 71.118 123.688 68.6007 126.588ZM56.7895 119.679C59.6046 119.849 60.6711 120.788 64.8056 123.858C66.8105 121.724 68.0883 118.824 68.0883 115.584C68.0883 108.588 62.3332 103.641 55.5533 103.641C48.7734 103.641 43.0215 108.717 43.0215 115.882C43.0215 123.047 48.9463 127.783 55.5949 127.783C57.43 127.783 59.1786 127.399 60.796 126.675C58.1122 124.669 56.8311 123.858 54.4452 123.733L56.7895 119.679Z" fill="white"/>
<path d="M91.2339 132.388C85.0944 132.388 80.6172 129.53 80.6172 123.047V109.61H85.008V123.047C85.008 126.799 87.522 127.953 91.2755 127.953C95.029 127.953 97.543 126.803 97.543 123.047V109.61H101.934V123.047C101.934 129.53 97.4565 132.388 91.3171 132.388H91.2307H91.2339Z" fill="white"/>
<path d="M111.359 131.705V109.61H115.709V131.705H111.359Z" fill="white"/>
<path d="M143.414 125.008C144.481 126.8 146.015 126.969 147.123 126.969H148.66V131.703H146.742C144.439 131.703 142.351 131.533 140.304 128.203L136.894 122.659H136.596C133.143 122.659 132.205 122.999 130.415 123.938V131.703H125.938V109.607H140.176C144.228 109.607 147.123 112.421 147.123 116.26C147.123 119.631 145.249 121.72 142.05 122.701L143.414 125.005V125.008ZM140.173 118.269C141.496 118.269 142.646 117.545 142.646 116.135C142.646 114.174 140.942 114.001 139.405 114.001H130.412V119.545C132.119 118.606 134.293 118.266 136.593 118.266H140.173V118.269Z" fill="white"/>
<path d="M168.057 132.389C161.364 132.389 155.055 128.037 155.055 120.574C155.055 113.11 161.492 108.887 168.099 108.887C174.706 108.887 181.143 112.767 181.143 120.445C181.143 128.123 174.748 132.389 168.057 132.389ZM168.099 113.408C163.836 113.408 159.657 115.667 159.657 120.66C159.657 125.653 163.92 127.912 168.141 127.912C172.362 127.912 176.538 125.268 176.538 120.49C176.538 115.712 172.275 113.408 168.096 113.408H168.099Z" fill="white"/>
<path d="M191.975 109.61L205.321 124.966V109.61H209.712V131.705H205.321L193.042 117.33V131.705H188.651V112.895L186.477 109.61H191.975Z" fill="white"/>
<path d="M219.938 131.705V109.61H224.287V131.705H219.938Z" fill="white"/>
<path d="M236.738 131.705H230.727L240.104 120.019L231.963 109.61H237.974L243.175 116.263L248.504 109.61H254.343L246.074 119.977L255.281 131.705H249.315L243.047 123.771L236.738 131.705Z" fill="white"/>
</g>
<g filter="url(#filter1_d_471_20509)">
<path d="M120.078 62.4746C120.812 69.986 127.156 75.8727 134.849 75.8791V75.7797C127.185 75.7797 120.856 69.9411 120.078 62.4746Z" fill="white"/>
<path d="M134.865 38.6716V46.058C139.659 46.058 143.928 48.3524 146.644 51.8934L146.66 51.8838L153.876 60.9205L153.92 60.975L158.67 55.0274L153.145 48.1057C153.12 48.0704 153.094 48.0384 153.072 48.0031C149.02 42.3023 142.369 38.5723 134.858 38.5723C122.544 38.5723 112.523 48.596 112.523 60.9205C112.523 61.6992 112.565 62.4715 112.642 63.231C112.571 62.5035 112.533 61.7665 112.533 61.0198C112.533 48.6985 122.551 38.6716 134.868 38.6716H134.865Z" fill="white"/>
<path d="M158.664 66.9222L171.715 83.2652H181.214L163.414 60.9746L158.664 66.9222Z" fill="white"/>
<path d="M135.297 61.6475L144.088 72.6582C145.046 71.8955 145.91 71.0174 146.657 70.0433L146.673 70.0529L149.091 67.0246L144.799 61.6475H135.3H135.297Z" fill="white"/>
<path d="M153.077 73.934C151.857 75.6516 150.396 77.1898 148.75 78.5036L152.555 83.2655H162.054L153.836 72.9727L153.15 73.8315C153.125 73.8667 153.099 73.8988 153.077 73.934Z" fill="white"/>
<path d="M134.863 46.157V46.0576C134.863 46.0576 134.857 46.0576 134.854 46.0576C126.665 46.0576 120 52.723 120 60.9201C120 61.4457 120.029 61.9648 120.083 62.4775C120.035 61.9968 120.01 61.513 120.01 61.0195C120.01 52.8255 126.671 46.157 134.863 46.157Z" fill="white"/>
<path d="M134.867 75.8789C134.867 75.8789 134.86 75.8789 134.857 75.8789V83.2653C123.321 83.2653 113.8 74.469 112.641 63.2275C113.755 74.517 123.296 83.3647 134.867 83.3647C140.113 83.3647 144.939 81.5445 148.753 78.5034L144.087 72.6584C141.554 74.674 138.348 75.8821 134.867 75.8821V75.8789Z" fill="white"/>
<path d="M153.882 61.0163L150.609 65.118L155.365 71.0592L158.667 66.9222L153.918 60.9746L153.882 61.0163Z" fill="white"/>
<path d="M149.086 67.0253L153.839 72.9761L153.874 72.928L149.124 66.9805L149.086 67.0253Z" fill="white"/>
<path d="M181.229 38.6719H171.731L160.156 53.1659L164.912 59.107L181.229 38.6719Z" fill="white"/>
<path d="M134.857 83.2651V75.8787C127.164 75.8723 120.82 69.9856 120.086 62.4743C120.032 61.9615 120.003 61.4424 120.003 60.9169C120.003 52.7229 126.664 46.0544 134.857 46.0544C134.86 46.0544 134.863 46.0544 134.866 46.0544V38.668C122.552 38.668 112.531 48.6917 112.531 61.0162C112.531 61.7629 112.57 62.4999 112.64 63.2273C113.799 74.4687 123.321 83.2651 134.857 83.2651Z" fill="white"/>
<path d="M158.664 55.0244L153.914 60.9752L158.664 66.9228L163.413 60.9752L158.664 55.0244Z" fill="white"/>
<path d="M146.663 70.0537L146.647 70.044C145.9 71.0182 145.036 71.8962 144.078 72.6589L148.744 78.5039C150.39 77.1933 151.848 75.6551 153.071 73.9343C153.097 73.8991 153.122 73.867 153.145 73.8318L153.83 72.973L149.081 67.0254L146.663 70.0537Z" fill="white"/>
</g>
<g filter="url(#filter2_d_471_20509)">
<path d="M91.2188 156.816L92.7912 147.378H94.5655L94.3093 148.878H94.4086C94.6616 148.372 95.0331 147.971 95.5231 147.676C96.0131 147.385 96.5319 147.237 97.0859 147.237C97.2044 147.237 97.3389 147.237 97.4927 147.247C97.6432 147.253 97.7681 147.263 97.861 147.282L97.5663 149.038C97.4959 149.019 97.3678 148.993 97.182 148.968C96.9963 148.942 96.8073 148.929 96.6152 148.929C96.1796 148.929 95.7825 149.019 95.4142 149.202C95.0491 149.384 94.7384 149.637 94.4886 149.958C94.2388 150.278 94.0755 150.644 94.005 151.054L93.0603 156.819H91.2252L91.2188 156.816Z" fill="white"/>
<path d="M101.933 157.007C101.008 157.007 100.242 156.809 99.6403 156.408C99.035 156.008 98.6123 155.447 98.3721 154.719C98.1319 153.992 98.0903 153.14 98.2568 152.159C98.4169 151.191 98.7372 150.339 99.2208 149.602C99.7044 148.865 100.306 148.288 101.033 147.875C101.757 147.461 102.555 147.253 103.429 147.253C103.961 147.253 104.463 147.339 104.937 147.516C105.411 147.692 105.815 147.968 106.148 148.346C106.481 148.724 106.712 149.211 106.84 149.81C106.968 150.409 106.958 151.14 106.814 151.996L106.708 152.646H99.2112L99.4322 151.268H105.13C105.213 150.784 105.187 150.355 105.053 149.98C104.918 149.605 104.694 149.31 104.38 149.092C104.066 148.874 103.669 148.765 103.189 148.765C102.708 148.765 102.238 148.894 101.812 149.153C101.386 149.413 101.03 149.74 100.745 150.137C100.46 150.534 100.281 150.945 100.207 151.371L99.999 152.63C99.8869 153.319 99.9061 153.87 100.053 154.29C100.201 154.707 100.457 155.011 100.825 155.2C101.19 155.389 101.652 155.482 102.209 155.482C102.561 155.482 102.888 155.431 103.192 155.332C103.496 155.232 103.765 155.082 104.005 154.88C104.246 154.678 104.444 154.431 104.604 154.136L106.286 154.45C106.062 154.963 105.738 155.412 105.315 155.793C104.893 156.177 104.396 156.472 103.826 156.684C103.256 156.895 102.622 157.001 101.93 157.001L101.933 157.007Z" fill="white"/>
<path d="M110.791 157.023C110.193 157.023 109.671 156.911 109.225 156.69C108.78 156.469 108.45 156.142 108.239 155.716C108.028 155.29 107.973 154.768 108.069 154.149C108.162 153.617 108.341 153.178 108.604 152.835C108.867 152.492 109.187 152.217 109.568 152.015C109.949 151.813 110.362 151.659 110.807 151.557C111.253 151.454 111.704 151.377 112.159 151.329C112.732 151.265 113.197 151.207 113.555 151.162C113.914 151.118 114.183 151.047 114.359 150.948C114.539 150.848 114.647 150.691 114.689 150.473V150.432C114.775 149.9 114.699 149.483 114.458 149.188C114.218 148.89 113.805 148.743 113.216 148.743C112.627 148.743 112.085 148.878 111.672 149.15C111.256 149.422 110.952 149.724 110.759 150.057L109.107 149.663C109.402 149.089 109.776 148.624 110.234 148.272C110.692 147.916 111.192 147.66 111.736 147.496C112.281 147.336 112.838 147.253 113.408 147.253C113.786 147.253 114.177 147.298 114.58 147.384C114.984 147.471 115.355 147.634 115.688 147.868C116.021 148.102 116.271 148.435 116.434 148.868C116.598 149.301 116.623 149.861 116.515 150.547L115.47 156.815H113.677L113.898 155.524H113.824C113.667 155.761 113.453 155.995 113.177 156.226C112.902 156.456 112.566 156.645 112.169 156.796C111.771 156.947 111.313 157.023 110.791 157.023ZM111.422 155.549C111.925 155.549 112.377 155.45 112.774 155.248C113.171 155.046 113.491 154.784 113.738 154.46C113.984 154.133 114.138 153.784 114.199 153.412L114.401 152.194C114.324 152.258 114.186 152.319 113.991 152.377C113.795 152.431 113.578 152.479 113.338 152.518C113.097 152.556 112.86 152.592 112.63 152.624C112.399 152.656 112.21 152.681 112.06 152.701C111.695 152.745 111.355 152.822 111.044 152.928C110.731 153.034 110.471 153.188 110.263 153.386C110.055 153.585 109.927 153.848 109.875 154.175C109.799 154.63 109.904 154.973 110.199 155.203C110.494 155.434 110.9 155.549 111.426 155.549H111.422Z" fill="white"/>
<path d="M121.434 157.001C120.669 157.001 120.019 156.806 119.487 156.415C118.955 156.024 118.581 155.463 118.363 154.736C118.145 154.008 118.123 153.134 118.289 152.115C118.462 151.096 118.779 150.221 119.24 149.496C119.702 148.772 120.265 148.218 120.925 147.83C121.585 147.446 122.296 147.253 123.052 147.253C123.638 147.253 124.092 147.349 124.419 147.545C124.746 147.74 124.986 147.965 125.14 148.224C125.297 148.484 125.412 148.708 125.489 148.907H125.598L126.379 144.231H128.214L126.126 156.816H124.333L124.579 155.348H124.425C124.281 155.55 124.086 155.777 123.833 156.037C123.58 156.296 123.26 156.521 122.872 156.713C122.485 156.905 122.001 157.001 121.428 157.001H121.434ZM122.055 155.434C122.584 155.434 123.058 155.293 123.477 155.015C123.897 154.733 124.246 154.345 124.528 153.845C124.81 153.345 125.005 152.762 125.114 152.099C125.226 151.442 125.223 150.868 125.104 150.378C124.986 149.887 124.768 149.503 124.441 149.227C124.115 148.952 123.682 148.817 123.141 148.817C122.6 148.817 122.113 148.961 121.703 149.247C121.293 149.535 120.96 149.926 120.701 150.419C120.441 150.916 120.259 151.474 120.156 152.099C120.051 152.73 120.044 153.297 120.14 153.8C120.236 154.303 120.445 154.704 120.762 154.995C121.079 155.287 121.511 155.434 122.055 155.434Z" fill="white"/>
<path d="M129.325 160.356C129.05 160.356 128.803 160.334 128.585 160.292C128.367 160.25 128.204 160.202 128.102 160.154L128.803 158.648C129.123 158.738 129.408 158.773 129.664 158.754C129.921 158.735 130.161 158.629 130.385 158.437C130.609 158.248 130.84 157.943 131.074 157.53L131.416 156.902L129.568 147.378H131.461L132.627 154.723H132.726L136.339 147.378H138.385L132.736 158.065C132.467 158.571 132.162 158.997 131.823 159.337C131.487 159.677 131.109 159.933 130.696 160.103C130.283 160.273 129.825 160.359 129.325 160.359V160.356Z" fill="white"/>
<path d="M149.096 147.378L148.856 148.852H143.703L143.943 147.378H149.096ZM145.692 145.116H147.527L146.041 154.043C145.983 154.399 145.993 154.668 146.073 154.844C146.15 155.024 146.272 155.142 146.432 155.207C146.592 155.271 146.774 155.303 146.976 155.303C147.124 155.303 147.252 155.293 147.364 155.271C147.476 155.251 147.562 155.232 147.63 155.223L147.722 156.741C147.604 156.783 147.441 156.825 147.236 156.866C147.031 156.908 146.778 156.934 146.483 156.937C145.999 156.947 145.564 156.86 145.176 156.677C144.789 156.495 144.501 156.219 144.308 155.841C144.116 155.463 144.068 154.992 144.161 154.421L145.695 145.112L145.692 145.116Z" fill="white"/>
<path d="M153.565 157.007C152.668 157.007 151.919 156.802 151.317 156.389C150.714 155.976 150.292 155.399 150.048 154.655C149.805 153.912 149.763 153.047 149.923 152.06C150.08 151.092 150.394 150.249 150.865 149.528C151.336 148.807 151.931 148.246 152.649 147.849C153.366 147.452 154.16 147.253 155.032 147.253C155.903 147.253 156.678 147.461 157.277 147.875C157.876 148.288 158.298 148.868 158.545 149.615C158.791 150.361 158.833 151.23 158.673 152.22C158.516 153.181 158.202 154.021 157.725 154.739C157.248 155.456 156.652 156.014 155.941 156.411C155.23 156.809 154.436 157.007 153.565 157.007ZM153.667 155.463C154.257 155.463 154.772 155.309 155.211 154.998C155.65 154.687 156.012 154.274 156.29 153.758C156.569 153.242 156.758 152.672 156.86 152.053C156.953 151.464 156.953 150.922 156.86 150.429C156.764 149.935 156.559 149.538 156.242 149.24C155.925 148.942 155.49 148.791 154.929 148.791C154.34 148.791 153.821 148.948 153.379 149.262C152.934 149.576 152.575 149.993 152.297 150.512C152.021 151.031 151.832 151.598 151.736 152.214C151.643 152.806 151.643 153.351 151.736 153.841C151.829 154.332 152.037 154.726 152.354 155.021C152.671 155.315 153.11 155.463 153.67 155.463H153.667Z" fill="white"/>
<path d="M168.495 157.007C167.579 157.007 166.827 156.799 166.241 156.383C165.655 155.966 165.248 155.392 165.017 154.659C164.787 153.925 164.751 153.085 164.908 152.14C165.065 151.182 165.382 150.336 165.863 149.599C166.343 148.865 166.948 148.288 167.675 147.875C168.402 147.461 169.21 147.253 170.1 147.253C170.817 147.253 171.432 147.384 171.948 147.65C172.463 147.913 172.854 148.285 173.12 148.759C173.386 149.233 173.501 149.791 173.463 150.425H171.676C171.647 149.983 171.483 149.602 171.186 149.281C170.888 148.961 170.449 148.801 169.872 148.801C169.357 148.801 168.883 148.935 168.454 149.204C168.025 149.474 167.663 149.855 167.368 150.348C167.073 150.842 166.872 151.425 166.766 152.098C166.651 152.787 166.657 153.38 166.785 153.88C166.913 154.38 167.144 154.768 167.483 155.04C167.82 155.315 168.249 155.45 168.771 155.45C169.123 155.45 169.45 155.386 169.757 155.258C170.061 155.13 170.33 154.944 170.564 154.7C170.798 154.46 170.981 154.168 171.118 153.829H172.905C172.732 154.441 172.441 154.985 172.031 155.463C171.618 155.944 171.115 156.318 170.516 156.594C169.917 156.87 169.248 157.004 168.502 157.004L168.495 157.007Z" fill="white"/>
<path d="M177.088 157.023C176.489 157.023 175.967 156.911 175.522 156.69C175.077 156.469 174.747 156.142 174.536 155.716C174.324 155.29 174.27 154.768 174.366 154.149C174.459 153.617 174.638 153.178 174.901 152.835C175.164 152.492 175.484 152.217 175.865 152.015C176.246 151.813 176.659 151.659 177.104 151.557C177.549 151.454 178.001 151.377 178.456 151.329C179.029 151.265 179.493 151.207 179.852 151.162C180.211 151.118 180.48 151.047 180.656 150.948C180.835 150.848 180.944 150.691 180.986 150.473V150.432C181.072 149.9 180.996 149.483 180.755 149.188C180.515 148.89 180.102 148.743 179.513 148.743C178.923 148.743 178.382 148.878 177.969 149.15C177.553 149.422 177.248 149.724 177.056 150.057L175.404 149.663C175.698 149.089 176.073 148.624 176.531 148.272C176.989 147.916 177.489 147.66 178.033 147.496C178.578 147.336 179.135 147.253 179.705 147.253C180.083 147.253 180.473 147.298 180.877 147.384C181.281 147.471 181.652 147.634 181.985 147.868C182.318 148.102 182.568 148.435 182.731 148.868C182.895 149.301 182.92 149.861 182.811 150.547L181.767 156.815H179.974L180.195 155.524H180.121C179.964 155.761 179.75 155.995 179.474 156.226C179.199 156.456 178.863 156.645 178.465 156.796C178.068 156.947 177.61 157.023 177.088 157.023ZM177.722 155.549C178.225 155.549 178.677 155.45 179.074 155.248C179.471 155.046 179.791 154.784 180.038 154.46C180.285 154.133 180.438 153.784 180.499 153.412L180.701 152.194C180.624 152.258 180.486 152.319 180.291 152.377C180.096 152.431 179.878 152.479 179.638 152.518C179.397 152.556 179.16 152.592 178.93 152.624C178.699 152.656 178.51 152.681 178.36 152.701C177.995 152.745 177.655 152.822 177.345 152.928C177.031 153.034 176.771 153.188 176.563 153.386C176.355 153.585 176.227 153.848 176.176 154.175C176.099 154.63 176.204 154.973 176.499 155.203C176.794 155.434 177.2 155.549 177.726 155.549H177.722Z" fill="white"/>
<path d="M192.472 149.682L190.759 149.977C190.72 149.759 190.647 149.554 190.535 149.362C190.423 149.169 190.25 149.012 190.022 148.89C189.795 148.769 189.491 148.708 189.113 148.708C188.584 148.708 188.123 148.826 187.726 149.067C187.329 149.307 187.105 149.611 187.05 149.986C186.996 150.291 187.066 150.534 187.262 150.723C187.457 150.912 187.8 151.066 188.296 151.191L189.747 151.534C190.583 151.736 191.182 152.047 191.544 152.467C191.905 152.89 192.034 153.441 191.921 154.12C191.829 154.681 191.582 155.178 191.188 155.613C190.794 156.046 190.288 156.389 189.67 156.633C189.052 156.876 188.37 157.001 187.624 157.001C186.551 157.001 185.715 156.774 185.119 156.318C184.523 155.863 184.216 155.219 184.203 154.389L186.022 154.12C186.051 154.582 186.214 154.931 186.512 155.168C186.81 155.402 187.23 155.521 187.771 155.521C188.379 155.524 188.895 155.396 189.308 155.133C189.724 154.87 189.958 154.553 190.013 154.181C190.067 153.889 190.003 153.649 189.827 153.457C189.648 153.265 189.34 153.117 188.895 153.015L187.367 152.665C186.515 152.46 185.913 152.137 185.558 151.694C185.202 151.252 185.084 150.691 185.199 150.012C185.292 149.458 185.529 148.977 185.907 148.564C186.285 148.153 186.765 147.83 187.348 147.599C187.931 147.368 188.571 147.253 189.276 147.253C190.304 147.253 191.076 147.471 191.592 147.91C192.107 148.349 192.402 148.939 192.475 149.679L192.472 149.682Z" fill="white"/>
<path d="M196.242 151.211L195.319 156.816H193.484L195.572 144.231H197.385L196.61 148.913H196.725C197.023 148.401 197.427 147.997 197.933 147.699C198.439 147.401 199.06 147.253 199.803 147.253C200.447 147.253 200.988 147.388 201.427 147.654C201.866 147.92 202.179 148.317 202.359 148.843C202.541 149.368 202.57 150.025 202.442 150.814L201.433 156.816H199.598L200.562 151.035C200.671 150.342 200.581 149.804 200.287 149.423C199.992 149.038 199.531 148.849 198.906 148.849C198.471 148.849 198.071 148.942 197.696 149.125C197.324 149.311 197.01 149.58 196.757 149.932C196.504 150.288 196.331 150.714 196.242 151.214V151.211Z" fill="white"/>
</g>
</g>
<defs>
<filter id="filter0_d_471_20509" x="-41.5391" y="18.9492" width="376.82" height="193.484" filterUnits="userSpaceOnUse" color-interpolation-filters="sRGB">
<feFlood flood-opacity="0" result="BackgroundImageFix"/>
<feColorMatrix in="SourceAlpha" type="matrix" values="0 0 0 0 0 0 0 0 0 0 0 0 0 0 0 0 0 0 127 0" result="hardAlpha"/>
<feOffset/>
<feGaussianBlur stdDeviation="40"/>
<feColorMatrix type="matrix" values="0 0 0 0 0 0 0 0 0 0 0 0 0 0 0 0 0 0 0.75 0"/>
<feBlend mode="normal" in2="BackgroundImageFix" result="effect1_dropShadow_471_20509"/>
<feBlend mode="normal" in="SourceGraphic" in2="effect1_dropShadow_471_20509" result="shape"/>
</filter>
<filter id="filter1_d_471_20509" x="32.5234" y="-41.4277" width="228.703" height="204.792" filterUnits="userSpaceOnUse" color-interpolation-filters="sRGB">
<feFlood flood-opacity="0" result="BackgroundImageFix"/>
<feColorMatrix in="SourceAlpha" type="matrix" values="0 0 0 0 0 0 0 0 0 0 0 0 0 0 0 0 0 0 127 0" result="hardAlpha"/>
<feOffset/>
<feGaussianBlur stdDeviation="40"/>
<feColorMatrix type="matrix" values="0 0 0 0 0 0 0 0 0 0 0 0 0 0 0 0 0 0 0.75 0"/>
<feBlend mode="normal" in2="BackgroundImageFix" result="effect1_dropShadow_471_20509"/>
<feBlend mode="normal" in="SourceGraphic" in2="effect1_dropShadow_471_20509" result="shape"/>
</filter>
<filter id="filter2_d_471_20509" x="11.2188" y="64.2314" width="271.305" height="176.128" filterUnits="userSpaceOnUse" color-interpolation-filters="sRGB">
<feFlood flood-opacity="0" result="BackgroundImageFix"/>
<feColorMatrix in="SourceAlpha" type="matrix" values="0 0 0 0 0 0 0 0 0 0 0 0 0 0 0 0 0 0 127 0" result="hardAlpha"/>
<feOffset/>
<feGaussianBlur stdDeviation="40"/>
<feColorMatrix type="matrix" values="0 0 0 0 0 0 0 0 0 0 0 0 0 0 0 0 0 0 0.75 0"/>
<feBlend mode="normal" in2="BackgroundImageFix" result="effect1_dropShadow_471_20509"/>
<feBlend mode="normal" in="SourceGraphic" in2="effect1_dropShadow_471_20509" result="shape"/>
</filter>
<clipPath id="clip0_471_20509">
<rect width="294" height="199" fill="white"/>
</clipPath>
</defs>
</svg>
