<svg width="139" height="22" viewBox="0 0 139 22" fill="none" xmlns="http://www.w3.org/2000/svg">
<path d="M57.3392 16.0119C57.8798 16.3427 58.6438 16.729 59.4278 16.7845L58.4025 18.5317C57.3392 18.4207 56.5574 17.9434 55.7354 17.3728C54.5425 18.1277 53.1241 18.5317 51.6319 18.5317C47.4167 18.5317 44.1554 15.2948 44.1554 11.1565C44.1554 7.01824 47.6602 4.09436 51.652 4.09436C55.6438 4.09436 59.1307 7.27577 59.1307 11.3763C59.1307 13.1591 58.4405 14.7598 57.3415 16.0097L57.3392 16.0119ZM52.1725 13.0347C53.4033 13.108 53.8702 13.5121 55.6795 14.8375C56.5552 13.9183 57.1159 12.6684 57.1159 11.2697C57.1159 8.25484 54.5984 6.12131 51.6341 6.12131C48.6699 6.12131 46.1524 8.31034 46.1524 11.3985C46.1524 14.4867 48.7436 16.5292 51.652 16.5292C52.4539 16.5292 53.2179 16.3627 53.9282 16.0519C52.7533 15.1882 52.1948 14.8375 51.1494 14.782L52.1747 13.0347H52.1725Z" fill="#1249C7"/>
<path d="M67.2416 18.514C64.5566 18.514 62.5976 17.2818 62.5976 14.4867V8.69442H64.5186V14.4867C64.5186 16.1051 65.6177 16.6024 67.2595 16.6024C68.9013 16.6024 70.0004 16.1051 70.0004 14.4867V8.69442H71.9214V14.4867C71.9214 17.2818 69.9624 18.514 67.2774 18.514H67.2394H67.2416Z" fill="#1249C7"/>
<path d="M76.0428 18.2187V8.6922H77.9437V18.2187H76.0428Z" fill="#1249C7"/>
<path d="M90.0643 15.3325C90.5312 16.1051 91.2013 16.1784 91.686 16.1784H92.3584V18.2187H91.5185C90.5111 18.2187 89.5974 18.1454 88.7017 16.7112L87.2095 14.3202H87.0799C85.5699 14.3202 85.1589 14.4667 84.3748 14.873V18.2187H82.418V8.6922H88.6458C90.4172 8.6922 91.686 9.9066 91.686 11.5606C91.686 13.0125 90.8662 13.9139 89.4679 14.3379L90.0643 15.3303V15.3325ZM88.6481 12.4264C89.2266 12.4264 89.7292 12.1134 89.7292 11.5073C89.7292 10.6614 88.9831 10.5882 88.313 10.5882H84.3793V12.9792C85.1254 12.5752 86.077 12.4286 87.0844 12.4286H88.6503L88.6481 12.4264Z" fill="#1249C7"/>
<path d="M100.845 18.514C97.9161 18.514 95.1573 16.638 95.1573 13.421C95.1573 10.2041 97.9742 8.38138 100.862 8.38138C103.751 8.38138 106.568 10.0553 106.568 13.3655C106.568 16.6757 103.771 18.514 100.842 18.514H100.845ZM100.862 10.3306C98.9972 10.3306 97.17 11.3053 97.17 13.4565C97.17 15.6078 99.0352 16.5825 100.88 16.5825C102.725 16.5825 104.555 15.4413 104.555 13.3833C104.555 11.3252 102.69 10.3306 100.862 10.3306Z" fill="#1249C7"/>
<path d="M111.305 8.69442L117.142 15.3148V8.69442H119.063V18.2209H117.142L111.772 12.0246V18.2209H109.851V10.1108L108.9 8.69442H111.305Z" fill="#1249C7"/>
<path d="M123.538 18.2187V8.6922H125.439V18.2187H123.538Z" fill="#1249C7"/>
<path d="M128.255 18.2187L132.357 13.179L128.796 8.6922H131.425L133.701 11.5606L136.034 8.6922H138.589L134.972 13.1613L139 18.2187H136.389L133.648 14.7975L130.887 18.2187H128.255Z" fill="#1249C7"/>
<path d="M3.59864 11.7027C3.94711 15.226 6.9672 17.9878 10.6284 17.99V17.9434C6.9806 17.9434 3.96945 15.2038 3.59864 11.7027Z" fill="#1249C7"/>
<path d="M10.6329 0.584364V4.04995C12.9158 4.04995 14.9463 5.12671 16.2374 6.78735L16.2441 6.78291L19.6775 11.0211L19.6976 11.0477L21.9582 8.25706L19.329 5.01126C19.3178 4.99572 19.3044 4.98018 19.2933 4.96242C17.3677 2.28497 14.2025 0.537742 10.6284 0.537742C4.76691 0.537742 0 5.23993 0 11.0189C0 11.3852 0.0201041 11.7471 0.0558448 12.1023C0.0223379 11.7604 0.00446759 11.4141 0.00446759 11.0655C0.00446759 5.28655 4.77138 0.584364 10.6329 0.584364Z" fill="#FF8113"/>
<path d="M21.9604 13.7896L28.1704 21.4534H32.6916L24.221 10.9989L21.9604 13.7896Z" fill="#FF8113"/>
<path d="M10.8384 11.3141L15.0223 16.4781C15.478 16.1207 15.889 15.7077 16.2441 15.2526L16.2508 15.2571L17.4012 13.8362L15.3573 11.3141H10.8361H10.8384Z" fill="#1249C7"/>
<path d="M19.3 17.0775C18.7192 17.8834 18.0245 18.605 17.2404 19.22L19.0498 21.4534H23.571L19.6596 16.6269L19.3335 17.0287C19.3223 17.0442 19.3089 17.0598 19.2977 17.0775H19.3Z" fill="#1249C7"/>
<path d="M10.6329 4.04773V4.00111C10.6329 4.00111 10.6306 4.00111 10.6284 4.00111C6.73042 4.00111 3.56067 7.12702 3.56067 10.9722C3.56067 11.2187 3.57407 11.4629 3.59864 11.7027C3.5763 11.4784 3.56513 11.2498 3.56513 11.0189C3.56513 7.17586 6.73489 4.04773 10.6329 4.04773Z" fill="#1249C7"/>
<path d="M10.6329 17.99C10.6329 17.99 10.6306 17.99 10.6284 17.99V21.4556C5.13996 21.4534 0.607592 17.3284 0.0558448 12.0557C0.585254 17.3506 5.12655 21.5 10.6329 21.5C13.128 21.5 15.4266 20.6453 17.2404 19.22L15.02 16.4781C13.8138 17.4239 12.2903 17.99 10.6329 17.99Z" fill="#1249C7"/>
<path d="M19.6842 11.0189L18.125 12.9415L20.3878 15.7277L21.9604 13.7896L19.6998 10.9989L19.6842 11.0189Z" fill="#FF8113"/>
<path d="M17.4012 13.8362L19.6618 16.6269L19.6775 16.6047L17.4191 13.814L17.4012 13.8362Z" fill="#1249C7"/>
<path d="M29.7385 3.30178L30.1942 0.537742L27.8353 0.955122L22.6663 7.33571L24.9291 10.1219L29.7385 3.30178Z" fill="#FF8113"/>
<path d="M10.6284 21.4534V17.9878C6.96724 17.9856 3.94938 15.2238 3.59868 11.7004C3.5741 11.4607 3.5607 11.2165 3.5607 10.97C3.5607 7.12702 6.73045 3.99889 10.6284 3.99889C10.6284 3.99889 10.6307 3.99889 10.6329 3.99889V0.537742C4.77142 0.537742 0.0045026 5.23993 0.0045026 11.0189C0.0045026 11.3696 0.0223379 11.7138 0.0558448 12.0557C0.607592 17.3284 5.13776 21.4534 10.6284 21.4534Z" fill="#1249C7"/>
<path d="M21.9604 8.20822L19.6998 10.9989L21.9604 13.7896L24.221 10.9989L21.9604 8.20822Z" fill="#FF8113"/>
<path d="M16.2508 15.2571L16.2441 15.2526C15.889 15.71 15.478 16.1207 15.0223 16.4781L17.2426 19.2199C18.0267 18.605 18.7192 17.8834 19.3022 17.0775C19.3134 17.062 19.3268 17.0465 19.3379 17.0287L19.6641 16.6269L17.4035 13.8362L16.2531 15.2571H16.2508Z" fill="#1249C7"/>
<path d="M30.7214 6.91167H28.8204V2.37377H24.221V0.5H30.7214V6.91167Z" fill="#FF8113"/>
</svg>
