<svg width="340" height="201" viewBox="0 0 340 201" fill="none" xmlns="http://www.w3.org/2000/svg">
<path d="M235.998 170.19C235.998 170.237 206.445 170.277 170.001 170.277C133.558 170.277 103.998 170.227 103.998 170.19C103.998 170.153 133.541 170.104 170.001 170.104C206.462 170.104 235.998 170.13 235.998 170.19Z" fill="#263238"/>
<path d="M120.068 66.8145L120.308 67.2141C120.578 67.6603 120.968 68.0234 121.437 68.2531L121.857 68.4596L121.457 68.7027C121.008 68.9725 120.648 69.3621 120.415 69.8317L120.208 70.248L119.969 69.8517C119.699 69.4021 119.306 69.0424 118.836 68.8093L118.42 68.6028L118.82 68.363C119.266 68.0933 119.629 67.7003 119.859 67.2307L120.068 66.8145Z" fill="#FF8113"/>
<path d="M206.512 110.67L206.752 111.07C207.021 111.516 207.414 111.879 207.881 112.112L208.3 112.318L207.901 112.558C207.451 112.828 207.091 113.221 206.858 113.691L206.652 114.107L206.412 113.707C206.142 113.261 205.749 112.898 205.283 112.665L204.863 112.458L205.263 112.219C205.713 111.949 206.072 111.559 206.305 111.09L206.512 110.67Z" fill="#FF8113"/>
<path d="M159.557 28.3184L159.796 28.718C160.066 29.1676 160.456 29.5273 160.925 29.7604L161.345 29.9669L160.945 30.2066C160.499 30.4697 160.14 30.8561 159.903 31.3156L159.697 31.7353L159.457 31.3356C159.187 30.886 158.794 30.5264 158.324 30.2932L157.908 30.0868L158.308 29.847C158.754 29.5772 159.114 29.1842 159.347 28.718L159.557 28.3184Z" fill="#FF8113"/>
<path d="M215.77 65.9512L216.01 66.3508C216.28 66.8004 216.673 67.1601 217.142 67.3932L217.559 67.5997L217.159 67.8395C216.713 68.1092 216.353 68.5022 216.12 68.9684L215.913 69.388L215.674 68.9884C215.404 68.5388 215.011 68.1791 214.541 67.946L214.125 67.7395L214.521 67.4998C214.968 67.23 215.331 66.837 215.564 66.3708L215.77 65.9512Z" fill="#FF8113"/>
<path d="M129.167 82.2031L129.34 82.4929C129.537 82.8192 129.823 83.0823 130.166 83.2522L130.473 83.402L130.179 83.5785C129.853 83.775 129.59 84.0614 129.42 84.4045L129.27 84.7075L129.094 84.4178C128.897 84.0914 128.611 83.8283 128.268 83.6585L127.965 83.5086L128.255 83.3321C128.581 83.1356 128.847 82.8492 129.014 82.5062L129.167 82.2031Z" fill="#FF8113"/>
<path d="M137.124 119.525L137.301 119.818C137.497 120.141 137.784 120.405 138.123 120.571L138.43 120.721L138.137 120.897C137.81 121.094 137.547 121.38 137.377 121.723L137.227 122.026L137.051 121.737C136.854 121.41 136.568 121.147 136.228 120.977L135.922 120.824L136.215 120.651C136.541 120.455 136.804 120.168 136.974 119.825L137.124 119.525Z" fill="#FF8113"/>
<path d="M213.153 54.6289L213.327 54.9186C213.523 55.245 213.809 55.5114 214.152 55.678L214.459 55.8311L214.166 56.0043C213.839 56.2008 213.576 56.4872 213.407 56.8302L213.257 57.1366L213.08 56.8436C212.884 56.5172 212.597 56.2541 212.254 56.0843L211.951 55.9344L212.241 55.7579C212.567 55.5614 212.834 55.275 213 54.932L213.153 54.6289Z" fill="#FF8113"/>
<path d="M113.579 74.332L113.752 74.6218C113.949 74.9481 114.235 75.2146 114.578 75.3844L114.885 75.5343L114.592 75.7074C114.265 75.9073 114.002 76.1937 113.832 76.5334L113.682 76.8398L113.506 76.5467C113.309 76.2203 113.023 75.9572 112.68 75.7874L112.377 75.6375L112.667 75.461C112.993 75.2645 113.259 74.9781 113.426 74.6351L113.579 74.332Z" fill="#FF8113"/>
<path d="M221.576 56.4336L221.675 56.6001C221.789 56.7866 221.952 56.9365 222.148 57.033L222.325 57.1196L222.158 57.2195C221.968 57.3294 221.815 57.496 221.715 57.6924L221.629 57.869L221.529 57.7024C221.416 57.5126 221.252 57.3627 221.056 57.2662L220.883 57.1796L221.049 57.0797C221.236 56.9664 221.386 56.8033 221.482 56.6068L221.576 56.4336Z" fill="#FF8113"/>
<path d="M215.348 104.377L215.447 104.547C215.561 104.733 215.724 104.883 215.92 104.98L216.094 105.066L215.927 105.166C215.741 105.279 215.587 105.443 215.491 105.639L215.404 105.816L215.304 105.646C215.191 105.459 215.028 105.309 214.831 105.213L214.658 105.126L214.825 105.026C215.011 104.913 215.164 104.75 215.261 104.553L215.348 104.377Z" fill="#FF8113"/>
<path d="M172.281 24.5664L172.381 24.7329C172.494 24.9194 172.657 25.0693 172.854 25.1659L173.03 25.2524L172.864 25.3557C172.674 25.4656 172.521 25.6288 172.424 25.8253L172.338 26.0018L172.238 25.8353C172.125 25.6454 171.958 25.4956 171.758 25.399L171.592 25.3224L171.762 25.2225C171.948 25.1092 172.098 24.9461 172.195 24.7496L172.281 24.5664Z" fill="#FF8113"/>
<path d="M153.21 33.0684L153.31 33.2349C153.42 33.4214 153.583 33.5712 153.776 33.6711L153.949 33.7577L153.783 33.8576C153.596 33.9709 153.446 34.1341 153.35 34.3305L153.263 34.5037L153.16 34.3372C153.05 34.1507 152.887 33.9975 152.69 33.9009L152.514 33.8143L152.68 33.7144C152.867 33.6012 153.017 33.438 153.11 33.2415L153.21 33.0684Z" fill="#FF8113"/>
<path d="M139.267 123.898L139.367 124.065C139.481 124.251 139.644 124.405 139.84 124.501L140.013 124.588L139.847 124.688C139.66 124.801 139.511 124.964 139.414 125.161L139.327 125.334L139.228 125.167C139.114 124.981 138.951 124.831 138.755 124.731L138.578 124.644L138.745 124.545C138.934 124.431 139.084 124.268 139.181 124.072L139.267 123.898Z" fill="#FF8113"/>
<path d="M188.272 148.485L146.977 148.388C145.265 148.388 143.879 147.179 143.883 145.697C143.883 144.219 145.278 143.033 146.99 143.033L188.286 143.13C189.998 143.13 191.38 144.335 191.376 145.817C191.376 147.289 189.984 148.488 188.272 148.485Z" fill="#455A64"/>
<path d="M188.272 141.974L146.977 141.881C145.265 141.881 143.879 140.672 143.883 139.19C143.883 137.708 145.278 136.525 146.99 136.525L188.286 136.619C189.998 136.619 191.38 137.828 191.376 139.31C191.376 140.782 189.984 141.977 188.272 141.974Z" fill="#455A64"/>
<path d="M186.61 149.46L148.804 149.373C147.243 149.48 146.06 150.835 146.167 152.397C146.263 153.812 147.389 154.938 148.804 155.035H152.954L158.436 165.548C159.065 166.747 160.304 167.5 161.656 167.507L175.167 167.537C176.536 167.54 177.791 166.777 178.418 165.562L183.793 155.128H186.613C188.175 155.021 189.358 153.666 189.251 152.104C189.154 150.689 188.029 149.563 186.613 149.466V149.46H186.61Z" fill="#455A64"/>
<path d="M199.599 105.472C199.599 105.472 199.495 105.632 199.292 105.928L198.393 107.26L197.737 108.246C197.497 108.609 197.261 109.025 196.988 109.465L196.122 110.897C195.805 111.403 195.532 111.979 195.206 112.562C195.046 112.862 194.873 113.168 194.713 113.481C194.63 113.641 194.546 113.814 194.46 113.961C194.373 114.107 194.303 114.294 194.223 114.464C193.89 115.146 193.557 115.859 193.224 116.608L192.245 119.003C191.935 119.845 191.629 120.731 191.313 121.647C190.67 123.622 190.147 125.633 189.744 127.672C189.288 129.97 189.065 132.307 189.078 134.649V134.705H189.025L144.948 134.729H144.878V134.659C144.415 129.5 143.07 124.458 140.902 119.755C139.766 117.261 138.457 114.85 136.982 112.539C136.236 111.363 135.443 110.208 134.601 109.072C133.758 107.936 132.839 106.854 131.937 105.742L131.827 105.608H132.003L131.94 105.742C127.81 100.433 124.993 94.2254 123.717 87.6214C123.538 86.7755 123.428 85.9163 123.295 85.057C123.241 84.6241 123.201 84.1912 123.155 83.7582L123.088 83.0922L123.045 82.4261C123.021 81.9898 122.981 81.5536 122.968 81.114C122.955 80.6744 122.968 80.2348 122.942 79.7818C122.915 79.3289 122.942 78.9026 122.942 78.4497C122.942 77.9968 122.942 77.5639 122.981 77.1176C123.185 73.5442 123.821 70.0107 124.88 66.5905C127.954 56.9493 134.335 48.7034 142.893 43.305C144.932 42.0195 147.073 40.9072 149.298 39.9747C151.479 39.0655 153.737 38.3462 156.041 37.82C160.507 36.7909 165.11 36.4812 169.676 36.9041C171.87 37.1106 174.048 37.4836 176.19 38.0131C178.271 38.5493 180.309 39.2287 182.294 40.0513C184.209 40.8772 186.067 41.8263 187.859 42.8954C189.581 43.9544 191.229 45.1233 192.798 46.3955C195.762 48.8333 198.39 51.6541 200.608 54.7846C202.659 57.6719 204.338 60.8024 205.603 64.1094C205.936 64.8887 206.166 65.688 206.439 66.4673C206.712 67.2466 206.892 68.0392 207.105 68.7985C207.282 69.5844 207.475 70.3537 207.628 71.1297C207.694 71.516 207.764 71.8957 207.831 72.2753C207.898 72.655 207.971 73.0313 208.011 73.411C208.42 76.2417 208.55 79.1091 208.394 81.9665C208.121 86.5557 207.112 91.0716 205.397 95.3377C204.77 96.8863 204.054 98.4016 203.259 99.8702C202.552 101.142 201.906 102.201 201.354 103.014L200.618 104.096L200.051 104.852L199.589 105.472L200.035 104.852L200.594 104.083L201.327 102.994C201.873 102.168 202.513 101.119 203.212 99.8469C204.001 98.3749 204.711 96.8596 205.333 95.3111C208.084 88.3607 208.97 80.8142 207.908 73.4143C207.868 73.0346 207.794 72.6616 207.728 72.282C207.661 71.9023 207.591 71.5227 207.521 71.1397C207.371 70.3737 207.188 69.6077 206.998 68.8085C206.809 68.0092 206.572 67.2532 206.332 66.4773C206.093 65.7013 205.826 64.902 205.496 64.1261C204.231 60.8324 202.552 57.7119 200.501 54.8412C198.286 51.7273 195.665 48.9199 192.708 46.4988C191.143 45.2332 189.498 44.071 187.783 43.0153C185.998 41.9496 184.146 41.0071 182.234 40.1878C180.256 39.3719 178.225 38.6925 176.153 38.1597C174.018 37.6301 171.847 37.2605 169.659 37.0573C165.113 36.6377 160.527 36.9474 156.078 37.9765C153.783 38.4994 151.536 39.2187 149.361 40.1245C147.146 41.057 145.015 42.1694 142.983 43.4549C134.448 48.85 128.094 57.0891 125.046 66.717C123.991 70.1239 123.354 73.6441 123.155 77.2042C123.131 77.6438 123.128 78.0834 123.115 78.5363C123.101 78.9892 123.078 79.4122 123.098 79.8518C123.118 80.2914 123.115 80.7276 123.125 81.1639C123.135 81.6002 123.175 82.0364 123.201 82.4694L123.241 83.1355L123.308 83.8015C123.354 84.2311 123.398 84.6641 123.451 85.0937C123.581 85.9496 123.691 86.8055 123.867 87.648C125.14 94.2254 127.944 100.41 132.053 105.698L132.16 105.835H131.987L132.053 105.698C132.962 106.801 133.898 107.88 134.717 109.029C135.537 110.178 136.356 111.33 137.102 112.509C138.581 114.823 139.893 117.241 141.028 119.746C143.206 124.465 144.559 129.523 145.025 134.702L144.952 134.632L189.028 134.655L188.975 134.712C188.968 132.364 189.198 130.02 189.661 127.718C190.064 125.677 190.583 123.659 191.219 121.677C191.552 120.761 191.849 119.875 192.162 119.033C192.475 118.19 192.828 117.401 193.161 116.635C193.494 115.869 193.85 115.173 194.16 114.494L194.397 113.991L194.653 113.511C194.823 113.198 194.986 112.892 195.149 112.592C195.482 112.003 195.755 111.426 196.072 110.927L196.944 109.498C197.217 109.059 197.457 108.642 197.7 108.283C197.943 107.923 198.17 107.597 198.366 107.307L199.279 105.975L199.612 105.525L199.599 105.472Z" fill="#263238"/>
<path d="M129.038 93.7951C129.022 93.7652 129.008 93.7352 129.002 93.7019C128.975 93.6286 128.945 93.5354 128.905 93.4188C128.819 93.1591 128.702 92.7961 128.552 92.3331L128.299 91.5472C128.216 91.2575 128.143 90.9377 128.056 90.5981C127.889 89.912 127.666 89.1394 127.523 88.2668C127.443 87.8306 127.36 87.3743 127.27 86.8981C127.18 86.4219 127.14 85.919 127.07 85.3994C126.914 84.3671 126.864 83.2547 126.787 82.0691C126.687 79.5248 126.8 76.9771 127.12 74.4494C127.48 71.9284 128.046 69.4406 128.815 67.0128C129.202 65.9038 129.548 64.8448 129.974 63.889C130.181 63.4094 130.357 62.9365 130.567 62.5003L131.177 61.2481C131.546 60.4421 131.969 59.7561 132.309 59.14C132.485 58.8369 132.642 58.5472 132.798 58.2908L133.251 57.5981L133.881 56.6456L134.047 56.4025C134.087 56.3459 134.107 56.3192 134.111 56.3225C134.114 56.3259 134.111 56.3525 134.064 56.4125L133.911 56.6656L133.308 57.6347L132.868 58.3307C132.715 58.5905 132.565 58.8835 132.395 59.1899C132.062 59.8094 131.646 60.4954 131.286 61.3047L130.687 62.5569C130.484 62.9931 130.311 63.466 130.107 63.9456C129.688 64.8981 129.348 65.9438 128.969 67.0628C128.216 69.4839 127.66 71.9617 127.303 74.4727C126.98 76.9904 126.864 79.5281 126.947 82.0625C127.02 83.2281 127.064 84.3404 127.213 85.3695C127.28 85.8857 127.32 86.3885 127.403 86.8648C127.487 87.341 127.566 87.7939 127.646 88.2302C127.776 89.1061 127.979 89.8954 128.149 90.5614C128.233 90.8945 128.302 91.2275 128.379 91.5139C128.456 91.8003 128.546 92.0634 128.616 92.3032C128.752 92.7694 128.862 93.1357 128.949 93.3955L129.028 93.6819C129.038 93.7186 129.042 93.7585 129.038 93.7951Z" fill="#263238"/>
<path d="M141.767 48.9668C141.041 49.7061 140.279 50.4022 139.476 51.0582C138.714 51.7576 137.908 52.4137 137.068 53.0198C137.794 52.2805 138.56 51.5811 139.363 50.9283C140.126 50.229 140.928 49.5729 141.767 48.9668Z" fill="#263238"/>
<path d="M200.068 98.6233C200.068 98.6233 200.068 98.5967 200.098 98.5467L200.198 98.3303L200.595 97.511L200.884 96.9215C200.988 96.7051 201.087 96.462 201.217 96.2055C201.437 95.6893 201.714 95.1132 201.957 94.4504L202.356 93.4147C202.493 93.055 202.609 92.6721 202.743 92.2791C203.022 91.4965 203.252 90.6406 203.509 89.7414C204.021 87.7832 204.408 85.795 204.661 83.7868C204.891 81.7753 204.994 79.7505 204.964 77.7257C204.927 76.7932 204.911 75.904 204.824 75.0614C204.787 74.6484 204.764 74.2488 204.717 73.8658C204.671 73.4828 204.621 73.1165 204.578 72.7668C204.501 72.0641 204.371 71.4347 204.281 70.8852C204.231 70.6088 204.191 70.349 204.145 70.1126C204.098 69.8761 204.045 69.6663 204.001 69.4732L203.812 68.5806C203.795 68.4874 203.778 68.4108 203.768 68.3475C203.765 68.3209 203.765 68.2942 203.768 68.2676C203.778 68.2909 203.788 68.3175 203.795 68.3442C203.812 68.4075 203.832 68.4807 203.855 68.574C203.912 68.7904 203.985 69.0835 204.078 69.4565L204.235 70.0959C204.288 70.3324 204.331 70.5888 204.384 70.8652C204.484 71.418 204.624 72.0475 204.717 72.7502L204.871 73.8492C204.921 74.2355 204.947 74.6351 204.987 75.0514C205.08 75.8773 205.104 76.7699 205.144 77.7157C205.247 81.7853 204.754 85.8483 203.685 89.778C203.422 90.6772 203.186 91.5364 202.899 92.319C202.759 92.712 202.643 93.095 202.499 93.4547L202.09 94.4871C201.84 95.1531 201.557 95.726 201.327 96.2388C201.207 96.4953 201.104 96.735 200.994 96.9515L200.688 97.5343L200.262 98.3402L200.148 98.5467C200.128 98.5767 200.098 98.6033 200.068 98.6233Z" fill="#263238"/>
<path d="M177.052 91.7344L178.42 104.313L186.52 107.014L186.853 110.93L175.423 110.164C175.423 110.164 171.9 110.251 171.134 105.608L170.947 93.4062L177.052 91.7344Z" fill="#FFBE9D"/>
<path d="M193.86 110.865C193.713 111.038 193.473 111.105 193.257 111.032C193.21 111.018 193.167 110.995 193.127 110.968C192.841 110.788 193.037 110.159 193.037 110.159L191.612 109.523C191.612 109.523 189.337 110.262 188.428 110.908C187.519 111.554 185.934 110.419 185.934 110.419L186.163 107.088L189.567 105.33C189.567 105.33 189.36 105.433 189.674 105.017C189.987 104.601 190.803 105.017 190.803 105.017C190.996 104.824 191.582 104.89 191.582 104.89L193.913 105.803C194.393 105.993 194.759 106.389 194.912 106.882L195.505 108.764C195.505 108.764 195.738 110.069 195.581 110.316C195.442 110.529 195.162 110.602 194.935 110.485C194.935 110.485 194.602 111.215 194.406 111.191C194.203 111.125 194.013 111.025 193.846 110.888L193.86 110.865Z" fill="#FFBE9D"/>
<path d="M189.079 110.533C189.139 110.513 189.196 110.49 189.252 110.46L189.745 110.244C190.355 109.984 190.981 109.761 191.617 109.578H191.58L193.006 110.227L192.969 110.15C192.932 110.27 192.912 110.394 192.902 110.52C192.886 110.66 192.912 110.8 192.976 110.926C193.019 110.99 193.079 111.04 193.149 111.07C193.212 111.106 193.282 111.126 193.355 111.136C193.505 111.153 193.655 111.113 193.782 111.03C193.815 111.01 193.845 110.983 193.872 110.956L193.891 110.936H193.798L193.838 110.97L194.015 111.086C194.075 111.126 194.138 111.163 194.205 111.193C194.241 111.21 194.278 111.223 194.314 111.233C194.361 111.249 194.411 111.249 194.458 111.233C194.538 111.2 194.608 111.146 194.657 111.076C194.704 111.016 194.747 110.956 194.784 110.89C194.864 110.763 194.934 110.63 194.994 110.493L194.891 110.53C195.084 110.63 195.317 110.613 195.497 110.487C195.587 110.42 195.65 110.324 195.677 110.214C195.71 110.114 195.73 110.014 195.74 109.911C195.727 109.514 195.683 109.118 195.613 108.728C195.513 108.395 195.407 108.062 195.297 107.729C195.23 107.513 195.164 107.303 195.097 107.09C195.04 106.873 194.961 106.664 194.857 106.464C194.744 106.267 194.594 106.094 194.411 105.961C194.235 105.834 194.038 105.734 193.832 105.671L191.627 104.815H191.61C191.467 104.802 191.327 104.802 191.184 104.815C191.034 104.822 190.891 104.875 190.774 104.969H190.864C190.644 104.789 190.351 104.732 190.078 104.809C189.839 104.905 189.642 105.085 189.532 105.318L189.559 105.292L187.228 106.494L186.591 106.827C186.515 106.86 186.442 106.903 186.375 106.953C186.455 106.927 186.532 106.893 186.608 106.857L187.254 106.55L189.622 105.395H189.639V105.375C189.739 105.175 189.908 105.015 190.118 104.935C190.351 104.872 190.598 104.925 190.784 105.078L190.831 105.115L190.874 105.075C190.971 105.005 191.087 104.969 191.207 104.969C191.34 104.955 191.47 104.955 191.604 104.969H191.587L193.785 105.838C193.978 105.901 194.161 105.994 194.328 106.111C194.491 106.231 194.631 106.387 194.731 106.564C194.827 106.754 194.904 106.957 194.957 107.163C195.02 107.373 195.09 107.586 195.157 107.799C195.264 108.132 195.373 108.465 195.473 108.798C195.543 109.181 195.587 109.568 195.603 109.954C195.603 110.044 195.6 110.134 195.583 110.224C195.563 110.3 195.52 110.364 195.457 110.41C195.324 110.5 195.154 110.51 195.014 110.437L194.941 110.407L194.911 110.477C194.854 110.607 194.787 110.733 194.714 110.856C194.657 110.966 194.578 111.063 194.474 111.136C194.454 111.143 194.431 111.143 194.411 111.136C194.381 111.13 194.351 111.116 194.321 111.103C194.261 111.076 194.205 111.043 194.148 111.01C194.091 110.973 194.035 110.936 193.981 110.896L193.941 110.866C194.028 110.866 193.822 110.866 193.842 110.866L193.825 110.883C193.805 110.903 193.782 110.923 193.755 110.94C193.658 111.006 193.538 111.04 193.422 111.026C193.365 111.02 193.312 111.003 193.262 110.973C193.212 110.956 193.169 110.923 193.139 110.88C193.059 110.663 193.059 110.43 193.139 110.214V110.16L193.089 110.137L191.657 109.508H191.62C190.984 109.704 190.361 109.944 189.755 110.227C189.542 110.327 189.382 110.41 189.276 110.47C189.206 110.48 189.142 110.503 189.079 110.533Z" fill="#EB996E"/>
<path d="M190.986 105.948C191.203 106.127 191.443 106.274 191.699 106.384C192.318 106.687 192.975 106.91 193.651 107.05L193.584 106.977C193.584 107.103 193.604 107.24 193.621 107.38C193.717 108.159 193.964 108.912 194.347 109.598C194.46 109.804 194.59 110.004 194.733 110.19C194.836 110.324 194.899 110.39 194.906 110.384C194.913 110.377 194.713 110.071 194.447 109.544C194.107 108.858 193.88 108.119 193.78 107.36C193.764 107.223 193.754 107.09 193.744 106.967V106.913H193.681C193.014 106.78 192.368 106.577 191.746 106.304C191.273 106.081 191 105.914 190.986 105.948Z" fill="#EB996E"/>
<path d="M192.903 107.959C192.863 108.995 193.233 110.007 193.932 110.773C193.972 110.746 193.576 110.19 193.296 109.411C193.017 108.632 192.953 107.952 192.903 107.959Z" fill="#EB996E"/>
<path d="M185.715 109.324C185.715 109.324 185.735 109.35 185.781 109.39C185.848 109.447 185.918 109.5 185.995 109.543C186.274 109.723 186.587 109.85 186.914 109.913C187.417 110.01 187.936 109.963 188.412 109.78C189.019 109.54 189.521 109.104 189.844 108.538L189.741 108.571C190.491 108.931 191.303 109.141 192.132 109.187C192.355 109.21 192.579 109.197 192.798 109.147C192.922 109.121 193.028 109.047 193.101 108.944C193.168 108.837 193.188 108.708 193.155 108.588C193.121 108.468 193.045 108.368 192.938 108.305L192.679 108.161C191.992 107.792 191.346 107.495 190.82 107.252C190.294 107.009 189.821 106.843 189.528 106.729C189.372 106.663 189.205 106.609 189.038 106.576C189.188 106.659 189.345 106.729 189.505 106.789C189.808 106.919 190.241 107.122 190.774 107.355C191.306 107.589 191.929 107.918 192.605 108.295L192.862 108.438C192.932 108.478 192.982 108.544 193.002 108.624C193.022 108.704 193.012 108.791 192.968 108.861C192.918 108.931 192.842 108.977 192.755 108.991C192.555 109.034 192.345 109.044 192.142 109.024C191.333 108.974 190.544 108.771 189.811 108.428L189.745 108.395L189.708 108.461C189.411 108.997 188.942 109.417 188.376 109.653C187.923 109.84 187.427 109.893 186.944 109.817C186.624 109.763 186.318 109.66 186.035 109.507C185.821 109.39 185.722 109.314 185.715 109.324Z" fill="#EB996E"/>
<path d="M195.484 156.328C195.508 156.225 195.508 156.118 195.484 156.015C195.434 155.729 195.328 155.455 195.168 155.216C195.115 155.129 195.051 155.052 194.978 154.986C194.885 154.896 194.748 154.866 194.625 154.906C194.552 154.933 194.492 154.993 194.469 155.066C194.445 155.132 194.445 155.209 194.469 155.276C194.515 155.392 194.569 155.502 194.635 155.609C194.755 155.815 194.858 156.022 195.015 156.255C195.111 156.391 195.271 156.461 195.438 156.445C195.584 156.418 195.724 156.358 195.844 156.265C196.064 156.105 196.264 155.918 196.44 155.712C196.523 155.615 196.603 155.512 196.677 155.405C196.757 155.299 196.817 155.179 196.853 155.052C196.893 154.899 196.817 154.739 196.673 154.669C196.54 154.633 196.397 154.663 196.294 154.756C196.144 154.889 196.011 155.039 195.897 155.206C195.731 155.439 195.598 155.699 195.504 155.968C195.461 156.065 195.438 156.168 195.438 156.271C195.594 155.922 195.784 155.585 196.004 155.272C196.114 155.122 196.244 154.986 196.387 154.866C196.447 154.809 196.53 154.789 196.61 154.809C196.677 154.849 196.71 154.933 196.683 155.006C196.65 155.109 196.6 155.206 196.53 155.289C196.46 155.389 196.384 155.485 196.304 155.579C196.134 155.772 195.941 155.945 195.734 156.098C195.638 156.171 195.521 156.225 195.401 156.245C195.301 156.258 195.201 156.211 195.145 156.128C195.015 155.938 194.892 155.702 194.768 155.509C194.712 155.415 194.658 155.322 194.612 155.222C194.579 155.132 194.612 155.072 194.658 155.049C194.802 154.989 194.942 155.152 195.038 155.289C195.251 155.602 195.404 155.955 195.484 156.328Z" fill="#263238"/>
<path d="M187.359 156.606L183.323 165.355L176.809 162.344L180.981 151.518L187.359 156.606Z" fill="#FFBE9D"/>
<path d="M184.085 164.768L181.724 169.267C181.724 169.267 187.749 175.518 187.196 176.904L173.002 170.1L176.902 161.078L184.085 164.768Z" fill="#FF8113"/>
<path d="M177.626 166.547C177.303 166.497 176.993 166.7 176.91 167.016C176.847 167.339 177.047 167.656 177.366 167.732C177.713 167.792 178.042 167.572 178.126 167.233C178.156 166.89 177.909 166.583 177.566 166.54" fill="#E0E0E0"/>
<g opacity="0.6">
<path d="M173.002 170.097L173.595 168.965L186.979 175.915C186.979 175.915 187.482 176.491 187.196 176.914L173.002 170.097Z" fill="white"/>
</g>
<path d="M181.991 169.303C181.954 169.373 181.595 169.237 181.145 169.303C180.695 169.37 180.376 169.566 180.326 169.51C180.276 169.453 180.572 169.1 181.115 169.037C181.658 168.974 182.038 169.247 181.991 169.303Z" fill="#263238"/>
<path d="M183.179 170.637C183.162 170.71 182.806 170.683 182.43 170.863C182.053 171.043 181.837 171.323 181.764 171.286C181.69 171.249 181.84 170.837 182.313 170.62C182.786 170.404 183.209 170.567 183.179 170.637Z" fill="#263238"/>
<path d="M183.171 172.819C183.101 172.819 183.171 172.413 183.53 172.116C183.89 171.82 184.286 171.826 184.286 171.9C184.286 171.973 183.99 172.08 183.7 172.323C183.411 172.566 183.241 172.852 183.171 172.819Z" fill="#263238"/>
<path d="M182.668 167.572C182.608 167.622 182.335 167.372 181.932 167.213C181.529 167.053 181.163 167.029 181.156 166.953C181.15 166.876 181.559 166.77 182.036 166.953C182.512 167.136 182.728 167.526 182.668 167.572Z" fill="#263238"/>
<path d="M185.417 163.604L196.057 136.962C196.057 136.962 195.818 132.419 194.982 130.984C194.146 129.549 168.796 121.18 168.796 121.18C168.796 121.18 162.338 119.624 158.035 121.18C153.733 122.735 150.502 128.113 151.098 131.104C151.694 134.094 154.445 136.526 154.445 136.526L172.862 136.859L183.019 140.552L176.176 160.164L185.417 163.604Z" fill="#263238"/>
<path d="M194.874 145.403L195.114 155.037L187.941 155.21L186.908 143.654L194.874 145.403Z" fill="#FFBE9D"/>
<path d="M195.542 154.173L195.406 159.252C195.406 159.252 203.578 162.189 203.685 163.691L187.946 163.851L187.463 154.033L195.542 154.173Z" fill="#FF8113"/>
<path d="M190.534 158.621C190.221 158.721 190.035 159.037 190.098 159.36C190.185 159.677 190.508 159.87 190.828 159.8C191.164 159.7 191.36 159.354 191.284 159.014C191.161 158.694 190.804 158.528 190.478 158.641" fill="#E0E0E0"/>
<g opacity="0.6">
<path d="M187.949 163.859L187.979 162.584L203.059 162.917C203.059 162.917 203.765 163.213 203.688 163.71L187.949 163.859Z" fill="white"/>
</g>
<path d="M195.665 159.17C195.665 159.247 195.279 159.287 194.906 159.537C194.533 159.786 194.329 160.113 194.26 160.083C194.19 160.053 194.299 159.61 194.759 159.313C195.219 159.017 195.682 159.1 195.665 159.17Z" fill="#263238"/>
<path d="M197.321 159.838C197.341 159.911 197.008 160.047 196.752 160.374C196.495 160.7 196.419 161.04 196.346 161.04C196.272 161.04 196.216 160.604 196.542 160.201C196.868 159.798 197.318 159.764 197.321 159.838Z" fill="#263238"/>
<path d="M198.281 161.802C198.211 161.822 198.098 161.439 198.281 161.016C198.464 160.593 198.834 160.42 198.867 160.483C198.9 160.547 198.681 160.776 198.534 161.126C198.387 161.476 198.354 161.796 198.281 161.802Z" fill="#263238"/>
<path d="M195.506 157.32C195.476 157.39 195.12 157.287 194.687 157.32C194.254 157.354 193.914 157.493 193.874 157.43C193.834 157.367 194.157 157.097 194.67 157.054C195.183 157.011 195.543 157.257 195.506 157.32Z" fill="#263238"/>
<path d="M190.689 118.662C190.689 118.662 194.988 118.329 195.464 122.991C195.94 127.653 196.407 149.407 196.407 149.407L186.363 150.246L184.807 128.006L168.785 121.189C168.785 121.189 187.818 118.065 190.689 118.662Z" fill="#263238"/>
<path d="M172.973 112.369C172.973 112.369 175.581 119.696 175.084 120.498C174.588 121.301 167.878 124.665 167.878 124.665L151.093 131.112C151.093 131.112 149.371 128.371 149.371 124.158C149.371 119.946 155.209 112.369 155.209 112.369H172.973Z" fill="#263238"/>
<path d="M167.992 120.814C167.992 120.814 168.016 120.831 168.069 120.858L168.309 120.968L169.238 121.381L172.728 122.899L184.774 128.085L184.717 128.008C184.87 130.206 185.033 132.58 185.207 135.035C185.613 140.773 185.989 146.062 186.289 150.248V150.324H186.365L193.692 149.682L195.69 149.495L196.217 149.438C196.276 149.435 196.336 149.425 196.396 149.412H196.217L195.687 149.445L193.669 149.595L186.342 150.171L186.422 150.241C186.136 146.055 185.773 140.763 185.38 135.025C185.207 132.57 185.047 130.196 184.884 128.001V127.945L184.834 127.925L172.761 122.799L169.251 121.327L168.312 120.941L168.065 120.844L167.992 120.814Z" fill="#455A64"/>
<path d="M154.648 121.547C154.808 121.517 154.968 121.474 155.121 121.417L156.384 121.011C157.762 120.545 159.178 120.185 160.613 119.942C162.048 119.705 163.514 119.725 164.942 119.995C165.529 120.132 166.108 120.302 166.678 120.498C166.541 120.408 166.394 120.335 166.241 120.278C165.832 120.105 165.405 119.968 164.972 119.869C163.53 119.552 162.042 119.516 160.586 119.755C159.141 120.005 157.719 120.388 156.344 120.901C155.814 121.087 155.388 121.251 155.098 121.364C154.942 121.411 154.792 121.47 154.648 121.547Z" fill="#455A64"/>
<path d="M157.02 117.688C157.509 117.658 157.995 117.658 158.485 117.688C158.938 117.718 159.484 117.788 160.077 117.858C160.67 117.928 161.329 118.008 162.008 118.138C163.174 118.324 164.293 118.737 165.299 119.357C165.698 119.637 166.081 119.943 166.438 120.276C166.374 120.159 166.291 120.053 166.195 119.96C165.948 119.693 165.672 119.453 165.372 119.247C164.366 118.584 163.231 118.141 162.042 117.955C161.352 117.822 160.69 117.748 160.09 117.685C159.491 117.622 158.951 117.568 158.492 117.555C158.129 117.538 157.762 117.555 157.403 117.602C157.273 117.612 157.143 117.642 157.02 117.688Z" fill="#455A64"/>
<path d="M164.434 58.9218C162.502 58.5888 160.804 59.3348 159.175 60.4238C157.55 61.5461 156.308 63.1347 155.612 64.983C154.839 66.9146 154.716 69.046 155.259 71.0541C155.822 73.0656 157.184 74.7608 159.029 75.7432C161.54 77.0187 164.753 76.5758 167.001 74.8773C169.249 73.1789 170.535 70.3681 170.641 67.5507C170.745 65.5958 170.228 63.6609 169.169 62.0157C168.087 60.3705 166.372 59.2515 164.434 58.9218Z" fill="#263238"/>
<path d="M158.941 65.4897C159.225 64.7504 159.115 63.9245 159.225 63.1418C159.471 61.4167 160.86 60.0347 162.468 59.3619C163.964 58.7358 165.799 58.8724 167.59 59.4552C168.839 59.8349 169.955 60.5642 170.807 61.5533C171.91 62.9154 172.279 64.7271 171.806 66.4155L162.984 65.1334C162.159 65.8161 161.319 66.5088 160.32 66.8918C160.03 67.0183 159.714 67.0683 159.401 67.0383C159.081 67.0017 158.812 66.7785 158.715 66.4721C158.618 66.1391 158.818 65.8094 158.941 65.4897Z" fill="#263238"/>
<path d="M167.762 61.8891L160.059 63.5209C159.319 63.5775 158.743 64.187 158.727 64.9296L158.82 81.6011C158.826 82.7401 159.209 83.8424 159.905 84.7416L160.641 85.6907C162.307 87.8521 165.707 87.6323 166.986 85.2178C167.062 85.0813 167.126 84.9348 167.166 84.7816C167.189 84.6317 167.229 84.5318 167.235 84.4053L167.385 82.7801C167.459 81.2947 167.469 79.7828 167.469 79.8028C167.469 79.8228 170.622 79.4031 171.428 75.3402C171.831 73.322 171.858 69.985 171.791 67.2542C171.738 64.7964 170.229 61.7259 167.762 61.8891Z" fill="#FFBE9D"/>
<path d="M170.5 70.6614C170.49 70.9445 170.257 71.171 169.974 71.171C169.698 71.181 169.461 70.9645 169.451 70.6881C169.451 70.6848 169.451 70.6814 169.451 70.6781C169.458 70.3917 169.691 70.1652 169.977 70.1686C170.254 70.1552 170.487 70.3684 170.5 70.6448C170.5 70.6515 170.5 70.6548 170.5 70.6614Z" fill="#263238"/>
<path d="M171.004 68.9503C170.937 69.0169 170.551 68.7072 169.988 68.6872C169.425 68.6672 168.989 68.9337 168.939 68.8637C168.889 68.7938 168.982 68.7105 169.169 68.584C169.419 68.4241 169.712 68.3475 170.008 68.3609C170.301 68.3708 170.584 68.4741 170.814 68.6573C170.984 68.8071 171.037 68.9503 171.004 68.9503Z" fill="#263238"/>
<path d="M165.29 70.3897C165.28 70.6728 165.047 70.8992 164.764 70.8992C164.487 70.9092 164.254 70.6894 164.244 70.413C164.244 70.413 164.244 70.4097 164.244 70.4064C164.251 70.12 164.484 69.8935 164.77 69.8968C165.047 69.8868 165.28 70.1 165.29 70.3764C165.29 70.3797 165.29 70.3864 165.29 70.3897Z" fill="#263238"/>
<path d="M165.655 68.8214C165.588 68.888 165.202 68.5783 164.636 68.5583C164.07 68.5383 163.637 68.8048 163.59 68.7315C163.544 68.6582 163.634 68.5783 163.817 68.4551C164.067 68.2952 164.363 68.2186 164.659 68.232C164.952 68.2419 165.235 68.3452 165.465 68.5283C165.635 68.6682 165.688 68.7914 165.655 68.8214Z" fill="#263238"/>
<path d="M167.341 73.1116C167.641 73.0317 167.951 72.9884 168.264 72.9817C168.407 72.9817 168.547 72.9484 168.574 72.8519C168.593 72.7053 168.564 72.5521 168.494 72.4223C168.374 72.0692 168.244 71.6962 168.111 71.3099C167.581 69.7247 167.201 68.4226 167.265 68.4026C167.328 68.3826 167.811 69.6481 168.344 71.2333C168.47 71.623 168.593 71.996 168.707 72.3523C168.793 72.5288 168.81 72.732 168.76 72.9218C168.713 73.0217 168.623 73.0983 168.517 73.1216C168.437 73.1416 168.354 73.1483 168.27 73.1483C167.961 73.1749 167.648 73.1649 167.341 73.1116Z" fill="#263238"/>
<path d="M167.474 79.8019C165.549 79.7586 163.674 79.1824 162.059 78.1367C162.059 78.1367 163.324 81.0208 167.43 80.801L167.474 79.8019Z" fill="#EB996E"/>
<path d="M167.056 74.4654C166.85 74.179 166.51 74.0225 166.157 74.0525C165.897 74.0658 165.657 74.1857 165.491 74.3855C165.331 74.572 165.301 74.8384 165.421 75.0516C165.597 75.268 165.89 75.3546 166.154 75.2647C166.423 75.1814 166.673 75.0449 166.89 74.8651C166.956 74.8218 167.013 74.7652 167.056 74.7019C167.099 74.6386 167.099 74.5553 167.056 74.4921" fill="#EB996E"/>
<path d="M165.667 73.4397C165.761 73.4397 165.737 74.0491 166.243 74.5054C166.75 74.9616 167.406 74.9183 167.406 75.0049C167.406 75.0415 167.256 75.1181 166.983 75.1148C166.623 75.1048 166.28 74.9716 166.01 74.7318C165.751 74.502 165.591 74.1823 165.564 73.8393C165.551 73.5829 165.627 73.433 165.667 73.4397Z" fill="#263238"/>
<path d="M165.619 67.1517C165.559 67.3016 164.999 67.2083 164.333 67.2616C163.667 67.3149 163.128 67.4747 163.045 67.3349C163.008 67.2649 163.108 67.125 163.328 66.9852C163.924 66.6388 164.65 66.5889 165.289 66.8453C165.529 66.9519 165.649 67.0784 165.619 67.1517Z" fill="#263238"/>
<path d="M170.939 66.4875C170.833 66.6107 170.45 66.4641 169.984 66.4408C169.517 66.4175 169.118 66.4908 169.031 66.3542C168.995 66.2876 169.061 66.1611 169.241 66.0478C169.477 65.908 169.751 65.8447 170.024 65.868C170.297 65.8847 170.56 65.9846 170.776 66.1544C170.936 66.2843 170.986 66.4275 170.939 66.4875Z" fill="#263238"/>
<path d="M157.529 64.2858C158.328 61.9546 161.815 58.7442 164.283 58.9574L168.179 61.4018C167.893 62.7706 166.877 63.8696 165.538 64.2659C164.836 64.4623 163.997 64.5056 163.567 65.0984C163.137 65.6912 163.364 66.5971 162.954 67.2232C162.391 68.0857 160.899 68.0158 160.47 68.9549C160.283 69.3646 160.366 69.8608 160.17 70.2704C159.91 70.8099 158.505 71.476 157.945 71.2695C157.386 71.063 157.393 70.1039 157.216 69.6043C156.99 69.0215 156.973 68.3821 157.169 67.7893C157.439 66.6537 157.146 65.4148 157.529 64.2858Z" fill="#263238"/>
<path d="M159.623 71.8178C159.623 71.5147 159.309 70.7854 159.013 70.7254C158.214 70.5689 156.765 70.5789 156.682 72.6137C156.555 75.4012 159.379 74.9449 159.386 74.875C159.393 74.805 159.586 72.8701 159.623 71.8178Z" fill="#FFBE9D"/>
<path d="M158.574 73.7814C158.574 73.7814 158.524 73.8147 158.441 73.848C158.324 73.8946 158.194 73.8946 158.078 73.848C157.788 73.7281 157.562 73.2485 157.571 72.7457C157.571 72.5059 157.631 72.2694 157.738 72.0563C157.798 71.8831 157.941 71.7499 158.121 71.7C158.238 71.6766 158.354 71.7366 158.401 71.8465C158.434 71.9264 158.401 71.983 158.427 71.9864C158.454 71.9897 158.491 71.9431 158.474 71.8265C158.461 71.7566 158.424 71.6933 158.371 71.6467C158.297 71.5867 158.204 71.5568 158.108 71.5634C157.875 71.6 157.675 71.7532 157.581 71.973C157.452 72.2095 157.378 72.4726 157.375 72.7423C157.375 73.3052 157.631 73.8413 158.041 73.9779C158.191 74.0278 158.354 74.0079 158.487 73.9246C158.567 73.848 158.584 73.7881 158.574 73.7814Z" fill="#EB996E"/>
<path d="M156.935 63.5724C156.935 62.7032 155.856 62.1338 155.007 61.9339C154.141 61.7841 153.249 61.9539 152.496 62.4135C152.047 62.6599 151.597 63.0063 151.497 63.5092C151.397 64.0121 151.88 64.6048 152.356 64.425C151.474 64.6881 150.971 65.6139 151.234 66.4965C151.497 67.379 152.423 67.8819 153.305 67.6188C153.548 67.5455 153.772 67.4223 153.958 67.2491C153.715 68.055 153.205 68.7511 152.509 69.2273C154.777 69.5503 156.875 67.9751 157.202 65.7105C157.305 64.9845 157.215 64.2452 156.939 63.5658V63.5724H156.935Z" fill="#263238"/>
<path d="M155.002 68.005C154.922 67.7352 154.886 67.4522 154.899 67.1691C154.886 65.7937 155.339 64.4516 156.181 63.3626C156.341 63.1294 156.541 62.9263 156.767 62.7598C156.821 62.7964 155.885 63.7222 155.395 65.2175C154.906 66.7128 155.066 68.005 155.002 68.005Z" fill="#FF8113"/>
<path d="M167.372 60.5791C167.628 61.7147 169.353 63.17 170.109 64.0526C171.555 65.7377 171.838 66.2972 171.825 70.0471C172.491 68.745 173.027 67.4695 172.973 66.0041C172.943 64.5188 172.371 63.0968 171.362 62.0078C170.333 60.9221 168.851 60.3859 167.365 60.5624" fill="#263238"/>
<path d="M179.186 91.5729C179.186 91.5729 176.189 86.5774 175.35 85.555C174.68 84.7724 173.838 84.1563 172.892 83.75C172.516 83.5935 172.126 83.4803 171.723 83.417L167.394 82.4612C167.394 82.4612 167.394 85.4052 164.3 85.5883C161.206 85.7715 158.612 81.4688 158.612 81.4688C158.612 81.4688 153.616 82.2414 152.427 82.8542C151.238 83.4669 149.36 84.2496 148.328 89.4182L147.602 94.4736L156.214 95.2562L157.036 108.038L161.302 111.009C161.302 111.009 173.128 114.082 173.884 114.286C174.64 114.489 174.883 95.2562 174.883 95.2562C174.883 95.2562 177.927 93.2947 179.186 91.5729Z" fill="#FF8113"/>
<path d="M173.527 89.4258C173.597 89.5423 173.654 89.6656 173.694 89.7921C173.79 90.0352 173.917 90.3882 174.057 90.8345C174.78 93.1557 175.076 95.5902 174.936 98.018C174.906 98.4809 174.873 98.8572 174.833 99.1136C174.823 99.2469 174.8 99.3801 174.763 99.5099C174.746 99.3767 174.746 99.2402 174.763 99.107C174.78 98.8472 174.8 98.4742 174.81 98.0113C174.843 96.8057 174.786 95.6002 174.643 94.4046C174.493 93.209 174.257 92.0268 173.937 90.8678C173.814 90.4215 173.704 90.0619 173.627 89.8154C173.581 89.6889 173.547 89.559 173.527 89.4258Z" fill="#263238"/>
<path d="M173.16 110.361L156.965 106.837L156.216 95.2579L149.016 94.5918C149.016 94.5918 149.282 102.505 149.558 104.859C149.955 108.243 151.956 112.852 153.125 113.781C154.294 114.71 173.886 114.287 173.886 114.287L173.16 110.361Z" fill="#FFBE9D"/>
<path d="M182.349 112.459C182.239 112.689 181.999 112.829 181.746 112.812C181.693 112.805 181.64 112.795 181.59 112.779C181.23 112.665 181.257 111.936 181.257 111.936L179.542 111.656C179.542 111.656 177.31 113.095 176.514 114.048C175.718 115 173.697 114.231 173.697 114.231L172.994 110.567L176.155 107.71C176.155 107.71 175.958 107.883 176.178 107.347C176.398 106.811 177.387 107.014 177.387 107.014C177.543 106.751 178.189 106.654 178.189 106.654L180.96 106.987C181.533 107.054 182.043 107.374 182.349 107.86L183.521 109.715C183.521 109.715 184.141 111.047 184.041 111.363C183.948 111.63 183.671 111.786 183.395 111.726C183.395 111.726 183.258 112.606 183.028 112.636C182.792 112.622 182.559 112.566 182.342 112.469L182.349 112.459Z" fill="#FFBE9D"/>
<path d="M176.453 109.833C176.453 109.863 176.826 109.833 177.416 109.856C178.185 109.889 178.948 110.032 179.677 110.279C180.08 110.412 180.469 110.579 180.846 110.775C181.179 110.965 181.529 111.108 181.635 111.365C181.685 111.474 181.675 111.601 181.605 111.698C181.555 111.777 181.482 111.837 181.395 111.874C181.315 111.901 181.235 111.911 181.152 111.911C181.152 111.911 181.239 111.987 181.419 111.937C181.525 111.907 181.618 111.844 181.685 111.754C181.782 111.631 181.808 111.468 181.752 111.321C181.682 111.161 181.565 111.025 181.419 110.932C181.269 110.832 181.112 110.732 180.936 110.635C180.556 110.425 180.156 110.252 179.747 110.112C179.001 109.863 178.218 109.733 177.432 109.733C177.103 109.716 176.773 109.749 176.453 109.833Z" fill="#EB996E"/>
<path d="M176.258 111.599C176.258 111.653 177.39 111.599 178.776 111.686C180.161 111.772 181.277 111.936 181.283 111.886C181.053 111.796 180.81 111.736 180.564 111.709C179.974 111.609 179.382 111.543 178.786 111.509C178.189 111.476 177.59 111.476 176.994 111.509C176.744 111.506 176.498 111.536 176.258 111.599Z" fill="#EB996E"/>
<path d="M182.335 112.389C182.362 112.292 182.372 112.195 182.372 112.095C182.388 111.826 182.388 111.553 182.372 111.283C182.362 111.093 182.335 110.907 182.295 110.72C182.245 110.504 182.152 110.297 182.022 110.117C181.749 109.698 181.399 109.338 180.986 109.055C180.577 108.772 180.127 108.545 179.654 108.389C179.265 108.279 178.862 108.216 178.455 108.209H177.646C177.546 108.202 177.446 108.212 177.35 108.239C177.713 108.289 178.082 108.319 178.449 108.329C178.842 108.356 179.228 108.425 179.604 108.542C180.057 108.705 180.483 108.932 180.876 109.208C181.269 109.475 181.609 109.814 181.875 110.207C182.092 110.53 182.215 110.903 182.235 111.29C182.315 111.966 182.298 112.392 182.335 112.389Z" fill="#EB996E"/>
<path d="M178.332 107.362C178.332 107.389 178.748 107.399 179.411 107.476C180.074 107.552 181.076 107.619 181.649 108.498C182.212 109.154 182.685 109.887 183.048 110.673C183.168 111.009 183.254 111.355 183.311 111.708C183.334 111.612 183.341 111.512 183.327 111.415C183.311 111.146 183.254 110.883 183.164 110.629C182.828 109.814 182.362 109.054 181.786 108.388C181.632 108.185 181.449 108.002 181.249 107.845C181.05 107.699 180.823 107.596 180.583 107.539C180.2 107.436 179.804 107.376 179.408 107.352C179.051 107.309 178.688 107.312 178.332 107.362Z" fill="#EB996E"/>
<path d="M177.13 113.458C177.19 113.421 177.247 113.381 177.297 113.331C177.417 113.238 177.57 113.111 177.76 112.958C178.342 112.505 178.952 112.089 179.581 111.706H179.541L181.256 111.999L181.196 111.926C181.193 112.066 181.203 112.205 181.23 112.345C181.253 112.498 181.32 112.642 181.423 112.758C181.489 112.815 181.569 112.848 181.653 112.861C181.733 112.878 181.813 112.878 181.892 112.861C182.059 112.838 182.209 112.752 182.319 112.625C182.349 112.595 182.372 112.562 182.395 112.525L182.412 112.498V112.482L182.312 112.518L182.365 112.538L182.585 112.618C182.662 112.642 182.738 112.662 182.822 112.678C182.865 112.682 182.905 112.682 182.948 112.678C183.005 112.682 183.058 112.672 183.108 112.648C183.185 112.588 183.241 112.508 183.275 112.419C183.308 112.342 183.338 112.265 183.361 112.185C183.408 112.026 183.444 111.862 183.471 111.699L183.371 111.769C183.608 111.819 183.854 111.733 184.011 111.549C184.087 111.456 184.13 111.336 184.127 111.216C184.12 111.103 184.1 110.99 184.067 110.883C183.941 110.46 183.781 110.047 183.594 109.648C183.398 109.331 183.185 108.998 182.971 108.649L182.575 108.023C182.452 107.803 182.305 107.6 182.139 107.413C181.962 107.233 181.753 107.093 181.519 107C181.293 106.917 181.053 106.867 180.81 106.854L178.199 106.561H178.179C178.023 106.587 177.869 106.627 177.72 106.68C177.56 106.727 177.423 106.827 177.323 106.96L177.42 106.93C177.133 106.8 176.797 106.817 176.527 106.98C176.298 107.15 176.138 107.4 176.088 107.683L176.111 107.646L173.933 109.604C173.687 109.828 173.493 110.007 173.347 110.144C173.274 110.204 173.21 110.267 173.15 110.34C173.23 110.29 173.304 110.234 173.37 110.171L173.98 109.658L176.198 107.743V107.719C176.248 107.476 176.384 107.257 176.584 107.11C176.814 106.977 177.097 106.967 177.337 107.08L177.397 107.103L177.433 107.05C177.52 106.947 177.636 106.874 177.766 106.837C177.906 106.79 178.046 106.754 178.192 106.73H178.172L180.78 107.037C181.007 107.05 181.233 107.097 181.446 107.177C181.659 107.26 181.849 107.386 182.009 107.55C182.166 107.726 182.302 107.923 182.419 108.129L182.815 108.755L183.441 109.754C183.624 110.144 183.777 110.547 183.907 110.96C183.937 111.056 183.954 111.153 183.964 111.253C183.967 111.34 183.937 111.423 183.881 111.489C183.764 111.626 183.584 111.686 183.411 111.646H183.324V111.729C183.298 111.886 183.265 112.042 183.221 112.195C183.195 112.332 183.131 112.459 183.041 112.565C183.018 112.568 182.998 112.568 182.975 112.565C182.938 112.565 182.905 112.565 182.868 112.565C182.795 112.552 182.722 112.535 182.652 112.512C182.582 112.492 182.512 112.465 182.442 112.439L182.392 112.419L182.292 112.455V112.475C182.275 112.505 182.259 112.532 182.235 112.558C182.149 112.658 182.032 112.725 181.902 112.745C181.839 112.755 181.776 112.755 181.713 112.745C181.656 112.738 181.599 112.715 181.556 112.678C181.41 112.469 181.343 112.215 181.37 111.962V111.899H181.313L179.595 111.629H179.555C178.925 112.022 178.322 112.459 177.753 112.935C177.556 113.101 177.42 113.238 177.307 113.331C177.243 113.368 177.183 113.411 177.13 113.458Z" fill="#EB996E"/>
<path d="M200.086 101.82L178.756 101.993C178.063 101.993 177.404 102.327 177.3 102.993L174.969 118.542H163.979C163.626 118.542 163.34 118.828 163.34 119.181C163.34 119.534 163.626 119.821 163.979 119.821H199.071L201.469 103.412C201.575 102.646 201.042 101.94 200.276 101.834C200.213 101.824 200.153 101.82 200.09 101.82H200.086Z" fill="#E0E0E0"/>
<path d="M200.087 101.82C200.2 101.813 200.31 101.82 200.42 101.85C200.75 101.927 201.036 102.12 201.236 102.393C201.382 102.586 201.472 102.819 201.499 103.059C201.506 103.355 201.482 103.648 201.422 103.938L201.113 106.103C200.643 109.36 199.967 114.059 199.134 119.834V119.89H199.068L165.022 119.91H164.1C163.933 119.927 163.763 119.897 163.613 119.82C163.46 119.737 163.34 119.6 163.28 119.434C163.157 119.098 163.3 118.721 163.613 118.548C163.76 118.471 163.926 118.442 164.093 118.458H174.953L174.87 118.528L177.201 103.105C177.221 102.796 177.364 102.503 177.594 102.293C177.827 102.1 178.11 101.976 178.41 101.933C178.696 101.907 178.983 101.897 179.269 101.903H180.108L183.319 101.883L189.027 101.847L197.153 101.807H200.077H199.328L197.153 101.84L189.027 101.93L183.319 101.986L180.108 102.016H179.272C178.993 102.01 178.713 102.02 178.433 102.046C178.157 102.083 177.9 102.2 177.687 102.379C177.484 102.569 177.364 102.832 177.354 103.109C176.658 107.771 175.886 112.963 175.053 118.531V118.605H164.1C163.963 118.588 163.827 118.611 163.703 118.671C163.47 118.805 163.364 119.084 163.45 119.337C163.497 119.461 163.587 119.564 163.7 119.63C163.823 119.694 163.963 119.72 164.103 119.704H165.019L199.064 119.724L198.998 119.78L201.033 106.053C201.156 105.244 201.262 104.521 201.366 103.891C201.426 103.608 201.452 103.319 201.452 103.029C201.429 102.789 201.346 102.559 201.206 102.363C201.016 102.093 200.736 101.903 200.417 101.82C200.307 101.81 200.197 101.81 200.087 101.82Z" fill="#263238"/>
<path d="M187.186 110.631C187.186 111.367 187.782 111.963 188.518 111.963C189.254 111.963 189.85 111.367 189.85 110.631C189.85 109.895 189.254 109.299 188.518 109.299C187.782 109.299 187.186 109.895 187.186 110.631Z" fill="white"/>
<path d="M175.829 119.693C175.859 119.693 176.538 115.74 177.344 110.851C178.15 105.962 178.783 101.996 178.753 101.992C178.723 101.989 178.044 105.945 177.238 110.834C176.432 115.723 175.799 119.689 175.829 119.693Z" fill="#263238"/>
</svg>
