<svg width="53" height="52" viewBox="0 0 53 52" fill="none" xmlns="http://www.w3.org/2000/svg">
<rect x="0.5" width="52" height="52" rx="26" fill="#0BCA0F"/>
<path d="M35.6654 25.1567V26C35.6642 27.9768 35.0242 29.9002 33.8406 31.4834C32.657 33.0666 30.9934 34.2248 29.0978 34.7853C27.2022 35.3458 25.1762 35.2784 23.322 34.5934C21.4677 33.9084 19.8846 32.6423 18.8087 30.984C17.7329 29.3257 17.2218 27.3641 17.3519 25.3917C17.482 23.4192 18.2461 21.5417 19.5305 20.039C20.8148 18.5364 22.5504 17.4891 24.4785 17.0535C26.4067 16.6179 28.4239 16.8172 30.2295 17.6217" stroke="white" stroke-width="2" stroke-linecap="round" stroke-linejoin="round"/>
<path d="M35.6667 18.666L26.5 27.8418L23.75 25.0918" stroke="white" stroke-width="2" stroke-linecap="round" stroke-linejoin="round"/>
</svg>
