<svg width="216" height="186" viewBox="0 0 216 186" fill="none" xmlns="http://www.w3.org/2000/svg">
<g clip-path="url(#clip0_281_78881)">
<path d="M197.105 25.6551C188.627 11.8832 174.444 2.44362 158.383 0.436461C152.381 -0.323676 146.289 -0.0852013 140.367 1.14195C122.206 4.97741 106.403 18.5307 99.8489 35.8847C95.995 46.0894 94.9209 57.8442 87.611 65.9424C78.0933 76.4849 61.9419 76.8178 47.7399 76.3756C33.5378 75.9334 17.3715 76.311 7.90351 86.8983C1.97604 93.5309 0.0913806 102.941 0.568761 111.834C1.83183 135.338 18.4357 156.359 39.5498 166.802C60.6639 177.245 85.5175 178.184 108.626 173.589C140.993 167.13 171.779 149.473 190.278 122.168C207.975 96.0547 213.028 60.8947 200.492 32.0989C199.512 29.8731 198.383 27.7219 197.105 25.6551Z" fill="#EBEBEB"/>
<path d="M204.477 100.899L187.833 117.091L172.497 146.329L155.252 179.392L134.063 169.456L111.159 157.741L125.808 129.779L134.914 98.4797C128.479 102.742 116.514 108.55 102.243 105.52C86.7578 102.241 94.192 43.9138 94.192 43.9138L111.209 43.4766L112.919 84.5985L132.139 76.1128L132.169 76.1823C133.327 75.6855 134.342 75.1887 134.879 74.9154C145.515 69.1175 152.497 68.417 163.909 72.486L180.374 77.951C184.606 79.9383 200.205 87.6142 204.477 100.899Z" fill="#FF8113"/>
<path d="M146.235 71.2637C146.235 71.2637 145.852 71.4823 145.205 71.9443C144.3 72.6051 143.495 73.3901 142.818 74.2843C141.824 75.6158 141.033 77.0864 140.471 78.6514C139.785 80.5741 139.198 82.5266 138.716 84.5089L135.792 95.2552C135.409 96.6016 135.101 97.7045 134.872 98.4994C134.767 98.8621 134.678 99.1552 134.613 99.3788C134.588 99.4831 134.554 99.5875 134.504 99.6819C134.509 99.5775 134.529 99.4682 134.564 99.3689C134.618 99.1353 134.688 98.8422 134.777 98.4746C134.981 97.6697 135.275 96.5618 135.613 95.2055C136.349 92.4233 137.353 88.6325 138.467 84.4394C138.954 82.4521 139.551 80.4896 140.247 78.5669C140.829 76.9871 141.645 75.5065 142.674 74.175C143.375 73.2758 144.216 72.4958 145.16 71.8599C145.414 71.686 145.683 71.532 145.956 71.3928C146.046 71.3432 146.14 71.2984 146.235 71.2637Z" fill="#263238"/>
<g opacity="0.3">
<path d="M140.025 79.5059C135.266 92.3785 126.708 99.5725 114.59 106.021C121.746 105.231 128.603 102.722 134.575 98.708" fill="black"/>
</g>
<g opacity="0.3">
<path d="M155.186 70.3438C157.199 102.597 159.218 134.851 161.232 167.1L155.265 179.391L155.186 70.3438Z" fill="black"/>
</g>
<path d="M137.364 166.46C137.364 166.5 136.742 166.256 135.743 165.933C133.142 165.099 130.407 164.726 127.677 164.835C126.628 164.875 125.982 164.95 125.977 164.905C126.121 164.85 126.27 164.815 126.424 164.801C126.713 164.746 127.14 164.696 127.667 164.652C130.422 164.443 133.192 164.82 135.793 165.764C136.191 165.908 136.573 166.072 136.951 166.261C137.101 166.306 137.24 166.371 137.364 166.46Z" fill="#FAFAFA"/>
<path d="M143.059 169.191C143.461 169.4 143.839 169.658 144.182 169.961C145.903 171.323 147.459 172.878 148.822 174.597C149.125 174.94 149.384 175.317 149.593 175.72C149.265 175.412 148.956 175.079 148.678 174.726C148.131 174.095 147.355 173.236 146.455 172.336C145.555 171.437 144.695 170.667 144.063 170.116C143.705 169.832 143.372 169.524 143.059 169.191Z" fill="#FAFAFA"/>
<path d="M167.962 40.4901C167.733 38.4332 167.708 36.3515 167.887 34.2897C168.071 32.213 168.867 30.2357 170.175 28.611C171.532 27.0411 173.621 26.0325 175.675 26.2959C176.948 26.4598 178.161 27.0858 179.429 27.051C180.921 27.0063 182.199 26.0922 183.546 25.4811C185.67 24.5172 188.052 24.2688 190.329 24.7706C191.528 24.9992 192.642 25.5606 193.537 26.3903C194.432 27.2448 194.825 28.4968 194.576 29.709C196.078 29.6444 197.584 29.7736 199.051 30.1015C200.523 30.4344 201.806 31.3237 202.627 32.5856C203.368 33.8823 203.318 35.6858 202.254 36.7341C203.706 36.5403 205.068 37.4694 205.416 38.8903C205.685 40.3062 205.103 41.752 203.925 42.5866C202.532 43.4362 200.886 43.7691 199.275 43.5207C197.893 43.2573 196.292 42.8698 195.183 42.0302" fill="#263238"/>
<path d="M166.883 87.2915C172.592 88.7572 178.42 85.344 179.926 79.6504C180.767 76.4658 181.453 73.7979 181.453 73.7979C181.453 73.7979 189.762 75.2238 192.512 67.3392C195.262 59.4546 199.971 40.9033 199.971 40.9033C192.144 33.9131 181.15 31.6972 171.224 35.1154L169.732 35.6122L159.175 74.0314C157.589 79.7349 160.936 85.6471 166.644 87.227C166.724 87.2468 166.803 87.2717 166.883 87.2915Z" fill="#B78876"/>
<path d="M181.501 73.6887C177.832 72.536 174.589 70.3153 172.188 67.3145C172.188 67.3145 172.715 73.8079 180.835 75.7604L181.501 73.6887Z" fill="#AA6550"/>
<path d="M167.986 44.1475C167.872 44.0431 163.098 40.7244 161.462 46.1795C159.826 51.6346 165.639 52.1413 165.694 51.9973C165.749 51.8532 167.986 44.1475 167.986 44.1475Z" fill="#B78876"/>
<path d="M164.634 49.4277C164.634 49.4277 164.52 49.4675 164.336 49.4923C164.087 49.5122 163.838 49.4377 163.64 49.2837C163.142 48.9011 162.919 47.8379 163.187 46.8492C163.311 46.3773 163.54 45.9401 163.858 45.5674C164.072 45.2594 164.42 45.0756 164.793 45.0706C165.042 45.0706 165.256 45.2495 165.291 45.4979C165.32 45.6718 165.251 45.7711 165.291 45.791C165.33 45.8109 165.435 45.7314 165.455 45.4929C165.465 45.3488 165.425 45.2097 165.345 45.0905C165.226 44.9265 165.047 44.8222 164.848 44.7924C164.366 44.7427 163.893 44.9514 163.6 45.3389C163.227 45.7413 162.953 46.2282 162.814 46.7598C162.516 47.8677 162.769 49.0651 163.49 49.5321C163.764 49.706 164.097 49.7507 164.405 49.6463C164.599 49.5569 164.664 49.4476 164.634 49.4277Z" fill="#AA6550"/>
<path d="M193.282 52.2904C193.078 52.9114 192.417 53.2542 191.79 53.0604C191.179 52.9064 190.811 52.2904 190.965 51.6793C190.965 51.6693 190.965 51.6644 190.97 51.6544C191.169 51.0433 191.82 50.7005 192.437 50.8794C193.053 51.0235 193.436 51.6346 193.292 52.2506C193.292 52.2655 193.287 52.2755 193.282 52.2904Z" fill="#263238"/>
<path d="M194.754 51.524C194.565 51.6233 193.923 50.7092 192.71 50.3018C191.496 49.8944 190.397 50.2074 190.318 50.0136C190.273 49.9292 190.507 49.7106 190.989 49.5566C191.641 49.3628 192.337 49.3827 192.978 49.6063C193.61 49.8149 194.162 50.2223 194.545 50.7638C194.808 51.1762 194.843 51.4842 194.754 51.524Z" fill="#263238"/>
<path d="M181.347 48.2911C181.148 48.9022 180.497 49.245 179.88 49.0661C179.268 48.9121 178.9 48.2961 179.055 47.685C179.055 47.675 179.055 47.6701 179.06 47.6601C179.258 47.049 179.91 46.7013 180.527 46.8851C181.138 47.0391 181.506 47.6552 181.352 48.2663C181.352 48.2762 181.352 48.2812 181.347 48.2911Z" fill="#263238"/>
<path d="M182.75 47.7497C182.561 47.8541 181.914 46.9349 180.701 46.5275C179.488 46.1202 178.394 46.4332 178.309 46.2394C178.269 46.1549 178.498 45.9363 178.985 45.7873C179.637 45.5935 180.333 45.6084 180.974 45.832C181.606 46.0407 182.158 46.4481 182.546 46.9896C182.799 47.402 182.839 47.71 182.75 47.7497Z" fill="#263238"/>
<path d="M184.133 58.2268C184.133 58.1573 184.949 58.2765 186.222 58.5299C186.545 58.6044 186.858 58.6392 186.983 58.4454C187.117 58.1325 187.152 57.7847 187.082 57.4518C187.042 56.6022 187.002 55.7129 186.958 54.7839C186.813 51.0031 186.818 47.9327 186.958 47.9277C187.097 47.9228 187.351 50.9882 187.495 54.769C187.525 55.698 187.549 56.5873 187.574 57.4369C187.644 57.8741 187.559 58.3212 187.331 58.7038C187.167 58.8926 186.923 58.9969 186.669 58.987C186.48 58.977 186.296 58.9423 186.117 58.8826C184.879 58.5398 184.113 58.2914 184.133 58.2268Z" fill="#263238"/>
<path d="M180.279 57.8651C180.478 57.9197 180.04 59.2363 180.856 60.5479C181.671 61.8595 183.118 62.1874 183.069 62.3712C183.069 62.4607 182.666 62.5252 182.074 62.3414C181.298 62.093 180.637 61.5813 180.204 60.8907C179.787 60.2299 179.642 59.435 179.806 58.6699C179.936 58.1035 180.189 57.8253 180.279 57.8651Z" fill="#263238"/>
<path d="M195.022 49.2443C194.719 49.448 193.978 48.8816 192.978 48.5289C191.979 48.1761 191.059 48.0917 190.96 47.7389C190.92 47.57 191.148 47.3365 191.606 47.2024C192.844 46.9043 194.137 47.3862 194.883 48.4146C195.142 48.817 195.161 49.14 195.022 49.2443Z" fill="#263238"/>
<path d="M182.64 42.8254C182.456 42.9248 182.143 42.7608 181.79 42.5472C181.333 42.2739 180.855 42.0404 180.358 41.8467C179.856 41.6678 179.339 41.5287 178.811 41.4393C178.389 41.3548 178.061 41.2902 177.986 41.0915C177.911 40.8928 178.15 40.5947 178.687 40.396C180.159 39.9339 181.755 40.5251 182.566 41.8367C182.839 42.3584 182.814 42.7459 182.64 42.8254Z" fill="#263238"/>
<path d="M199.558 43.481C195.406 43.2376 191.438 41.6825 188.23 39.0345C184.66 36.1132 180.189 34.0663 178.971 34.6426C177.753 35.2189 176.594 39.3127 172.328 39.6108C172.328 39.6108 170.806 47.5848 167.713 46.5663C164.62 45.5478 169.379 33.7632 169.379 33.7632L177.957 31.7461L186.743 32.069L194.635 33.8576L201.463 37.7775L199.558 43.481Z" fill="#263238"/>
<path d="M155.252 12.207H43.5996V185.916H155.252V12.207Z" fill="#FAFAFA"/>
<path d="M155.251 185.91C155.251 184.842 155.201 114.293 155.132 12.2014L155.251 12.3207H43.6137L43.7479 12.1915C43.7479 77.911 43.7479 138.424 43.7181 185.9L43.6137 185.796L155.266 185.9L43.6137 186H43.5142V185.91C43.5142 138.434 43.5142 77.921 43.4844 12.2014V12.0723H155.385V12.1915C155.301 114.298 155.251 184.847 155.251 185.91Z" fill="#263238"/>
<path d="M148.086 22.8984H147.499C147.134 22.8984 146.838 23.1943 146.838 23.5592V168.09C146.838 168.454 147.134 168.75 147.499 168.75H148.086C148.451 168.75 148.747 168.454 148.747 168.09V23.5592C148.747 23.1943 148.451 22.8984 148.086 22.8984Z" fill="#E0E0E0"/>
<path d="M148.086 22.8984H147.499C147.134 22.8984 146.838 23.1943 146.838 23.5592V97.4316C146.838 97.7965 147.134 98.0924 147.499 98.0924H148.086C148.451 98.0924 148.747 97.7965 148.747 97.4316V23.5592C148.747 23.1943 148.451 22.8984 148.086 22.8984Z" fill="#FF8113"/>
<path d="M61.077 66.4336V69.9113H60.5797V66.8708H59.7891V66.4336H61.077Z" fill="#263238"/>
<path d="M61.834 69.6181C61.834 69.4294 61.9881 69.2803 62.1771 69.2853C62.3661 69.2853 62.5152 69.4393 62.5103 69.6281C62.5103 69.8119 62.3561 69.961 62.1721 69.961C61.9881 69.961 61.839 69.8169 61.834 69.6331C61.834 69.6281 61.834 69.6231 61.834 69.6181Z" fill="#263238"/>
<path d="M62.4495 123.767V124.2H59.9631V123.862L61.3853 122.486C61.7582 122.128 61.8279 121.909 61.8279 121.686C61.8279 121.328 61.5693 121.109 61.082 121.109C60.7388 121.09 60.4106 121.229 60.1869 121.487L59.8438 121.194C60.1719 120.831 60.6394 120.637 61.1267 120.662C61.8577 120.662 62.3251 121.04 62.3251 121.656C62.3152 122.088 62.1014 122.496 61.7533 122.754L60.6792 123.787L62.4495 123.767Z" fill="#263238"/>
<path d="M62.9025 123.888C62.8975 123.704 63.0417 123.55 63.2257 123.545C63.2307 123.545 63.2356 123.545 63.2406 123.545C63.4296 123.545 63.5837 123.699 63.5837 123.888C63.5837 124.077 63.4296 124.231 63.2406 124.231C63.0516 124.231 62.9025 124.081 62.9025 123.893C62.9025 123.893 62.9025 123.893 62.9025 123.888Z" fill="#263238"/>
<path d="M136.404 77.7971C136.404 77.8717 119.243 77.9263 98.0796 77.9263C76.9158 77.9263 59.75 77.8717 59.75 77.7971C59.75 77.7226 76.9108 77.668 98.0796 77.668C119.248 77.668 136.404 77.7276 136.404 77.7971Z" fill="#263238"/>
<path d="M136.404 83.594C136.404 83.6636 119.243 83.7232 98.0796 83.7232C76.9158 83.7232 59.75 83.6636 59.75 83.594C59.75 83.5245 76.9108 83.4648 98.0796 83.4648C119.248 83.4648 136.404 83.5195 136.404 83.594Z" fill="#263238"/>
<path d="M136.404 89.387C136.404 89.4615 119.243 89.5162 98.0796 89.5162C76.9158 89.5162 59.75 89.4615 59.75 89.387C59.75 89.3125 76.9108 89.2578 98.0796 89.2578C119.248 89.2578 136.404 89.3174 136.404 89.387Z" fill="#263238"/>
<path d="M136.404 95.1858C136.404 95.2554 119.243 95.315 98.0796 95.315C76.9158 95.315 59.75 95.2554 59.75 95.1858C59.75 95.1163 76.9108 95.0566 98.0796 95.0566C119.248 95.0566 136.404 95.1113 136.404 95.1858Z" fill="#263238"/>
<path d="M136.404 100.979C136.404 101.053 119.243 101.108 98.0796 101.108C76.9158 101.108 59.75 101.053 59.75 100.979C59.75 100.904 76.9108 100.85 98.0796 100.85C119.248 100.85 136.404 100.909 136.404 100.979Z" fill="#263238"/>
<path d="M136.404 106.776C136.404 106.845 119.243 106.905 98.0796 106.905C76.9158 106.905 59.75 106.845 59.75 106.776C59.75 106.706 76.9108 106.646 98.0796 106.646C119.248 106.646 136.404 106.701 136.404 106.776Z" fill="#263238"/>
<path d="M136.404 128.776C136.404 128.845 119.243 128.905 98.0796 128.905C76.9158 128.905 59.75 128.845 59.75 128.776C59.75 128.706 76.9108 128.646 98.0796 128.646C119.248 128.646 136.404 128.716 136.404 128.776Z" fill="#263238"/>
<path d="M136.404 133.744C136.404 133.819 119.243 133.874 98.0796 133.874C76.9158 133.874 59.75 133.819 59.75 133.744C59.75 133.67 76.9108 133.615 98.0796 133.615C119.248 133.615 136.404 133.675 136.404 133.744Z" fill="#E0E0E0"/>
<path d="M136.404 138.711C136.404 138.781 119.243 138.84 98.0796 138.84C76.9158 138.84 59.75 138.781 59.75 138.711C59.75 138.642 76.9108 138.582 98.0796 138.582C119.248 138.582 136.404 138.632 136.404 138.711Z" fill="#EBEBEB"/>
<path d="M141.999 153.531H101.451V168.625H141.999V153.531Z" fill="#FF8113"/>
<path d="M114.958 161.859H112.969L112.556 162.798H112.004L113.705 159.047H114.232L115.937 162.798H115.375L114.958 161.859ZM114.769 161.432L113.958 159.593L113.153 161.432H114.769Z" fill="white"/>
<path d="M116.125 161.378C116.11 160.593 116.737 159.947 117.523 159.932C117.552 159.932 117.587 159.932 117.617 159.932C118.085 159.902 118.532 160.136 118.776 160.538L118.383 160.787C118.214 160.523 117.92 160.369 117.612 160.379C117.065 160.379 116.618 160.827 116.618 161.373C116.618 161.92 117.065 162.367 117.612 162.367C117.92 162.377 118.214 162.223 118.383 161.959L118.776 162.203C118.532 162.605 118.085 162.839 117.617 162.814C116.831 162.854 116.165 162.247 116.125 161.462C116.125 161.433 116.125 161.403 116.125 161.378Z" fill="white"/>
<path d="M119.145 161.378C119.13 160.593 119.756 159.947 120.542 159.932C120.572 159.932 120.607 159.932 120.637 159.932C121.104 159.902 121.552 160.136 121.795 160.538L121.402 160.787C121.233 160.523 120.94 160.369 120.632 160.379C120.085 160.379 119.637 160.827 119.637 161.373C119.637 161.92 120.085 162.367 120.632 162.367C120.94 162.377 121.233 162.223 121.402 161.959L121.795 162.203C121.552 162.605 121.104 162.839 120.637 162.814C119.851 162.854 119.185 162.247 119.145 161.462C119.145 161.433 119.145 161.403 119.145 161.378Z" fill="white"/>
<path d="M124.987 161.566H122.679C122.749 162.072 123.201 162.435 123.709 162.395C124.017 162.405 124.32 162.281 124.529 162.053L124.813 162.385C124.524 162.698 124.111 162.862 123.689 162.843C122.903 162.902 122.222 162.311 122.167 161.531C122.167 161.486 122.167 161.437 122.167 161.392C122.137 160.622 122.734 159.976 123.505 159.946C123.535 159.946 123.564 159.946 123.594 159.946C124.35 159.921 124.982 160.512 125.007 161.268C125.007 161.312 125.007 161.362 125.007 161.407C125.007 161.437 125.007 161.501 124.997 161.566H124.987ZM122.679 161.193H124.499C124.445 160.691 123.997 160.329 123.495 160.378C123.067 160.423 122.724 160.761 122.679 161.193Z" fill="white"/>
<path d="M128.652 161.377C128.691 162.137 128.11 162.783 127.354 162.828C127.309 162.828 127.264 162.828 127.214 162.828C126.832 162.843 126.459 162.669 126.22 162.371V163.837H125.723V159.956H126.22V160.408C126.449 160.09 126.822 159.907 127.214 159.912C127.975 159.877 128.617 160.463 128.652 161.223C128.652 161.273 128.652 161.328 128.652 161.377ZM128.129 161.377C128.11 160.846 127.667 160.433 127.135 160.453C126.603 160.473 126.19 160.915 126.21 161.447C126.23 161.963 126.653 162.371 127.17 162.371C127.687 162.381 128.119 161.973 128.129 161.452C128.129 161.427 128.129 161.402 128.129 161.377Z" fill="white"/>
<path d="M130.963 162.63C130.784 162.764 130.561 162.834 130.337 162.829C129.894 162.878 129.491 162.56 129.437 162.118C129.432 162.059 129.432 161.999 129.437 161.939V160.379H128.939V159.957H129.437V159.336H129.934V159.957H130.75V160.379H129.934V161.919C129.889 162.148 130.038 162.367 130.262 162.411C130.302 162.416 130.337 162.421 130.377 162.416C130.521 162.416 130.665 162.372 130.779 162.282L130.963 162.63Z" fill="white"/>
<path d="M57.8558 168.745C57.8558 168.745 57.821 168.745 57.7564 168.681L57.468 168.457L56.2596 167.528L56.2148 167.493L56.2695 167.468C61.1627 165.595 77.1201 159.614 96.7872 152.29L96.8568 152.266L96.9115 152.31L98.4829 153.572L98.5326 153.612V168.894H98.4033L69.4124 168.845L60.9141 168.81H58.0498C57.9851 168.81 57.9205 168.81 57.8558 168.81H60.9439L69.4522 168.775L98.4033 168.725L98.279 168.85V153.756L98.3287 153.855L96.7573 152.589H96.8816C77.2096 159.902 61.2273 165.814 56.2994 167.593V167.538L57.4729 168.507L57.7614 168.745H57.8558Z" fill="#FF8113"/>
<path d="M96.8268 152.389H56.2793V167.482H96.8268V152.389Z" fill="white"/>
<path d="M96.8312 167.482V163.448C96.8312 160.85 96.8014 157.089 96.7815 152.404L96.871 152.493L56.3235 152.533L56.4528 152.404V167.497L56.3285 167.373L85.3542 167.432L93.8078 167.467H96.876H93.8675L85.4387 167.502L56.3235 167.562H56.1992V152.215H56.3335L96.8809 152.255H96.9705V152.344C96.9705 157.049 96.9307 160.83 96.9207 163.443V167.189C96.9207 167.373 96.8312 167.482 96.8312 167.482Z" fill="#FF8113"/>
<path d="M67.3926 158.868H68.9739C70.0132 158.794 70.9133 159.574 70.9928 160.607C71.0674 161.645 70.2867 162.545 69.2524 162.624C69.1629 162.629 69.0684 162.629 68.9789 162.624H67.3975V158.868H67.3926ZM68.9441 162.157C69.7248 162.222 70.411 161.645 70.4757 160.865C70.5403 160.085 69.9635 159.4 69.1827 159.335C69.1032 159.33 69.0236 159.33 68.9441 159.335H67.9495V162.157H68.9441Z" fill="#FF8113"/>
<path d="M74.3053 161.371H71.998C72.0676 161.878 72.5201 162.241 73.0323 162.201C73.3456 162.216 73.644 162.087 73.8528 161.858L74.1363 162.191C73.5346 162.797 72.55 162.802 71.9433 162.201C71.6748 161.933 71.5107 161.575 71.4858 161.197C71.451 160.432 72.0477 159.781 72.8185 159.747C72.8483 159.747 72.8832 159.747 72.913 159.747C73.6688 159.727 74.3004 160.323 74.3252 161.078C74.3252 161.123 74.3252 161.167 74.3252 161.212C74.3252 161.262 74.3153 161.321 74.3103 161.371H74.3053ZM71.998 161.004H73.823C73.7583 160.502 73.2959 160.144 72.7936 160.209C72.3759 160.263 72.0527 160.586 71.998 161.004Z" fill="#FF8113"/>
<path d="M74.768 161.203C74.7481 160.418 75.3747 159.767 76.1604 159.753C76.1952 159.753 76.23 159.753 76.2599 159.753C76.7273 159.723 77.1748 159.956 77.4185 160.359L77.0256 160.612C76.8566 160.349 76.5632 160.195 76.2549 160.205C75.7079 160.205 75.2603 160.652 75.2603 161.198C75.2603 161.745 75.7079 162.192 76.2549 162.192C76.5632 162.202 76.8566 162.048 77.0256 161.785L77.4185 162.033C77.1748 162.435 76.7273 162.669 76.2599 162.644C75.4742 162.684 74.8078 162.078 74.768 161.293C74.768 161.263 74.768 161.233 74.768 161.203Z" fill="#FF8113"/>
<path d="M78.0547 158.645H78.552V162.619H78.0547V158.645Z" fill="#FF8113"/>
<path d="M79.457 158.902C79.457 158.714 79.6162 158.56 79.8051 158.565C79.9941 158.57 80.1383 158.724 80.1333 158.912C80.1283 159.101 79.9742 159.245 79.7852 159.24C79.6012 159.235 79.457 159.086 79.457 158.902ZM79.5515 159.782H80.0488V162.624H79.5515V159.782Z" fill="#FF8113"/>
<path d="M83.7426 160.99V162.625H83.2453V161.069C83.2453 160.513 82.9619 160.24 82.4746 160.24C82.0071 160.205 81.6043 160.558 81.5695 161.02C81.5695 161.074 81.5695 161.129 81.5695 161.184V162.649H81.0723V159.808H81.5695V160.235C81.8182 159.927 82.1961 159.753 82.5939 159.778C83.2056 159.753 83.7177 160.225 83.7426 160.836C83.7426 160.886 83.7426 160.94 83.7426 160.99Z" fill="#FF8113"/>
<path d="M87.2732 161.371H84.9659C85.0355 161.878 85.488 162.241 85.9952 162.201C86.3085 162.216 86.6069 162.087 86.8157 161.858L87.0992 162.191C86.4975 162.797 85.5129 162.802 84.9062 162.201C84.6377 161.933 84.4736 161.575 84.4487 161.197C84.4139 160.432 85.0106 159.781 85.7814 159.747C85.8112 159.747 85.846 159.747 85.8759 159.747C86.6317 159.727 87.2633 160.323 87.2881 161.078C87.2881 161.123 87.2881 161.167 87.2881 161.212C87.2881 161.262 87.2881 161.321 87.2782 161.371H87.2732ZM84.9659 161.004H86.7859C86.7312 160.502 86.2836 160.139 85.7814 160.189C85.3537 160.233 85.0106 160.571 84.9659 161.004Z" fill="#FF8113"/>
<path d="M98.4027 168.745C98.353 168.8 97.9602 168.502 97.5275 168.084C97.0949 167.667 96.7816 167.29 96.8314 167.235C96.8811 167.18 97.2739 167.483 97.7066 167.901C98.1392 168.318 98.4525 168.696 98.4027 168.745Z" fill="#FF8113"/>
<path d="M156.33 164.974L162.118 162.192L158.936 152.792L151.944 151.177C151.293 151.028 150.567 150.854 149.761 150.631C148.811 150.368 147.916 149.945 147.111 149.384C146.081 148.733 145.146 147.938 144.336 147.034C143.674 146.135 142.272 146.472 142.272 147.471C142.272 148.47 144.037 150.989 147.175 152.772C150.313 154.556 144.763 155.415 142.755 155.753C140.746 156.091 134.569 157.477 134.201 158.178C133.664 159.201 134.699 159.986 136.688 159.594C138.677 159.201 144.788 158.426 144.947 159.489V159.519C143.943 161.089 144.047 163.126 145.211 164.587C146.335 165.993 148.021 167.756 149.259 167.488C151.586 166.996 156.33 164.974 156.33 164.974Z" fill="#B78876"/>
<path d="M155.977 148.435L161.402 166.763L203.526 153.975C212.457 151.247 217.484 141.807 214.754 132.885C214.719 132.78 214.689 132.671 214.655 132.567L204.326 100.457L181.894 106.021L194.207 135.731L155.977 148.435Z" fill="#FF8113"/>
<path d="M204.476 153.652L204.272 153.727L203.666 153.921L201.309 154.651L192.482 157.354L161.82 166.649L161.706 166.679L161.666 166.57C159.791 160.966 157.971 154.805 155.868 148.475L155.828 148.356L155.952 148.312L157.012 147.964L194.188 135.628L194.128 135.762C191.144 128.558 188.728 122.656 187.037 118.542C186.201 116.495 185.545 114.895 185.097 113.797C184.884 113.256 184.715 112.838 184.6 112.55C184.486 112.262 184.441 112.123 184.441 112.123C184.441 112.123 184.511 112.262 184.63 112.54L185.157 113.772C185.615 114.866 186.286 116.46 187.146 118.497C188.857 122.601 191.313 128.493 194.317 135.687L194.357 135.787L194.252 135.821L157.076 148.207L156.017 148.56L156.097 148.396C158.205 154.73 160.015 160.891 161.885 166.49L161.736 166.411L192.422 157.21L201.284 154.571L203.651 153.881L204.267 153.707L204.476 153.652Z" fill="#263238"/>
<path d="M201.994 141.072C201.954 141.072 201.676 140.61 201.114 139.91C199.637 138.081 197.633 136.75 195.37 136.104C194.505 135.856 193.948 135.786 193.953 135.741C194.082 135.716 194.222 135.716 194.351 135.741C194.709 135.776 195.067 135.836 195.415 135.92C196.579 136.203 197.683 136.68 198.677 137.341C199.677 138.002 200.547 138.827 201.258 139.79C201.472 140.079 201.666 140.387 201.835 140.705C201.909 140.819 201.964 140.943 201.994 141.072Z" fill="#263238"/>
<g opacity="0.2">
<path d="M193.854 134.971C196.101 135.2 198.354 135.433 200.597 135.716C201.377 135.771 202.148 135.94 202.884 136.213C203.62 136.501 204.212 137.078 204.515 137.808C204.803 138.563 204.55 139.418 203.893 139.89C203.247 140.222 202.471 140.188 201.855 139.8C201.253 139.418 200.691 138.975 200.174 138.484C199.164 137.649 197.986 137.033 196.723 136.68C196.146 136.571 195.589 136.377 195.072 136.104C194.54 135.811 194.256 135.209 194.356 134.613" fill="black"/>
</g>
</g>
<defs>
<clipPath id="clip0_281_78881">
<rect width="215" height="186" fill="white" transform="translate(0.5)"/>
</clipPath>
</defs>
</svg>
